<svg width="64" height="64" viewBox="0 0 64 64" fill="none" xmlns="http://www.w3.org/2000/svg">
<g clip-path="url(#clip0_13_15177)">
<mask id="mask0_13_15177" style="mask-type:luminance" maskUnits="userSpaceOnUse" x="0" y="0" width="64" height="64">
<path d="M63.8574 0H0V63.8574H63.8574V0Z" fill="white"/>
</mask>
<g mask="url(#mask0_13_15177)">
<path d="M31.9287 63.8233C38.2436 63.8233 44.4167 61.9507 49.6674 58.4423C54.918 54.9339 59.0104 49.9473 61.427 44.1131C63.8436 38.2789 64.4759 31.8591 63.2439 25.6656C62.012 19.472 58.971 13.7828 54.5057 9.31754C50.0404 4.85223 44.3513 1.81131 38.1577 0.579336C31.9641 -0.65264 25.5443 -0.0203454 19.7101 2.39626C13.8759 4.81287 8.88933 8.90525 5.38096 14.1559C1.87259 19.4066 0 25.5796 0 31.8945C0 40.3626 3.36391 48.4838 9.35171 54.4716C15.3395 60.4594 23.4607 63.8233 31.9287 63.8233Z" fill="#F6F8F9"/>
<path d="M44.4871 41.6084C44.4871 41.6084 38.7903 44.2314 34.5917 45.2331C30.3931 46.2349 23.3104 42.6062 23.3104 42.6062C19.983 44.899 16.9062 55.5178 14.1309 58.4548C19.7024 62.1769 26.3017 64.0562 32.9982 63.8278C39.6947 63.5994 46.1506 61.2747 51.4555 57.1816C47.3327 51.6859 44.4871 41.6084 44.4871 41.6084Z" fill="#E8ECEE"/>
<path d="M54.9781 39.7397C49.3905 33.4457 50.516 32.0608 51.7173 25.5074C52.9187 18.9541 46.4691 5.9511 33.1668 12.8836C33.1668 12.8836 23.2369 7.26816 16.1168 18.1638C11.0202 25.9185 15.7776 37.7521 14.4286 47.0793C13.9776 50.2721 12.8322 53.1457 10.3457 55.4606C11.5437 56.5519 12.8203 57.5538 14.1652 58.4579C16.9411 55.5215 20.0179 52.8849 23.3447 50.5914L24.7735 48.6917C26.1225 46.6961 27.9943 43.4115 27.9664 40.4181C27.9265 35.6608 20.6188 36.1477 21.0698 32.5876C21.5208 29.0276 26.3899 33.785 26.3899 33.785L24.8852 28.6883L27.679 28.3531C31.1273 27.7145 36.7867 25.8786 38.6984 20.5984C39.162 21.2269 39.6617 21.8279 40.1951 22.3984C41.5362 23.9258 43.1028 25.2394 44.8407 26.2937C44.8407 26.2937 47.2353 35.545 41.8833 37.9038C41.5753 38.0375 41.2743 38.1867 40.9813 38.3508C37.1978 40.5259 37.8363 44.1219 42.442 48.0531L44.5054 49.6256C44.5054 49.6256 47.3551 51.7249 51.4739 57.2086C53.8339 55.3787 55.9279 53.2296 57.696 50.8229C58.5852 49.6231 59.3856 48.3599 60.0906 47.0433C58.6751 44.419 56.9594 41.968 54.9781 39.7397Z" fill="#9CA6AF"/>
<path d="M40.9621 38.2791C41.2255 38.1275 41.5249 37.9798 41.8601 37.8281C47.2202 35.5452 44.8215 26.254 44.8215 26.254C43.0888 25.1892 41.5233 23.8739 40.1759 22.3507C39.6416 21.7813 39.1406 21.1816 38.6752 20.5547C36.7635 25.8349 31.0922 27.6708 27.6598 28.3054C26.7373 28.4815 25.8039 28.5949 24.8661 28.6446L26.3428 33.7452C26.3428 33.7452 21.4337 28.9879 21.0227 32.5479C20.6116 36.108 27.8833 35.657 27.9392 40.3744C27.9791 43.3717 26.1033 46.6285 24.7463 48.6519C25.1265 49.2606 25.5396 49.8482 25.9836 50.412L41.01 49.7016C41.0499 49.7016 41.1258 49.7375 41.1617 49.7375H41.3852C42.0238 48.7278 42.3989 48.0134 42.3989 48.0134C37.7892 44.1221 37.1506 40.4862 40.9382 38.315" fill="#CBD4DB"/>
<path d="M39.978 38.8902C38.4507 40.1281 36.4998 40.7197 34.5422 40.5385C34.4703 40.5385 34.4703 40.2751 34.5422 40.2751C36.3476 39.8513 38.1255 39.3182 39.8663 38.6787C39.9102 38.6268 40.0538 38.8503 39.978 38.8902Z" fill="#9CA6AF"/>
</g>
</g>
<defs>
<clipPath id="clip0_13_15177">
<rect width="64" height="64" fill="white"/>
</clipPath>
</defs>
</svg>
