<svg width="64" height="64" viewBox="0 0 64 64" fill="none" xmlns="http://www.w3.org/2000/svg">
<g clip-path="url(#clip0_13_15212)">
<mask id="mask0_13_15212" style="mask-type:luminance" maskUnits="userSpaceOnUse" x="0" y="0" width="64" height="64">
<path d="M64 0H0V64H64V0Z" fill="white"/>
</mask>
<g mask="url(#mask0_13_15212)">
<path d="M32 63.9649C38.329 63.9649 44.5159 62.0881 49.7783 58.5719C55.0406 55.0557 59.1422 50.058 61.5642 44.2107C63.9862 38.3635 64.6199 31.9293 63.3851 25.722C62.1504 19.5146 59.1027 13.8127 54.6274 9.33744C50.1521 4.86216 44.4503 1.81445 38.2429 0.57973C32.0355 -0.654998 25.6014 -0.021291 19.7541 2.40071C13.9069 4.82272 8.90918 8.92424 5.39297 14.1866C1.87677 19.449 0 25.6358 0 31.9649C0 40.4518 3.37142 48.5911 9.37258 54.5923C15.3737 60.5934 23.5131 63.9649 32 63.9649Z" fill="#F6F8F9"/>
<path d="M44.5861 41.7012C44.5861 41.7012 38.8766 44.33 34.6686 45.334C30.4606 46.338 23.3621 42.7012 23.3621 42.7012C20.0273 44.9991 16.9437 55.6416 14.1621 58.5852C19.746 62.3156 26.3601 64.1991 33.0716 63.9702C39.783 63.7413 46.2533 61.4114 51.5701 57.3092C47.4381 51.8012 44.5861 41.7012 44.5861 41.7012Z" fill="#E8ECEE"/>
<path d="M55.0992 39.8274C49.4992 33.5194 50.6272 32.1315 51.8312 25.5635C53.0352 18.9955 46.5712 5.96349 33.2392 12.9114C33.2392 12.9114 23.2872 7.28349 16.1512 18.2035C11.0432 25.9755 15.8112 37.8355 14.4592 47.1835C14.0072 50.3835 12.8592 53.2635 10.3672 55.5835C11.5678 56.6773 12.8473 57.6813 14.1952 58.5874C16.9774 55.6446 20.0609 53.0021 23.3952 50.7034L24.8272 48.7994C26.1792 46.7994 28.0552 43.5074 28.0272 40.5074C27.9872 35.7394 20.6632 36.2275 21.1152 32.6595C21.5672 29.0915 26.4472 33.8595 26.4472 33.8595L24.9392 28.7514L27.7392 28.4155C31.1952 27.7755 36.8672 25.9354 38.7832 20.6434C39.2478 21.2734 39.7486 21.8757 40.2832 22.4475C41.6273 23.9783 43.1974 25.2948 44.9392 26.3514C44.9392 26.3514 47.3392 35.6234 41.9752 37.9874C41.6665 38.1215 41.3648 38.2711 41.0712 38.4354C37.2792 40.6154 37.9192 44.2194 42.5352 48.1594L44.6032 49.7354C44.6032 49.7354 47.4592 51.8394 51.5872 57.3354C53.9524 55.5015 56.0512 53.3475 57.8232 50.9354C58.7144 49.733 59.5166 48.4669 60.2232 47.1474C58.8045 44.5172 57.085 42.0607 55.0992 39.8274Z" fill="#9CA6AF"/>
<path d="M41.0536 38.3646C41.3176 38.2126 41.6176 38.0646 41.9536 37.9126C47.3256 35.6246 44.9216 26.3126 44.9216 26.3126C43.185 25.2455 41.616 23.9272 40.2656 22.4006C39.7301 21.8299 39.228 21.2289 38.7616 20.6006C36.8456 25.8926 31.1616 27.7326 27.7216 28.3686C26.797 28.5451 25.8615 28.6587 24.9216 28.7086L26.4016 33.8206C26.4016 33.8206 21.4816 29.0526 21.0696 32.6206C20.6576 36.1886 27.9456 35.7366 28.0016 40.4646C28.0416 43.4686 26.1616 46.7326 24.8016 48.7606C25.1826 49.3706 25.5965 49.9595 26.0416 50.5246L41.1016 49.8126C41.1416 49.8126 41.2176 49.8486 41.2536 49.8486H41.4776C42.1176 48.8366 42.4936 48.1206 42.4936 48.1206C37.8736 44.2206 37.2336 40.5766 41.0296 38.4006" fill="#CBD4DB"/>
<path d="M40.0664 38.9756C38.5357 40.2163 36.5805 40.8092 34.6185 40.6276C34.5465 40.6276 34.5465 40.3636 34.6185 40.3636C36.4279 39.9389 38.2098 39.4046 39.9544 38.7636C39.9984 38.7116 40.1424 38.9356 40.0664 38.9756Z" fill="#9CA6AF"/>
<mask id="mask1_13_15212" style="mask-type:luminance" maskUnits="userSpaceOnUse" x="0" y="0" width="64" height="64">
<path d="M64 0H0V64H64V0Z" fill="white"/>
</mask>
<g mask="url(#mask1_13_15212)">
<path d="M64 32.0048C64.0011 39.6646 61.2546 47.0709 56.2594 52.8777C51.264 58.6848 44.3515 62.5072 36.7774 63.6509L36.5026 63.6885C30.0461 64.6061 23.4634 63.5291 17.6358 60.6018C11.8084 57.6744 7.01437 53.0365 3.89587 47.309C0.777384 41.5816 -0.516749 35.0381 0.186784 28.5547C0.890316 22.0713 3.55792 15.9577 7.83238 11.0324C12.1068 6.10723 17.7842 2.60555 24.1038 0.996357C30.4235 -0.612841 37.0842 -0.252739 43.1936 2.02845C49.303 4.30962 54.5696 8.40298 58.2882 13.7603C62.0067 19.1177 63.9995 25.4833 64 32.0048Z" fill="#F6F8F9"/>
<path d="M41.3887 20.6191C41.3887 20.6191 52.7279 27.3956 54.7948 36.6492C54.7948 36.6492 51.7829 40.1843 47.6719 40.6548L41.3887 20.6191Z" fill="#CBD4DB"/>
<path d="M24.4127 30.8946L27.6954 25.978L31.3698 19.6306L33.8583 19.3935L38.854 19.4122C39.173 19.4338 39.4927 19.381 39.7877 19.258C40.5783 18.9116 44.6818 23.4932 44.6818 23.4932L45.7133 26.6631C47.0612 31.1544 49.734 37.498 46.8729 41.9177C45.5628 43.9356 43.2549 45.1365 40.8983 45.626C38.5415 46.1153 37.8149 45.9082 35.4132 45.7615C36.4183 48.9802 37.3783 51.3031 38.4249 54.074L40.2809 59.1073C40.2809 59.1073 34.886 62.793 31.7538 62.8946C27.2663 63.0377 23.3359 59.6231 23.5693 59.4085C24.1039 58.9229 23.5693 44.5341 23.5957 45.5921L23.1439 41.2551C23.1439 41.2551 14.8428 35.4951 16.7439 30.985C17.3727 29.4791 20.2074 29.6786 21.9429 31.2672L24.4127 30.8946Z" fill="#E8ECEE"/>
<path d="M25.6494 29.76C28.8533 29.76 36.6009 28.8376 38.7205 19.825C38.7205 19.825 41.1073 25.679 45.2785 24.4254C45.2785 24.4254 45.9675 12.3783 34.8429 10.8724C31.5941 10.4468 28.2929 11.0248 25.3821 12.5289C20.0249 15.2545 11.3473 21.9406 13.5722 36.0507C14.0261 39.055 15.5731 41.7859 17.9168 43.7195C20.552 45.8502 24.6329 47.4051 30.5398 45.1125C30.5398 45.1125 26.1689 38.7125 25.6456 30.528L25.6494 29.76Z" fill="#CBD4DB"/>
<path d="M30.6202 5.84338C31.3587 6.9264 31.8562 8.15535 32.0789 9.44716C32.3018 10.739 32.2447 12.0635 31.9115 13.3314C31.7946 13.8735 31.5493 14.3796 31.1962 14.8071C30.4207 15.6542 29.1407 15.7483 27.9925 15.7747C26.0311 15.8236 24.0471 15.8424 22.1421 15.3982C20.2371 14.954 18.3775 13.9563 17.248 12.345C14.2136 7.98925 18.2946 5.56855 21.6451 3.8142C22.9741 3.11396 24.1901 2.17279 25.7863 2.40244C27.6951 2.66973 29.5661 4.31868 30.6202 5.84338Z" fill="#CBD4DB"/>
<path d="M48.0012 59.7164C44.5405 61.7201 40.7333 63.0535 36.7786 63.6468L36.5039 63.6844C36.5039 63.6393 36.5039 63.594 36.5226 63.5489C36.5226 63.417 36.5641 63.2853 36.5829 63.1535C36.613 62.9389 36.6431 62.7319 36.6732 62.5249L36.7071 62.2914C36.7071 62.1823 36.741 62.073 36.7561 61.9677L36.8125 61.5913C36.8125 61.5084 36.8351 61.4218 36.8501 61.3389C36.8652 61.2561 36.869 61.2073 36.8804 61.1433C36.8916 61.0793 36.8804 61.0679 36.8804 61.0303C36.8804 60.906 36.9141 60.7855 36.933 60.6538C36.933 60.6538 36.933 60.6313 36.933 60.6199C36.9781 60.3113 37.0196 60.0138 37.0649 59.7202L37.0874 59.5583C37.2605 58.361 37.4111 57.2994 37.5391 56.3959C37.6671 55.4924 37.765 54.7809 37.8365 54.2839C37.8666 54.0655 37.893 53.9074 37.9081 53.7605C37.9231 53.6138 37.9345 53.5949 37.9381 53.5535C37.9389 53.5449 37.9389 53.5359 37.9381 53.5273L38.2205 53.6514C41.7167 55.2653 45.0015 57.3021 48.0012 59.7164Z" fill="#9CA6AF"/>
<path d="M26.0478 63.4439C22.0471 62.6929 18.2281 61.1796 14.7988 58.9865C17.6012 56.9446 20.6198 55.2175 23.8003 53.8364L23.9734 53.7686C23.9734 53.7686 24.4439 56.0274 25.1631 59.363C25.2798 59.9126 25.4078 60.4924 25.5396 61.0948C25.6977 61.8401 25.8708 62.6308 26.0478 63.4439Z" fill="#9CA6AF"/>
<path d="M37.9623 53.5156C37.961 53.5244 37.961 53.5332 37.9623 53.542C37.9397 53.8582 37.7063 56.8889 37.1567 60.9924C37.0437 61.8356 36.9195 62.7241 36.7802 63.6465L36.5053 63.6841C33.0307 64.1753 29.4991 64.0939 26.0507 63.4432C25.8738 62.63 25.7007 61.8395 25.5387 61.0902C25.4107 60.4879 25.2827 59.9081 25.1623 59.3585C24.4432 56.0191 23.9727 53.7641 23.9727 53.7641C26.2808 54.1916 28.6205 54.4271 30.9675 54.4681C33.3271 54.4102 35.6731 54.0908 37.9623 53.5156Z" fill="#CBD4DB"/>
</g>
</g>
</g>
<defs>
<clipPath id="clip0_13_15212">
<rect width="64" height="64" fill="white"/>
</clipPath>
</defs>
</svg>
