<svg width="65" height="64" viewBox="0 0 65 64" fill="none" xmlns="http://www.w3.org/2000/svg">
<g clip-path="url(#clip0_13_15243)">
<path d="M32.4147 63.8293C50.0406 63.8293 64.3293 49.5406 64.3293 31.9147C64.3293 14.2887 50.0406 0 32.4147 0C14.7887 0 0.5 14.2887 0.5 31.9147C0.5 49.5406 14.7887 63.8293 32.4147 63.8293Z" fill="#F6F8F9"/>
<path d="M33.2037 24.3999C32.6703 24.3999 32.153 24.3999 31.625 24.3652C32.153 24.3999 32.6757 24.3999 33.2037 24.3999Z" fill="#FF727F"/>
<path d="M28.1795 24.3114C28.108 24.1787 28.046 24.041 27.9941 23.8994C28.0635 24.0332 28.1253 24.1708 28.1795 24.3114Z" fill="#FF727F"/>
<path d="M28.5918 25.1692L28.4824 24.9492C28.5273 25.0181 28.564 25.0919 28.5918 25.1692Z" fill="#FF727F"/>
<path d="M27.9941 23.8994C28.4808 24.0087 28.9688 24.1194 29.5315 24.1941C28.9821 24.1194 28.4808 24.0087 27.9941 23.8994Z" fill="#FF727F"/>
<path d="M30.0996 24.2363H30.3943C30.2968 24.2537 30.1971 24.2537 30.0996 24.2363Z" fill="#FF727F"/>
<path d="M23.6101 28.8817C24.9821 26.2604 27.3915 34.7217 30.0195 32.1004C30.8021 31.3177 30.5408 29.8564 29.9781 28.319C29.5817 27.2438 29.1236 26.1922 28.6061 25.1697L28.4995 24.9497C28.4595 24.9097 28.4595 24.875 28.4248 24.799L28.1981 24.347V24.3124C28.1272 24.1793 28.0652 24.0417 28.0128 23.9004C28.4995 24.0097 28.9875 24.1204 29.5501 24.195C29.7355 24.2364 29.9208 24.2364 30.1128 24.271C30.209 24.2966 30.3079 24.3105 30.4075 24.3124C30.6351 24.3412 30.8647 24.3528 31.0941 24.347H31.6568C32.1901 24.387 32.6715 24.387 33.2341 24.387C34.2088 24.387 35.1835 24.347 36.1928 24.271H36.2675C36.5558 24.2854 36.8448 24.2598 37.1261 24.195H37.2221C37.5351 24.2054 37.8482 24.1804 38.1555 24.1204H38.2648L39.1981 24.0097H39.2741C40.6461 23.859 41.9288 23.6737 43.0888 23.447C46.4221 22.851 48.9008 22.1364 48.9008 21.691C48.9008 21.691 45.6755 16.7777 42.1901 14.719C40.0568 13.4497 38.4435 12.0977 29.2688 13.9297C21.9608 15.3964 17.4661 17.7524 17.3568 20.1884C17.1648 24.1204 20.8421 39.635 26.0435 40.087C26.1221 40.1217 23.0475 29.9657 23.6101 28.8817Z" fill="#9CA6AF"/>
<path d="M37.322 49.4121C37.326 49.4758 37.3141 49.5395 37.2873 49.5974C37.2728 49.7366 37.2474 49.8743 37.2113 50.0094C37.0953 50.7988 36.8753 52.2948 36.6087 54.2028C36.6129 54.2445 36.6004 54.2862 36.574 54.3188L36.4633 55.0054V55.0468C36.4633 55.1561 36.4233 55.2321 36.4233 55.3481C36.4233 55.4641 36.3887 55.4921 36.3887 55.6148C36.3795 55.6775 36.3657 55.7394 36.3473 55.8001V56.1014C36.3473 56.2188 36.306 56.2868 36.306 56.3681C36.3111 56.4319 36.2991 56.4958 36.2713 56.5534C36.23 56.7041 36.23 56.8894 36.1967 57.0401C36.1706 57.1385 36.1567 57.2397 36.1553 57.3414C36.1553 57.4174 36.1207 57.5268 36.1207 57.6081V57.8748C36.1207 57.9494 36.0793 58.0668 36.0793 58.1414C36.0793 58.2161 36.046 58.3268 36.046 58.4374C36.046 58.5481 36.0047 58.6294 36.0047 58.7388V59.0054C36.0047 59.0801 35.9633 59.1908 35.9633 59.2721C35.9583 59.4011 35.9326 59.5285 35.8873 59.6494V59.9161C35.8732 60.0798 35.8483 60.2424 35.8127 60.4028C35.8142 60.456 35.7998 60.5085 35.7713 60.5534C35.7367 60.7054 35.7367 60.8561 35.702 60.9654C35.6744 61.0378 35.6604 61.1147 35.6607 61.1921C35.6553 61.3188 35.6301 61.4439 35.586 61.5628V61.7548C35.5715 61.9053 35.5461 62.0546 35.51 62.2014C35.5124 62.2548 35.498 62.3075 35.4687 62.3521C35.394 62.7294 35.3593 63.1414 35.2833 63.5121C35.2897 63.5647 35.278 63.6178 35.25 63.6628C40.4924 63.1886 45.5365 61.4266 49.934 58.5334C46.4229 54.6347 42.1242 51.5257 37.322 49.4121Z" fill="#9CA6AF"/>
<path d="M26.1972 49.6006C21.6066 51.5853 17.4464 54.4453 13.9492 58.0206C18.4676 61.2339 23.7475 63.2103 29.2652 63.7539C27.6999 56.7553 26.1972 49.6006 26.1972 49.6006Z" fill="#9CA6AF"/>
<path d="M35.783 59.9395C35.7946 60.1053 35.7686 60.2717 35.707 60.4261C35.7523 60.2677 35.7778 60.1042 35.783 59.9395Z" fill="#FFC5DA"/>
<path d="M36.4212 55.8145C36.4212 55.9238 36.3865 55.9998 36.3865 56.1171C36.38 56.015 36.3917 55.9125 36.4212 55.8145Z" fill="#FFC5DA"/>
<path d="M35.8989 59.2998C35.8909 59.4262 35.8658 59.5509 35.8242 59.6705C35.8429 59.5465 35.8682 59.4225 35.8989 59.2998Z" fill="#FFC5DA"/>
<path d="M35.5994 61.249C35.5943 61.3759 35.5686 61.501 35.5234 61.6197C35.5647 61.4999 35.5902 61.3753 35.5994 61.249Z" fill="#FFC5DA"/>
<path d="M35.4147 62.4092C35.3387 62.7865 35.2987 63.1985 35.2227 63.5692C35.3013 63.1572 35.3733 62.8212 35.4147 62.4092Z" fill="#FFC5DA"/>
<path d="M35.9769 58.7725C35.9769 58.8485 35.9355 58.9645 35.9355 59.0391C35.9355 58.9231 35.9769 58.8485 35.9769 58.7725Z" fill="#FFC5DA"/>
<path d="M36.2315 57.0488C36.2315 57.1662 36.1902 57.2755 36.1902 57.3515C36.1859 57.2489 36.1999 57.1465 36.2315 57.0488Z" fill="#FFC5DA"/>
<path d="M35.5219 61.8115C35.4886 61.9555 35.4886 62.1062 35.4473 62.2582C35.4886 62.1328 35.4886 61.9555 35.5219 61.8115Z" fill="#FFC5DA"/>
<path d="M36.4619 55.3691C36.4619 55.4371 36.4219 55.5131 36.4219 55.6358C36.4526 55.5504 36.4662 55.4598 36.4619 55.3691Z" fill="#FFC5DA"/>
<path d="M36.1607 57.6533C36.1607 57.7227 36.1193 57.8387 36.1193 57.92C36.1114 57.8291 36.1256 57.7376 36.1607 57.6533Z" fill="#FFC5DA"/>
<path d="M36.0511 58.1738C36.0511 58.2845 36.0098 58.3592 36.0098 58.4765C36.0429 58.3792 36.0569 58.2764 36.0511 58.1738Z" fill="#FFC5DA"/>
<path d="M37.2871 49.5999C37.2871 49.5252 37.2871 49.4492 37.3218 49.4492C37.3204 49.5013 37.3086 49.5525 37.2871 49.5999Z" fill="#FFC5DA"/>
<path d="M43.1273 23.4473C41.9273 23.6739 40.6219 23.8593 39.3113 24.0099H39.2366L38.3033 24.1206H38.1926C37.8836 24.1672 37.5717 24.1921 37.2593 24.1953H37.1086C36.8139 24.2366 36.5113 24.2366 36.2513 24.2713H36.1753C35.1659 24.3473 34.1926 24.3873 33.2179 24.3873C32.6846 24.3873 32.1673 24.3873 31.6393 24.3473H31.0566C30.8366 24.3473 30.6099 24.3126 30.3699 24.3126C30.2606 24.3126 30.1846 24.2713 30.0753 24.2713C29.8847 24.2789 29.6943 24.2532 29.5126 24.1953C28.9499 24.1206 28.4619 24.0099 27.9753 23.9006C28.0513 24.0513 28.0846 24.1673 28.1606 24.3126V24.3473L28.3873 24.7993C28.4219 24.7993 28.4219 24.8753 28.4619 24.9499L28.5726 25.1699C29.0901 26.1925 29.5481 27.244 29.9446 28.3193C30.5073 29.8566 30.7686 31.3179 29.9859 32.1006C27.3579 34.7219 24.9633 26.2606 23.5766 28.8819C23.0139 29.9659 26.0886 40.1219 26.0886 40.1219C26.0886 41.1646 26.2739 47.1219 26.1633 49.5979C29.0886 50.288 32.1233 50.3787 35.0846 49.8646C35.7699 49.7553 36.5513 49.5979 37.2939 49.4179L34.1726 42.6673C34.1726 42.6673 45.3366 44.2793 46.5233 38.1339C47.2846 33.9393 44.8153 27.3046 43.1273 23.4473Z" fill="#CBD4DB"/>
<path d="M29.9794 28.3183C29.583 27.243 29.1249 26.1915 28.6074 25.1689C29.0461 26.1089 29.5674 27.2343 29.9794 28.3183Z" fill="#D9E021"/>
<path d="M29.9794 28.3183C29.583 27.243 29.1249 26.1915 28.6074 25.1689C29.0461 26.1089 29.5674 27.2343 29.9794 28.3183Z" fill="url(#paint0_linear_13_15243)"/>
<path d="M28.4829 24.9088C28.4415 24.9088 28.4415 24.8328 28.4082 24.7568C28.4415 24.8328 28.4415 24.8742 28.4829 24.9088Z" fill="#D9E021"/>
<path d="M28.4829 24.9088C28.4415 24.9088 28.4415 24.8328 28.4082 24.7568C28.4415 24.8328 28.4415 24.8742 28.4829 24.9088Z" fill="url(#paint1_linear_13_15243)"/>
<path d="M29.5332 24.1943C29.7185 24.2357 29.9025 24.2357 30.0959 24.2703C29.9108 24.229 29.7226 24.2036 29.5332 24.1943Z" fill="#D9E021"/>
<path d="M29.5332 24.1943C29.7185 24.2357 29.9025 24.2357 30.0959 24.2703C29.9108 24.229 29.7226 24.2036 29.5332 24.1943Z" fill="url(#paint2_linear_13_15243)"/>
<path d="M36.1953 24.3123C36.4966 24.271 36.7993 24.271 37.0593 24.2363C36.7993 24.267 36.5313 24.267 36.1953 24.3123Z" fill="#D9E021"/>
<path d="M36.1953 24.3123C36.4966 24.271 36.7993 24.271 37.0593 24.2363C36.7993 24.267 36.5313 24.267 36.1953 24.3123Z" fill="url(#paint3_linear_13_15243)"/>
<path d="M37.2168 24.2358C37.5181 24.1945 37.8195 24.1945 38.1501 24.1611C37.8377 24.1643 37.5258 24.1892 37.2168 24.2358Z" fill="#D9E021"/>
<path d="M37.2168 24.2358C37.5181 24.1945 37.8195 24.1945 38.1501 24.1611C37.8377 24.1643 37.5258 24.1892 37.2168 24.2358Z" fill="url(#paint4_linear_13_15243)"/>
<path d="M39.2754 24.0099C40.6487 23.8593 41.9421 23.6739 43.0981 23.4473C41.8349 23.7038 40.5589 23.8917 39.2754 24.0099Z" fill="#D9E021"/>
<path d="M39.2754 24.0099C40.6487 23.8593 41.9421 23.6739 43.0981 23.4473C41.8349 23.7038 40.5589 23.8917 39.2754 24.0099Z" fill="url(#paint5_linear_13_15243)"/>
<path d="M36.1624 24.3115C35.1531 24.3862 34.1797 24.4208 33.2051 24.4208C34.1384 24.3995 35.1677 24.3995 36.1624 24.3115Z" fill="#D9E021"/>
<path d="M36.1624 24.3115C35.1531 24.3862 34.1797 24.4208 33.2051 24.4208C34.1384 24.3995 35.1677 24.3995 36.1624 24.3115Z" fill="url(#paint6_linear_13_15243)"/>
<path d="M37.0258 51.6978C36.9098 52.3844 36.8004 53.2698 36.6484 54.2031C36.9151 52.2951 37.1364 50.7711 37.2458 50.0098C37.1671 50.4218 37.0951 50.9844 37.0258 51.6978Z" fill="#002955"/>
<path d="M37.0258 51.6978C36.9098 52.3844 36.8004 53.2698 36.6484 54.2031C36.9151 52.2951 37.1364 50.7711 37.2458 50.0098C37.1671 50.4218 37.0951 50.9844 37.0258 51.6978Z" fill="url(#paint7_linear_13_15243)"/>
<path d="M36.1947 57.3867V57.6534C36.1747 57.5656 36.1747 57.4745 36.1947 57.3867Z" fill="#002955"/>
<path d="M36.1947 57.3867V57.6534C36.1747 57.5656 36.1747 57.4745 36.1947 57.3867Z" fill="url(#paint8_linear_13_15243)"/>
<path d="M36.5323 55.0674C36.5323 55.1767 36.491 55.2527 36.491 55.3701C36.4866 55.2675 36.5006 55.165 36.5323 55.0674Z" fill="#002955"/>
<path d="M36.5323 55.0674C36.5323 55.1767 36.491 55.2527 36.491 55.3701C36.4866 55.2675 36.5006 55.165 36.5323 55.0674Z" fill="url(#paint9_linear_13_15243)"/>
<path d="M36.0859 57.915V58.1816C36.1042 58.0937 36.1042 58.0029 36.0859 57.915Z" fill="#002955"/>
<path d="M36.0859 57.915V58.1816C36.1042 58.0937 36.1042 58.0029 36.0859 57.915Z" fill="url(#paint10_linear_13_15243)"/>
<path d="M36.0093 58.4775C36.0093 58.5869 35.9746 58.6629 35.9746 58.7722C35.9746 58.6669 36.0093 58.5535 36.0093 58.4775Z" fill="#002955"/>
<path d="M36.0093 58.4775C36.0093 58.5869 35.9746 58.6629 35.9746 58.7722C35.9746 58.6669 36.0093 58.5535 36.0093 58.4775Z" fill="url(#paint11_linear_13_15243)"/>
<path d="M36.4214 55.6299C36.4132 55.6923 36.4016 55.7541 36.3867 55.8152C36.4109 55.7565 36.4227 55.6934 36.4214 55.6299Z" fill="#002955"/>
<path d="M36.4214 55.6299C36.4132 55.6923 36.4016 55.7541 36.3867 55.8152C36.4109 55.7565 36.4227 55.6934 36.4214 55.6299Z" fill="url(#paint12_linear_13_15243)"/>
<path d="M36.3477 56.1182V56.3848C36.3645 56.2967 36.3645 56.2063 36.3477 56.1182Z" fill="#002955"/>
<path d="M36.3477 56.1182V56.3848C36.3645 56.2967 36.3645 56.2063 36.3477 56.1182Z" fill="url(#paint13_linear_13_15243)"/>
<path d="M36.3129 56.5625C36.2716 56.7132 36.2716 56.8985 36.2383 57.0492C36.2425 56.8844 36.2676 56.7209 36.3129 56.5625Z" fill="#002955"/>
<path d="M36.3129 56.5625C36.2716 56.7132 36.2716 56.8985 36.2383 57.0492C36.2425 56.8844 36.2676 56.7209 36.3129 56.5625Z" fill="url(#paint14_linear_13_15243)"/>
<path d="M35.639 60.9814C35.639 61.0574 35.5977 61.1334 35.5977 61.2081C35.5977 61.1734 35.639 61.0574 35.639 60.9814Z" fill="#002955"/>
<path d="M35.639 60.9814C35.639 61.0574 35.5977 61.1334 35.5977 61.2081C35.5977 61.1734 35.639 61.0574 35.639 60.9814Z" fill="url(#paint15_linear_13_15243)"/>
<path d="M35.5675 61.6201C35.5675 61.6961 35.5261 61.7361 35.5261 61.8121C35.5169 61.7452 35.5315 61.6773 35.5675 61.6201Z" fill="#002955"/>
<path d="M35.5675 61.6201C35.5675 61.6961 35.5261 61.7361 35.5261 61.8121C35.5169 61.7452 35.5315 61.6773 35.5675 61.6201Z" fill="url(#paint16_linear_13_15243)"/>
<path d="M35.447 62.2588C35.459 62.3083 35.459 62.3599 35.447 62.4095C35.4124 62.3335 35.447 62.2988 35.447 62.2588Z" fill="#002955"/>
<path d="M35.447 62.2588C35.459 62.3083 35.459 62.3599 35.447 62.4095C35.4124 62.3335 35.447 62.2988 35.447 62.2588Z" fill="url(#paint17_linear_13_15243)"/>
<path d="M36.6087 54.3525C36.574 54.5792 36.5394 54.8392 36.498 55.0392C36.5508 54.8131 36.5878 54.5837 36.6087 54.3525Z" fill="#002955"/>
<path d="M36.6087 54.3525C36.574 54.5792 36.5394 54.8392 36.498 55.0392C36.5508 54.8131 36.5878 54.5837 36.6087 54.3525Z" fill="url(#paint18_linear_13_15243)"/>
<path d="M35.9339 59.04V59.3067C35.9153 59.2188 35.9153 59.128 35.9339 59.04Z" fill="#002955"/>
<path d="M35.9339 59.04V59.3067C35.9153 59.2188 35.9153 59.128 35.9339 59.04Z" fill="url(#paint19_linear_13_15243)"/>
<path d="M35.846 59.6699C35.846 59.7459 35.8047 59.8619 35.8047 59.9366C35.8388 59.852 35.8529 59.7608 35.846 59.6699Z" fill="#002955"/>
<path d="M35.846 59.6699C35.846 59.7459 35.8047 59.8619 35.8047 59.9366C35.8388 59.852 35.8529 59.7608 35.846 59.6699Z" fill="url(#paint20_linear_13_15243)"/>
<path d="M35.7091 60.4258C35.7101 60.4762 35.6987 60.5261 35.6758 60.5711C35.7091 60.5338 35.7091 60.4951 35.7091 60.4258Z" fill="#002955"/>
<path d="M35.7091 60.4258C35.7101 60.4762 35.6987 60.5261 35.6758 60.5711C35.7091 60.5338 35.7091 60.4951 35.7091 60.4258Z" fill="url(#paint21_linear_13_15243)"/>
<path d="M31.0414 63.8668C32.0908 63.9428 35.2001 63.7508 35.2001 63.7508C36.2174 59.0231 36.9185 54.233 37.2988 49.4121C35.472 49.864 33.6014 50.1149 31.7201 50.1601C29.8459 50.1282 27.9777 49.94 26.1348 49.5974C26.1348 49.5974 27.6374 56.7894 29.2094 63.6854C29.8167 63.7765 30.4281 63.8371 31.0414 63.8668Z" fill="#E8ECEE"/>
<path d="M34.1368 43.1137C33.4069 43.1438 32.682 42.9791 32.0367 42.6365C31.3914 42.294 30.8489 41.7859 30.4648 41.1644C30.4648 41.1644 30.6168 40.9457 30.6502 40.9791C31.7595 41.7217 32.9416 42.3494 34.1782 42.8524C34.2115 42.8524 34.1782 43.1137 34.1368 43.1137Z" fill="#9CA6AF"/>
<path d="M35.846 52.1085C34.3124 52.8275 32.6341 53.1843 30.9407 53.1512C30.1011 53.1579 29.262 53.1098 28.4287 53.0072C28.0167 52.9659 27.6047 52.8912 27.194 52.8152C26.9778 52.7803 26.7644 52.73 26.5553 52.6645C26.4414 52.6279 26.3381 52.5644 26.254 52.4792C26.1392 52.3994 26.0584 52.2795 26.0273 52.1432C26.0273 51.9579 26.294 51.9925 26.294 52.0672C26.294 52.1419 26.4793 52.2525 26.6647 52.2939C26.8508 52.3221 27.0391 52.3337 27.2273 52.3285C27.6398 52.3217 28.0523 52.3355 28.4633 52.3699H30.9007C32.5196 52.3768 34.1328 52.1761 35.7007 51.7725C35.846 51.8405 35.9353 52.0325 35.846 52.1085Z" fill="#9CA6AF"/>
</g>
<defs>
<linearGradient id="paint0_linear_13_15243" x1="29.1581" y1="26.8196" x2="39.1554" y2="21.2743" gradientUnits="userSpaceOnUse">
<stop stop-color="#FF7381"/>
<stop offset="1" stop-color="#FF4D5E"/>
</linearGradient>
<linearGradient id="paint1_linear_13_15243" x1="29.9564" y1="-23.0842" x2="30.638" y2="-22.8986" gradientUnits="userSpaceOnUse">
<stop stop-color="#FF7381"/>
<stop offset="1" stop-color="#FF4D5E"/>
</linearGradient>
<linearGradient id="paint2_linear_13_15243" x1="41.2288" y1="0.266097" x2="41.5373" y2="1.53327" gradientUnits="userSpaceOnUse">
<stop stop-color="#FF7381"/>
<stop offset="1" stop-color="#FF4D5E"/>
</linearGradient>
<linearGradient id="paint3_linear_13_15243" x1="55.2042" y1="0.142246" x2="55.4118" y2="1.45155" gradientUnits="userSpaceOnUse">
<stop stop-color="#FF7381"/>
<stop offset="1" stop-color="#FF4D5E"/>
</linearGradient>
<linearGradient id="paint4_linear_13_15243" x1="57.9013" y1="0.467208" x2="58.0879" y2="1.76059" gradientUnits="userSpaceOnUse">
<stop stop-color="#FF7381"/>
<stop offset="1" stop-color="#FF4D5E"/>
</linearGradient>
<linearGradient id="paint5_linear_13_15243" x1="125.786" y1="-155.576" x2="128.253" y2="-146.283" gradientUnits="userSpaceOnUse">
<stop stop-color="#FF7381"/>
<stop offset="1" stop-color="#FF4D5E"/>
</linearGradient>
<linearGradient id="paint6_linear_13_15243" x1="97.3407" y1="-10.2891" x2="97.4687" y2="-8.3667" gradientUnits="userSpaceOnUse">
<stop stop-color="#FF7381"/>
<stop offset="1" stop-color="#FF4D5E"/>
</linearGradient>
<linearGradient id="paint7_linear_13_15243" x1="37.0391" y1="52.7271" x2="39.9551" y2="72.5444" gradientUnits="userSpaceOnUse">
<stop stop-color="#FF96BC"/>
<stop offset="1" stop-color="#FFC7DB"/>
</linearGradient>
<linearGradient id="paint8_linear_13_15243" x1="36.5737" y1="-32.1351" x2="37.9268" y2="-32.6535" gradientUnits="userSpaceOnUse">
<stop stop-color="#FF96BC"/>
<stop offset="1" stop-color="#FFC7DB"/>
</linearGradient>
<linearGradient id="paint9_linear_13_15243" x1="37.6166" y1="-46.5205" x2="39.9118" y2="-48.6903" gradientUnits="userSpaceOnUse">
<stop stop-color="#FF96BC"/>
<stop offset="1" stop-color="#FFC7DB"/>
</linearGradient>
<linearGradient id="paint10_linear_13_15243" x1="36.4438" y1="-31.6131" x2="37.7064" y2="-32.0549" gradientUnits="userSpaceOnUse">
<stop stop-color="#FF96BC"/>
<stop offset="1" stop-color="#FFC7DB"/>
</linearGradient>
<linearGradient id="paint11_linear_13_15243" x1="36.8759" y1="-40.4544" x2="39.0581" y2="-42.1984" gradientUnits="userSpaceOnUse">
<stop stop-color="#FF96BC"/>
<stop offset="1" stop-color="#FFC7DB"/>
</linearGradient>
<linearGradient id="paint12_linear_13_15243" x1="37.3118" y1="-6.5794" x2="38.678" y2="-8.32518" gradientUnits="userSpaceOnUse">
<stop stop-color="#FF96BC"/>
<stop offset="1" stop-color="#FFC7DB"/>
</linearGradient>
<linearGradient id="paint13_linear_13_15243" x1="36.6823" y1="-33.3944" x2="37.8632" y2="-33.7743" gradientUnits="userSpaceOnUse">
<stop stop-color="#FF96BC"/>
<stop offset="1" stop-color="#FFC7DB"/>
</linearGradient>
<linearGradient id="paint14_linear_13_15243" x1="38.2095" y1="-106.805" x2="41.9024" y2="-110.656" gradientUnits="userSpaceOnUse">
<stop stop-color="#FF96BC"/>
<stop offset="1" stop-color="#FFC7DB"/>
</linearGradient>
<linearGradient id="paint15_linear_13_15243" x1="36.6501" y1="-15.139" x2="38.3316" y2="-17.2285" gradientUnits="userSpaceOnUse">
<stop stop-color="#FF96BC"/>
<stop offset="1" stop-color="#FFC7DB"/>
</linearGradient>
<linearGradient id="paint16_linear_13_15243" x1="36.6393" y1="-2.86398" x2="37.9645" y2="-4.92908" gradientUnits="userSpaceOnUse">
<stop stop-color="#FF96BC"/>
<stop offset="1" stop-color="#FFC7DB"/>
</linearGradient>
<linearGradient id="paint17_linear_13_15243" x1="36.0465" y1="11.6557" x2="37.1851" y2="10.4023" gradientUnits="userSpaceOnUse">
<stop stop-color="#FF96BC"/>
<stop offset="1" stop-color="#FFC7DB"/>
</linearGradient>
<linearGradient id="paint18_linear_13_15243" x1="39.4677" y1="-176.11" x2="44.6596" y2="-181.797" gradientUnits="userSpaceOnUse">
<stop stop-color="#FF96BC"/>
<stop offset="1" stop-color="#FFC7DB"/>
</linearGradient>
<linearGradient id="paint19_linear_13_15243" x1="36.2812" y1="-30.4987" x2="37.5595" y2="-30.9532" gradientUnits="userSpaceOnUse">
<stop stop-color="#FF96BC"/>
<stop offset="1" stop-color="#FFC7DB"/>
</linearGradient>
<linearGradient id="paint20_linear_13_15243" x1="36.9126" y1="-29.8741" x2="38.9293" y2="-32.0864" gradientUnits="userSpaceOnUse">
<stop stop-color="#FF96BC"/>
<stop offset="1" stop-color="#FFC7DB"/>
</linearGradient>
<linearGradient id="paint21_linear_13_15243" x1="36.5297" y1="11.6221" x2="37.5319" y2="10.0571" gradientUnits="userSpaceOnUse">
<stop stop-color="#FF96BC"/>
<stop offset="1" stop-color="#FFC7DB"/>
</linearGradient>
<clipPath id="clip0_13_15243">
<rect width="64" height="64" fill="white" transform="translate(0.5)"/>
</clipPath>
</defs>
</svg>
