<svg width="82" height="82" viewBox="0 0 82 82" fill="none" xmlns="http://www.w3.org/2000/svg">
<path d="M19.1299 49.1915V38.26C19.1299 36.8104 19.7057 35.4202 20.7308 34.3952C21.7558 33.3702 23.146 32.7943 24.5956 32.7943H76.52C77.9696 32.7943 79.3599 33.3702 80.3849 34.3952C81.4099 35.4202 81.9858 36.8104 81.9858 38.26V54.6572C81.9858 56.1068 81.4099 57.4971 80.3849 58.5221C79.3599 59.5471 77.9696 60.123 76.52 60.123H71.0543L64.0186 69.1687C63.8374 69.4009 63.5884 69.5707 63.3061 69.6545C63.0238 69.7383 62.7224 69.7319 62.444 69.6363C62.1655 69.5406 61.9239 69.3604 61.7527 69.1208C61.5816 68.8812 61.4895 68.5941 61.4893 68.2997V60.123H43.7257L19.1299 49.1915Z" fill="#428CEA"/>
<path d="M76.5201 32.7943H53.8442C53.1874 33.1019 52.5869 33.5176 52.0678 34.0241L47.5887 38.5033C47.2321 38.8598 46.8088 39.1426 46.343 39.3356C45.8771 39.5285 45.3778 39.6278 44.8736 39.6278H42.9742C42.7148 39.6287 42.4578 39.5785 42.2178 39.48C41.9778 39.3815 41.7596 39.2367 41.5756 39.0539C41.3916 38.871 41.2454 38.6537 41.1454 38.4143C41.0454 38.1749 40.9936 37.9182 40.9929 37.6588V32.7943H25.57C24.9451 33.5018 24.5989 34.4124 24.5957 35.3564V41.728C24.5957 42.6221 24.9509 43.4795 25.583 44.1117C26.2152 44.7439 27.0726 45.099 27.9667 45.099H44.7055C45.5328 45.099 46.3263 45.4277 46.9114 46.0127C47.4964 46.5978 47.8251 47.3912 47.8251 48.2186V49.9225C47.8251 50.5443 47.9475 51.16 48.1855 51.7344C48.4234 52.3089 48.7722 52.8308 49.2118 53.2705C49.6515 53.7101 50.1734 54.0589 50.7479 54.2968C51.3223 54.5348 51.938 54.6572 52.5597 54.6572H78.0232C78.8111 54.6556 79.586 54.4574 80.278 54.0806C80.9699 53.7039 81.5569 53.1605 81.9859 52.4996V38.26C81.9859 36.8104 81.41 35.4202 80.385 34.3952C79.36 33.3702 77.9697 32.7943 76.5201 32.7943Z" fill="#4FA5F2"/>
<path d="M51.9244 27.3286H57.3902C58.8398 27.3286 60.23 26.7528 61.255 25.7278C62.28 24.7027 62.8559 23.3125 62.8559 21.8629V5.46573C62.8559 4.01613 62.28 2.6259 61.255 1.60087C60.23 0.575852 58.8398 0 57.3902 0H5.46573C4.01613 0 2.6259 0.575852 1.60088 1.60087C0.575852 2.6259 0 4.01613 0 5.46573V21.8629C0 23.3125 0.575852 24.7027 1.60088 25.7278C2.6259 26.7528 4.01613 27.3286 5.46573 27.3286H40.993V36.7926C40.9927 37.0979 41.0874 37.3958 41.2639 37.645C41.4404 37.8942 41.6899 38.0824 41.9781 38.1836C42.2662 38.2847 42.5787 38.2938 42.8722 38.2096C43.1657 38.1254 43.4258 37.952 43.6165 37.7135L51.9244 27.3286Z" fill="#F4AC1C"/>
<path d="M57.4627 0.00671387H9.53506C9.00056 0.00671384 8.4713 0.112013 7.97751 0.316597C7.48372 0.52118 7.03507 0.82104 6.65719 1.19905C6.27931 1.57706 5.9796 2.02581 5.77518 2.51967C5.57076 3.01353 5.46564 3.54282 5.46582 4.07732V14.577C5.46564 15.5347 5.65415 16.4831 6.02057 17.368C6.387 18.2528 6.92417 19.0568 7.60139 19.7341C8.27861 20.4113 9.08262 20.9485 9.96748 21.3149C10.8523 21.6813 11.8007 21.8698 12.7585 21.8696H59.291C60.2355 21.8696 61.1415 21.4948 61.8099 20.8274C62.4783 20.16 62.8545 19.2546 62.856 18.3101V5.46561C62.8543 4.02965 62.2876 2.65203 61.2784 1.63054C60.2692 0.609044 58.8985 0.0257393 57.4627 0.00671387Z" fill="#FFC239"/>
<path d="M43.7256 29.597V37.577L51.9242 27.3287H45.9939C45.3923 27.3287 44.8153 27.5677 44.3899 27.9931C43.9646 28.4185 43.7256 28.9954 43.7256 29.597Z" fill="#FFC239"/>
<path d="M21.8629 73.7873H5.46573C4.01613 73.7873 2.6259 73.2115 1.60087 72.1864C0.575852 71.1614 0 69.7712 0 68.3216V54.6573C0 53.2077 0.575852 51.8174 1.60087 50.7924C2.6259 49.7674 4.01613 49.1915 5.46573 49.1915H38.2601C39.7097 49.1915 41.0999 49.7674 42.125 50.7924C43.15 51.8174 43.7258 53.2077 43.7258 54.6573V68.3216C43.7258 69.7712 43.15 71.1614 42.125 72.1864C41.0999 73.2115 39.7097 73.7873 38.2601 73.7873H31.4279V81.0294C31.4307 81.2206 31.3761 81.4082 31.2712 81.5681C31.1663 81.7279 31.0159 81.8527 30.8394 81.9262C30.6629 81.9998 30.4684 82.0187 30.2811 81.9807C30.0937 81.9426 29.922 81.8492 29.7882 81.7126L21.8629 73.7873Z" fill="#F4AC1C"/>
<path d="M71.0542 50.5582V39.6267H68.3213V51.9246C68.3213 52.287 68.4653 52.6346 68.7215 52.8908C68.9778 53.1471 69.3253 53.291 69.6877 53.291H75.1535V50.5582H71.0542Z" fill="white"/>
<path d="M51.9243 39.6267H49.1914V51.9246C49.1914 52.287 49.3354 52.6346 49.5916 52.8908C49.8479 53.1471 50.1954 53.291 50.5578 53.291H56.0236V50.5582H51.9243V39.6267Z" fill="white"/>
<path d="M61.4889 39.6267C60.4017 39.6267 59.3591 40.0586 58.5903 40.8274C57.8215 41.5961 57.3896 42.6388 57.3896 43.726V49.1917C57.3896 50.2789 57.8215 51.3216 58.5903 52.0904C59.3591 52.8591 60.4017 53.291 61.4889 53.291C62.5761 53.291 63.6188 52.8591 64.3876 52.0904C65.1564 51.3216 65.5882 50.2789 65.5882 49.1917V43.726C65.5882 42.6388 65.1564 41.5961 64.3876 40.8274C63.6188 40.0586 62.5761 39.6267 61.4889 39.6267ZM62.8554 49.1917C62.8554 49.5541 62.7114 49.9017 62.4552 50.1579C62.1989 50.4142 61.8513 50.5582 61.4889 50.5582C61.1265 50.5582 60.779 50.4142 60.5227 50.1579C60.2665 49.9017 60.1225 49.5541 60.1225 49.1917V43.726C60.1225 43.3636 60.2665 43.016 60.5227 42.7598C60.779 42.5035 61.1265 42.3596 61.4889 42.3596C61.8513 42.3596 62.1989 42.5035 62.4552 42.7598C62.7114 43.016 62.8554 43.3636 62.8554 43.726V49.1917Z" fill="white"/>
<path d="M25.9619 42.3595H31.4276V45.0924H25.9619V42.3595Z" fill="white"/>
<path d="M38.2598 42.3595H43.7255V45.0924H38.2598V42.3595Z" fill="white"/>
<path opacity="0.4" d="M61.4898 4.2439V8.06991C61.4898 8.83095 61.1875 9.56082 60.6494 10.099C60.1112 10.6371 59.3814 10.9394 58.6203 10.9394H58.593C58.2124 10.9396 57.8354 10.8647 57.4837 10.7191C57.132 10.5735 56.8125 10.36 56.5433 10.0909L52.7734 6.32224C52.23 5.77851 51.9248 5.04128 51.9248 4.27259V4.2439C51.9248 3.48286 52.2271 2.75299 52.7653 2.21485C53.3034 1.67671 54.0333 1.37439 54.7943 1.37439H58.6203C59.3814 1.37439 60.1112 1.67671 60.6494 2.21485C61.1875 2.75299 61.4898 3.48286 61.4898 4.2439Z" fill="#F7F7F9"/>
<path opacity="0.4" d="M35.4982 6.84045H47.8534C49.3469 6.84045 50.5576 5.62976 50.5576 4.13628V4.07889C50.5576 2.58542 49.3469 1.37473 47.8534 1.37473H35.4982C34.0047 1.37473 32.794 2.58542 32.794 4.07889V4.13628C32.794 5.62976 34.0047 6.84045 35.4982 6.84045Z" fill="#F7F7F9"/>
<path opacity="0.4" d="M80.6193 37.0383V40.8643C80.6193 41.6254 80.317 42.3552 79.7789 42.8934C79.2407 43.4315 78.5109 43.7338 77.7498 43.7338H77.7225C77.3419 43.734 76.9649 43.6591 76.6132 43.5135C76.2615 43.3679 75.942 43.1544 75.6728 42.8853L71.9042 39.118C71.3609 38.5743 71.0556 37.8371 71.0557 37.0684V37.0397C71.0557 36.2786 71.358 35.5488 71.8961 35.0106C72.4343 34.4725 73.1641 34.1702 73.9252 34.1702H77.7512C78.5118 34.1705 79.2411 34.4728 79.7789 35.0106C80.3167 35.5484 80.619 36.2777 80.6193 37.0383Z" fill="#F7F7F9"/>
<path opacity="0.4" d="M54.629 39.6348H66.9843C68.4778 39.6348 69.6885 38.4241 69.6885 36.9306V36.8732C69.6885 35.3797 68.4778 34.169 66.9843 34.169H54.629C53.1356 34.169 51.9249 35.3797 51.9249 36.8732V36.9306C51.9249 38.4241 53.1356 39.6348 54.629 39.6348Z" fill="#F7F7F9"/>
<path d="M21.8627 12.2977H16.3969V5.46558H13.6641V21.8628H16.3969V15.0306H21.8627V21.8628H24.5955V5.46558H21.8627V12.2977Z" fill="white"/>
<path d="M27.3291 8.19844H30.062V19.1299H27.3291V21.8628H35.5277V19.1299H32.7948V8.19844H35.5277V5.46558H27.3291V8.19844Z" fill="white"/>
<path d="M40.9932 5.46558H43.726V16.397H40.9932V5.46558Z" fill="white"/>
<path d="M40.9932 19.13H43.726V21.8629H40.9932V19.13Z" fill="white"/>
<path d="M38.3326 49.1982H9.13469C8.16165 49.1982 7.22845 49.5848 6.54041 50.2728C5.85236 50.9609 5.46582 51.8941 5.46582 52.8671V61.9566C5.46582 63.6465 6.13712 65.2672 7.33204 66.4621C8.52696 67.657 10.1476 68.3283 11.8375 68.3283H40.6692C41.4802 68.3276 42.2576 68.0049 42.8308 67.4312C43.404 66.8576 43.7259 66.0798 43.7259 65.2689V54.6571C43.7243 53.2212 43.1576 51.8436 42.1483 50.8221C41.1391 49.8006 39.7684 49.2173 38.3326 49.1982Z" fill="#FFC239"/>
<path d="M27.2878 57.7222C27.3382 57.5208 27.3421 57.3104 27.2991 57.1072C27.2561 56.904 27.1673 56.7133 27.0395 56.5495C26.9118 56.3858 26.7483 56.2533 26.5617 56.1622C26.375 56.0711 26.17 56.0238 25.9623 56.0238H21.863V53.2909H19.1302V56.0238H13.6644V58.7566H23.7856C22.6051 60.5672 21.1796 62.2056 19.5497 63.6252L17.2554 61.7887L15.5474 63.9231L17.4139 65.4152C15.9799 66.5312 14.4879 67.5706 12.9443 68.5293L14.3928 70.8523C16.2008 69.7301 17.9402 68.5009 19.6016 67.1711L22.3796 69.3943L24.0876 67.2599L21.7032 65.3469C26.3928 60.9948 27.244 57.8985 27.2878 57.7222Z" fill="white"/>
<path opacity="0.4" d="M40.9933 53.4354V57.2614C40.9933 58.0225 40.691 58.7523 40.1529 59.2905C39.6148 59.8286 38.8849 60.1309 38.1238 60.1309H38.0965C37.7159 60.1311 37.3389 60.0562 36.9872 59.9106C36.6356 59.765 36.316 59.5515 36.0469 59.2824L32.2782 55.5151C31.7349 54.9714 31.4297 54.2341 31.4297 53.4655V53.4368C31.4297 52.6757 31.732 51.9459 32.2701 51.4077C32.8083 50.8696 33.5382 50.5673 34.2992 50.5673H38.1252C38.8858 50.5676 39.6151 50.8699 40.1529 51.4077C40.6907 51.9455 40.993 52.6748 40.9933 53.4354Z" fill="#F7F7F9"/>
<path opacity="0.4" d="M15.0021 56.0314H27.3574C28.8508 56.0314 30.0615 54.8207 30.0615 53.3272V53.2698C30.0615 51.7763 28.8508 50.5656 27.3574 50.5656H15.0021C13.5086 50.5656 12.2979 51.7763 12.2979 53.2698V53.3272C12.2979 54.8207 13.5086 56.0314 15.0021 56.0314Z" fill="#F7F7F9"/>
<path d="M27.0375 76.232L31.4279 80.6196V73.7875H28.0514C27.7681 73.7872 27.4911 73.871 27.2554 74.0283C27.0197 74.1855 26.836 74.4092 26.7274 74.6709C26.6189 74.9326 26.5904 75.2206 26.6456 75.4985C26.7008 75.7764 26.8372 76.0317 27.0375 76.232Z" fill="#FFC239"/>
</svg>
