<svg width="82" height="82" viewBox="0 0 82 82" fill="none" xmlns="http://www.w3.org/2000/svg">
<path d="M55.2031 23.6693C55.2031 21.117 54.5315 18.6097 53.2557 16.3992C51.9799 14.1887 50.1448 12.3529 47.9348 11.0762C45.7249 9.79954 43.2178 9.12693 40.6656 9.12598C38.1133 9.12502 35.6058 9.79576 33.3948 11.0708C31.1839 12.3458 29.3475 14.1803 28.07 16.3898C26.7925 18.5993 26.119 21.1061 26.1172 23.6584C26.1153 26.2106 26.7852 28.7184 28.0595 30.9298C29.3337 33.1412 31.1675 34.9783 33.3766 36.2565C33.6515 36.4175 33.8794 36.6478 34.0375 36.9245C34.1955 37.2012 34.2781 37.5145 34.2772 37.8331V41.1613H47.045V37.8345C47.0426 37.5179 47.1234 37.2063 47.2791 36.9307C47.4349 36.6551 47.6603 36.4252 47.9328 36.264C50.144 34.9881 51.9801 33.1522 53.2564 30.9413C54.5327 28.7303 55.2041 26.2222 55.2031 23.6693Z" fill="#FFDE76"/>
<path d="M34.2764 41.1609H47.0443V44.4339C47.0443 45.8874 46.4668 47.2814 45.439 48.3092C44.4113 49.337 43.0173 49.9144 41.5638 49.9144H39.7569C38.3033 49.9144 36.9094 49.337 35.8816 48.3092C34.8538 47.2814 34.2764 45.8874 34.2764 44.4339V41.1609Z" fill="#EFAC52"/>
<path d="M36.2129 66.9349L34.5507 65.9753C34.2932 65.8276 34.0878 65.6035 33.963 65.3341C33.8382 65.0648 33.8001 64.7633 33.8539 64.4713C34.178 62.7499 34.178 60.9832 33.8539 59.2619C33.8001 58.9699 33.8382 58.6684 33.963 58.399C34.0878 58.1296 34.2932 57.9056 34.5507 57.7579L36.2129 56.7983C36.3827 56.7002 36.5316 56.5696 36.651 56.414C36.7704 56.2584 36.8579 56.0808 36.9087 55.8914C36.9594 55.702 36.9724 55.5044 36.9468 55.3099C36.9211 55.1155 36.8575 54.928 36.7594 54.7582L34.5767 50.9777C34.3787 50.6348 34.0525 50.3845 33.67 50.282C33.2874 50.1795 32.8799 50.2332 32.5369 50.4312L30.8728 51.3918C30.616 51.5412 30.3192 51.6071 30.0234 51.5804C29.7276 51.5538 29.4473 51.4359 29.2214 51.243C27.8939 50.1001 26.3635 49.2165 24.71 48.6383C24.4305 48.5388 24.1888 48.355 24.0183 48.1122C23.8478 47.8695 23.7568 47.5798 23.758 47.2831V45.3636C23.758 44.9675 23.6007 44.5877 23.3207 44.3076C23.0406 44.0276 22.6607 43.8702 22.2647 43.8702H17.8994C17.5033 43.8702 17.1235 44.0276 16.8434 44.3076C16.5634 44.5877 16.406 44.9675 16.406 45.3636V47.2831C16.4072 47.5798 16.3163 47.8695 16.1458 48.1122C15.9753 48.355 15.7336 48.5388 15.4541 48.6383C13.8004 49.2165 12.27 50.1 10.9424 51.243C10.7165 51.4359 10.4363 51.5538 10.1404 51.5804C9.84462 51.6071 9.54782 51.5412 9.29108 51.3918L7.62696 50.4312C7.28394 50.2332 6.87632 50.1795 6.49374 50.282C6.11115 50.3845 5.78494 50.6347 5.58685 50.9777L3.4042 54.7582C3.30613 54.928 3.24248 55.1155 3.21688 55.31C3.19128 55.5044 3.20423 55.702 3.255 55.8915C3.30578 56.0809 3.39337 56.2585 3.51278 56.4141C3.63219 56.5697 3.78108 56.7002 3.95095 56.7983L5.61289 57.7579C5.8705 57.9056 6.07591 58.1296 6.20076 58.399C6.32561 58.6684 6.36375 58.9699 6.30989 59.2619C5.98579 60.9832 5.98579 62.7499 6.30989 64.4713C6.36375 64.7633 6.32561 65.0648 6.20076 65.3342C6.07591 65.6036 5.8705 65.8276 5.61289 65.9753L3.95095 66.9349C3.78108 67.033 3.63219 67.1635 3.51278 67.3191C3.39337 67.4747 3.30578 67.6523 3.255 67.8417C3.20423 68.0312 3.19128 68.2288 3.21688 68.4232C3.24248 68.6177 3.30613 68.8052 3.4042 68.975L5.58685 72.7555C5.78494 73.0984 6.11115 73.3487 6.49374 73.4512C6.87632 73.5537 7.28394 73.5 7.62696 73.302L9.29108 72.3414C9.54782 72.192 9.84462 72.1261 10.1404 72.1528C10.4363 72.1794 10.7165 72.2973 10.9424 72.4902C12.27 73.6335 13.8004 74.5174 15.4541 75.0961C15.7336 75.1955 15.9753 75.3793 16.1458 75.622C16.3163 75.8647 16.4072 76.1544 16.406 76.451V78.3705C16.406 78.7666 16.5634 79.1464 16.8434 79.4265C17.1235 79.7066 17.5033 79.8639 17.8994 79.8639H22.2647C22.6607 79.8639 23.0406 79.7066 23.3207 79.4265C23.6007 79.1464 23.758 78.7666 23.758 78.3705V76.451C23.7568 76.1544 23.8478 75.8647 24.0183 75.622C24.1888 75.3793 24.4305 75.1955 24.71 75.0961C26.3636 74.5174 27.8939 73.6334 29.2214 72.4902C29.4473 72.2973 29.7276 72.1794 30.0234 72.1528C30.3192 72.1261 30.616 72.192 30.8728 72.3414L32.5369 73.302C32.8799 73.5 33.2874 73.5536 33.67 73.4512C34.0525 73.3487 34.3787 73.0984 34.5767 72.7555L36.7594 68.975C36.8575 68.8052 36.9211 68.6177 36.9468 68.4232C36.9724 68.2288 36.9594 68.0312 36.9087 67.8418C36.8579 67.6523 36.7704 67.4747 36.651 67.3191C36.5316 67.1635 36.3827 67.033 36.2129 66.9349ZM20.082 67.3423C18.9992 67.3423 17.9408 67.0212 17.0405 66.4196C16.1401 65.818 15.4384 64.963 15.0241 63.9626C14.6097 62.9623 14.5013 61.8615 14.7125 60.7995C14.9238 59.7375 15.4452 58.762 16.2108 57.9963C16.9765 57.2307 17.952 56.7093 19.014 56.498C20.076 56.2868 21.1767 56.3952 22.1771 56.8096C23.1775 57.224 24.0325 57.9257 24.6341 58.826C25.2357 59.7263 25.5567 60.7848 25.5567 61.8675C25.5567 62.5865 25.4151 63.2984 25.14 63.9626C24.8649 64.6269 24.4616 65.2304 23.9532 65.7388C23.4449 66.2471 22.8413 66.6504 22.1771 66.9255C21.5129 67.2007 20.801 67.3423 20.082 67.3423Z" fill="#FF8080"/>
<path d="M63.5762 67.4968L66.4142 64.6588L78.1921 76.4368C78.5684 76.8131 78.7799 77.3235 78.7799 77.8558C78.7799 78.388 78.5684 78.8984 78.1921 79.2748C77.8158 79.6511 77.3053 79.8625 76.7731 79.8625C76.2409 79.8625 75.7304 79.6511 75.3541 79.2748L63.5762 67.4968Z" fill="#497FCE"/>
<path d="M57.0429 73.5983C64.8579 73.5983 71.1932 67.263 71.1932 59.448C71.1932 51.633 64.8579 45.2977 57.0429 45.2977C49.2279 45.2977 42.8926 51.633 42.8926 59.448C42.8926 67.263 49.2279 73.5983 57.0429 73.5983Z" fill="#BDDEFF"/>
<path d="M57.0425 68.9817C62.3078 68.9817 66.5762 64.7133 66.5762 59.448C66.5762 54.1827 62.3078 49.9143 57.0425 49.9143C51.7772 49.9143 47.5088 54.1827 47.5088 59.448C47.5088 64.7133 51.7772 68.9817 57.0425 68.9817Z" fill="white"/>
<path d="M45.5071 25.6832C47.2957 25.6832 48.7456 24.2333 48.7456 22.4447C48.7456 20.6561 47.2957 19.2062 45.5071 19.2062C43.7185 19.2062 42.2686 20.6561 42.2686 22.4447C42.2686 24.2333 43.7185 25.6832 45.5071 25.6832Z" fill="#EFAC52"/>
<path d="M55.8887 23.7299C55.8025 23.6363 55.6986 23.5607 55.583 23.5074C55.4674 23.4542 55.3424 23.4243 55.2152 23.4196C55.088 23.4148 54.9612 23.4353 54.8419 23.4798C54.7227 23.5243 54.6135 23.592 54.5205 23.6789C54.4275 23.7658 54.3527 23.8702 54.3002 23.9862C54.2478 24.1022 54.2188 24.2274 54.215 24.3546C54.2112 24.4818 54.2326 24.6085 54.2779 24.7274C54.3233 24.8463 54.3917 24.9551 54.4793 25.0474C59.7533 30.691 61.2219 34.4914 60.3543 35.6351C59.761 36.4172 57.3572 36.6362 52.5354 34.6803C47.9569 32.8232 42.4617 29.5454 37.0618 25.4512C31.6618 21.357 27.0218 16.9514 23.997 13.0446C20.8115 8.92985 20.3735 6.55692 20.9666 5.77406C21.7417 4.75147 25.1069 4.93476 30.8806 7.648C30.9957 7.70466 31.1208 7.73782 31.2488 7.74556C31.3767 7.7533 31.505 7.73545 31.626 7.69305C31.747 7.65066 31.8583 7.58458 31.9535 7.49866C32.0486 7.41275 32.1257 7.30873 32.1802 7.19268C32.2347 7.07664 32.2655 6.95089 32.2708 6.8228C32.2762 6.6947 32.2559 6.56683 32.2113 6.44665C32.1666 6.32647 32.0985 6.21639 32.0108 6.12286C31.9231 6.02932 31.8177 5.9542 31.7006 5.90188C27.2439 3.80654 21.4962 1.88123 19.4293 4.60821C18.004 6.48939 19.056 9.81401 22.4715 14.2258C25.5969 18.2629 30.3645 22.7958 35.8959 26.9894C36.2114 27.2286 36.5272 27.4649 36.8435 27.6982C28.9512 32.9344 22.9662 35.0686 20.066 35.0683C19.1841 35.0683 18.5867 34.871 18.3084 34.5037C17.6813 33.6753 18.1998 31.1437 21.7309 26.7347C21.8866 26.5346 21.9573 26.2813 21.9276 26.0295C21.898 25.7777 21.7704 25.5477 21.5725 25.3892C21.3746 25.2308 21.1223 25.1566 20.8701 25.1827C20.618 25.2088 20.3862 25.3332 20.225 25.5288C17.6138 28.7893 14.895 33.1951 16.7709 35.6696C17.464 36.5839 18.6207 36.9903 20.1075 36.99C24.5172 36.99 31.8256 33.4126 38.5129 28.9036C43.1838 32.2046 47.8238 34.852 51.8102 36.4691C54.5405 37.5768 56.8013 38.1317 58.5368 38.1317C60.0876 38.1317 61.2192 37.6887 61.8918 36.8017C64.3137 33.6073 59.1702 27.2407 55.8887 23.7299Z" fill="#EFAC52"/>
<path d="M46.2799 22.9017C46.5273 22.9021 46.7654 22.8071 46.9446 22.6364L48.6615 21.0027C55.528 14.8413 61.9079 7.00477 59.2327 3.4766C57.2421 0.851393 51.8045 2.57195 47.5936 4.47845C47.4782 4.5307 47.3742 4.60518 47.2875 4.69763C47.2009 4.79008 47.1333 4.89868 47.0887 5.01724C47.044 5.1358 47.0232 5.262 47.0273 5.38862C47.0314 5.51525 47.0604 5.63982 47.1127 5.75523C47.1649 5.87065 47.2394 5.97463 47.3319 6.06126C47.4243 6.14789 47.5329 6.21546 47.6515 6.26012C47.77 6.30477 47.8962 6.32564 48.0228 6.32153C48.1495 6.31741 48.274 6.2884 48.3895 6.23614C54.1678 3.6201 57.0137 3.74262 57.6952 4.64172C58.7564 6.04199 56.253 11.6006 47.3625 19.5754L47.3418 19.5947L45.6147 21.238C45.4748 21.3709 45.378 21.5428 45.3367 21.7313C45.2955 21.9198 45.3117 22.1163 45.3834 22.2955C45.455 22.4747 45.5787 22.6283 45.7385 22.7364C45.8983 22.8446 46.0869 22.9023 46.2799 22.9022V22.9017Z" fill="#EFAC52"/>
<path d="M20.0818 50.787C17.8905 50.7869 15.7483 51.4367 13.9263 52.6541C12.1042 53.8715 10.684 55.6019 9.84542 57.6265C9.00679 59.651 8.78734 61.8788 9.21482 64.028C9.6423 66.1773 10.6975 68.1515 12.247 69.701C13.7965 71.2506 15.7707 72.3058 17.92 72.7334C20.0692 73.1609 22.297 72.9415 24.3215 72.1029C26.3461 71.2643 28.0765 69.8442 29.294 68.0222C30.5114 66.2001 31.1613 64.058 31.1613 61.8666C31.1613 60.4116 30.8747 58.9709 30.3179 57.6267C29.7612 56.2824 28.9451 55.061 27.9163 54.0322C26.8874 53.0033 25.666 52.1872 24.3218 51.6304C22.9776 51.0736 21.5368 50.787 20.0818 50.787ZM20.0818 70.5574C18.3629 70.5575 16.6825 70.0479 15.2532 69.0929C13.8239 68.138 12.7099 66.7807 12.052 65.1926C11.3941 63.6045 11.222 61.857 11.5573 60.1711C11.8926 58.4851 12.7203 56.9365 13.9358 55.721C15.1513 54.5055 16.6999 53.6777 18.3858 53.3424C20.0717 53.007 21.8192 53.1791 23.4073 53.8369C24.9954 54.4948 26.3528 55.6088 27.3078 57.038C28.2628 58.4673 28.7724 60.1477 28.7724 61.8666C28.7724 64.1715 27.8568 66.382 26.227 68.0119C24.5972 69.6417 22.3867 70.5574 20.0818 70.5574Z" fill="#E55151"/>
</svg>
