<svg width="82" height="82" viewBox="0 0 82 82" fill="none" xmlns="http://www.w3.org/2000/svg">
<path d="M35.9445 30.4904C30.9425 33.8114 24.5055 32.9777 21.8678 31.2011C13.5038 25.4201 14.6792 15.0211 11.0028 8.14675C10.9587 8.06691 10.9341 7.97774 10.931 7.88656C10.9279 7.79537 10.9465 7.70475 10.9851 7.62211C11.0238 7.53946 11.0814 7.46714 11.1534 7.41105C11.2254 7.35497 11.3096 7.31672 11.3992 7.29942C14.3375 6.78009 24.8198 5.50909 34.3455 11.7684C36.4943 13.3596 38.1044 15.5704 38.9596 18.1038C39.8147 20.6371 39.8737 23.3715 39.1288 25.9394L35.9445 30.4904Z" fill="#72B746"/>
<path d="M44.6484 33.0051C40.6861 26.6424 35.0884 21.46 28.4397 17.9991C28.1113 17.8537 27.7574 17.7744 27.3983 17.7658C27.0393 17.7572 26.682 17.8194 26.347 17.9488C26.012 18.0783 25.7057 18.2724 25.4457 18.5202C25.1857 18.768 24.9771 19.0646 24.8317 19.3931C24.6863 19.7215 24.6071 20.0753 24.5984 20.4344C24.5898 20.7935 24.652 21.1507 24.7815 21.4858C24.9109 21.8208 25.1051 22.1271 25.3529 22.387C25.6007 22.647 25.8973 22.8557 26.2257 23.0011C26.786 23.2607 38.6624 29.3014 42.6394 41.6834V41.6971L45.0994 38.2667L44.6484 33.0051Z" fill="#5D8C3F"/>
<path d="M47.6694 26.8099C42.6947 20.4754 45.6276 11.3433 51.0451 7.14489C60.8167 -0.419606 73.9914 1.39533 77.3671 1.99529C77.4699 2.01666 77.5663 2.06189 77.6485 2.12733C77.7307 2.19277 77.7964 2.2766 77.8403 2.37207C77.8842 2.46753 77.905 2.57197 77.9012 2.67696C77.8973 2.78196 77.8688 2.88458 77.8181 2.97656C73.6224 10.8636 74.9481 22.7932 65.3541 29.4038C63.3412 30.567 61.0883 31.2529 58.7688 31.4088C56.4492 31.5647 54.1248 31.1864 51.9744 30.3031L47.6694 26.8099Z" fill="#83D34F"/>
<path d="M42.5293 42.7494C42.9604 36.6867 44.9593 30.84 48.3302 25.7825C51.7011 20.7249 56.3283 16.63 61.7583 13.8991C62.4216 13.6055 63.1744 13.5874 63.851 13.8488C64.186 13.9783 64.4923 14.1725 64.7523 14.4203C65.0123 14.6681 65.2209 14.9646 65.3663 15.2931C65.5117 15.6215 65.5909 15.9754 65.5996 16.3344C65.6082 16.6935 65.546 17.0508 65.4165 17.3858C65.2871 17.7208 65.0929 18.0271 64.8451 18.2871C64.5973 18.5471 64.3007 18.7557 63.9723 18.9011C59.4934 21.2069 55.6768 24.6172 52.8836 28.8095C50.0903 33.0018 48.4128 37.8373 48.0096 42.8588L46.4653 43.7334H43.732L42.5293 42.7494Z" fill="#72B746"/>
<path d="M74.7813 51.6832C74.2529 50.8426 73.5592 50.118 72.7422 49.5536C71.9253 48.9892 71.0022 48.5967 70.0289 48.3999C69.0557 48.2031 68.0526 48.2061 67.0806 48.4087C66.1085 48.6113 65.1877 49.0093 64.3742 49.5785C63.1947 47.6146 61.2956 46.1882 59.0808 45.6028C56.866 45.0173 54.5102 45.3189 52.5142 46.4434C51.7221 45.1945 50.6272 44.1659 49.3313 43.4533C48.0354 42.7406 46.5804 42.3669 45.1014 42.3669C43.6225 42.3669 42.1675 42.7406 40.8716 43.4533C39.5757 44.1659 38.4808 45.1945 37.6886 46.4434C35.6928 45.3197 33.3374 45.0185 31.123 45.6039C28.9086 46.1894 27.0098 47.6152 25.8301 49.5785L47.8334 71.0666L74.7813 51.6832Z" fill="#6B4227"/>
<path d="M16.2998 71.5231L43.7561 80.3695C44.5928 80.6396 45.4823 80.7034 46.3489 80.5556C47.2156 80.4079 48.0336 80.0529 48.7335 79.5208L79.4125 56.2164C79.7561 55.9497 80.0409 55.6148 80.249 55.2327C80.457 54.8507 80.5838 54.4297 80.6214 53.9963C80.659 53.5629 80.6066 53.1264 80.4675 52.7143C80.3283 52.3021 80.1055 51.9231 79.8129 51.6012C79.3111 51.0506 78.6299 50.6961 77.891 50.601C77.1521 50.5059 76.4034 50.6763 75.7785 51.0819L49.0219 68.0285C48.6741 68.2483 48.2675 68.3567 47.8565 68.3391C47.4454 68.3215 47.0495 68.1788 46.7218 67.9301L38.2662 61.5H58.2387C58.7215 61.5 59.1995 61.4049 59.6456 61.2201C60.0916 61.0354 60.4969 60.7646 60.8383 60.4232C61.1796 60.0818 61.4504 59.6765 61.6352 59.2305C61.8199 58.7845 61.915 58.3064 61.915 57.8236C61.9151 56.9454 61.6008 56.0962 61.029 55.4296C60.4572 54.763 59.6657 54.3232 58.7977 54.1897L27.8249 49.2779C26.3825 49.0575 24.9074 49.3046 23.6156 49.9831L16.8697 53.6649C15.6645 54.3224 14.3135 54.6669 12.9405 54.6666H4.09956C3.37463 54.6666 2.6794 54.9546 2.1668 55.4672C1.6542 55.9798 1.36622 56.675 1.36622 57.4V68.3511C1.36404 69.0722 1.64775 69.7647 2.15521 70.2771C2.66267 70.7894 3.3525 71.0797 4.07359 71.0844C7.01876 71.1035 11.6026 71.1295 13.7892 71.1281C14.6416 71.1271 15.4889 71.2604 16.2998 71.5231Z" fill="#F4B990"/>
<path d="M61.7867 58.7667C61.56 59.6175 61.0365 60.3591 60.3107 60.8577L60.2971 60.8714C60.1877 60.9397 60.0784 61.0081 59.9827 61.0627C59.4436 61.3479 58.8433 61.498 58.2334 61.5001H31.4331C31.0706 61.5001 30.723 61.3561 30.4667 61.0998C30.2104 60.8435 30.0664 60.4959 30.0664 60.1334C30.0664 59.7709 30.2104 59.4233 30.4667 59.167C30.723 58.9107 31.0706 58.7667 31.4331 58.7667H61.7867Z" fill="#DDA27A"/>
</svg>
