<svg width="128" height="128" viewBox="0 0 128 128" fill="none" xmlns="http://www.w3.org/2000/svg">
<g clip-path="url(#clip0_4160_54774)">
<path d="M14.942 126.6C11.4355 124.147 10.5813 119.316 13.034 115.809L35.2728 84.0234L47.9713 92.9059L25.7325 124.692C23.2798 128.198 18.4485 129.053 14.942 126.6Z" fill="#4A66A0"/>
<path d="M44.5056 95.7017L34.5519 88.732C31.1589 86.3562 30.3341 81.6795 32.7101 78.2865L41.7569 65.3662L63.9981 80.9397L54.9514 93.86C52.5751 97.253 47.8986 98.0775 44.5056 95.7017Z" fill="#FFCE71"/>
<path d="M108.294 70.2026C99.3177 83.0221 84.819 89.6778 70.2632 89.2013C61.905 88.9336 53.526 86.3113 46.1645 81.1573C25.9835 67.0241 21.0767 39.2086 35.2097 19.0276C42.821 8.15532 54.4042 1.71857 66.6235 0.29932C77.0915 -0.91643 88.028 1.55107 97.3392 8.07282C117.52 22.2036 122.425 50.0191 108.294 70.2026Z" fill="#687DAA"/>
<path d="M70.2632 89.0639C61.905 88.7961 53.526 86.1739 46.1645 81.0199C25.9835 66.8869 21.0767 39.0714 35.2097 18.8904C42.821 8.01811 54.4042 1.58136 66.6235 0.162109C58.5565 11.4104 39.6762 45.7244 70.2632 89.0639Z" fill="#4A66A0"/>
<path d="M98.7611 63.5265C90.4156 75.447 75.6104 80.158 62.3839 76.2377C59.0586 75.2537 55.8364 73.7237 52.8381 71.6245C37.9219 61.1797 34.2954 40.6202 44.7426 25.7015C48.4259 20.4392 53.3689 16.5832 58.8809 14.2547C68.9906 9.97895 81.0091 10.8445 90.6631 17.6057C105.582 28.0507 109.206 48.6102 98.7611 63.5265Z" fill="#DEDDF5"/>
<path d="M62.3839 76.2379C59.0586 75.2539 55.8364 73.7239 52.8381 71.6246C37.9219 61.1799 34.2954 40.6204 44.7426 25.7016C48.4259 20.4394 53.3689 16.5834 58.8809 14.2549C52.9231 28.4989 49.1419 50.3131 62.3839 76.2379Z" fill="#C7C4EA"/>
<path d="M51.2597 52.1626C55.4356 52.1626 58.8207 49.4668 58.8207 46.1414C58.8207 42.8159 55.4356 40.1201 51.2597 40.1201C47.0839 40.1201 43.6987 42.8159 43.6987 46.1414C43.6987 49.4668 47.0839 52.1626 51.2597 52.1626Z" fill="#FFA1AC"/>
<path d="M92.2431 52.1626C96.419 52.1626 99.8041 49.4668 99.8041 46.1414C99.8041 42.8159 96.419 40.1201 92.2431 40.1201C88.0673 40.1201 84.6821 42.8159 84.6821 46.1414C84.6821 49.4668 88.0673 52.1626 92.2431 52.1626Z" fill="#FFA1AC"/>
<path d="M78.5768 49.6994C77.9658 49.6994 77.3645 49.4102 76.9893 48.8707C75.634 46.9224 73.725 45.8052 71.7515 45.8052C69.778 45.8052 67.869 46.9224 66.5138 48.8707C65.9045 49.7464 64.701 49.9627 63.8248 49.3532C62.949 48.7439 62.733 47.5399 63.3423 46.6642C65.4303 43.6629 68.4955 41.9414 71.7518 41.9414C75.008 41.9414 78.073 43.6627 80.161 46.6642C80.7703 47.5399 80.5543 48.7439 79.6785 49.3532C79.3423 49.5869 78.9575 49.6994 78.5768 49.6994Z" fill="#495560"/>
<path d="M55.1052 42.7312C52.8649 42.7312 50.7344 41.7609 49.2602 40.0692C48.5592 39.2649 48.6429 38.0447 49.4474 37.3437C50.2519 36.6427 51.4719 36.7264 52.1732 37.5309C52.9134 38.3804 53.9824 38.8677 55.1054 38.8677C56.2287 38.8677 57.2974 38.3804 58.0377 37.5309C58.7387 36.7264 59.9589 36.6427 60.7632 37.3437C61.5677 38.0447 61.6514 39.2649 60.9504 40.0692C59.4762 41.7609 57.3457 42.7312 55.1052 42.7312Z" fill="#495560"/>
<path d="M88.3981 42.7312C86.1579 42.7312 84.0274 41.7609 82.5531 40.0692C81.8521 39.2649 81.9359 38.0447 82.7404 37.3437C83.5449 36.6427 84.7649 36.7264 85.4661 37.5309C86.2064 38.3804 87.2754 38.8677 88.3984 38.8677C89.5216 38.8677 90.5906 38.3804 91.3309 37.5309C92.0319 36.7264 93.2521 36.6427 94.0566 37.3437C94.8609 38.0447 94.9446 39.2649 94.2439 40.0692C92.7691 41.7609 90.6384 42.7312 88.3981 42.7312Z" fill="#495560"/>
</g>
<defs>
<clipPath id="clip0_4160_54774">
<rect width="128" height="128" fill="white"/>
</clipPath>
</defs>
</svg>
