<svg width="158" height="48" viewBox="0 0 158 48" fill="none" xmlns="http://www.w3.org/2000/svg">
<g clip-path="url(#clip0_4166_75717)">
<path d="M20.6317 10.0346C23.4052 10.0346 25.6534 7.78828 25.6534 5.01729C25.6534 2.24631 23.4052 0 20.6317 0C17.8584 0 15.61 2.24631 15.61 5.01729C15.61 7.78828 17.8584 10.0346 20.6317 10.0346Z" fill="url(#paint0_radial_4166_75717)"/>
<path d="M23.8062 6.24829C23.7824 6.27196 23.7587 6.36664 23.735 6.3903C23.7114 6.41397 23.7587 6.39029 23.6877 6.48495C23.6166 6.55596 23.6166 6.57963 23.593 6.62697C23.5692 6.6743 23.5693 6.69796 23.5455 6.72163C23.5218 6.74529 23.5218 6.76896 23.5218 6.79262C23.5218 6.8163 23.4982 6.79262 23.4982 6.86364C23.4982 6.93464 23.5455 6.98197 23.5455 6.98197C23.5455 6.98197 23.6403 7.00563 23.6639 6.93462C23.6877 6.86363 23.7114 6.93462 23.7587 6.79262C23.8062 6.62695 23.8062 6.65063 23.8062 6.60329C23.8298 6.57962 23.8298 6.55596 23.8298 6.48495C23.8535 6.43762 23.8535 6.43764 23.8535 6.3903C23.8535 6.34297 23.8771 6.34297 23.8771 6.27198C23.8535 6.22464 23.9008 6.1063 23.8062 6.24829Z" fill="url(#paint1_radial_4166_75717)"/>
<path d="M18.5707 0.875853C18.5945 0.875853 18.6655 0.946862 18.6655 0.946862C18.6655 0.970527 18.6655 0.970527 18.6655 1.01786C18.6655 1.04153 18.4998 1.13619 18.5707 1.20719C18.6418 1.27819 18.6418 1.27819 18.6418 1.27819C18.6418 1.27819 18.7366 1.27818 18.7603 1.23085C18.8076 1.18352 18.7603 1.25453 18.8076 1.18353C18.855 1.1362 18.8312 1.15986 18.855 1.13619C18.8787 1.08886 18.8787 1.06519 18.855 0.994183C18.8312 0.946853 18.8314 0.899519 18.8076 0.875853C18.7839 0.852186 18.7839 0.875855 18.7603 0.804855C18.7366 0.733856 18.7366 0.71019 18.7128 0.686523C18.6892 0.686523 18.6892 0.686523 18.6418 0.686523C18.6182 0.686523 18.6418 0.686523 18.5707 0.686523C18.5234 0.662857 18.5234 0.662862 18.5234 0.662862C18.5234 0.662862 18.476 0.639196 18.476 0.662862C18.476 0.710196 18.4286 0.757519 18.4286 0.757519C18.4286 0.757519 18.405 0.923188 18.4523 0.923188C18.476 0.923188 18.5234 0.852186 18.5707 0.875853Z" fill="url(#paint2_radial_4166_75717)"/>
<path d="M19.495 0.639263C19.495 0.639263 19.5424 0.662941 19.5188 0.710274C19.4951 0.757607 19.5188 0.828601 19.495 0.852268C19.4713 0.875934 19.424 0.946936 19.4003 0.970601C19.3767 0.994266 19.2819 1.1836 19.2819 1.20727C19.2819 1.2546 19.3056 1.30193 19.3292 1.34926C19.3529 1.39659 19.3292 1.44394 19.3529 1.49127C19.4003 1.51493 19.4003 1.6096 19.495 1.51493C19.5898 1.42025 19.6135 1.44394 19.6372 1.37294C19.6609 1.30194 19.7557 1.20727 19.7794 1.20727C19.803 1.20727 19.9451 1.1836 19.9926 1.13627C20.0635 1.08893 20.182 1.0416 20.2058 1.01794C20.2294 0.994266 20.2294 0.994266 20.2294 0.994266C20.2294 0.994266 20.2294 0.923262 20.2531 0.875929C20.2767 0.828595 20.3004 0.781272 20.3242 0.781272C20.3479 0.781272 20.4426 0.662932 20.4426 0.686599C20.4663 0.686599 20.4899 0.662935 20.5136 0.615602C20.5373 0.568269 20.5373 0.544603 20.5611 0.497269C20.5847 0.449936 20.6558 0.378934 20.6558 0.3316C20.6558 0.284267 20.6558 0.284264 20.6558 0.284264C20.6558 0.284264 20.9164 0.165938 20.7505 0.14227C20.5611 0.118605 20.7743 0.189604 20.4188 0.14227C20.0635 0.0949378 20.0635 0.023941 20.0162 0.0712741C19.9689 0.0949405 19.8267 0.236943 19.803 0.236943C19.7794 0.236943 19.5898 0.260598 19.5424 0.284264C19.4951 0.307931 19.5661 0.307934 19.3765 0.3316C19.1871 0.355267 19.2108 0.307942 19.1871 0.355275C19.1635 0.378942 19.0924 0.568266 19.1871 0.568266C19.3529 0.591933 19.4713 0.59193 19.495 0.639263Z" fill="url(#paint3_radial_4166_75717)"/>
<path d="M23.4604 1.04051C23.4604 1.08728 23.4373 1.04051 23.4373 1.04051C23.4373 1.04051 23.391 1.04051 23.2753 1.04051C23.1597 1.04051 23.2522 1.04051 23.2522 1.04051C23.2522 1.04051 23.1828 1.04051 23.1597 1.04051C23.1365 1.04051 23.0672 1.04051 23.0441 1.04051C23.0208 1.04051 22.9515 1.01713 22.9283 1.01713C22.9052 1.01713 22.9052 1.04051 22.9052 1.04051C22.8821 1.0639 22.9052 1.08729 22.8821 1.11068C22.8821 1.11068 22.8589 1.13406 22.8127 1.18084C22.7665 1.22761 22.7896 1.20422 22.7665 1.22761C22.7433 1.251 22.7202 1.22761 22.6971 1.22761C22.6971 1.22761 22.6507 1.22761 22.6739 1.25099C22.6969 1.27437 22.6971 1.29777 22.6971 1.29777C22.6971 1.29777 22.6739 1.29777 22.6045 1.29777C22.5351 1.29777 22.5813 1.27437 22.5813 1.25099C22.5813 1.22761 22.5813 1.22761 22.5813 1.22761C22.5813 1.22761 22.5583 1.20421 22.5351 1.20421C22.512 1.18083 22.4889 1.18083 22.4657 1.15744C22.4426 1.15744 22.4657 1.13406 22.4657 1.13406H22.4889C22.512 1.13406 22.5583 1.15744 22.5813 1.15744C22.6045 1.15744 22.6971 1.15744 22.7433 1.13406C22.7896 1.13406 22.7896 1.11067 22.8127 1.08728C22.8359 1.0639 22.7665 1.06391 22.7433 1.06391C22.7202 1.06391 22.7202 1.0639 22.6507 1.01713C22.5813 0.970362 22.6045 1.01714 22.5813 0.993747C22.5583 0.993747 22.4657 0.970353 22.4657 0.970353C22.4426 0.970353 22.4426 0.970353 22.3964 0.970353C22.35 0.970353 22.3731 0.970362 22.3269 0.946978C22.2806 0.923594 22.1419 0.970353 22.1419 0.970353L22.003 1.01713C22.003 1.01713 21.9568 1.04051 21.8643 1.06391C21.7718 1.06391 21.8412 1.06391 21.7949 1.11068C21.7718 1.15745 21.656 1.22761 21.6329 1.25099C21.6098 1.27437 21.5636 1.34454 21.5636 1.34454L21.4711 1.43807C21.4711 1.43807 21.4711 1.43807 21.4479 1.53162C21.4248 1.62517 21.4248 1.57839 21.4248 1.60177C21.4248 1.62515 21.4479 1.62517 21.4711 1.64856C21.4942 1.64856 21.5404 1.62515 21.5867 1.60177C21.6329 1.57839 21.6098 1.57839 21.6329 1.57839C21.656 1.57839 21.6792 1.67194 21.7024 1.71871C21.7256 1.76548 21.7487 1.76548 21.7718 1.78886C21.7949 1.81225 21.7949 1.78887 21.818 1.76548C21.8412 1.74209 21.818 1.76548 21.8412 1.74209C21.8643 1.71869 21.8643 1.69533 21.8874 1.67192C21.9106 1.64854 21.8874 1.67194 21.9106 1.64856C21.9336 1.62517 21.9336 1.62515 22.003 1.60177C22.0726 1.555 22.003 1.60177 21.9799 1.53162C21.9568 1.48485 21.9568 1.50823 21.9336 1.48485C21.9106 1.46146 21.9336 1.46147 21.9336 1.46147V1.3913L21.9568 1.36792C21.9568 1.36792 21.9568 1.36792 21.9799 1.36792C22.003 1.36792 22.0262 1.34453 22.0262 1.32114L22.0494 1.29777C22.0494 1.29777 22.0726 1.27437 22.0726 1.25099C22.0726 1.22761 22.0956 1.22761 22.0956 1.22761C22.0956 1.22761 22.1882 1.20422 22.2344 1.22761C22.2806 1.251 22.2344 1.25098 22.2344 1.27437C22.2344 1.29776 22.2112 1.29776 22.2112 1.32114C22.2112 1.32114 22.1882 1.36791 22.1188 1.3913C22.0494 1.43807 22.1188 1.3913 22.1188 1.46147C22.1188 1.53162 22.1419 1.50822 22.1419 1.50822C22.1419 1.50822 22.2806 1.50822 22.3269 1.50822C22.3731 1.50822 22.3732 1.50822 22.3964 1.50822C22.4195 1.50822 22.4195 1.53162 22.4195 1.555C22.4195 1.57839 22.3964 1.555 22.3731 1.57839C22.35 1.60179 22.35 1.57839 22.3037 1.57839C22.2575 1.57839 22.2575 1.57839 22.2344 1.57839C22.2112 1.57839 22.0956 1.57839 22.0956 1.57839C22.0956 1.57839 22.1419 1.62515 22.1882 1.62515C22.2344 1.62515 22.2344 1.64856 22.2344 1.64856C22.2344 1.64856 22.2575 1.67194 22.2806 1.69533C22.3037 1.71871 22.2806 1.71869 22.2806 1.74209C22.2806 1.78886 22.2806 1.74209 22.2112 1.71871C22.1419 1.69533 22.1882 1.71871 22.1882 1.69533C22.165 1.69533 22.1419 1.69533 22.1419 1.69533C22.1188 1.69533 22.1188 1.76548 22.1188 1.76548V1.78886C22.1188 1.81225 22.1188 1.81225 22.0956 1.85901C22.0726 1.8824 22.0494 1.88241 22.003 1.88241C21.9568 1.88241 21.9336 1.88241 21.9336 1.88241C21.9336 1.88241 21.9336 1.88241 21.9106 1.88241C21.8874 1.88241 21.8643 1.88241 21.8412 1.88241C21.818 1.88241 21.7949 1.88241 21.7718 1.88241C21.7487 1.88241 21.7718 1.88241 21.7487 1.88241C21.7256 1.88241 21.7256 1.88241 21.7024 1.88241C21.6792 1.88241 21.7023 1.88241 21.6792 1.83564C21.656 1.78886 21.656 1.78886 21.656 1.78886C21.656 1.76548 21.6792 1.74209 21.6792 1.71871C21.6792 1.69533 21.6792 1.71871 21.6792 1.67192C21.6792 1.62515 21.6329 1.67192 21.6329 1.67192C21.6329 1.67192 21.6098 1.74209 21.6098 1.76548C21.6098 1.76548 21.6098 1.78886 21.6098 1.85901C21.6098 1.92918 21.6098 1.88241 21.6098 1.90579C21.6098 1.92918 21.5867 1.90579 21.5867 1.92919C21.5867 1.92919 21.5867 1.92919 21.5636 1.92919C21.5404 1.92919 21.5404 1.92918 21.4942 1.95256C21.4479 1.97594 21.4942 1.97594 21.4942 1.97594C21.4942 1.97594 21.4711 1.99933 21.4479 2.02271C21.4248 2.04611 21.4249 2.04611 21.3785 2.0695C21.3322 2.09287 21.3322 2.11626 21.2859 2.13964C21.2629 2.16303 21.1935 2.18641 21.1703 2.20979C21.1241 2.23318 21.1473 2.20981 21.101 2.2332C21.0547 2.25658 21.0779 2.2332 21.0316 2.2332C20.9853 2.2332 21.0083 2.2332 21.0083 2.25658C21.0083 2.25658 21.0083 2.27997 21.0316 2.30335C21.0316 2.32673 21.0547 2.30336 21.1241 2.35013C21.1935 2.3969 21.1703 2.3969 21.1703 2.42028C21.1703 2.42028 21.1703 2.44366 21.1473 2.49043C21.1473 2.5372 21.1241 2.51383 21.101 2.51383C21.0779 2.53722 21.0779 2.53722 21.0547 2.53722C21.0315 2.53722 21.0547 2.53722 21.0316 2.53722C21.0316 2.53722 20.9621 2.53722 20.939 2.53722C20.9159 2.53722 20.9159 2.53722 20.9159 2.53722C20.9159 2.53722 20.8927 2.53722 20.8696 2.53722C20.8465 2.53722 20.8234 2.53722 20.8234 2.51383C20.8234 2.51383 20.8234 2.51383 20.8002 2.51383C20.7771 2.51383 20.754 2.53722 20.754 2.53722L20.7309 2.58399C20.7309 2.60737 20.7309 2.60738 20.754 2.63076C20.754 2.65415 20.754 2.67752 20.754 2.67752C20.754 2.67752 20.7309 2.7243 20.7309 2.74768C20.7309 2.77107 20.7309 2.79445 20.7309 2.79445C20.7309 2.79445 20.7309 2.79445 20.7309 2.81785C20.7309 2.84123 20.7309 2.888 20.754 2.93477C20.754 2.95815 20.8002 2.93477 20.8002 2.93477C20.8002 2.93477 20.8002 2.93477 20.8234 2.93477C20.8465 2.93477 20.8696 2.93477 20.9159 2.95815C20.939 2.95815 20.939 2.95815 20.9621 2.95815C20.9853 2.95815 20.9853 2.95815 20.9853 2.95815C20.9853 2.95815 21.0316 2.95815 21.0779 2.95815C21.1241 2.95815 21.1473 2.84122 21.1473 2.84122C21.1241 2.84122 21.1473 2.77107 21.1473 2.74768C21.1703 2.7243 21.1935 2.72428 21.2397 2.67752C21.2859 2.63075 21.2629 2.67753 21.2859 2.63076C21.3091 2.58399 21.3091 2.58399 21.3322 2.56058C21.3553 2.5372 21.3322 2.5606 21.3555 2.53722C21.3785 2.51383 21.3784 2.51383 21.4017 2.51383C21.4248 2.51383 21.4248 2.51382 21.4711 2.49043C21.5173 2.46705 21.4942 2.49043 21.5404 2.49043C21.5636 2.49043 21.5636 2.49045 21.5867 2.46705C21.6098 2.44366 21.6329 2.46705 21.6329 2.46705C21.6329 2.46705 21.6792 2.51383 21.7024 2.51383C21.7256 2.53722 21.7256 2.5372 21.7487 2.56058C21.7949 2.58399 21.7949 2.65414 21.7949 2.65414C21.818 2.67753 21.8412 2.67752 21.8643 2.67752C21.8874 2.70091 21.9106 2.70091 21.9336 2.7243C21.9799 2.74768 21.9568 2.77107 21.9568 2.77107C21.9568 2.79445 21.9568 2.79445 21.9568 2.81785C21.9568 2.84123 21.9106 2.84122 21.8874 2.84122C21.8643 2.84122 21.8412 2.86461 21.818 2.888C21.7949 2.91138 21.8412 2.91138 21.8643 2.93477C21.8874 2.95815 21.9106 2.95815 21.9106 2.95815C21.9106 2.95815 21.9336 2.95815 21.9568 2.91137C21.9799 2.86461 21.9799 2.84122 22.003 2.79445C22.0262 2.74767 22.003 2.77107 22.0262 2.74768C22.0262 2.7243 22.0494 2.7243 22.0262 2.70092C22.0262 2.67753 22.0262 2.70091 22.0262 2.67752C22.0262 2.65414 22.0262 2.65414 22.0262 2.65414C22.0262 2.65414 21.9568 2.63075 21.9336 2.60737C21.9106 2.60737 21.9106 2.58399 21.8643 2.56058C21.818 2.51382 21.8643 2.53722 21.8412 2.53722C21.8412 2.51383 21.7949 2.46705 21.7949 2.46705L21.8412 2.44366H21.8643C21.8874 2.44366 21.8874 2.44366 21.9106 2.46705C21.9336 2.49045 21.9336 2.49043 21.9336 2.49043C21.9336 2.49043 21.9568 2.51383 21.9799 2.51383C22.003 2.51383 22.0262 2.56058 22.0262 2.56058C22.0262 2.56058 22.0262 2.56058 22.0494 2.56058C22.0726 2.56058 22.0956 2.5606 22.1188 2.58399C22.1419 2.60737 22.1419 2.58399 22.165 2.60737C22.1882 2.60737 22.165 2.65414 22.165 2.67752C22.165 2.70091 22.165 2.72428 22.2344 2.79445C22.3037 2.86461 22.2575 2.79445 22.3037 2.84122C22.35 2.86461 22.35 2.888 22.3964 2.86461C22.4426 2.84123 22.3731 2.81784 22.3731 2.79445C22.3731 2.77107 22.3732 2.74768 22.3964 2.74768C22.4195 2.7243 22.4195 2.7243 22.4426 2.7243C22.4657 2.70091 22.4426 2.7243 22.4889 2.74768C22.5351 2.77107 22.512 2.74768 22.5583 2.74768C22.5813 2.74768 22.5813 2.74768 22.6276 2.74768C22.6739 2.74768 22.6507 2.77107 22.6276 2.77107C22.6045 2.77107 22.5813 2.77107 22.5583 2.79445C22.5351 2.81784 22.5351 2.81785 22.5351 2.86461C22.512 2.888 22.5351 2.888 22.5813 2.93477C22.6276 3.00494 22.5813 2.93477 22.6507 2.98155C22.7202 3.02832 22.6969 3.00492 22.7202 3.00492C22.7433 3.00492 22.7433 3.00492 22.7665 3.00492C22.7896 3.00492 22.7665 3.00492 22.8589 3.0283C22.9283 3.05169 22.8821 3.02832 22.9283 3.00492C22.9515 2.98154 22.9746 2.98155 22.9977 2.98155C23.0208 2.95817 23.0441 2.91138 23.0672 2.98155C23.0903 3.05171 23.0672 3.05171 23.0672 3.12186C23.0672 3.19202 23.0672 3.14524 23.0672 3.16864C23.0672 3.19202 23.0441 3.19202 23.0441 3.23879C23.0441 3.28556 23.0439 3.28556 23.0208 3.28556C23.0208 3.28556 22.9977 3.33233 22.9746 3.33233H22.9283C22.9283 3.33233 22.9283 3.33233 22.8589 3.33233C22.7896 3.33233 22.8359 3.33232 22.8127 3.35571C22.7896 3.3791 22.7665 3.35571 22.7433 3.35571C22.7202 3.33232 22.6739 3.33233 22.6739 3.33233C22.6739 3.33233 22.6507 3.33233 22.6045 3.33233C22.5583 3.33233 22.5351 3.30894 22.512 3.30894C22.4889 3.28556 22.4426 3.26217 22.4195 3.26217C22.3964 3.26217 22.3964 3.23879 22.3964 3.23879C22.3964 3.23879 22.35 3.26217 22.3269 3.28556C22.3037 3.30894 22.3037 3.33233 22.3037 3.33233C22.3037 3.35572 22.3037 3.37909 22.2806 3.37909C22.2575 3.37909 22.2575 3.37909 22.2344 3.37909C22.2112 3.37909 22.1419 3.37909 22.1419 3.37909C22.1419 3.37909 22.1188 3.35571 22.0956 3.30894C22.0956 3.26217 22.0262 3.28556 21.9799 3.26217C21.9336 3.23878 21.8874 3.26217 21.8874 3.26217C21.8874 3.26217 21.8412 3.23879 21.818 3.2154C21.7949 3.19202 21.7949 3.16864 21.7949 3.16864C21.7949 3.16864 21.7949 3.14524 21.818 3.12186C21.8412 3.07509 21.818 3.07509 21.8412 3.05171C21.8412 3.02832 21.8412 3.02832 21.8412 3.00492C21.8412 2.98154 21.818 2.95815 21.818 2.95815C21.7949 2.95815 21.7718 2.95815 21.7256 2.95815C21.6792 2.95815 21.6792 2.95817 21.6329 2.98155C21.6098 2.98155 21.5867 2.98155 21.5404 2.98155C21.4942 2.98155 21.4479 2.98155 21.4248 2.98155C21.4017 2.98155 21.4017 2.98154 21.3785 3.00492C21.3553 3.00492 21.3322 3.05171 21.2859 3.05171C21.2397 3.05171 21.2397 3.09847 21.1703 3.09847C21.1009 3.12187 21.0547 3.07509 21.0316 3.07509C21.0083 3.07509 21.0083 3.05171 20.9853 3.05171C20.9621 3.05171 20.9621 3.09847 20.9621 3.09847C20.9621 3.09847 20.939 3.12186 20.9159 3.14524C20.8927 3.16863 20.9159 3.16864 20.8927 3.16864C20.8927 3.19202 20.8927 3.16863 20.8234 3.19201C20.7771 3.21539 20.8234 3.2154 20.8002 3.23879C20.7771 3.26217 20.7771 3.26217 20.754 3.28556C20.7309 3.30894 20.7309 3.35571 20.7076 3.42587C20.6845 3.49602 20.6846 3.47264 20.6614 3.49602C20.6383 3.51941 20.6151 3.54279 20.592 3.54279C20.5689 3.54279 20.5458 3.61296 20.4996 3.65973C20.4532 3.7065 20.4764 3.72989 20.4532 3.75328C20.4302 3.77666 20.407 3.87021 20.3376 3.94036C20.2682 4.01051 20.3144 3.98713 20.3144 4.01051C20.3144 4.05728 20.3144 4.05728 20.3376 4.08066C20.3376 4.10405 20.3606 4.15083 20.3606 4.1976C20.3606 4.26775 20.3606 4.22099 20.3376 4.26776C20.3376 4.31455 20.3144 4.31453 20.3144 4.33792C20.3144 4.36132 20.2912 4.43147 20.3144 4.45485C20.3376 4.47824 20.3144 4.50163 20.3376 4.50163C20.3376 4.52502 20.3376 4.52502 20.3606 4.57178C20.3839 4.61855 20.3839 4.64194 20.3839 4.64194C20.3839 4.64194 20.407 4.68871 20.4302 4.73548C20.4532 4.78225 20.4532 4.78225 20.4996 4.82902C20.5226 4.87579 20.5226 4.87579 20.5226 4.87579C20.5226 4.87579 20.5689 4.89917 20.6151 4.94596C20.6614 4.99273 20.6614 4.99273 20.6845 5.01611C20.7078 5.03949 20.7078 5.0395 20.7771 5.08627C20.8465 5.13304 20.8234 5.08626 20.8465 5.06288C20.8696 5.06288 20.8696 5.06289 20.9159 5.0395C20.9621 5.01611 20.939 5.0395 20.9853 5.0395C21.0315 5.0395 21.0315 5.03949 21.0547 5.06288C21.0779 5.06288 21.0779 5.06288 21.1241 5.06288C21.1703 5.06288 21.1703 5.03949 21.1935 5.01611C21.2165 5.01611 21.2397 4.99273 21.2629 4.99273C21.2629 4.99273 21.2859 4.99273 21.3091 4.99273C21.3091 4.99273 21.3785 4.96934 21.4248 4.96934C21.4711 4.96934 21.4942 5.03949 21.4942 5.06288C21.5173 5.08626 21.5173 5.06288 21.5636 5.06288C21.6098 5.06288 21.5867 5.06288 21.6098 5.06288C21.6329 5.06288 21.633 5.06289 21.6792 5.08627C21.7256 5.10966 21.7256 5.13303 21.7256 5.13303C21.7256 5.15642 21.7256 5.17982 21.7256 5.2032C21.7256 5.22659 21.7024 5.32012 21.7024 5.36689C21.7024 5.41366 21.7024 5.43704 21.7024 5.48383C21.7024 5.50721 21.7256 5.5306 21.7487 5.5306C21.7718 5.5306 21.7487 5.55398 21.7718 5.57738C21.7949 5.60076 21.7718 5.57738 21.818 5.62414C21.8412 5.67091 21.8412 5.71768 21.8643 5.76445C21.8874 5.81123 21.8874 5.81123 21.9106 5.85799C21.9336 5.90478 21.9336 5.99832 21.9336 5.99832C21.9336 6.0217 21.9336 6.0217 21.9336 6.06847C21.9336 6.09185 21.9336 6.13862 21.9106 6.1854C21.9106 6.23217 21.8874 6.23217 21.8874 6.27895C21.8643 6.32572 21.818 6.39588 21.818 6.44265C21.818 6.46604 21.818 6.48942 21.818 6.55957C21.818 6.62973 21.818 6.55957 21.818 6.58296C21.818 6.60634 21.8412 6.62973 21.8643 6.65311C21.8874 6.6765 21.8874 6.69989 21.8874 6.74666C21.8874 6.77006 21.9106 6.79344 21.9106 6.84021C21.9106 6.88699 21.9336 6.88698 21.9568 6.91037C21.9568 6.93376 21.9568 6.95714 21.9568 6.98052C21.9568 7.00391 21.9799 7.09745 22.003 7.14422C22.0262 7.19099 22.0494 7.23776 22.0494 7.23776C22.0726 7.23776 22.0726 7.26114 22.0956 7.35468C22.1188 7.42485 22.1188 7.5184 22.0956 7.54178C22.0726 7.56518 22.1188 7.58855 22.165 7.63532C22.1882 7.68209 22.1882 7.63532 22.2344 7.63532C22.2806 7.63532 22.2344 7.63533 22.35 7.61195C22.4426 7.58857 22.512 7.58855 22.5351 7.58855C22.5583 7.58855 22.5813 7.56518 22.6045 7.54178C22.6276 7.5184 22.6969 7.44824 22.7202 7.42486C22.7433 7.42486 22.7433 7.42485 22.7896 7.33131C22.8359 7.23776 22.8127 7.28453 22.8359 7.28453C22.8589 7.26114 22.8589 7.26114 22.8589 7.23776C22.8821 7.21437 22.8821 7.19099 22.9052 7.14422C22.9283 7.09745 22.9052 7.07406 22.9283 7.05068C22.9515 7.02729 22.9283 7.05068 22.9515 7.05068C22.9515 7.05068 22.9746 7.05068 22.9746 7.02729C22.9977 7.02729 22.9977 7.02729 22.9977 7.0039C23.0208 7.0039 23.0208 7.00391 23.0441 6.98052C23.0672 6.95714 23.0672 6.95714 23.0672 6.95714C23.0903 6.93376 23.0441 6.86359 23.0441 6.84021C23.0441 6.84021 23.0208 6.79342 23.0208 6.77004C23.0208 6.77004 22.9977 6.74667 23.0208 6.6765C23.0439 6.60635 23.0441 6.65312 23.0903 6.62973C23.1365 6.60635 23.1597 6.55957 23.1828 6.5128C23.2059 6.46604 23.1828 6.5128 23.2522 6.48942C23.2984 6.46604 23.2753 6.46604 23.2753 6.46604C23.2753 6.46604 23.2984 6.41925 23.3216 6.39587C23.3446 6.37249 23.3216 6.39588 23.3446 6.3725C23.3446 6.34911 23.3446 6.3257 23.3678 6.30232C23.3678 6.27894 23.3678 6.1854 23.3678 6.1854C23.3678 6.1854 23.3678 6.13863 23.3678 6.11524V6.09186C23.3678 6.09186 23.3678 6.06847 23.3678 6.04509C23.3678 6.0217 23.3678 6.0217 23.3446 5.99832C23.3216 5.97493 23.3216 5.83461 23.3216 5.78784C23.3216 5.7177 23.3216 5.76447 23.3216 5.74108C23.3216 5.74108 23.3216 5.67091 23.3216 5.64753C23.3216 5.62414 23.4142 5.5306 23.4142 5.50721C23.4142 5.48383 23.4604 5.46045 23.4836 5.43706C23.5066 5.41368 23.5066 5.41366 23.5066 5.41366C23.5066 5.41366 23.5298 5.39028 23.5992 5.34351C23.6454 5.29674 23.6685 5.2032 23.738 5.15642C23.8074 5.10966 23.7612 5.13304 23.7842 5.10966C23.7842 5.08627 23.8074 5.08627 23.8536 5.0395C23.8999 4.99273 23.8768 4.99273 23.8999 4.94596C23.923 4.89917 23.923 4.87581 23.923 4.85242C23.923 4.82904 23.923 4.78225 23.9461 4.73548C23.9461 4.68871 23.923 4.66532 23.923 4.66532C23.923 4.66532 23.8999 4.66532 23.8768 4.68871L23.8536 4.71209H23.7842C23.7842 4.71209 23.6685 4.73548 23.6454 4.73548C23.6222 4.73548 23.5298 4.7121 23.5066 4.68871C23.5066 4.66532 23.4836 4.64194 23.4836 4.61855C23.4604 4.59517 23.4604 4.59517 23.4373 4.57178C23.4142 4.5484 23.4142 4.54838 23.391 4.525C23.3679 4.50162 23.3446 4.50162 23.2984 4.45485C23.2753 4.40809 23.2753 4.33792 23.2753 4.33792C23.2753 4.33792 23.2059 4.24437 23.1828 4.1976C23.1597 4.15083 23.1597 4.10405 23.1597 4.08066C23.1597 4.05728 23.1365 4.05728 23.1135 4.01051C23.0903 3.96374 23.0903 3.96374 23.0672 3.94036C23.0441 3.8936 23.0208 3.82343 23.0208 3.82343C23.0208 3.82343 22.9515 3.75327 22.9515 3.72988C22.9283 3.72988 22.9283 3.61296 22.9283 3.58958C22.9283 3.58958 22.8821 3.51941 22.9052 3.49602C22.9283 3.47264 22.9515 3.56619 22.9515 3.58958C22.9515 3.61296 22.9746 3.61296 22.9977 3.61296C23.0208 3.61296 23.0208 3.58958 23.0208 3.56619C23.0208 3.54281 23.0441 3.54279 23.0441 3.54279C23.0441 3.54279 23.0441 3.56619 23.0672 3.58958C23.0672 3.61296 23.0672 3.61296 23.0672 3.61296C23.0672 3.63635 23.0903 3.63635 23.0903 3.65973C23.1135 3.68311 23.1135 3.68311 23.1135 3.70651C23.1365 3.72989 23.1365 3.77666 23.1365 3.82343C23.1365 3.84681 23.2059 3.8936 23.229 3.91697C23.2522 3.96374 23.2522 3.96374 23.2522 3.96374C23.2522 3.96374 23.2522 3.98714 23.2522 4.03391C23.2522 4.08068 23.2753 4.08068 23.2984 4.10407C23.3216 4.12745 23.3446 4.12745 23.3446 4.15084C23.3446 4.15084 23.391 4.29115 23.4142 4.33792C23.4373 4.36132 23.4373 4.3613 23.4373 4.3613C23.4373 4.3613 23.4373 4.38468 23.4604 4.43145C23.4836 4.47824 23.4604 4.43145 23.5066 4.54839C23.5529 4.66532 23.5298 4.59517 23.5298 4.59517C23.5529 4.61855 23.5529 4.59517 23.576 4.59517C23.5992 4.59517 23.6222 4.57178 23.6454 4.57178C23.6685 4.57178 23.6916 4.54838 23.738 4.525C23.7842 4.50162 23.8536 4.50162 23.8999 4.47824C23.9461 4.43147 23.9692 4.40809 23.9924 4.40809C24.0155 4.40809 24.0155 4.40809 24.0388 4.3847C24.0618 4.36132 24.0619 4.36132 24.085 4.33792C24.1081 4.31453 24.1081 4.31453 24.1543 4.29115C24.2006 4.26776 24.1775 4.26776 24.2237 4.22099C24.2469 4.19761 24.2699 4.12745 24.2931 4.10407C24.3162 4.08068 24.3162 4.05728 24.3393 4.01051C24.3625 3.96374 24.3393 3.98713 24.3393 3.98713C24.3393 3.96374 24.3162 3.96374 24.2931 3.96374C24.2699 3.96374 24.2006 3.91697 24.1775 3.89358C24.1543 3.8702 24.1543 3.89358 24.1312 3.84681C24.085 3.80004 24.1081 3.84683 24.1081 3.87021C24.1081 3.87021 24.085 3.8702 24.0619 3.89358C24.0386 3.91697 23.9461 3.91697 23.923 3.91697C23.8999 3.91697 23.8999 3.89358 23.8999 3.89358C23.8999 3.89358 23.8999 3.8702 23.8999 3.84681C23.8999 3.82343 23.8768 3.82343 23.8536 3.82343C23.8305 3.82343 23.8305 3.82345 23.8305 3.80006C23.8305 3.80006 23.8305 3.77666 23.8074 3.75328C23.7842 3.72989 23.7842 3.72989 23.738 3.70651C23.7148 3.68311 23.7148 3.68311 23.6916 3.65973C23.6916 3.63635 23.6454 3.58958 23.6454 3.56619C23.6454 3.54281 23.6685 3.54279 23.6685 3.54279C23.6685 3.54279 23.6916 3.51943 23.7148 3.51943C23.738 3.49604 23.738 3.51943 23.738 3.51943C23.738 3.51943 23.7612 3.51942 23.8074 3.56619C23.8536 3.61296 23.8305 3.61296 23.8536 3.63635C23.8768 3.68312 23.8768 3.65973 23.8999 3.65973C23.923 3.68311 23.9692 3.70651 23.9924 3.70651C24.0155 3.70651 24.1081 3.70651 24.1081 3.70651V3.75328C24.1081 3.75328 24.2006 3.77666 24.2237 3.80006C24.2469 3.80006 24.2469 3.80004 24.2699 3.82343C24.2931 3.84681 24.4089 3.82343 24.4089 3.82343C24.4089 3.82343 24.4782 3.82343 24.5013 3.82343C24.5475 3.82343 24.5475 3.82343 24.5707 3.82343C24.5938 3.82343 24.6169 3.82343 24.6169 3.84681C24.6401 3.84681 24.6632 3.87021 24.6863 3.91697C24.7094 3.96374 24.7558 3.96374 24.7789 3.96374C24.8021 3.96374 24.8021 3.96374 24.8252 3.98713C24.8483 4.01053 24.8252 3.98713 24.8021 4.01051C24.8021 4.01051 24.8021 4.01053 24.7789 4.03391C24.7558 4.0573 24.7789 4.0573 24.7789 4.0573C24.7789 4.0573 24.8021 4.08068 24.8021 4.10407C24.8252 4.12745 24.8714 4.10407 24.8946 4.10407C24.8946 4.10407 24.8945 4.08066 24.9176 4.08066C24.9408 4.08066 24.9408 4.0573 24.9639 4.0573C24.987 4.0573 24.9639 4.10406 24.9639 4.12745C24.9639 4.15083 24.987 4.17423 24.987 4.22099C24.987 4.29115 24.987 4.29115 24.987 4.31453C24.987 4.33792 25.0102 4.36132 25.0102 4.3847C25.0102 4.40809 25.0332 4.40809 25.0332 4.45485C25.0332 4.50162 25.0796 4.57178 25.0796 4.57178L25.1028 4.61855C25.1028 4.61855 25.1259 4.66533 25.149 4.73548C25.1952 4.80563 25.1722 4.75886 25.1722 4.78224C25.1722 4.78224 25.1722 4.78225 25.1952 4.85242C25.2184 4.92257 25.2184 4.89919 25.2184 4.92257C25.2184 4.94596 25.2415 4.94596 25.2646 4.96934C25.2878 4.96934 25.2646 4.96934 25.2878 4.92257C25.3108 4.89919 25.3108 4.89919 25.334 4.87579C25.334 4.8524 25.3571 4.82902 25.3571 4.78224C25.3571 4.75886 25.3802 4.73547 25.3802 4.66532C25.3571 4.57177 25.3802 4.61855 25.3802 4.59517C25.3802 4.57177 25.4035 4.5484 25.4035 4.50163C25.4035 4.47825 25.4035 4.45485 25.4498 4.45485C25.496 4.43147 25.496 4.40809 25.5191 4.3847C25.5191 4.3847 25.5191 4.38468 25.5422 4.3613C25.1722 2.91138 24.4551 1.78886 23.4604 1.04051Z" fill="url(#paint4_radial_4166_75717)"/>
<path d="M17.9314 0.852024C17.9314 0.875689 17.8841 0.875684 17.8603 0.875684C16.9129 1.51469 16.1786 2.46134 15.8706 3.59734C15.8706 3.621 15.8942 3.621 15.8942 3.64467C15.918 3.71567 15.918 3.66835 15.9654 3.73934C16.0127 3.81035 15.9654 3.88134 15.9417 3.90501C15.918 3.92867 16.0127 4.02334 16.0127 4.04701C16.0127 4.07067 16.1311 4.09434 16.1311 4.09434C16.1311 4.09434 16.1786 4.14168 16.2259 4.16534C16.2733 4.189 16.3443 4.21267 16.368 4.21267C16.3918 4.21267 16.4391 4.18901 16.4627 4.18901C16.4864 4.18901 16.4864 4.21267 16.4864 4.23634C16.4864 4.26 16.5338 4.28368 16.6286 4.33101C16.7234 4.37834 16.676 4.37834 16.6997 4.37834C16.7233 4.37834 16.7471 4.37833 16.7708 4.40201C16.7945 4.42568 16.7945 4.42568 16.8181 4.44935C16.8419 4.47301 16.9129 4.56767 16.9365 4.59134C16.9603 4.61501 17.0077 4.686 17.0313 4.70967C17.055 4.73333 17.0788 4.78067 17.1734 4.78067C17.2682 4.78067 17.2209 4.78068 17.2682 4.73333C17.3156 4.70967 17.2918 4.73333 17.3156 4.73333C17.3393 4.75702 17.3393 4.757 17.3393 4.78067C17.3393 4.80434 17.3393 4.80435 17.3393 4.85168C17.3393 4.89902 17.3393 4.899 17.3393 4.99367C17.3393 5.06468 17.3393 5.06468 17.3156 5.08834C17.2918 5.11201 17.2918 5.11199 17.2682 5.13566C17.2445 5.15933 17.2445 5.15934 17.2445 5.15934C17.2445 5.15934 17.2209 5.18299 17.1972 5.25399C17.1497 5.325 17.1734 5.30134 17.1734 5.34867C17.1497 5.396 17.1734 5.396 17.1734 5.396C17.1734 5.41966 17.1972 5.467 17.1972 5.49067C17.1972 5.51433 17.1734 5.51433 17.1497 5.538C17.1261 5.56166 17.1497 5.609 17.1734 5.65633C17.1972 5.70366 17.2209 5.75101 17.2445 5.79834C17.2682 5.84567 17.2445 5.79832 17.2682 5.84566C17.2918 5.91665 17.3156 5.94033 17.3393 5.98766C17.3629 6.03499 17.3866 6.05866 17.3866 6.106C17.4103 6.15333 17.4577 6.22432 17.505 6.29533C17.5525 6.36634 17.6946 6.41365 17.7182 6.43732C17.7419 6.46099 17.7655 6.55567 17.7655 6.603C17.7655 6.62666 17.7655 6.69766 17.7655 6.72132C17.7655 6.76866 17.7655 6.86334 17.7893 6.93433C17.7893 7.00533 17.7893 7.12366 17.7893 7.17099C17.7893 7.242 17.813 7.26566 17.813 7.31299C17.813 7.36032 17.8603 7.40767 17.8603 7.455C17.8603 7.50234 17.813 7.64433 17.813 7.69166C17.813 7.73899 17.8367 7.78632 17.8367 7.83365C17.8367 7.88099 17.8367 7.85732 17.8603 7.90466C17.8841 7.95199 17.884 7.95199 17.9078 7.99932C17.9314 8.04665 17.9314 8.02298 17.9551 8.07032C17.9787 8.11765 17.9787 8.23598 18.0024 8.30699C18.0262 8.40166 18.0262 8.35431 18.0499 8.37799C18.0499 8.40166 18.0735 8.47265 18.0735 8.47265C18.0735 8.47265 18.1208 8.56732 18.1446 8.63833C18.1919 8.70933 18.2156 8.75666 18.2394 8.75666C18.2631 8.75666 18.4288 8.85133 18.4999 8.87499C18.571 8.87499 18.571 8.82766 18.571 8.82766C18.571 8.82766 18.4999 8.80398 18.4763 8.78031C18.4525 8.75665 18.4288 8.75665 18.4288 8.73298C18.4288 8.73298 18.4051 8.68565 18.3815 8.66198C18.3577 8.63832 18.334 8.59099 18.334 8.56732C18.334 8.54366 18.334 8.54366 18.3578 8.49632C18.3815 8.44899 18.3815 8.40166 18.3815 8.37799C18.3815 8.35431 18.3815 8.37799 18.3578 8.35433C18.334 8.33066 18.334 8.33065 18.334 8.30699C18.334 8.28332 18.334 8.18866 18.334 8.165C18.334 8.14133 18.334 8.14133 18.334 8.11766C18.334 8.07032 18.3578 7.97565 18.3578 7.97565C18.3578 7.97565 18.3815 7.97565 18.4051 7.95199C18.4051 7.92832 18.4288 7.88099 18.4288 7.80999C18.4288 7.739 18.4525 7.80999 18.4525 7.80999C18.4525 7.80999 18.4999 7.80999 18.5473 7.78632C18.5947 7.78632 18.571 7.76266 18.6421 7.69166C18.7132 7.62066 18.6184 7.66798 18.6184 7.66798C18.5947 7.66798 18.5473 7.54965 18.571 7.50232C18.5947 7.45499 18.6421 7.57331 18.6658 7.54965C18.6894 7.52598 18.7132 7.54965 18.7605 7.50232C18.8078 7.47865 18.8078 7.36034 18.8078 7.33667C18.8317 7.31299 18.8317 7.31299 18.879 7.26566C18.9263 7.21831 18.9263 7.21833 18.9501 7.17099C18.9737 7.12366 18.9501 7.00532 18.9501 6.95799C18.9501 6.91065 18.9737 6.88699 18.9974 6.88699C19.021 6.86332 19.0447 6.83966 19.0685 6.83966C19.0922 6.81599 19.1158 6.79233 19.1633 6.76866C19.2106 6.72132 19.2817 6.69766 19.2817 6.69766C19.2817 6.69766 19.3527 6.603 19.3527 6.57933C19.3527 6.55567 19.3763 6.50832 19.4001 6.43732C19.4238 6.34266 19.4238 6.36632 19.4238 6.36632C19.4238 6.34266 19.4001 6.22434 19.4001 6.15334C19.4001 6.08234 19.4001 6.12966 19.4238 6.106C19.4475 6.08233 19.4948 5.98767 19.5422 5.94034C19.5895 5.893 19.5659 5.893 19.5895 5.86933C19.6132 5.84567 19.6132 5.822 19.6132 5.79834C19.6132 5.77467 19.637 5.77465 19.637 5.72732C19.637 5.70366 19.6132 5.65633 19.6132 5.65633L19.4948 5.60899C19.4475 5.58533 19.4475 5.56168 19.3763 5.51433C19.3054 5.467 19.3054 5.467 19.3054 5.467H19.2817C19.2817 5.467 19.1869 5.49067 19.1633 5.49067C19.1395 5.49067 19.1395 5.49067 19.1158 5.467C19.1158 5.467 19.0922 5.396 19.0922 5.37233C19.0922 5.34867 18.9974 5.325 18.9737 5.325C18.9501 5.325 18.9737 5.325 18.9501 5.325C18.9263 5.325 18.9263 5.34867 18.9026 5.34867C18.879 5.37233 18.9026 5.37233 18.8553 5.396C18.8078 5.41966 18.8078 5.396 18.8078 5.37233C18.7842 5.37233 18.7842 5.37233 18.7842 5.37233C18.7605 5.37233 18.7605 5.37233 18.7369 5.325C18.7132 5.27767 18.7842 5.27767 18.8078 5.27767C18.8317 5.25401 18.8553 5.23033 18.879 5.20667C18.9026 5.15934 18.879 5.183 18.879 5.183C18.879 5.183 18.8553 5.15934 18.8078 5.08834C18.7605 5.04101 18.7842 5.01733 18.7842 4.99367C18.7842 4.97 18.7605 4.94633 18.7369 4.94633C18.7132 4.92266 18.6658 4.94635 18.6421 4.92268C18.6421 4.899 18.6421 4.92268 18.6184 4.92268C18.5947 4.92268 18.5473 4.899 18.5236 4.899C18.4999 4.899 18.5236 4.899 18.4763 4.899C18.4288 4.899 18.4288 4.899 18.4051 4.87533C18.3815 4.85167 18.3815 4.828 18.3578 4.80434C18.334 4.78067 18.2867 4.757 18.2867 4.757C18.2867 4.757 18.2867 4.73333 18.2867 4.70967C18.2867 4.686 18.2394 4.686 18.2394 4.686C18.2156 4.686 18.1919 4.66234 18.1919 4.63867C18.1919 4.61501 18.0972 4.61501 18.0972 4.61501C18.0972 4.61501 18.0735 4.61501 18.0499 4.61501C18.0262 4.61501 17.9314 4.61501 17.9078 4.59134C17.884 4.56767 17.8367 4.544 17.8367 4.544C17.8367 4.544 17.7655 4.54401 17.7419 4.56767C17.7182 4.56767 17.7182 4.59134 17.7182 4.61501C17.7182 4.63867 17.7182 4.63866 17.7182 4.66232C17.7182 4.686 17.6946 4.66232 17.6946 4.66232C17.6709 4.66232 17.6709 4.66234 17.6709 4.63867C17.6709 4.61501 17.6709 4.59134 17.6709 4.56767C17.6709 4.54401 17.7182 4.52034 17.7182 4.49668C17.7419 4.47301 17.6946 4.49668 17.6946 4.49668C17.6946 4.49668 17.6709 4.52033 17.6471 4.544C17.5998 4.56766 17.6235 4.56767 17.5998 4.59134C17.5525 4.61501 17.5525 4.61501 17.5287 4.63867C17.505 4.63867 17.505 4.66234 17.4814 4.686C17.4814 4.686 17.4341 4.757 17.4103 4.757C17.3866 4.78067 17.3866 4.757 17.3866 4.757L17.3629 4.73333L17.3393 4.70967C17.3393 4.70967 17.3393 4.70967 17.3156 4.70967C17.2918 4.70967 17.2445 4.73333 17.2209 4.757C17.1972 4.757 17.1972 4.78067 17.1972 4.78067C17.1972 4.78067 17.1261 4.78067 17.1024 4.686C17.0788 4.59134 17.0786 4.56767 17.0786 4.56767C17.0786 4.54401 17.0786 4.54401 17.0786 4.52034C17.0786 4.49668 17.1024 4.47299 17.1024 4.47299C17.1024 4.44933 17.1024 4.44933 17.1261 4.42566C17.1261 4.402 17.1261 4.402 17.1024 4.35467C17.0788 4.30734 17.055 4.35468 17.055 4.33101C17.0313 4.33101 17.0313 4.33101 17.0077 4.33101C16.984 4.33101 16.9603 4.33101 16.9129 4.33101C16.8656 4.33101 16.8418 4.331 16.8418 4.30734C16.8418 4.26 16.8656 4.23634 16.8656 4.23634C16.8656 4.23634 16.8656 4.189 16.8656 4.16534C16.8656 4.14168 16.8892 4.11801 16.8892 4.11801C16.8892 4.11801 16.9129 4.09434 16.9365 4.07067C16.9603 4.07067 16.9602 4.02334 16.9602 3.99968C16.984 3.97601 17.0077 3.95233 17.0077 3.95233C17.0077 3.95233 16.984 3.95233 16.9129 3.95233C16.8419 3.95233 16.8656 3.95233 16.8418 3.95233C16.8181 3.95233 16.8181 3.97601 16.7945 3.99968C16.7708 4.02334 16.7945 4.02334 16.7708 4.04701C16.7708 4.07067 16.7233 4.14168 16.6997 4.14168C16.6997 4.14168 16.676 4.16534 16.6523 4.16534C16.6286 4.16534 16.6049 4.16534 16.6049 4.16534C16.6049 4.16534 16.5575 4.16534 16.5102 4.16534C16.4627 4.16534 16.4864 4.16534 16.5102 4.11801C16.5102 4.07067 16.4627 3.99968 16.4627 3.97601C16.4627 3.95235 16.4627 3.95233 16.4627 3.95233V3.85768C16.4627 3.85768 16.4627 3.83401 16.4864 3.81035C16.4864 3.78668 16.4864 3.78668 16.4864 3.73934C16.4864 3.69201 16.4864 3.69201 16.4864 3.66835C16.4864 3.64469 16.5338 3.621 16.5575 3.57367C16.5812 3.52634 16.6049 3.50268 16.6286 3.47901C16.6523 3.43167 16.676 3.45534 16.7233 3.45534C16.7471 3.45534 16.7233 3.43167 16.8181 3.43167C16.9129 3.43167 16.8419 3.43167 16.8656 3.43167C16.8656 3.43167 16.8892 3.45534 16.9129 3.47901C16.9365 3.50268 16.9365 3.47901 17.0077 3.47901C17.0788 3.47901 17.0077 3.47901 17.0077 3.43167C17.0077 3.40801 17.0077 3.40801 17.0077 3.40801C17.0313 3.40801 17.0313 3.40801 17.0786 3.38434C17.1261 3.36068 17.1734 3.38434 17.1734 3.38434C17.1972 3.38434 17.2682 3.40801 17.2918 3.40801C17.3393 3.40801 17.3156 3.43167 17.3393 3.47901C17.3629 3.52634 17.3393 3.52634 17.3393 3.52634C17.3393 3.55001 17.3393 3.62102 17.3866 3.66835C17.4341 3.71568 17.4341 3.73934 17.4577 3.69201C17.505 3.64467 17.4577 3.55001 17.4103 3.45534C17.3866 3.36068 17.4341 3.38434 17.4814 3.33701C17.5287 3.26601 17.5287 3.24235 17.5998 3.21868C17.6709 3.17135 17.6946 3.14767 17.6946 3.124C17.6946 3.124 17.7419 3.10036 17.7655 3.07668C17.7893 3.05302 17.813 3.02935 17.813 2.95836C17.813 2.88735 17.7893 2.93467 17.813 2.88735C17.8367 2.84002 17.8367 2.81635 17.8603 2.81635C17.8841 2.81635 17.8603 2.93467 17.9078 2.86368C17.9551 2.81635 17.9314 2.81635 17.9551 2.76901C18.0024 2.72167 18.0024 2.74535 18.0262 2.74535C18.0499 2.74535 18.0972 2.67433 18.121 2.65067C18.1446 2.627 18.1446 2.60334 18.1683 2.57967C18.1919 2.55601 18.2631 2.53235 18.3104 2.50869C18.3578 2.48502 18.3577 2.43769 18.3815 2.43769C18.4051 2.43769 18.4525 2.43768 18.5236 2.41401C18.5947 2.41401 18.5236 2.43769 18.4999 2.43769C18.4763 2.46136 18.4763 2.50869 18.4763 2.50869C18.4999 2.50869 18.4999 2.48502 18.5236 2.48502C18.5473 2.46136 18.571 2.46136 18.6184 2.43769C18.6658 2.43769 18.6421 2.41401 18.6894 2.41401C18.7369 2.41401 18.6894 2.39035 18.6658 2.39035C18.6421 2.39035 18.6184 2.36668 18.5947 2.34302C18.571 2.31934 18.5473 2.29568 18.571 2.29568C18.5947 2.27201 18.6421 2.22468 18.6421 2.20102C18.6658 2.17735 18.6658 2.17735 18.5947 2.20102C18.5236 2.20102 18.571 2.20102 18.5236 2.20102C18.4999 2.20102 18.4525 2.22468 18.4288 2.22468C18.4288 2.22468 18.3815 2.24835 18.334 2.27201C18.3104 2.29568 18.2867 2.29568 18.2867 2.29568C18.2867 2.29568 18.334 2.27201 18.3815 2.22468C18.4288 2.17735 18.4051 2.17735 18.4525 2.15369C18.4999 2.13001 18.4763 2.13001 18.571 2.10635C18.6658 2.05902 18.6184 2.08268 18.6421 2.08268C18.6894 2.08268 18.7605 2.10635 18.8078 2.08268C18.8553 2.08268 18.8317 2.08267 18.8553 2.05901C18.879 2.05901 18.879 2.03535 18.9263 2.01169C18.9737 1.98802 18.9737 1.98802 18.9974 1.98802C19.021 1.98802 19.0211 1.96434 19.0447 1.94068C19.0685 1.91701 19.0447 1.91702 19.0447 1.89336C19.0447 1.89336 19.021 1.86969 19.021 1.84603C19.021 1.82236 18.9501 1.77501 18.9263 1.75135C18.9026 1.72768 18.9026 1.65668 18.9026 1.63301C18.9026 1.63301 18.879 1.60935 18.879 1.58568C18.879 1.56202 18.879 1.51469 18.879 1.49102C18.879 1.46735 18.8317 1.46734 18.8317 1.46734C18.8317 1.46734 18.7842 1.49102 18.7369 1.53835C18.7132 1.56202 18.7132 1.56202 18.6894 1.58568C18.6658 1.58568 18.6421 1.56202 18.6184 1.56202C18.5947 1.56202 18.5947 1.53835 18.5947 1.51469C18.5947 1.51469 18.5947 1.42002 18.5947 1.39636C18.5947 1.37269 18.571 1.37269 18.5236 1.37269C18.4763 1.34903 18.4999 1.34901 18.4763 1.34901C18.4525 1.34901 18.4051 1.34901 18.4051 1.34901C18.3815 1.34901 18.4051 1.37269 18.3815 1.37269C18.3815 1.39636 18.3578 1.42002 18.3578 1.44369C18.3578 1.46735 18.3578 1.44369 18.2867 1.51469C18.2394 1.58568 18.2394 1.53835 18.2394 1.56202C18.2394 1.58568 18.2631 1.60935 18.2631 1.63301C18.2631 1.65668 18.2156 1.70403 18.1683 1.72769C18.121 1.77502 18.121 1.75135 18.0972 1.75135C18.0735 1.75135 18.0735 1.79868 18.0499 1.82234C18.0499 1.84601 18.0262 1.84603 18.0262 1.84603C18.0262 1.86969 18.0026 1.89336 17.9787 1.91702C17.9551 1.96436 17.9551 1.96434 17.9314 1.98802C17.9078 1.98802 17.9078 1.98802 17.884 1.98802C17.8603 1.98802 17.8603 1.96435 17.8367 1.96435C17.813 1.96435 17.8367 1.86969 17.8367 1.84603C17.8367 1.82236 17.8367 1.82236 17.8603 1.77502C17.8603 1.72769 17.8367 1.75135 17.813 1.75135C17.7893 1.75135 17.7182 1.70402 17.6946 1.68035C17.6709 1.68035 17.6709 1.6567 17.6471 1.6567C17.6471 1.6567 17.5998 1.63301 17.5525 1.60935C17.505 1.60935 17.505 1.58568 17.505 1.58568C17.505 1.58568 17.5287 1.56202 17.5287 1.51469C17.5525 1.46735 17.5287 1.46734 17.5287 1.46734C17.5287 1.46734 17.5287 1.44369 17.5525 1.44369C17.5525 1.44369 17.5998 1.39636 17.6235 1.37269C17.6471 1.34903 17.6709 1.34903 17.7419 1.32535C17.813 1.30169 17.813 1.25435 17.8367 1.23068C17.8603 1.23068 17.8603 1.23068 17.9078 1.20702C17.9551 1.18335 17.9551 1.18336 17.9787 1.18336C18.0026 1.18336 18.0735 1.15968 18.121 1.11235C18.1683 1.08869 18.1446 1.08869 18.1446 1.06503L18.1919 1.01769C18.2156 1.01769 18.2156 1.01769 18.2394 1.01769C18.2631 1.01769 18.2631 1.01769 18.2867 1.01769C18.3104 1.01769 18.3578 1.01769 18.3578 1.01769C18.3815 1.01769 18.3815 0.946696 18.3815 0.946696C18.3815 0.923031 18.3578 0.899358 18.3578 0.899358C18.334 0.899358 18.3578 0.899358 18.3104 0.899358C18.2631 0.899358 18.2867 0.923022 18.2631 0.923022C18.2393 0.923022 18.2394 0.923022 18.1919 0.923022C18.1446 0.923022 18.1683 0.923022 18.1446 0.923022C18.1208 0.923022 18.121 0.899358 18.121 0.899358C18.0972 0.875692 18.121 0.875687 18.121 0.804688C18.0735 0.828353 18.0262 0.852016 18.0024 0.875684C17.9314 0.828351 17.9314 0.828356 17.9314 0.852024Z" fill="url(#paint5_radial_4166_75717)"/>
<path d="M18.9738 0.307493C18.9738 0.307493 18.9027 0.331164 18.8315 0.354829C18.7842 0.378496 18.7368 0.402151 18.6894 0.402151C18.6894 0.402151 18.6657 0.425827 18.6421 0.425827C18.5473 0.496826 18.6421 0.473163 18.6657 0.473163C18.8079 0.473163 18.8553 0.449487 18.9263 0.449487C18.9738 0.449487 18.9738 0.449487 19.1159 0.331155C19.258 0.236489 19.1632 0.283825 19.2106 0.260157C19.258 0.236491 19.2343 0.236489 19.4238 0.212821C19.6132 0.165489 19.4712 0.189152 19.5659 0.165485C19.6132 0.141819 19.6132 0.118164 19.6132 0.118164C19.4238 0.165497 19.2106 0.212818 19.0211 0.283818C18.9738 0.331152 18.9738 0.307493 18.9738 0.307493Z" fill="url(#paint6_radial_4166_75717)"/>
<path d="M18.4053 0.544406C18.4053 0.544406 18.3817 0.56807 18.429 0.615402C18.4763 0.662736 18.429 0.591736 18.5711 0.615402C18.7131 0.63907 18.7369 0.639062 18.7606 0.639062C18.7843 0.615397 18.9027 0.615408 18.7843 0.591742C18.6422 0.568075 18.6658 0.544406 18.6185 0.544406C18.5711 0.544406 18.5237 0.520736 18.5237 0.49707C18.4763 0.49707 18.4526 0.520739 18.4053 0.544406Z" fill="url(#paint7_radial_4166_75717)"/>
<path d="M18.1445 0.686693C18.1445 0.686693 18.1445 0.710368 18.1918 0.710368C18.2393 0.710368 18.2155 0.710368 18.2393 0.710368C18.263 0.6867 18.263 0.686698 18.2866 0.663032C18.3339 0.639364 18.334 0.663029 18.334 0.615696C18.334 0.592029 18.334 0.592026 18.334 0.568359C18.2866 0.615693 18.2155 0.63936 18.1445 0.686693Z" fill="url(#paint8_radial_4166_75717)"/>
<path d="M17.4813 22.0576C16.9128 26.3175 14.923 38.2691 8.76428 47.1915C8.76428 47.1915 17.7893 40.3045 20.5607 27.2642C19.6369 25.6312 18.4525 23.8799 17.4813 22.0576Z" fill="#AFCA08"/>
<path d="M23.8063 22.0576C24.3748 26.3175 26.3645 38.2691 32.5233 47.1915C32.5233 47.1915 23.4983 40.3045 20.7268 27.2642C21.6507 25.6312 22.8588 23.8799 23.8063 22.0576Z" fill="#AFCA08"/>
<path d="M20.7502 24.2818C21.461 23.0511 22.3137 21.7731 23.0716 20.4478C23.1664 19.8088 23.2612 19.1462 23.3559 18.4835C23.6402 11.3362 32.9494 7.95186 41.2638 6.36621C41.2638 6.36621 26.3405 6.69755 20.6318 13.4899C14.9469 6.69755 0 6.36621 0 6.36621C8.31434 7.95186 17.6236 11.3362 17.9078 18.4835C17.9789 19.1225 18.0736 19.7142 18.1684 20.3295C18.9501 21.7021 19.8265 23.0275 20.5609 24.2818C20.5845 24.3291 20.6318 24.3527 20.6556 24.3527C20.7029 24.3527 20.7266 24.3291 20.7502 24.2818Z" fill="#49AFF2"/>
<path d="M145.758 36.4441C143.578 36.4441 141.617 35.9514 139.874 34.9661C138.159 33.9807 136.808 32.6186 135.82 30.8797C134.832 29.1119 134.338 27.0832 134.338 24.7937C134.338 22.4752 134.832 20.4465 135.82 18.7076C136.808 16.9688 138.159 15.6211 139.874 14.6648C141.617 13.6794 143.578 13.1867 145.758 13.1867C147.763 13.1867 149.55 13.6359 151.119 14.5344C152.717 15.4328 153.981 16.7514 154.911 18.4903C155.87 20.2002 156.349 22.3013 156.349 24.7937C156.349 27.2571 155.884 29.3582 154.954 31.0971C154.025 32.8359 152.761 34.1691 151.162 35.0965C149.593 35.9949 147.792 36.4441 145.758 36.4441ZM145.976 33.7054C147.603 33.7054 149.056 33.3431 150.334 32.6186C151.642 31.8651 152.659 30.8218 153.385 29.4886C154.141 28.1265 154.519 26.5615 154.519 24.7937C154.519 22.9968 154.141 21.4319 153.385 20.0987C152.659 18.7656 151.642 17.7368 150.334 17.0122C149.056 16.2587 147.603 15.882 145.976 15.882C144.377 15.882 142.939 16.2587 141.661 17.0122C140.382 17.7368 139.365 18.7656 138.61 20.0987C137.854 21.4319 137.476 22.9968 137.476 24.7937C137.476 26.5615 137.854 28.1265 138.61 29.4886C139.365 30.8218 140.382 31.8651 141.661 32.6186C142.939 33.3431 144.377 33.7054 145.976 33.7054ZM154.606 36.2267V29.3582L154.911 24.7502L154.475 20.1422V3.9707H157.57V36.2267H154.606Z" fill="white"/>
<path d="M111.022 19.4026H127.149V22.1413H111.022V19.4026ZM111.371 33.4439H129.721V36.2261H108.146V5.7959H129.067V8.57809H111.371V33.4439Z" fill="white"/>
<path d="M90.0683 36.487C87.7727 36.487 85.6515 36.1103 83.7047 35.3567C81.7578 34.5743 80.0725 33.4875 78.6487 32.0964C77.2249 30.7053 76.1062 29.0678 75.2925 27.1841C74.508 25.3003 74.1157 23.2426 74.1157 21.0111C74.1157 18.7795 74.508 16.7219 75.2925 14.8381C76.1062 12.9543 77.2249 11.3169 78.6487 9.9258C80.1016 8.5347 81.8014 7.4624 83.7483 6.70889C85.6951 5.9264 87.8163 5.53516 90.1119 5.53516C92.3201 5.53516 94.3977 5.91191 96.3446 6.66542C98.2914 7.38995 99.9332 8.49123 101.27 9.96927L99.2213 12.0124C97.9718 10.7373 96.5916 9.82436 95.0806 9.27372C93.5696 8.6941 91.9424 8.40429 90.199 8.40429C88.3684 8.40429 86.6686 8.72308 85.0994 9.36067C83.5303 9.96927 82.1646 10.8532 81.0023 12.0124C79.84 13.1427 78.9247 14.4758 78.2564 16.0118C77.6171 17.5189 77.2975 19.1853 77.2975 21.0111C77.2975 22.8369 77.6171 24.5178 78.2564 26.0538C78.9247 27.5608 79.84 28.8939 81.0023 30.0532C82.1646 31.1835 83.5303 32.0674 85.0994 32.705C86.6686 33.3136 88.3684 33.6179 90.199 33.6179C91.9424 33.6179 93.5696 33.3281 95.0806 32.7484C96.5916 32.1688 97.9718 31.2414 99.2213 29.9663L101.27 32.0094C99.9332 33.4875 98.2914 34.6032 96.3446 35.3567C94.3977 36.1103 92.3056 36.487 90.0683 36.487Z" fill="white"/>
<path d="M56.4879 36.487C54.1633 36.487 52.013 36.1103 50.0371 35.3567C48.0902 34.5743 46.3904 33.4875 44.9375 32.0964C43.5137 30.7053 42.395 29.0678 41.5814 27.1841C40.7968 25.3003 40.4045 23.2426 40.4045 21.0111C40.4045 18.7795 40.7968 16.7219 41.5814 14.8381C42.395 12.9543 43.5282 11.3169 44.9811 9.9258C46.434 8.5347 48.1338 7.4624 50.0807 6.70889C52.0566 5.9264 54.2068 5.53516 56.5314 5.53516C58.856 5.53516 60.9772 5.89742 62.895 6.62195C64.8419 7.34648 66.4981 8.44776 67.8638 9.9258L65.8589 11.969C64.5804 10.6938 63.1711 9.78089 61.631 9.23025C60.091 8.67961 58.4347 8.40429 56.6622 8.40429C54.7735 8.40429 53.03 8.72308 51.4318 9.36067C49.8627 9.96927 48.4825 10.8532 47.2912 12.0124C46.1289 13.1427 45.2136 14.4758 44.5452 16.0118C43.906 17.5189 43.5863 19.1853 43.5863 21.0111C43.5863 22.8079 43.906 24.4743 44.5452 26.0103C45.2136 27.5463 46.1289 28.8939 47.2912 30.0532C48.4825 31.1835 49.8627 32.0674 51.4318 32.705C53.03 33.3136 54.7589 33.6179 56.6186 33.6179C58.3621 33.6179 60.0038 33.357 61.5439 32.8354C63.113 32.3137 64.5513 31.4298 65.8589 30.1836L67.6895 32.618C66.2366 33.8932 64.5368 34.8641 62.5899 35.5306C60.6431 36.1682 58.609 36.487 56.4879 36.487ZM64.5949 32.2268V21.0111H67.6895V32.618L64.5949 32.2268Z" fill="white"/>
<path d="M158 41.5879V46.8672H157.53L154.402 42.4463H154.361V46.8672H153.877V41.5879H154.345L157.483 46.0139H157.524V41.5879H158Z" fill="white"/>
<path d="M152.709 44.2274C152.709 44.7774 152.611 45.256 152.415 45.6633C152.218 46.0688 151.947 46.3834 151.603 46.6067C151.26 46.8284 150.865 46.9393 150.419 46.9393C149.973 46.9393 149.577 46.8284 149.233 46.6067C148.89 46.3834 148.62 46.0688 148.424 45.6633C148.229 45.256 148.131 44.7774 148.131 44.2274C148.131 43.6775 148.229 43.1998 148.424 42.7942C148.62 42.387 148.89 42.0724 149.236 41.8508C149.58 41.6274 149.975 41.5156 150.419 41.5156C150.865 41.5156 151.26 41.6274 151.603 41.8508C151.947 42.0724 152.218 42.387 152.415 42.7942C152.611 43.1998 152.709 43.6775 152.709 44.2274ZM152.238 44.2274C152.238 43.7549 152.159 43.3501 152.001 43.0133C151.843 42.6748 151.626 42.4161 151.352 42.2374C151.078 42.0587 150.767 41.9694 150.419 41.9694C150.073 41.9694 149.762 42.0587 149.489 42.2374C149.215 42.4161 148.998 42.674 148.837 43.0108C148.679 43.3476 148.6 43.7531 148.6 44.2274C148.6 44.7 148.679 45.1048 148.837 45.4416C148.996 45.7784 149.212 46.037 149.486 46.2175C149.759 46.3962 150.071 46.4856 150.419 46.4856C150.767 46.4856 151.078 46.3962 151.352 46.2175C151.627 46.0388 151.844 45.781 152.003 45.4442C152.162 45.1057 152.24 44.7 152.238 44.2274Z" fill="white"/>
<path d="M146.962 41.5879V46.8672H146.479V41.5879H146.962Z" fill="white"/>
<path d="M141.553 42.021V41.5879H145.391V42.021H143.713V46.8672H143.23V42.021H141.553Z" fill="white"/>
<path d="M137.723 46.8672H137.217L139.142 41.5879H139.659L141.584 46.8672H141.078L139.419 42.2143H139.382L137.723 46.8672ZM138.087 44.8436H140.714V45.2766H138.087V44.8436Z" fill="white"/>
<path d="M136.58 43.2376H136.094C136.058 43.0571 135.993 42.8905 135.898 42.7375C135.805 42.5829 135.688 42.4479 135.547 42.3328C135.405 42.2177 135.244 42.1283 135.066 42.0647C134.887 42.0011 134.692 41.9694 134.484 41.9694C134.15 41.9694 133.845 42.0561 133.569 42.2297C133.295 42.4033 133.075 42.6585 132.91 42.9953C132.746 43.3304 132.665 43.7411 132.665 44.2274C132.665 44.7172 132.746 45.1297 132.91 45.4648C133.075 45.7999 133.295 46.0543 133.569 46.2278C133.845 46.3997 134.15 46.4856 134.484 46.4856C134.692 46.4856 134.887 46.4538 135.066 46.3902C135.244 46.3267 135.405 46.2381 135.547 46.1247C135.688 46.0096 135.805 45.8747 135.898 45.72C135.993 45.5654 136.058 45.3977 136.094 45.2173H136.58C136.537 45.4597 136.456 45.6856 136.337 45.8953C136.22 46.1032 136.07 46.2854 135.887 46.4418C135.707 46.5982 135.498 46.7202 135.262 46.8078C135.026 46.8954 134.767 46.9393 134.484 46.9393C134.039 46.9393 133.645 46.8284 133.3 46.6067C132.956 46.3834 132.686 46.0688 132.489 45.6633C132.294 45.2577 132.197 44.7791 132.197 44.2274C132.197 43.6758 132.294 43.1973 132.489 42.7917C132.686 42.3861 132.956 42.0724 133.3 41.8508C133.645 41.6274 134.039 41.5156 134.484 41.5156C134.767 41.5156 135.026 41.5595 135.262 41.6471C135.498 41.7331 135.707 41.8551 135.887 42.0132C136.07 42.1696 136.22 42.3517 136.337 42.5597C136.456 42.7676 136.537 42.9936 136.58 43.2376Z" fill="white"/>
<path d="M130.546 41.5879H131.029V45.0834C131.029 45.4426 130.945 45.7639 130.776 46.0475C130.607 46.3293 130.372 46.5518 130.07 46.7151C129.771 46.8766 129.422 46.9574 129.024 46.9574C128.627 46.9574 128.279 46.8758 127.977 46.7125C127.676 46.5493 127.441 46.3267 127.272 46.0448C127.103 45.763 127.018 45.4426 127.018 45.0834V41.5879H127.502V45.0499C127.502 45.33 127.564 45.58 127.69 45.7999C127.816 46.0182 127.993 46.1901 128.22 46.3155C128.45 46.441 128.717 46.5037 129.024 46.5037C129.33 46.5037 129.598 46.441 129.828 46.3155C130.057 46.1901 130.234 46.0182 130.357 45.7999C130.484 45.58 130.546 45.33 130.546 45.0499V41.5879Z" fill="white"/>
<path d="M123.345 46.8672H121.794V41.5879H123.438C123.943 41.5879 124.374 41.6928 124.733 41.9024C125.093 42.1121 125.368 42.4128 125.56 42.8046C125.752 43.1964 125.847 43.6665 125.847 44.2147C125.847 44.768 125.749 45.2431 125.552 45.6402C125.358 46.0354 125.073 46.3387 124.699 46.5501C124.327 46.7615 123.876 46.8672 123.345 46.8672ZM122.278 46.4341H123.316C123.771 46.4341 124.153 46.3448 124.459 46.166C124.766 45.9873 124.996 45.7321 125.149 45.4004C125.302 45.0687 125.379 44.6735 125.379 44.2147C125.378 43.7592 125.301 43.3674 125.151 43.0392C125.003 42.7109 124.783 42.4592 124.49 42.2839C124.199 42.1086 123.838 42.021 123.41 42.021H122.278V46.4341Z" fill="white"/>
<path d="M117.473 46.8672V41.5879H120.543V42.021H117.956V44.0084H120.381V44.4414H117.956V46.4341H120.595V46.8672H117.473Z" fill="white"/>
<path d="M110.877 46.8672V41.5879H112.586C112.961 41.5879 113.275 41.6601 113.527 41.8044C113.78 41.9471 113.97 42.1412 114.098 42.387C114.227 42.6327 114.291 42.9094 114.291 43.2171C114.291 43.5246 114.228 43.8022 114.101 44.0497C113.972 44.2954 113.783 44.4904 113.531 44.6348C113.28 44.7774 112.967 44.8488 112.593 44.8488H111.249V44.4157H112.58C112.857 44.4157 113.088 44.3642 113.271 44.261C113.453 44.1563 113.589 44.0136 113.679 43.8331C113.77 43.6527 113.815 43.4473 113.815 43.2171C113.815 42.9868 113.77 42.7814 113.679 42.601C113.589 42.4206 113.452 42.2787 113.268 42.1757C113.085 42.0725 112.854 42.021 112.572 42.021H111.36V46.8672H110.877Z" fill="white"/>
<path d="M109.47 41.5879V46.8672H108.986V41.5879H109.47Z" fill="white"/>
<path d="M103.614 46.8672V41.5879H104.097V44.0084H107.1V41.5879H107.583V46.8672H107.1V44.4414H104.097V46.8672H103.614Z" fill="white"/>
<path d="M101.91 42.9072C101.881 42.6133 101.751 42.3797 101.52 42.2061C101.289 42.0325 100.999 41.9458 100.649 41.9458C100.403 41.9458 100.186 41.9878 99.9976 42.072C99.8115 42.1563 99.6653 42.2731 99.5581 42.4226C99.4528 42.5704 99.401 42.7389 99.401 42.9279C99.401 43.0671 99.431 43.1891 99.4909 43.2939C99.5518 43.3987 99.6326 43.4889 99.7343 43.5646C99.8378 43.6385 99.9513 43.702 100.075 43.7553C100.201 43.8086 100.327 43.8533 100.455 43.8893L101.014 44.0492C101.183 44.0955 101.352 44.1549 101.52 44.227C101.688 44.2992 101.843 44.3903 101.983 44.5003C102.124 44.6086 102.237 44.7417 102.321 44.8999C102.408 45.0563 102.45 45.2444 102.45 45.4644C102.45 45.7462 102.378 45.9997 102.23 46.2248C102.084 46.4499 101.874 46.6287 101.6 46.761C101.326 46.8916 100.998 46.9569 100.615 46.9569C100.255 46.9569 99.9422 46.8977 99.6771 46.779C99.4119 46.6587 99.2031 46.4929 99.0514 46.2815C98.8998 46.0702 98.8144 45.8253 98.7963 45.5469H99.2921C99.3093 45.7548 99.3783 45.931 99.4991 46.0753C99.6199 46.2197 99.776 46.3296 99.9695 46.4053C100.162 46.4792 100.377 46.5161 100.615 46.5161C100.879 46.5161 101.114 46.4723 101.319 46.3846C101.525 46.2953 101.687 46.1716 101.805 46.0135C101.924 45.8536 101.983 45.668 101.983 45.4567C101.983 45.2779 101.936 45.1285 101.843 45.0081C101.75 44.8861 101.62 44.7838 101.453 44.7013C101.287 44.6188 101.095 44.5458 100.877 44.4823L100.243 44.2967C99.8278 44.1729 99.5054 44.0019 99.2766 43.7836C99.0478 43.5655 98.9325 43.2871 98.9325 42.9485C98.9325 42.665 99.0087 42.4157 99.1604 42.2009C99.3139 41.9844 99.52 41.816 99.7806 41.6957C100.042 41.5736 100.336 41.5127 100.662 41.5127C100.991 41.5127 101.282 41.5728 101.536 41.6931C101.789 41.8134 101.99 41.9793 102.138 42.1906C102.288 42.4002 102.368 42.6392 102.378 42.9072H101.91Z" fill="white"/>
<path d="M97.6286 41.5879V46.8672H97.1582L94.0309 42.4463H93.99V46.8672H93.507V41.5879H93.9746L97.1119 46.0139H97.1537V41.5879H97.6286Z" fill="white"/>
<path d="M89.1849 46.8672V41.5879H92.2557V42.021H89.6683V44.0084H92.0922V44.4414H89.6683V46.4341H92.3074V46.8672H89.1849Z" fill="white"/>
<path d="M84.4768 46.8672V46.5037L87.4155 42.021H84.4613V41.5879H87.9918V41.9513L85.0506 46.4341H88.0177V46.8672H84.4768Z" fill="white"/>
<path d="M83.2787 41.5879V46.8672H82.7954V41.5879H83.2787Z" fill="white"/>
<path d="M77.8694 42.021V41.5879H81.7074V42.021H80.0301V46.8672H79.5467V42.021H77.8694Z" fill="white"/>
<path d="M76.7822 41.5879V46.8672H76.299V41.5879H76.7822Z" fill="white"/>
<path d="M75.1639 43.2376H74.678C74.6419 43.0571 74.5764 42.8905 74.4816 42.7375C74.3886 42.5829 74.2714 42.4479 74.1301 42.3328C73.9888 42.2177 73.8286 42.1283 73.6494 42.0647C73.4702 42.0011 73.2764 41.9694 73.0679 41.9694C72.7336 41.9694 72.4286 42.0561 72.1529 42.2297C71.879 42.4033 71.6593 42.6585 71.4939 42.9953C71.3303 43.3304 71.2483 43.7411 71.2483 44.2274C71.2483 44.7172 71.3303 45.1297 71.4939 45.4648C71.6593 45.7999 71.879 46.0543 72.1529 46.2278C72.4286 46.3997 72.7336 46.4856 73.0679 46.4856C73.2764 46.4856 73.4702 46.4538 73.6494 46.3902C73.8286 46.3267 73.9888 46.2381 74.1301 46.1247C74.2714 46.0096 74.3886 45.8747 74.4816 45.72C74.5764 45.5654 74.6419 45.3977 74.678 45.2173H75.1639C75.1209 45.4597 75.0399 45.6856 74.921 45.8953C74.8039 46.1032 74.654 46.2854 74.4713 46.4418C74.2904 46.5982 74.0819 46.7202 73.8458 46.8078C73.6098 46.8954 73.3505 46.9393 73.0679 46.9393C72.6233 46.9393 72.2288 46.8284 71.8842 46.6067C71.5396 46.3834 71.269 46.0688 71.0726 45.6633C70.878 45.2577 70.7805 44.7791 70.7805 44.2274C70.7805 43.6758 70.878 43.1973 71.0726 42.7917C71.269 42.3861 71.5396 42.0724 71.8842 41.8508C72.2288 41.6274 72.6233 41.5156 73.0679 41.5156C73.3505 41.5156 73.6098 41.5595 73.8458 41.6471C74.0819 41.7331 74.2904 41.8551 74.4713 42.0132C74.654 42.1696 74.8039 42.3517 74.921 42.5597C75.0399 42.7676 75.1209 42.9936 75.1639 43.2376Z" fill="white"/>
<path d="M64.8774 46.8672V41.5879H65.3607V46.4341H67.8833V46.8672H64.8774Z" fill="white"/>
<path d="M60.1089 46.8672H59.6023L61.5278 41.5879H62.0448L63.9703 46.8672H63.4637L61.8044 42.2143H61.7682L60.1089 46.8672ZM60.4733 44.8436H63.0993V45.2766H60.4733V44.8436Z" fill="white"/>
<path d="M55.3887 46.8672V41.5879H57.1745C57.5191 41.5879 57.8061 41.648 58.0352 41.7684C58.2661 41.8887 58.4393 42.0528 58.5548 42.2607C58.6702 42.4686 58.7279 42.7049 58.7279 42.9696C58.7279 43.1896 58.6909 43.3777 58.6168 43.5342C58.5427 43.6905 58.4419 43.8168 58.3143 43.9131C58.1868 44.0093 58.0447 44.0789 57.8879 44.1218V44.1631C58.0585 44.1751 58.2239 44.2352 58.3841 44.3435C58.5444 44.45 58.6762 44.5996 58.7796 44.792C58.8829 44.9846 58.9347 45.2148 58.9347 45.4829C58.9347 45.7493 58.8752 45.9873 58.7563 46.197C58.6374 46.4049 58.4548 46.569 58.2084 46.6893C57.9637 46.8078 57.6519 46.8672 57.2728 46.8672H55.3887ZM55.8719 46.4341H57.2728C57.6811 46.4341 57.9827 46.3439 58.1774 46.1635C58.3738 45.983 58.472 45.7562 58.472 45.4829C58.472 45.2818 58.4229 45.0997 58.3247 44.9364C58.2282 44.7715 58.0912 44.6409 57.9138 44.5446C57.738 44.4483 57.5312 44.4002 57.2935 44.4002H55.8719V46.4341ZM55.8719 43.9723H57.2185C57.427 43.9723 57.6097 43.9294 57.7664 43.8434C57.9232 43.7575 58.0455 43.6389 58.1334 43.4877C58.2213 43.3364 58.2653 43.1637 58.2653 42.9696C58.2653 42.6894 58.1739 42.4618 57.9913 42.2865C57.8086 42.1095 57.5364 42.021 57.1745 42.021H55.8719V43.9723Z" fill="white"/>
<path d="M54.2201 44.2274C54.2201 44.7774 54.1219 45.256 53.9254 45.6633C53.729 46.0688 53.4585 46.3834 53.1139 46.6067C52.771 46.8284 52.3764 46.9393 51.9302 46.9393C51.4839 46.9393 51.0884 46.8284 50.7438 46.6067C50.401 46.3834 50.1314 46.0688 49.9349 45.6633C49.7402 45.256 49.6428 44.7774 49.6428 44.2274C49.6428 43.6775 49.7402 43.1998 49.9349 42.7942C50.1314 42.387 50.4019 42.0724 50.7465 41.8508C51.0911 41.6274 51.4856 41.5156 51.9302 41.5156C52.3764 41.5156 52.771 41.6274 53.1139 41.8508C53.4585 42.0724 53.729 42.387 53.9254 42.7942C54.1219 43.1998 54.2201 43.6775 54.2201 44.2274ZM53.7497 44.2274C53.7497 43.7549 53.6705 43.3501 53.5119 43.0133C53.3534 42.6748 53.1372 42.4161 52.8632 42.2374C52.5893 42.0587 52.2782 41.9694 51.9302 41.9694C51.5839 41.9694 51.2737 42.0587 50.9997 42.2374C50.7258 42.4161 50.5086 42.674 50.3485 43.0108C50.1899 43.3476 50.1106 43.7531 50.1106 44.2274C50.1106 44.7 50.1899 45.1048 50.3485 45.4416C50.5069 45.7784 50.7232 46.037 50.9972 46.2175C51.2711 46.3962 51.5821 46.4856 51.9302 46.4856C52.2782 46.4856 52.5893 46.3962 52.8632 46.2175C53.1389 46.0388 53.356 45.781 53.5145 45.4442C53.673 45.1057 53.7515 44.7 53.7497 44.2274Z" fill="white"/>
<path d="M45.9924 46.8672V41.5879H46.4758V46.4341H48.9982V46.8672H45.9924Z" fill="white"/>
<path d="M44.2604 43.2376C44.2122 43.0623 44.1415 42.8982 44.0486 42.7452C43.9555 42.5906 43.8401 42.4557 43.7021 42.3406C43.566 42.2237 43.4084 42.1326 43.2292 42.0673C43.0517 42.002 42.8536 41.9694 42.6347 41.9694C42.2901 41.9694 41.9818 42.0587 41.7095 42.2374C41.4373 42.4161 41.2219 42.674 41.0634 43.0108C40.9065 43.3476 40.8282 43.7531 40.8282 44.2274C40.8282 44.7 40.9074 45.1048 41.0659 45.4416C41.2244 45.7784 41.4416 46.037 41.7172 46.2175C41.9947 46.3962 42.3117 46.4856 42.6683 46.4856C42.9941 46.4856 43.2818 46.4134 43.5316 46.2691C43.7814 46.1247 43.9762 45.9185 44.1158 45.6504C44.257 45.3823 44.326 45.0635 44.3225 44.694L44.4775 44.743H42.7821V44.3099H44.7929V44.743C44.7929 45.1932 44.7015 45.5825 44.5189 45.9108C44.3362 46.239 44.0855 46.4925 43.7668 46.6712C43.4481 46.8499 43.0819 46.9393 42.6683 46.9393C42.2066 46.9393 41.8025 46.8284 41.4562 46.6067C41.1099 46.3834 40.8403 46.0688 40.6472 45.6633C40.456 45.256 40.3604 44.7774 40.3604 44.2274C40.3604 43.8133 40.4155 43.4395 40.5258 43.1061C40.636 42.7728 40.7919 42.4875 40.9935 42.2503C41.1969 42.0132 41.4373 41.8319 41.7147 41.7064C41.9921 41.5793 42.2988 41.5156 42.6347 41.5156C42.9242 41.5156 43.1887 41.5612 43.4282 41.6523C43.6695 41.7434 43.8814 41.8688 44.064 42.0287C44.2484 42.1867 44.3992 42.3698 44.5163 42.5777C44.6353 42.7839 44.7153 43.0039 44.7567 43.2376H44.2604Z" fill="white"/>
</g>
<defs>
<radialGradient id="paint0_radial_4166_75717" cx="0" cy="0" r="1" gradientUnits="userSpaceOnUse" gradientTransform="translate(20.628 5.01229) scale(5.0169 5.01245)">
<stop stop-color="#00AEE9"/>
<stop offset="0.2614" stop-color="#01ABE7"/>
<stop offset="0.437" stop-color="#04A2E0"/>
<stop offset="0.5874" stop-color="#0893D4"/>
<stop offset="0.7235" stop-color="#0F7EC3"/>
<stop offset="0.8501" stop-color="#1762AE"/>
<stop offset="0.968" stop-color="#224193"/>
<stop offset="1" stop-color="#25368B"/>
</radialGradient>
<radialGradient id="paint1_radial_4166_75717" cx="0" cy="0" r="1" gradientUnits="userSpaceOnUse" gradientTransform="translate(20.7431 4.97413) scale(4.81115 4.80699)">
<stop stop-color="#B1CA07"/>
<stop offset="0.3087" stop-color="#AFC908"/>
<stop offset="0.4605" stop-color="#A7C409"/>
<stop offset="0.5781" stop-color="#9ABD0D"/>
<stop offset="0.6781" stop-color="#87B211"/>
<stop offset="0.7669" stop-color="#6FA517"/>
<stop offset="0.8477" stop-color="#51941F"/>
<stop offset="0.9227" stop-color="#2E8028"/>
<stop offset="0.9909" stop-color="#066932"/>
<stop offset="1" stop-color="#006633"/>
</radialGradient>
<radialGradient id="paint2_radial_4166_75717" cx="0" cy="0" r="1" gradientUnits="userSpaceOnUse" gradientTransform="translate(20.7427 4.97393) scale(4.81116 4.80692)">
<stop stop-color="#B1CA07"/>
<stop offset="0.3087" stop-color="#AFC908"/>
<stop offset="0.4605" stop-color="#A7C409"/>
<stop offset="0.5781" stop-color="#9ABD0D"/>
<stop offset="0.6781" stop-color="#87B211"/>
<stop offset="0.7669" stop-color="#6FA517"/>
<stop offset="0.8477" stop-color="#51941F"/>
<stop offset="0.9227" stop-color="#2E8028"/>
<stop offset="0.9909" stop-color="#066932"/>
<stop offset="1" stop-color="#006633"/>
</radialGradient>
<radialGradient id="paint3_radial_4166_75717" cx="0" cy="0" r="1" gradientUnits="userSpaceOnUse" gradientTransform="translate(20.7432 4.9741) scale(4.81128 4.80702)">
<stop stop-color="#B1CA07"/>
<stop offset="0.3087" stop-color="#AFC908"/>
<stop offset="0.4605" stop-color="#A7C409"/>
<stop offset="0.5781" stop-color="#9ABD0D"/>
<stop offset="0.6781" stop-color="#87B211"/>
<stop offset="0.7669" stop-color="#6FA517"/>
<stop offset="0.8477" stop-color="#51941F"/>
<stop offset="0.9227" stop-color="#2E8028"/>
<stop offset="0.9909" stop-color="#066932"/>
<stop offset="1" stop-color="#006633"/>
</radialGradient>
<radialGradient id="paint4_radial_4166_75717" cx="0" cy="0" r="1" gradientUnits="userSpaceOnUse" gradientTransform="translate(20.7005 4.97313) scale(4.69837 4.74996)">
<stop stop-color="#B1CA07"/>
<stop offset="0.3087" stop-color="#AFC908"/>
<stop offset="0.4605" stop-color="#A7C409"/>
<stop offset="0.5781" stop-color="#9ABD0D"/>
<stop offset="0.6781" stop-color="#87B211"/>
<stop offset="0.7669" stop-color="#6FA517"/>
<stop offset="0.8477" stop-color="#51941F"/>
<stop offset="0.9227" stop-color="#2E8028"/>
<stop offset="0.9909" stop-color="#066932"/>
<stop offset="1" stop-color="#006633"/>
</radialGradient>
<radialGradient id="paint5_radial_4166_75717" cx="0" cy="0" r="1" gradientUnits="userSpaceOnUse" gradientTransform="translate(20.743 4.97384) scale(4.81126 4.80699)">
<stop stop-color="#B1CA07"/>
<stop offset="0.3087" stop-color="#AFC908"/>
<stop offset="0.4605" stop-color="#A7C409"/>
<stop offset="0.5781" stop-color="#9ABD0D"/>
<stop offset="0.6781" stop-color="#87B211"/>
<stop offset="0.7669" stop-color="#6FA517"/>
<stop offset="0.8477" stop-color="#51941F"/>
<stop offset="0.9227" stop-color="#2E8028"/>
<stop offset="0.9909" stop-color="#066932"/>
<stop offset="1" stop-color="#006633"/>
</radialGradient>
<radialGradient id="paint6_radial_4166_75717" cx="0" cy="0" r="1" gradientUnits="userSpaceOnUse" gradientTransform="translate(20.7429 4.97378) scale(4.81138 4.80711)">
<stop stop-color="#B1CA07"/>
<stop offset="0.3087" stop-color="#AFC908"/>
<stop offset="0.4605" stop-color="#A7C409"/>
<stop offset="0.5781" stop-color="#9ABD0D"/>
<stop offset="0.6781" stop-color="#87B211"/>
<stop offset="0.7669" stop-color="#6FA517"/>
<stop offset="0.8477" stop-color="#51941F"/>
<stop offset="0.9227" stop-color="#2E8028"/>
<stop offset="0.9909" stop-color="#066932"/>
<stop offset="1" stop-color="#006633"/>
</radialGradient>
<radialGradient id="paint7_radial_4166_75717" cx="0" cy="0" r="1" gradientUnits="userSpaceOnUse" gradientTransform="translate(20.743 4.97364) scale(4.81117 4.80672)">
<stop stop-color="#B1CA07"/>
<stop offset="0.3087" stop-color="#AFC908"/>
<stop offset="0.4605" stop-color="#A7C409"/>
<stop offset="0.5781" stop-color="#9ABD0D"/>
<stop offset="0.6781" stop-color="#87B211"/>
<stop offset="0.7669" stop-color="#6FA517"/>
<stop offset="0.8477" stop-color="#51941F"/>
<stop offset="0.9227" stop-color="#2E8028"/>
<stop offset="0.9909" stop-color="#066932"/>
<stop offset="1" stop-color="#006633"/>
</radialGradient>
<radialGradient id="paint8_radial_4166_75717" cx="0" cy="0" r="1" gradientUnits="userSpaceOnUse" gradientTransform="translate(20.7429 4.97442) scale(4.81149 4.80721)">
<stop stop-color="#B1CA07"/>
<stop offset="0.3087" stop-color="#AFC908"/>
<stop offset="0.4605" stop-color="#A7C409"/>
<stop offset="0.5781" stop-color="#9ABD0D"/>
<stop offset="0.6781" stop-color="#87B211"/>
<stop offset="0.7669" stop-color="#6FA517"/>
<stop offset="0.8477" stop-color="#51941F"/>
<stop offset="0.9227" stop-color="#2E8028"/>
<stop offset="0.9909" stop-color="#066932"/>
<stop offset="1" stop-color="#006633"/>
</radialGradient>
<clipPath id="clip0_4166_75717">
<rect width="158" height="48" fill="white"/>
</clipPath>
</defs>
</svg>
