<svg width="184" height="56" viewBox="0 0 184 56" fill="none" xmlns="http://www.w3.org/2000/svg">
<g id="ASDF 1" clip-path="url(#clip0_8147_20012)">
<path id="Vector" d="M24.0267 11.7071C27.2567 11.7071 29.8749 9.08633 29.8749 5.85351C29.8749 2.62069 27.2567 0 24.0267 0C20.7971 0 18.1787 2.62069 18.1787 5.85351C18.1787 9.08633 20.7971 11.7071 24.0267 11.7071Z" fill="url(#paint0_radial_8147_20012)"/>
<path id="Vector_2" d="M27.7237 7.28935C27.696 7.31696 27.6684 7.42742 27.6408 7.45503C27.6133 7.48264 27.6684 7.45502 27.5857 7.56545C27.5029 7.64829 27.5029 7.67591 27.4754 7.73114C27.4477 7.78636 27.4478 7.81397 27.4201 7.84157C27.3925 7.86918 27.3925 7.89679 27.3925 7.9244C27.3925 7.95202 27.365 7.9244 27.365 8.00725C27.365 8.09009 27.4201 8.14531 27.4201 8.14531C27.4201 8.14531 27.5305 8.17291 27.558 8.09007C27.5857 8.00724 27.6133 8.09007 27.6684 7.9244C27.7237 7.73112 27.7237 7.75875 27.7237 7.70351C27.7512 7.6759 27.7512 7.64829 27.7512 7.56545C27.7788 7.51023 27.7788 7.51026 27.7788 7.45503C27.7788 7.39981 27.8063 7.39981 27.8063 7.31698C27.7788 7.26175 27.8339 7.12369 27.7237 7.28935Z" fill="url(#paint1_radial_8147_20012)"/>
<path id="Vector_3" d="M21.6267 1.02162C21.6544 1.02162 21.7371 1.10447 21.7371 1.10447C21.7371 1.13208 21.7371 1.13208 21.7371 1.1873C21.7371 1.21492 21.5441 1.32535 21.6267 1.40819C21.7095 1.49102 21.7095 1.49102 21.7095 1.49102C21.7095 1.49102 21.8199 1.49101 21.8475 1.43579C21.9026 1.38057 21.8475 1.46342 21.9026 1.38058C21.9578 1.32536 21.9301 1.35297 21.9578 1.32535C21.9854 1.27013 21.9854 1.24251 21.9578 1.15968C21.9301 1.10446 21.9303 1.04923 21.9026 1.02162C21.875 0.994014 21.875 1.02163 21.8475 0.938794C21.8199 0.855962 21.8199 0.828352 21.7922 0.80074C21.7647 0.80074 21.7647 0.80074 21.7095 0.80074C21.682 0.80074 21.7095 0.80074 21.6267 0.80074C21.5716 0.77313 21.5716 0.773136 21.5716 0.773136C21.5716 0.773136 21.5164 0.745525 21.5164 0.773136C21.5164 0.828358 21.4612 0.883569 21.4612 0.883569C21.4612 0.883569 21.4337 1.07685 21.4888 1.07685C21.5164 1.07685 21.5716 0.994014 21.6267 1.02162Z" fill="url(#paint2_radial_8147_20012)"/>
<path id="Vector_4" d="M22.7031 0.745441C22.7031 0.745441 22.7583 0.773065 22.7308 0.828287C22.7032 0.883508 22.7308 0.966335 22.7031 0.993947C22.6755 1.02156 22.6204 1.10439 22.5928 1.132C22.5653 1.15961 22.4549 1.3805 22.4549 1.40811C22.4549 1.46333 22.4825 1.51855 22.51 1.57377C22.5376 1.62899 22.51 1.68422 22.5376 1.73944C22.5928 1.76705 22.5928 1.8775 22.7031 1.76705C22.8134 1.65659 22.8411 1.68422 22.8687 1.6014C22.8962 1.51856 23.0066 1.40811 23.0342 1.40811C23.0617 1.40811 23.2272 1.3805 23.2825 1.32529C23.3651 1.27006 23.5031 1.21484 23.5308 1.18723C23.5583 1.15961 23.5583 1.15961 23.5583 1.15961C23.5583 1.15961 23.5583 1.07677 23.5859 1.02155C23.6134 0.966328 23.641 0.911117 23.6687 0.911117C23.6963 0.911117 23.8066 0.773054 23.8066 0.800666C23.8342 0.800666 23.8617 0.773058 23.8893 0.717836C23.9169 0.662614 23.9169 0.635004 23.9446 0.579781C23.9721 0.524559 24.0549 0.441723 24.0549 0.386501C24.0549 0.331279 24.0549 0.331275 24.0549 0.331275C24.0549 0.331275 24.3584 0.193228 24.1652 0.165616C23.9446 0.138006 24.1929 0.220838 23.7789 0.165616C23.3651 0.110395 23.3651 0.027565 23.31 0.0827869C23.2549 0.110398 23.0893 0.276067 23.0617 0.276067C23.0342 0.276067 22.8134 0.303664 22.7583 0.331275C22.7032 0.358887 22.7859 0.35889 22.5651 0.386501C22.3445 0.414112 22.3721 0.358899 22.3445 0.414122C22.317 0.441733 22.2342 0.662611 22.3445 0.662611C22.5376 0.690222 22.6755 0.690219 22.7031 0.745441Z" fill="url(#paint3_radial_8147_20012)"/>
<path id="Vector_5" d="M27.3209 1.21369C27.3209 1.26825 27.294 1.21369 27.294 1.21369C27.294 1.21369 27.2401 1.21369 27.1053 1.21369C26.9707 1.21369 27.0785 1.21369 27.0785 1.21369C27.0785 1.21369 26.9977 1.21369 26.9707 1.21369C26.9437 1.21369 26.863 1.21369 26.8361 1.21369C26.809 1.21369 26.7282 1.18641 26.7013 1.18641C26.6744 1.18641 26.6744 1.21369 26.6744 1.21369C26.6474 1.24097 26.6744 1.26826 26.6474 1.29554C26.6474 1.29554 26.6205 1.32283 26.5666 1.3774C26.5128 1.43196 26.5397 1.40468 26.5128 1.43196C26.4858 1.45926 26.4589 1.43196 26.432 1.43196C26.432 1.43196 26.378 1.43196 26.4049 1.45924C26.4318 1.48653 26.432 1.51382 26.432 1.51382C26.432 1.51382 26.4049 1.51382 26.3242 1.51382C26.2434 1.51382 26.2972 1.48653 26.2972 1.45924C26.2972 1.43196 26.2972 1.43196 26.2972 1.43196C26.2972 1.43196 26.2703 1.40467 26.2434 1.40467C26.2164 1.37739 26.1895 1.37739 26.1626 1.35011C26.1356 1.35011 26.1626 1.32283 26.1626 1.32283H26.1895C26.2164 1.32283 26.2703 1.35011 26.2972 1.35011C26.3242 1.35011 26.432 1.35011 26.4858 1.32283C26.5397 1.32283 26.5397 1.29553 26.5666 1.26825C26.5936 1.24097 26.5128 1.24098 26.4858 1.24098C26.4589 1.24098 26.4589 1.24097 26.378 1.18641C26.2972 1.13185 26.3242 1.18642 26.2972 1.15913C26.2703 1.15913 26.1626 1.13183 26.1626 1.13183C26.1356 1.13183 26.1356 1.13183 26.0818 1.13183C26.0277 1.13183 26.0547 1.13185 26.0009 1.10456C25.947 1.07728 25.7855 1.13183 25.7855 1.13183L25.6237 1.18641C25.6237 1.18641 25.5699 1.21369 25.4621 1.24098C25.3545 1.24098 25.4352 1.24098 25.3813 1.29554C25.3545 1.35012 25.2196 1.43196 25.1927 1.45924C25.1658 1.48653 25.112 1.56838 25.112 1.56838L25.0042 1.67751C25.0042 1.67751 25.0042 1.67751 24.9773 1.78664C24.9504 1.89579 24.9504 1.84121 24.9504 1.86849C24.9504 1.89577 24.9773 1.89579 25.0042 1.92307C25.0312 1.92307 25.085 1.89577 25.1388 1.86849C25.1927 1.84121 25.1658 1.84121 25.1927 1.84121C25.2196 1.84121 25.2466 1.95035 25.2737 2.00492C25.3006 2.05948 25.3275 2.05948 25.3545 2.08676C25.3813 2.11404 25.3813 2.08677 25.4083 2.05948C25.4352 2.0322 25.4083 2.05948 25.4352 2.0322C25.4621 2.0049 25.4621 1.97764 25.4891 1.95033C25.516 1.92305 25.4891 1.95035 25.516 1.92307C25.5429 1.89579 25.5429 1.89577 25.6237 1.86849C25.7047 1.81393 25.6237 1.86849 25.5968 1.78664C25.5699 1.73208 25.5699 1.75936 25.5429 1.73208C25.516 1.70479 25.5429 1.7048 25.5429 1.7048V1.62294L25.5699 1.59566C25.5699 1.59566 25.5699 1.59566 25.5968 1.59566C25.6237 1.59566 25.6507 1.56837 25.6507 1.54109L25.6777 1.51382C25.6777 1.51382 25.7047 1.48653 25.7047 1.45924C25.7047 1.43196 25.7316 1.43196 25.7316 1.43196C25.7316 1.43196 25.8393 1.40468 25.8931 1.43196C25.947 1.45926 25.8931 1.45923 25.8931 1.48652C25.8931 1.51381 25.8662 1.51381 25.8662 1.54109C25.8662 1.54109 25.8393 1.59565 25.7585 1.62294C25.6777 1.67751 25.7585 1.62294 25.7585 1.7048C25.7585 1.78664 25.7855 1.75935 25.7855 1.75935C25.7855 1.75935 25.947 1.75935 26.0009 1.75935C26.0547 1.75935 26.0548 1.75935 26.0818 1.75935C26.1088 1.75935 26.1087 1.78664 26.1087 1.81393C26.1087 1.84121 26.0818 1.81393 26.0547 1.84121C26.0277 1.86851 26.0277 1.84121 25.9739 1.84121C25.9201 1.84121 25.9201 1.84121 25.8931 1.84121C25.8662 1.84121 25.7316 1.84121 25.7316 1.84121C25.7316 1.84121 25.7855 1.89577 25.8393 1.89577C25.8931 1.89577 25.8931 1.92307 25.8931 1.92307C25.8931 1.92307 25.9201 1.95035 25.947 1.97764C25.9739 2.00492 25.947 2.0049 25.947 2.0322C25.947 2.08676 25.947 2.0322 25.8662 2.00492C25.7855 1.97764 25.8393 2.00492 25.8393 1.97764C25.8123 1.97764 25.7855 1.97764 25.7855 1.97764C25.7585 1.97764 25.7585 2.05948 25.7585 2.05948V2.08676C25.7585 2.11404 25.7585 2.11404 25.7316 2.16861C25.7047 2.19589 25.6777 2.1959 25.6237 2.1959C25.5699 2.1959 25.5429 2.1959 25.5429 2.1959C25.5429 2.1959 25.5429 2.1959 25.516 2.1959C25.4891 2.1959 25.4621 2.1959 25.4352 2.1959C25.4083 2.1959 25.3813 2.1959 25.3545 2.1959C25.3275 2.1959 25.3545 2.1959 25.3275 2.1959C25.3006 2.1959 25.3006 2.1959 25.2737 2.1959C25.2466 2.1959 25.2735 2.1959 25.2466 2.14134C25.2196 2.08676 25.2196 2.08676 25.2196 2.08676C25.2196 2.05948 25.2466 2.0322 25.2466 2.00492C25.2466 1.97764 25.2466 2.00492 25.2466 1.95033C25.2466 1.89577 25.1927 1.95033 25.1927 1.95033C25.1927 1.95033 25.1658 2.0322 25.1658 2.05948C25.1658 2.05948 25.1658 2.08676 25.1658 2.16861C25.1658 2.25046 25.1658 2.1959 25.1658 2.22318C25.1658 2.25046 25.1388 2.22318 25.1388 2.25048C25.1388 2.25048 25.1388 2.25048 25.112 2.25048C25.085 2.25048 25.085 2.25046 25.0312 2.27774C24.9773 2.30502 25.0312 2.30502 25.0312 2.30502C25.0312 2.30502 25.0042 2.33231 24.9773 2.35959C24.9504 2.38689 24.9504 2.38689 24.8965 2.41417C24.8425 2.44144 24.8425 2.46872 24.7886 2.49601C24.7617 2.52329 24.681 2.55057 24.654 2.57785C24.6002 2.60513 24.6271 2.57787 24.5732 2.60515C24.5194 2.63243 24.5463 2.60515 24.4924 2.60515C24.4385 2.60515 24.4653 2.60515 24.4653 2.63243C24.4653 2.63243 24.4653 2.65972 24.4924 2.687C24.4924 2.71428 24.5194 2.68701 24.6002 2.74157C24.681 2.79613 24.654 2.79613 24.654 2.82342C24.654 2.82342 24.654 2.8507 24.6271 2.90526C24.6271 2.95982 24.6002 2.93256 24.5732 2.93256C24.5463 2.95984 24.5463 2.95984 24.5194 2.95984C24.4923 2.95984 24.5194 2.95984 24.4924 2.95984C24.4924 2.95984 24.4115 2.95984 24.3845 2.95984C24.3577 2.95984 24.3577 2.95984 24.3577 2.95984C24.3577 2.95984 24.3307 2.95984 24.3038 2.95984C24.2769 2.95984 24.2499 2.95984 24.2499 2.93256C24.2499 2.93256 24.2499 2.93256 24.223 2.93256C24.1961 2.93256 24.1691 2.95984 24.1691 2.95984L24.1423 3.01441C24.1423 3.04169 24.1423 3.0417 24.1691 3.06898C24.1691 3.09626 24.1691 3.12353 24.1691 3.12353C24.1691 3.12353 24.1423 3.17811 24.1423 3.20539C24.1423 3.23267 24.1423 3.25995 24.1423 3.25995C24.1423 3.25995 24.1423 3.25995 24.1423 3.28724C24.1423 3.31452 24.1423 3.36909 24.1691 3.42365C24.1691 3.45093 24.223 3.42365 24.223 3.42365C24.223 3.42365 24.223 3.42365 24.2499 3.42365C24.2769 3.42365 24.3038 3.42365 24.3577 3.45093C24.3845 3.45093 24.3845 3.45093 24.4115 3.45093C24.4385 3.45093 24.4385 3.45093 24.4385 3.45093C24.4385 3.45093 24.4924 3.45093 24.5463 3.45093C24.6002 3.45093 24.6271 3.31451 24.6271 3.31451C24.6002 3.31451 24.6271 3.23267 24.6271 3.20539C24.654 3.17811 24.681 3.17809 24.7348 3.12353C24.7886 3.06897 24.7617 3.12354 24.7886 3.06898C24.8156 3.01441 24.8156 3.01441 24.8425 2.9871C24.8694 2.95982 24.8425 2.98713 24.8696 2.95984C24.8965 2.93256 24.8964 2.93256 24.9234 2.93256C24.9504 2.93256 24.9504 2.93254 25.0042 2.90526C25.058 2.87798 25.0312 2.90526 25.085 2.90526C25.112 2.90526 25.112 2.90528 25.1388 2.87798C25.1658 2.8507 25.1927 2.87798 25.1927 2.87798C25.1927 2.87798 25.2466 2.93256 25.2737 2.93256C25.3006 2.95984 25.3006 2.95982 25.3275 2.9871C25.3813 3.01441 25.3813 3.09625 25.3813 3.09625C25.4083 3.12354 25.4352 3.12353 25.4621 3.12353C25.4891 3.15081 25.516 3.15081 25.5429 3.17811C25.5968 3.20539 25.5699 3.23267 25.5699 3.23267C25.5699 3.25995 25.5699 3.25995 25.5699 3.28724C25.5699 3.31452 25.516 3.31451 25.4891 3.31451C25.4621 3.31451 25.4352 3.34181 25.4083 3.36909C25.3813 3.39637 25.4352 3.39637 25.4621 3.42365C25.4891 3.45093 25.516 3.45093 25.516 3.45093C25.516 3.45093 25.5429 3.45093 25.5699 3.39636C25.5968 3.3418 25.5968 3.31451 25.6237 3.25995C25.6507 3.20537 25.6237 3.23267 25.6507 3.20539C25.6507 3.17811 25.6777 3.17811 25.6507 3.15082C25.6507 3.12354 25.6507 3.15081 25.6507 3.12353C25.6507 3.09625 25.6507 3.09625 25.6507 3.09625C25.6507 3.09625 25.5699 3.06897 25.5429 3.04169C25.516 3.04169 25.516 3.01441 25.4621 2.9871C25.4083 2.93254 25.4621 2.95984 25.4352 2.95984C25.4352 2.93256 25.3813 2.87798 25.3813 2.87798L25.4352 2.8507H25.4621C25.4891 2.8507 25.4891 2.8507 25.516 2.87798C25.5429 2.90528 25.5429 2.90526 25.5429 2.90526C25.5429 2.90526 25.5699 2.93256 25.5968 2.93256C25.6237 2.93256 25.6507 2.9871 25.6507 2.9871C25.6507 2.9871 25.6508 2.9871 25.6777 2.9871C25.7047 2.9871 25.7315 2.98713 25.7585 3.01441C25.7855 3.04169 25.7855 3.01441 25.8123 3.04169C25.8393 3.04169 25.8123 3.09625 25.8123 3.12353C25.8123 3.15081 25.8123 3.17809 25.8931 3.25995C25.9739 3.3418 25.9201 3.25995 25.9739 3.31451C26.0277 3.3418 26.0277 3.36909 26.0818 3.34181C26.1356 3.31452 26.0547 3.28723 26.0547 3.25995C26.0547 3.23267 26.0548 3.20539 26.0818 3.20539C26.1088 3.17811 26.1087 3.17811 26.1356 3.17811C26.1626 3.15081 26.1356 3.17811 26.1895 3.20539C26.2434 3.23267 26.2164 3.20539 26.2703 3.20539C26.2972 3.20539 26.2972 3.20539 26.351 3.20539C26.4049 3.20539 26.378 3.23267 26.351 3.23267C26.3242 3.23267 26.2972 3.23267 26.2703 3.25995C26.2434 3.28723 26.2434 3.28724 26.2434 3.34181C26.2164 3.36909 26.2434 3.36909 26.2972 3.42365C26.351 3.50552 26.2972 3.42365 26.378 3.47823C26.4589 3.5328 26.4318 3.5055 26.4589 3.5055C26.4858 3.5055 26.4858 3.5055 26.5128 3.5055C26.5397 3.5055 26.5128 3.5055 26.6205 3.53278C26.7013 3.56006 26.6474 3.5328 26.7013 3.5055C26.7282 3.47821 26.7552 3.47823 26.782 3.47823C26.809 3.45095 26.8361 3.39637 26.863 3.47823C26.8899 3.56008 26.863 3.56008 26.863 3.64192C26.863 3.72378 26.863 3.66921 26.863 3.6965C26.863 3.72378 26.8361 3.72378 26.8361 3.77834C26.8361 3.83291 26.8359 3.8329 26.809 3.8329C26.809 3.8329 26.782 3.88748 26.7552 3.88748H26.7013C26.7013 3.88748 26.7013 3.88748 26.6205 3.88748C26.5397 3.88748 26.5936 3.88747 26.5666 3.91475C26.5397 3.94204 26.5128 3.91475 26.4858 3.91475C26.4589 3.88747 26.4049 3.88748 26.4049 3.88748C26.4049 3.88748 26.378 3.88748 26.3242 3.88748C26.2703 3.88748 26.2434 3.86019 26.2164 3.86019C26.1895 3.8329 26.1356 3.80562 26.1087 3.80562C26.0818 3.80562 26.0818 3.77834 26.0818 3.77834C26.0818 3.77834 26.0277 3.80562 26.0009 3.8329C25.9739 3.86019 25.9739 3.88748 25.9739 3.88748C25.9739 3.91476 25.9739 3.94203 25.947 3.94203C25.9201 3.94203 25.9201 3.94203 25.8931 3.94203C25.8662 3.94203 25.7855 3.94203 25.7855 3.94203C25.7855 3.94203 25.7585 3.91475 25.7316 3.86019C25.7316 3.80562 25.6507 3.8329 25.5968 3.80562C25.5429 3.77833 25.4891 3.80562 25.4891 3.80562C25.4891 3.80562 25.4352 3.77834 25.4083 3.75106C25.3813 3.72378 25.3813 3.6965 25.3813 3.6965C25.3813 3.6965 25.3813 3.66921 25.4083 3.64192C25.4352 3.58736 25.4083 3.58736 25.4352 3.56008C25.4352 3.5328 25.4352 3.5328 25.4352 3.5055C25.4352 3.47821 25.4083 3.45093 25.4083 3.45093C25.3813 3.45093 25.3545 3.45093 25.3006 3.45093C25.2466 3.45093 25.2466 3.45095 25.1927 3.47823C25.1658 3.47823 25.1388 3.47823 25.085 3.47823C25.0312 3.47823 24.9773 3.47823 24.9504 3.47823C24.9234 3.47823 24.9234 3.47821 24.8965 3.5055C24.8694 3.5055 24.8425 3.56008 24.7886 3.56008C24.7348 3.56008 24.7348 3.61464 24.654 3.61464C24.5732 3.64193 24.5194 3.58736 24.4924 3.58736C24.4653 3.58736 24.4653 3.56008 24.4385 3.56008C24.4115 3.56008 24.4115 3.61464 24.4115 3.61464C24.4115 3.61464 24.3845 3.64192 24.3577 3.66921C24.3307 3.69649 24.3577 3.6965 24.3307 3.6965C24.3307 3.72378 24.3307 3.69649 24.2499 3.72377C24.1961 3.75105 24.2499 3.75106 24.223 3.77834C24.1961 3.80562 24.1961 3.80562 24.1691 3.8329C24.1423 3.86019 24.1423 3.91475 24.1151 3.9966C24.0882 4.07845 24.0883 4.05117 24.0613 4.07845C24.0344 4.10573 24.0074 4.13301 23.9805 4.13301C23.9536 4.13301 23.9267 4.21488 23.8728 4.26944C23.8189 4.324 23.8459 4.3513 23.8189 4.37858C23.792 4.40586 23.7651 4.51501 23.6842 4.59684C23.6034 4.67868 23.6572 4.6514 23.6572 4.67868C23.6572 4.73325 23.6572 4.73325 23.6842 4.76053C23.6842 4.78781 23.711 4.84239 23.711 4.89696C23.711 4.9788 23.711 4.92425 23.6842 4.97881C23.6842 5.0334 23.6572 5.03338 23.6572 5.06066C23.6572 5.08796 23.6302 5.1698 23.6572 5.19709C23.6842 5.22437 23.6572 5.25166 23.6842 5.25166C23.6842 5.27894 23.6842 5.27894 23.711 5.3335C23.7381 5.38807 23.7381 5.41535 23.7381 5.41535C23.7381 5.41535 23.7651 5.46992 23.792 5.52449C23.8189 5.57905 23.8189 5.57905 23.8728 5.63361C23.8997 5.68817 23.8997 5.68817 23.8997 5.68817C23.8997 5.68817 23.9536 5.71546 24.0074 5.77004C24.0613 5.8246 24.0613 5.8246 24.0882 5.85188C24.1153 5.87917 24.1153 5.87918 24.1961 5.93374C24.2769 5.9883 24.2499 5.93373 24.2769 5.90645C24.3038 5.90645 24.3038 5.90646 24.3577 5.87918C24.4115 5.85188 24.3845 5.87918 24.4385 5.87918C24.4923 5.87918 24.4923 5.87917 24.5194 5.90645C24.5463 5.90645 24.5463 5.90645 24.6002 5.90645C24.654 5.90645 24.654 5.87917 24.681 5.85188C24.7078 5.85188 24.7348 5.8246 24.7617 5.8246C24.7617 5.8246 24.7886 5.8246 24.8156 5.8246C24.8156 5.8246 24.8965 5.79732 24.9504 5.79732C25.0042 5.79732 25.0312 5.87917 25.0312 5.90645C25.058 5.93373 25.058 5.90645 25.112 5.90645C25.1658 5.90645 25.1388 5.90645 25.1658 5.90645C25.1927 5.90645 25.1928 5.90646 25.2466 5.93374C25.3006 5.96102 25.3006 5.98829 25.3006 5.98829C25.3006 6.01558 25.3006 6.04288 25.3006 6.07016C25.3006 6.09744 25.2737 6.20657 25.2737 6.26113C25.2737 6.31569 25.2737 6.34297 25.2737 6.39756C25.2737 6.42484 25.3006 6.45212 25.3275 6.45212C25.3545 6.45212 25.3275 6.4794 25.3545 6.50669C25.3813 6.53398 25.3545 6.50669 25.4083 6.56126C25.4352 6.61582 25.4352 6.67038 25.4621 6.72495C25.4891 6.77952 25.4891 6.77952 25.516 6.83408C25.5429 6.88867 25.5429 6.99779 25.5429 6.99779C25.5429 7.02507 25.5429 7.02507 25.5429 7.07964C25.5429 7.10692 25.5429 7.16148 25.516 7.21606C25.516 7.27062 25.4891 7.27062 25.4891 7.3252C25.4621 7.37977 25.4083 7.46162 25.4083 7.51618C25.4083 7.54347 25.4083 7.57075 25.4083 7.65259C25.4083 7.73445 25.4083 7.65259 25.4083 7.67987C25.4083 7.70715 25.4352 7.73444 25.4621 7.76172C25.4891 7.78901 25.4891 7.81629 25.4891 7.87085C25.4891 7.89816 25.516 7.92544 25.516 7.98C25.516 8.03457 25.5429 8.03456 25.5699 8.06186C25.5699 8.08914 25.5699 8.11642 25.5699 8.1437C25.5699 8.17098 25.5968 8.28012 25.6237 8.33468C25.6507 8.38924 25.6777 8.44381 25.6777 8.44381C25.7047 8.44381 25.7047 8.47109 25.7316 8.58022C25.7585 8.66208 25.7585 8.77122 25.7316 8.7985C25.7047 8.8258 25.7585 8.85306 25.8123 8.90762C25.8393 8.9622 25.8393 8.90762 25.8931 8.90762C25.947 8.90762 25.8931 8.90765 26.0277 8.88036C26.1356 8.85308 26.2164 8.85306 26.2434 8.85306C26.2703 8.85306 26.2972 8.8258 26.3242 8.7985C26.351 8.77122 26.4318 8.68937 26.4589 8.66209C26.4858 8.66209 26.4858 8.66208 26.5397 8.55296C26.5936 8.44381 26.5666 8.49837 26.5936 8.49837C26.6205 8.47109 26.6205 8.47109 26.6205 8.44381C26.6474 8.41653 26.6474 8.38924 26.6744 8.33468C26.7013 8.28012 26.6744 8.25283 26.7013 8.22554C26.7282 8.19826 26.7013 8.22554 26.7282 8.22554C26.7282 8.22554 26.7552 8.22554 26.7552 8.19826C26.782 8.19826 26.782 8.19826 26.782 8.17097C26.809 8.17097 26.809 8.17098 26.8361 8.1437C26.863 8.11642 26.863 8.11642 26.863 8.11642C26.8899 8.08914 26.8361 8.00728 26.8361 7.98C26.8361 7.98 26.809 7.92542 26.809 7.89814C26.809 7.89814 26.782 7.87087 26.809 7.78901C26.8359 7.70716 26.8361 7.76173 26.8899 7.73445C26.9437 7.70716 26.9707 7.65259 26.9977 7.59803C27.0245 7.54347 26.9977 7.59803 27.0785 7.57075C27.1323 7.54347 27.1053 7.54347 27.1053 7.54347C27.1053 7.54347 27.1323 7.48888 27.1592 7.46161C27.1861 7.43433 27.1592 7.46162 27.1861 7.43434C27.1861 7.40705 27.1861 7.37974 27.2131 7.35246C27.2131 7.32518 27.2131 7.21606 27.2131 7.21606C27.2131 7.21606 27.2131 7.16149 27.2131 7.1342V7.10693C27.2131 7.10693 27.2131 7.07964 27.2131 7.05236C27.2131 7.02507 27.2131 7.02507 27.1861 6.99779C27.1592 6.97051 27.1592 6.8068 27.1592 6.75224C27.1592 6.6704 27.1592 6.72497 27.1592 6.69769C27.1592 6.69769 27.1592 6.61582 27.1592 6.58854C27.1592 6.56126 27.2671 6.45212 27.2671 6.42484C27.2671 6.39756 27.3209 6.37028 27.3479 6.34299C27.3748 6.31571 27.3748 6.31569 27.3748 6.31569C27.3748 6.31569 27.4017 6.28841 27.4825 6.23385C27.5363 6.17928 27.5633 6.07016 27.6442 6.01558C27.725 5.96102 27.6712 5.9883 27.698 5.96102C27.698 5.93374 27.725 5.93374 27.7788 5.87918C27.8327 5.8246 27.8058 5.8246 27.8327 5.77004C27.8596 5.71546 27.8596 5.6882 27.8596 5.66091C27.8596 5.63363 27.8596 5.57905 27.8866 5.52449C27.8866 5.46992 27.8596 5.44263 27.8596 5.44263C27.8596 5.44263 27.8327 5.44263 27.8058 5.46992L27.7788 5.49719H27.698C27.698 5.49719 27.5633 5.52449 27.5363 5.52449C27.5094 5.52449 27.4017 5.4972 27.3748 5.46992C27.3748 5.44263 27.3479 5.41535 27.3479 5.38807C27.3209 5.36079 27.3209 5.36079 27.294 5.3335C27.2671 5.30622 27.2671 5.3062 27.2401 5.27892C27.2132 5.25165 27.1861 5.25165 27.1323 5.19709C27.1053 5.14252 27.1053 5.06066 27.1053 5.06066C27.1053 5.06066 27.0245 4.95152 26.9977 4.89696C26.9707 4.84239 26.9707 4.78781 26.9707 4.76053C26.9707 4.73325 26.9437 4.73325 26.9169 4.67868C26.8899 4.62412 26.8899 4.62412 26.863 4.59684C26.8361 4.54229 26.809 4.46042 26.809 4.46042C26.809 4.46042 26.7282 4.37857 26.7282 4.35128C26.7013 4.35128 26.7013 4.21488 26.7013 4.1876C26.7013 4.1876 26.6474 4.10573 26.6744 4.07845C26.7013 4.05117 26.7282 4.16031 26.7282 4.1876C26.7282 4.21488 26.7552 4.21488 26.782 4.21488C26.809 4.21488 26.809 4.1876 26.809 4.16031C26.809 4.13303 26.8361 4.13301 26.8361 4.13301C26.8361 4.13301 26.8361 4.16031 26.863 4.1876C26.863 4.21488 26.863 4.21488 26.863 4.21488C26.863 4.24216 26.8899 4.24216 26.8899 4.26944C26.9169 4.29672 26.9169 4.29672 26.9169 4.32401C26.9437 4.3513 26.9437 4.40586 26.9437 4.46042C26.9437 4.4877 27.0245 4.54229 27.0515 4.56956C27.0785 4.62412 27.0785 4.62412 27.0785 4.62412C27.0785 4.62412 27.0785 4.65142 27.0785 4.70599C27.0785 4.76055 27.1053 4.76055 27.1323 4.78783C27.1592 4.81511 27.1861 4.81511 27.1861 4.84241C27.1861 4.84241 27.2401 5.00609 27.2671 5.06066C27.294 5.08796 27.294 5.08794 27.294 5.08794C27.294 5.08794 27.294 5.11522 27.3209 5.16978C27.3479 5.22437 27.3209 5.16978 27.3748 5.30621C27.4286 5.44263 27.4017 5.36079 27.4017 5.36079C27.4286 5.38807 27.4286 5.36079 27.4555 5.36079C27.4825 5.36079 27.5094 5.3335 27.5363 5.3335C27.5633 5.3335 27.5902 5.3062 27.6442 5.27892C27.698 5.25165 27.7788 5.25165 27.8327 5.22437C27.8866 5.1698 27.9134 5.14252 27.9404 5.14252C27.9674 5.14252 27.9674 5.14252 27.9944 5.11524C28.0213 5.08796 28.0214 5.08796 28.0483 5.06066C28.0752 5.03338 28.0752 5.03338 28.129 5.00609C28.1829 4.97881 28.156 4.97881 28.2098 4.92425C28.2368 4.89697 28.2637 4.81511 28.2906 4.78783C28.3176 4.76055 28.3176 4.73325 28.3445 4.67868C28.3714 4.62412 28.3445 4.6514 28.3445 4.6514C28.3445 4.62412 28.3176 4.62412 28.2906 4.62412C28.2637 4.62412 28.1829 4.56956 28.156 4.54227C28.129 4.51499 28.129 4.54227 28.1021 4.4877C28.0483 4.43314 28.0752 4.48772 28.0752 4.51501C28.0752 4.51501 28.0483 4.51499 28.0214 4.54227C27.9942 4.56956 27.8866 4.56956 27.8596 4.56956C27.8327 4.56956 27.8327 4.54227 27.8327 4.54227C27.8327 4.54227 27.8327 4.51499 27.8327 4.4877C27.8327 4.46042 27.8058 4.46042 27.7788 4.46042C27.752 4.46042 27.752 4.46044 27.752 4.43316C27.752 4.43316 27.752 4.40586 27.725 4.37858C27.698 4.3513 27.698 4.3513 27.6442 4.32401C27.6172 4.29672 27.6172 4.29672 27.5902 4.26944C27.5902 4.24216 27.5363 4.1876 27.5363 4.16031C27.5363 4.13303 27.5633 4.13301 27.5633 4.13301C27.5633 4.13301 27.5902 4.10575 27.6171 4.10575C27.6442 4.07847 27.6442 4.10575 27.6442 4.10575C27.6442 4.10575 27.6712 4.10575 27.725 4.16031C27.7788 4.21488 27.752 4.21488 27.7788 4.24216C27.8058 4.29673 27.8058 4.26944 27.8327 4.26944C27.8596 4.29672 27.9134 4.32401 27.9404 4.32401C27.9674 4.32401 28.0752 4.32401 28.0752 4.32401V4.37858C28.0752 4.37858 28.1829 4.40586 28.2098 4.43316C28.2368 4.43316 28.2368 4.43314 28.2637 4.46042C28.2906 4.4877 28.4255 4.46042 28.4255 4.46042C28.4255 4.46042 28.5062 4.46042 28.5331 4.46042C28.5869 4.46042 28.5869 4.46042 28.6139 4.46042C28.6409 4.46042 28.6677 4.46042 28.6677 4.4877C28.6947 4.4877 28.7217 4.51501 28.7485 4.56956C28.7755 4.62412 28.8295 4.62412 28.8564 4.62412C28.8833 4.62412 28.8833 4.62412 28.9103 4.6514C28.9372 4.67871 28.9103 4.6514 28.8833 4.67868C28.8833 4.67868 28.8833 4.67871 28.8564 4.70599C28.8295 4.73327 28.8564 4.73327 28.8564 4.73327C28.8564 4.73327 28.8833 4.76055 28.8833 4.78783C28.9103 4.81511 28.9641 4.78783 28.9911 4.78783C28.9911 4.78783 28.991 4.76053 29.018 4.76053C29.0449 4.76053 29.0449 4.73327 29.0718 4.73327C29.0987 4.73327 29.0718 4.78783 29.0718 4.81511C29.0718 4.84239 29.0988 4.86969 29.0988 4.92425C29.0988 5.00609 29.0988 5.00609 29.0988 5.03338C29.0988 5.06066 29.1257 5.08796 29.1257 5.11524C29.1257 5.14252 29.1526 5.14252 29.1526 5.19709C29.1526 5.25165 29.2066 5.3335 29.2066 5.3335L29.2336 5.38807C29.2336 5.38807 29.2604 5.44264 29.2874 5.52449C29.3412 5.60633 29.3144 5.55176 29.3144 5.57904C29.3144 5.57904 29.3144 5.57905 29.3412 5.66091C29.3682 5.74276 29.3682 5.71548 29.3682 5.74276C29.3682 5.77004 29.3952 5.77004 29.422 5.79732C29.449 5.79732 29.422 5.79732 29.449 5.74276C29.4758 5.71548 29.4758 5.71548 29.5028 5.68817C29.5028 5.66089 29.5298 5.63361 29.5298 5.57904C29.5298 5.55176 29.5566 5.52447 29.5566 5.44263C29.5298 5.33348 29.5566 5.38807 29.5566 5.36079C29.5566 5.33348 29.5838 5.30622 29.5838 5.25166C29.5838 5.22438 29.5838 5.19709 29.6376 5.19709C29.6915 5.1698 29.6915 5.14252 29.7184 5.11524C29.7184 5.11524 29.7184 5.11522 29.7453 5.08794C29.3144 3.39637 28.4793 2.08676 27.3209 1.21369Z" fill="url(#paint4_radial_8147_20012)"/>
<path id="Vector_6" d="M20.8821 0.993946C20.8821 1.02156 20.827 1.02155 20.7993 1.02155C19.6959 1.76706 18.8409 2.87148 18.4822 4.19681C18.4822 4.22442 18.5097 4.22442 18.5097 4.25203C18.5374 4.33487 18.5374 4.27966 18.5926 4.36249C18.6477 4.44533 18.5926 4.52815 18.565 4.55576C18.5374 4.58337 18.6477 4.69382 18.6477 4.72143C18.6477 4.74904 18.7856 4.77664 18.7856 4.77664C18.7856 4.77664 18.8409 4.83187 18.896 4.85948C18.9512 4.88709 19.0339 4.9147 19.0615 4.9147C19.0892 4.9147 19.1443 4.88709 19.1718 4.88709C19.1994 4.88709 19.1994 4.9147 19.1994 4.94231C19.1994 4.96992 19.2546 4.99755 19.365 5.05277C19.4754 5.10798 19.42 5.10799 19.4476 5.10799C19.4751 5.10799 19.5028 5.10797 19.5304 5.13559C19.558 5.16321 19.558 5.16321 19.5855 5.19082C19.6132 5.21843 19.6959 5.32887 19.7234 5.35649C19.7511 5.3841 19.8063 5.46692 19.8338 5.49453C19.8614 5.52214 19.8891 5.57737 19.9993 5.57737C20.1097 5.57737 20.0546 5.57738 20.1097 5.52214C20.1649 5.49453 20.1372 5.52214 20.1649 5.52214C20.1925 5.54977 20.1925 5.54975 20.1925 5.57737C20.1925 5.60498 20.1925 5.60499 20.1925 5.66021C20.1925 5.71544 20.1925 5.71542 20.1925 5.82586C20.1925 5.90871 20.1925 5.90871 20.1649 5.93632C20.1372 5.96393 20.1372 5.96391 20.1097 5.99152C20.0821 6.01914 20.0821 6.01915 20.0821 6.01915C20.0821 6.01915 20.0546 6.04675 20.027 6.12957C19.9717 6.21242 19.9993 6.18481 19.9993 6.24003C19.9717 6.29525 19.9993 6.29525 19.9993 6.29525C19.9993 6.32286 20.027 6.37809 20.027 6.40569C20.027 6.4333 19.9993 6.4333 19.9717 6.46091C19.9442 6.48852 19.9717 6.54375 19.9993 6.59897C20.027 6.65419 20.0546 6.70943 20.0821 6.76464C20.1097 6.81986 20.0821 6.76462 20.1097 6.81985C20.1372 6.90268 20.1649 6.93031 20.1925 6.98553C20.22 7.04075 20.2476 7.06835 20.2476 7.12358C20.2752 7.1788 20.3304 7.26163 20.3855 7.34447C20.4408 7.42731 20.6063 7.48251 20.6338 7.51012C20.6614 7.53774 20.6889 7.6482 20.6889 7.70342C20.6889 7.73102 20.6889 7.81385 20.6889 7.84146C20.6889 7.89669 20.6889 8.00715 20.7166 8.08997C20.7166 8.1728 20.7166 8.31086 20.7166 8.36608C20.7166 8.44891 20.7442 8.47652 20.7442 8.53174C20.7442 8.58696 20.7993 8.6422 20.7993 8.69742C20.7993 8.75264 20.7442 8.9183 20.7442 8.97353C20.7442 9.02875 20.7718 9.08396 20.7718 9.13918C20.7718 9.19441 20.7718 9.16679 20.7993 9.22202C20.827 9.27724 20.8269 9.27724 20.8546 9.33245C20.8821 9.38767 20.8821 9.36006 20.9097 9.41529C20.9372 9.47051 20.9372 9.60856 20.9648 9.69141C20.9925 9.80185 20.9925 9.74661 21.0201 9.77424C21.0201 9.80185 21.0476 9.88468 21.0476 9.88468C21.0476 9.88468 21.1027 9.99513 21.1304 10.078C21.1855 10.1608 21.2131 10.216 21.2408 10.216C21.2684 10.216 21.4614 10.3265 21.5442 10.3541C21.6269 10.3541 21.6269 10.2989 21.6269 10.2989C21.6269 10.2989 21.5442 10.2712 21.5167 10.2436C21.489 10.216 21.4614 10.216 21.4614 10.1884C21.4614 10.1884 21.4338 10.1332 21.4063 10.1056C21.3786 10.078 21.351 10.0227 21.351 9.99513C21.351 9.96752 21.351 9.96752 21.3787 9.91229C21.4063 9.85707 21.4063 9.80185 21.4063 9.77424C21.4063 9.74661 21.4063 9.77424 21.3787 9.74663C21.351 9.71902 21.351 9.71901 21.351 9.69141C21.351 9.6638 21.351 9.55336 21.351 9.52575C21.351 9.49813 21.351 9.49813 21.351 9.47052C21.351 9.41529 21.3787 9.30485 21.3787 9.30485C21.3787 9.30485 21.4063 9.30485 21.4338 9.27724C21.4338 9.24963 21.4614 9.19441 21.4614 9.11157C21.4614 9.02875 21.489 9.11157 21.489 9.11157C21.489 9.11157 21.5442 9.11157 21.5993 9.08396C21.6546 9.08396 21.6269 9.05635 21.7097 8.97353C21.7925 8.89069 21.6822 8.9459 21.6822 8.9459C21.6546 8.9459 21.5993 8.80784 21.6269 8.75262C21.6546 8.6974 21.7097 8.83545 21.7373 8.80784C21.7648 8.78023 21.7925 8.80784 21.8476 8.75262C21.9027 8.72501 21.9027 8.58698 21.9027 8.55937C21.9305 8.53174 21.9305 8.53174 21.9856 8.47652C22.0407 8.42128 22.0407 8.4213 22.0684 8.36608C22.0959 8.31086 22.0684 8.17279 22.0684 8.11757C22.0684 8.06234 22.0959 8.03473 22.1235 8.03473C22.151 8.00713 22.1786 7.97952 22.2063 7.97952C22.2339 7.95191 22.2614 7.9243 22.3167 7.89669C22.3718 7.84146 22.4546 7.81385 22.4546 7.81385C22.4546 7.81385 22.5373 7.70342 22.5373 7.67581C22.5373 7.6482 22.5648 7.59296 22.5925 7.51012C22.6201 7.39968 22.6201 7.42729 22.6201 7.42729C22.6201 7.39968 22.5925 7.26165 22.5925 7.17881C22.5925 7.09598 22.5925 7.15119 22.6201 7.12358C22.6477 7.09597 22.7028 6.98553 22.758 6.93031C22.8131 6.87508 22.7856 6.87509 22.8131 6.84747C22.8407 6.81986 22.8407 6.79225 22.8407 6.76464C22.8407 6.73703 22.8684 6.73701 22.8684 6.6818C22.8684 6.65419 22.8407 6.59897 22.8407 6.59897L22.7028 6.54374C22.6477 6.51613 22.6477 6.48854 22.5648 6.4333C22.4822 6.37809 22.4822 6.37809 22.4822 6.37809H22.4546C22.4546 6.37809 22.3442 6.40569 22.3167 6.40569C22.289 6.40569 22.289 6.40569 22.2614 6.37809C22.2614 6.37809 22.2339 6.29525 22.2339 6.26764C22.2339 6.24003 22.1235 6.21242 22.0959 6.21242C22.0684 6.21242 22.0959 6.21242 22.0684 6.21242C22.0407 6.21242 22.0407 6.24003 22.0131 6.24003C21.9856 6.26764 22.0131 6.26764 21.958 6.29525C21.9027 6.32286 21.9027 6.29525 21.9027 6.26764C21.8752 6.26764 21.8752 6.26764 21.8752 6.26764C21.8476 6.26764 21.8476 6.26764 21.8201 6.21242C21.7925 6.1572 21.8752 6.1572 21.9027 6.1572C21.9305 6.12959 21.958 6.10197 21.9856 6.07437C22.0131 6.01915 21.9856 6.04676 21.9856 6.04676C21.9856 6.04676 21.958 6.01915 21.9027 5.93632C21.8476 5.88109 21.8752 5.85347 21.8752 5.82586C21.8752 5.79825 21.8476 5.77063 21.8201 5.77063C21.7925 5.74302 21.7373 5.77066 21.7097 5.74305C21.7097 5.71542 21.7097 5.74305 21.6822 5.74305C21.6546 5.74305 21.5993 5.71542 21.5718 5.71542C21.5442 5.71542 21.5718 5.71542 21.5167 5.71542C21.4614 5.71542 21.4614 5.71542 21.4338 5.68781C21.4063 5.6602 21.4063 5.63259 21.3787 5.60498C21.351 5.57737 21.2959 5.54975 21.2959 5.54975C21.2959 5.54975 21.2959 5.52214 21.2959 5.49453C21.2959 5.46692 21.2408 5.46692 21.2408 5.46692C21.2131 5.46692 21.1855 5.43931 21.1855 5.41171C21.1855 5.3841 21.0752 5.3841 21.0752 5.3841C21.0752 5.3841 21.0476 5.3841 21.0201 5.3841C20.9925 5.3841 20.8821 5.3841 20.8546 5.35649C20.8269 5.32887 20.7718 5.30125 20.7718 5.30125C20.7718 5.30125 20.6889 5.30126 20.6614 5.32887C20.6338 5.32887 20.6338 5.35649 20.6338 5.3841C20.6338 5.41171 20.6338 5.41168 20.6338 5.43929C20.6338 5.46692 20.6063 5.43929 20.6063 5.43929C20.5787 5.43929 20.5787 5.43931 20.5787 5.41171C20.5787 5.3841 20.5787 5.35649 20.5787 5.32887C20.5787 5.30126 20.6338 5.27365 20.6338 5.24604C20.6614 5.21843 20.6063 5.24604 20.6063 5.24604C20.6063 5.24604 20.5787 5.27364 20.551 5.30125C20.4959 5.32886 20.5235 5.32887 20.4959 5.35649C20.4408 5.3841 20.4408 5.3841 20.4131 5.41171C20.3855 5.41171 20.3855 5.43931 20.358 5.46692C20.358 5.46692 20.3029 5.54975 20.2752 5.54975C20.2476 5.57737 20.2476 5.54975 20.2476 5.54975L20.22 5.52214L20.1925 5.49453C20.1925 5.49453 20.1925 5.49453 20.1649 5.49453C20.1372 5.49453 20.0821 5.52214 20.0546 5.54975C20.027 5.54975 20.027 5.57737 20.027 5.57737C20.027 5.57737 19.9442 5.57737 19.9166 5.46692C19.8891 5.35649 19.8889 5.32887 19.8889 5.32887C19.8889 5.30126 19.8889 5.30126 19.8889 5.27365C19.8889 5.24604 19.9166 5.21841 19.9166 5.21841C19.9166 5.1908 19.9166 5.1908 19.9442 5.16319C19.9442 5.13558 19.9442 5.13558 19.9166 5.08037C19.8891 5.02515 19.8614 5.08038 19.8614 5.05277C19.8338 5.05277 19.8338 5.05277 19.8063 5.05277C19.7787 5.05277 19.7511 5.05277 19.6959 5.05277C19.6408 5.05277 19.6131 5.05276 19.6131 5.02515C19.6131 4.96992 19.6408 4.94231 19.6408 4.94231C19.6408 4.94231 19.6408 4.88709 19.6408 4.85948C19.6408 4.83187 19.6683 4.80426 19.6683 4.80426C19.6683 4.80426 19.6959 4.77664 19.7234 4.74904C19.7511 4.74904 19.751 4.69382 19.751 4.66621C19.7787 4.6386 19.8063 4.61097 19.8063 4.61097C19.8063 4.61097 19.7787 4.61097 19.6959 4.61097C19.6132 4.61097 19.6408 4.61097 19.6131 4.61097C19.5855 4.61097 19.5855 4.6386 19.558 4.66621C19.5304 4.69382 19.558 4.69382 19.5304 4.72143C19.5304 4.74904 19.4751 4.83188 19.4476 4.83188C19.4476 4.83188 19.42 4.85948 19.3926 4.85948C19.365 4.85948 19.3372 4.85948 19.3372 4.85948C19.3372 4.85948 19.2822 4.85948 19.2271 4.85948C19.1718 4.85948 19.1994 4.85948 19.2271 4.80426C19.2271 4.74904 19.1718 4.66621 19.1718 4.6386C19.1718 4.61099 19.1718 4.61097 19.1718 4.61097V4.50054C19.1718 4.50054 19.1718 4.47293 19.1994 4.44533C19.1994 4.41772 19.1994 4.41772 19.1994 4.36249C19.1994 4.30727 19.1994 4.30727 19.1994 4.27966C19.1994 4.25205 19.2546 4.22442 19.2822 4.1692C19.3098 4.11398 19.3372 4.08638 19.365 4.05877C19.3926 4.00354 19.42 4.03115 19.4751 4.03115C19.5028 4.03115 19.4751 4.00354 19.5855 4.00354C19.6959 4.00354 19.6132 4.00354 19.6408 4.00354C19.6408 4.00354 19.6683 4.03115 19.6959 4.05877C19.7234 4.08638 19.7234 4.05877 19.8063 4.05877C19.8891 4.05877 19.8063 4.05877 19.8063 4.00354C19.8063 3.97593 19.8063 3.97593 19.8063 3.97593C19.8338 3.97593 19.8338 3.97593 19.8889 3.94832C19.9442 3.92071 19.9993 3.94832 19.9993 3.94832C20.027 3.94832 20.1097 3.97593 20.1372 3.97593C20.1925 3.97593 20.1649 4.00354 20.1925 4.05877C20.22 4.11398 20.1925 4.11398 20.1925 4.11398C20.1925 4.14159 20.1925 4.22444 20.2476 4.27966C20.3029 4.33488 20.3029 4.36248 20.3304 4.30726C20.3855 4.25203 20.3304 4.14159 20.2752 4.03115C20.2476 3.92071 20.3029 3.94832 20.358 3.8931C20.4131 3.81026 20.4131 3.78266 20.4959 3.75505C20.5787 3.69983 20.6063 3.6722 20.6063 3.64459C20.6063 3.64459 20.6614 3.617 20.6889 3.58938C20.7166 3.56177 20.7442 3.53416 20.7442 3.45134C20.7442 3.3685 20.7166 3.42371 20.7442 3.36849C20.7718 3.31327 20.7718 3.28566 20.7993 3.28566C20.827 3.28566 20.7993 3.42371 20.8546 3.34088C20.9097 3.28566 20.8821 3.28566 20.9097 3.23043C20.9648 3.1752 20.9648 3.20282 20.9925 3.20282C21.0201 3.20282 21.0752 3.11997 21.1029 3.09237C21.1304 3.06476 21.1304 3.03715 21.158 3.00954C21.1855 2.98193 21.2684 2.95433 21.3235 2.92672C21.3787 2.89911 21.3786 2.84389 21.4063 2.84389C21.4338 2.84389 21.489 2.84387 21.5718 2.81626C21.6546 2.81626 21.5718 2.84389 21.5442 2.84389C21.5167 2.8715 21.5167 2.92672 21.5167 2.92672C21.5442 2.92672 21.5442 2.89911 21.5718 2.89911C21.5993 2.8715 21.6269 2.8715 21.6822 2.84389C21.7373 2.84389 21.7097 2.81626 21.7648 2.81626C21.8201 2.81626 21.7648 2.78866 21.7373 2.78866C21.7097 2.78866 21.6822 2.76105 21.6546 2.73344C21.6269 2.70582 21.5993 2.67821 21.6269 2.67821C21.6546 2.6506 21.7097 2.59538 21.7097 2.56777C21.7373 2.54016 21.7373 2.54016 21.6546 2.56777C21.5718 2.56777 21.6269 2.56777 21.5718 2.56777C21.5442 2.56777 21.489 2.59538 21.4614 2.59538C21.4614 2.59538 21.4063 2.62299 21.351 2.6506C21.3235 2.67821 21.2959 2.67821 21.2959 2.67821C21.2959 2.67821 21.351 2.6506 21.4063 2.59538C21.4614 2.54016 21.4338 2.54016 21.489 2.51255C21.5442 2.48493 21.5167 2.48493 21.6269 2.45733C21.7373 2.40211 21.6822 2.42972 21.7097 2.42972C21.7648 2.42972 21.8476 2.45733 21.9027 2.42972C21.958 2.42972 21.9305 2.42971 21.958 2.4021C21.9856 2.4021 21.9856 2.3745 22.0407 2.34689C22.0959 2.31928 22.0959 2.31928 22.1235 2.31928C22.151 2.31928 22.1511 2.29165 22.1786 2.26404C22.2063 2.23643 22.1786 2.23644 22.1786 2.20883C22.1786 2.20883 22.151 2.18122 22.151 2.15362C22.151 2.12601 22.0684 2.07077 22.0407 2.04316C22.0131 2.01555 22.0131 1.93271 22.0131 1.9051C22.0131 1.9051 21.9856 1.87749 21.9856 1.84988C21.9856 1.82227 21.9856 1.76706 21.9856 1.73944C21.9856 1.71183 21.9305 1.71182 21.9305 1.71182C21.9305 1.71182 21.8752 1.73944 21.8201 1.79467C21.7925 1.82227 21.7925 1.82227 21.7648 1.84988C21.7373 1.84988 21.7097 1.82227 21.6822 1.82227C21.6546 1.82227 21.6546 1.79467 21.6546 1.76706C21.6546 1.76706 21.6546 1.65661 21.6546 1.629C21.6546 1.60139 21.6269 1.60139 21.5718 1.60139C21.5167 1.57378 21.5442 1.57376 21.5167 1.57376C21.489 1.57376 21.4338 1.57376 21.4338 1.57376C21.4063 1.57376 21.4338 1.60139 21.4063 1.60139C21.4063 1.629 21.3787 1.65661 21.3787 1.68422C21.3787 1.71183 21.3787 1.68422 21.2959 1.76706C21.2408 1.84988 21.2408 1.79467 21.2408 1.82227C21.2408 1.84988 21.2684 1.87749 21.2684 1.9051C21.2684 1.93271 21.2131 1.98795 21.158 2.01556C21.1029 2.07078 21.1029 2.04316 21.0752 2.04316C21.0476 2.04316 21.0476 2.09838 21.0201 2.12599C21.0201 2.15359 20.9925 2.15362 20.9925 2.15362C20.9925 2.18122 20.965 2.20883 20.9372 2.23644C20.9097 2.29167 20.9097 2.29165 20.8821 2.31928C20.8546 2.31928 20.8546 2.31928 20.8269 2.31928C20.7993 2.31928 20.7993 2.29166 20.7718 2.29166C20.7442 2.29166 20.7718 2.18122 20.7718 2.15362C20.7718 2.12601 20.7718 2.12601 20.7993 2.07078C20.7993 2.01556 20.7718 2.04316 20.7442 2.04316C20.7166 2.04316 20.6338 1.98794 20.6063 1.96033C20.5787 1.96033 20.5787 1.93273 20.551 1.93273C20.551 1.93273 20.4959 1.9051 20.4408 1.87749C20.3855 1.87749 20.3855 1.84988 20.3855 1.84988C20.3855 1.84988 20.4131 1.82227 20.4131 1.76706C20.4408 1.71183 20.4131 1.71182 20.4131 1.71182C20.4131 1.71182 20.4131 1.68422 20.4408 1.68422C20.4408 1.68422 20.4959 1.629 20.5235 1.60139C20.551 1.57378 20.5787 1.57378 20.6614 1.54616C20.7442 1.51855 20.7442 1.46333 20.7718 1.43572C20.7993 1.43572 20.7993 1.43572 20.8546 1.40811C20.9097 1.3805 20.9097 1.38051 20.9372 1.38051C20.965 1.38051 21.0476 1.35288 21.1029 1.29766C21.158 1.27005 21.1304 1.27006 21.1304 1.24245L21.1855 1.18722C21.2131 1.18722 21.2131 1.18722 21.2408 1.18722C21.2684 1.18722 21.2684 1.18722 21.2959 1.18722C21.3235 1.18722 21.3787 1.18722 21.3787 1.18722C21.4063 1.18722 21.4063 1.1044 21.4063 1.1044C21.4063 1.07679 21.3787 1.04917 21.3787 1.04917C21.351 1.04917 21.3787 1.04917 21.3235 1.04917C21.2684 1.04917 21.2959 1.07678 21.2684 1.07678C21.2407 1.07678 21.2408 1.07678 21.1855 1.07678C21.1304 1.07678 21.158 1.07678 21.1304 1.07678C21.1027 1.07678 21.1029 1.04917 21.1029 1.04917C21.0752 1.02156 21.1029 1.02155 21.1029 0.938721C21.0476 0.966331 20.9925 0.993938 20.9648 1.02155C20.8821 0.966328 20.8821 0.966334 20.8821 0.993946Z" fill="url(#paint5_radial_8147_20012)"/>
<path id="Vector_7" d="M22.0959 0.358946C22.0959 0.358946 22.0131 0.386561 21.9302 0.414171C21.8751 0.441782 21.82 0.46938 21.7648 0.46938C21.7648 0.46938 21.7372 0.497001 21.7097 0.497001C21.5993 0.579834 21.7097 0.552227 21.7372 0.552227C21.9027 0.552227 21.958 0.524605 22.0406 0.524605C22.0959 0.524605 22.0959 0.524605 22.2614 0.38655C22.4269 0.276107 22.3165 0.331332 22.3717 0.30372C22.4269 0.27611 22.3993 0.276107 22.62 0.248495C22.8406 0.193274 22.6752 0.220881 22.7855 0.193269C22.8406 0.165659 22.8406 0.138062 22.8406 0.138062C22.62 0.193284 22.3717 0.248491 22.151 0.331325C22.0959 0.386547 22.0959 0.358946 22.0959 0.358946Z" fill="url(#paint6_radial_8147_20012)"/>
<path id="Vector_8" d="M21.4341 0.635058C21.4341 0.635058 21.4066 0.662666 21.4617 0.717888C21.5168 0.77311 21.4617 0.690278 21.6272 0.717888C21.7926 0.7455 21.8203 0.745492 21.8479 0.745492C21.8755 0.717881 22.0134 0.717895 21.8755 0.690284C21.71 0.662673 21.7375 0.635058 21.6824 0.635058C21.6272 0.635058 21.572 0.607444 21.572 0.579834C21.5168 0.579834 21.4892 0.607447 21.4341 0.635058Z" fill="url(#paint7_radial_8147_20012)"/>
<path id="Vector_9" d="M21.1304 0.800654C21.1304 0.800654 21.1304 0.828274 21.1855 0.828274C21.2408 0.828274 21.2131 0.828274 21.2408 0.828274C21.2684 0.800662 21.2684 0.80066 21.2959 0.773049C21.351 0.745436 21.351 0.773046 21.351 0.717823C21.351 0.690212 21.351 0.690209 21.351 0.662598C21.2959 0.71782 21.2131 0.745431 21.1304 0.800654Z" fill="url(#paint8_radial_8147_20012)"/>
<path id="Vector_10" d="M20.358 25.7335C19.6959 30.7034 17.3788 44.6469 10.2065 55.0564C10.2065 55.0564 20.7167 47.0216 23.9442 31.8078C22.8683 29.9027 21.4891 27.8595 20.358 25.7335Z" fill="#AFCA08"/>
<path id="Vector_11" d="M27.7237 25.7335C28.3857 30.7034 30.7029 44.6469 37.8752 55.0564C37.8752 55.0564 27.365 47.0216 24.1375 31.8078C25.2133 29.9027 26.6203 27.8595 27.7237 25.7335Z" fill="#AFCA08"/>
<path id="Vector_12" d="M24.1648 28.3289C24.9926 26.8931 25.9856 25.402 26.8682 23.8559C26.9786 23.1103 27.089 22.3373 27.1993 21.5642C27.5303 13.2257 38.3714 9.27729 48.054 7.42737C48.054 7.42737 30.675 7.81393 24.0269 15.7383C17.4065 7.81393 0 7.42737 0 7.42737C9.68252 9.27729 20.5237 13.2257 20.8547 21.5642C20.9375 22.3097 21.0477 23 21.1581 23.7179C22.0685 25.3193 23.089 26.8655 23.9443 28.3289C23.9718 28.3841 24.0269 28.4116 24.0546 28.4116C24.1097 28.4116 24.1373 28.3841 24.1648 28.3289Z" fill="#107BC1"/>
<path id="Vector_13" d="M169.743 42.5177C167.205 42.5177 164.921 41.9429 162.891 40.7933C160.894 39.6437 159.321 38.0546 158.17 36.0259C157.02 33.9634 156.444 31.5966 156.444 28.9255C156.444 26.2206 157.02 23.8538 158.17 21.8252C159.321 19.7965 160.894 18.2243 162.891 17.1085C164.921 15.9589 167.205 15.3841 169.743 15.3841C172.078 15.3841 174.159 15.9082 175.986 16.9563C177.848 18.0045 179.32 19.5429 180.402 21.5716C181.519 23.5665 182.077 26.0178 182.077 28.9255C182.077 31.7995 181.536 34.2508 180.453 36.2795C179.37 38.3082 177.898 39.8635 176.037 40.9455C174.21 41.9936 172.112 42.5177 169.743 42.5177ZM169.997 39.3225C171.892 39.3225 173.584 38.8999 175.073 38.0546C176.596 37.1755 177.78 35.9583 178.626 34.403C179.506 32.8138 179.946 30.988 179.946 28.9255C179.946 26.8292 179.506 25.0034 178.626 23.4481C177.78 21.8928 176.596 20.6925 175.073 19.8472C173.584 18.9681 171.892 18.5286 169.997 18.5286C168.136 18.5286 166.461 18.9681 164.972 19.8472C163.483 20.6925 162.298 21.8928 161.419 23.4481C160.539 25.0034 160.099 26.8292 160.099 28.9255C160.099 30.988 160.539 32.8138 161.419 34.403C162.298 35.9583 163.483 37.1755 164.972 38.0546C166.461 38.8999 168.136 39.3225 169.997 39.3225ZM180.047 42.2641V34.2508L180.402 28.8748L179.895 23.4988V4.63208H183.499V42.2641H180.047Z" fill="black"/>
<path id="Vector_14" d="M129.292 22.6367H148.072V25.8318H129.292V22.6367ZM129.698 39.0183H151.067V42.2641H125.942V6.76221H150.306V10.0081H129.698V39.0183Z" fill="black"/>
<path id="Vector_15" d="M104.89 42.5685C102.216 42.5685 99.7461 42.129 97.4789 41.2499C95.2117 40.337 93.249 39.069 91.5909 37.4461C89.9328 35.8231 88.63 33.9128 87.6825 31.7151C86.7688 29.5173 86.312 27.1167 86.312 24.5133C86.312 21.9098 86.7688 19.5092 87.6825 17.3114C88.63 15.1137 89.9328 13.2034 91.5909 11.5804C93.2829 9.95748 95.2625 8.70646 97.5297 7.82737C99.7969 6.91446 102.267 6.45801 104.94 6.45801C107.512 6.45801 109.932 6.89756 112.199 7.77665C114.466 8.62193 116.378 9.90676 117.935 11.6311L115.549 14.0148C114.094 12.5271 112.486 11.4621 110.727 10.8197C108.967 10.1434 107.072 9.80533 105.042 9.80533C102.91 9.80533 100.93 10.1773 99.1032 10.9211C97.2759 11.6311 95.6854 12.6624 94.3319 14.0148C92.9783 15.3335 91.9124 16.8888 91.1341 18.6808C90.3896 20.439 90.0174 22.3831 90.0174 24.5133C90.0174 26.6434 90.3896 28.6044 91.1341 30.3964C91.9124 32.1546 92.9783 33.7099 94.3319 35.0624C95.6854 36.381 97.2759 37.4123 99.1032 38.1561C100.93 38.8662 102.91 39.2212 105.042 39.2212C107.072 39.2212 108.967 38.8831 110.727 38.2068C112.486 37.5306 114.094 36.4487 115.549 34.961L117.935 37.3447C116.378 39.069 114.466 40.3708 112.199 41.2499C109.932 42.129 107.495 42.5685 104.89 42.5685Z" fill="black"/>
<path id="Vector_16" d="M65.7834 42.5685C63.0763 42.5685 60.5722 42.129 58.2711 41.2499C56.0039 40.337 54.0243 39.069 52.3324 37.4461C50.6742 35.8231 49.3714 33.9128 48.4239 31.7151C47.5103 29.5173 47.0535 27.1167 47.0535 24.5133C47.0535 21.9098 47.5103 19.5092 48.4239 17.3114C49.3714 15.1137 50.6912 13.2034 52.3831 11.5804C54.0751 9.95748 56.0547 8.70646 58.3219 7.82737C60.6229 6.91446 63.127 6.45801 65.8342 6.45801C68.5413 6.45801 71.0115 6.88065 73.2449 7.72593C75.5121 8.57122 77.441 9.85605 79.0314 11.5804L76.6965 13.9641C75.2076 12.4764 73.5664 11.4114 71.7729 10.769C69.9794 10.1265 68.0506 9.80533 65.9864 9.80533C63.7869 9.80533 61.7565 10.1773 59.8954 10.9211C58.0681 11.6311 56.4607 12.6624 55.0733 14.0148C53.7198 15.3335 52.6538 16.8888 51.8755 18.6808C51.1311 20.439 50.7588 22.3831 50.7588 24.5133C50.7588 26.6096 51.1311 28.5537 51.8755 30.3457C52.6538 32.1377 53.7198 33.7099 55.0733 35.0624C56.4607 36.381 58.0681 37.4123 59.8954 38.1561C61.7565 38.8662 63.77 39.2212 65.9357 39.2212C67.966 39.2212 69.8779 38.9169 71.6714 38.3083C73.4987 37.6997 75.1737 36.6684 76.6965 35.2145L78.8284 38.0547C77.1364 39.5424 75.1568 40.6751 72.8896 41.4527C70.6224 42.1966 68.2536 42.5685 65.7834 42.5685ZM75.2245 37.5982V24.5133H78.8284V38.0547L75.2245 37.5982Z" fill="black"/>
<path id="Vector_17" d="M184 48.5188V54.678H183.452L179.81 49.5202H179.762V54.678H179.199V48.5188H179.744L183.398 53.6825H183.446V48.5188H184Z" fill="black"/>
<path id="Vector_18" d="M177.838 51.5984C177.838 52.2399 177.724 52.7983 177.495 53.2735C177.266 53.7466 176.951 54.1136 176.55 54.3742C176.15 54.6328 175.691 54.7621 175.171 54.7621C174.652 54.7621 174.191 54.6328 173.79 54.3742C173.39 54.1136 173.076 53.7466 172.848 53.2735C172.622 52.7983 172.507 52.2399 172.507 51.5984C172.507 50.9568 172.622 50.3994 172.848 49.9263C173.076 49.4511 173.391 49.0842 173.793 48.8256C174.194 48.565 174.654 48.4346 175.171 48.4346C175.691 48.4346 176.15 48.565 176.55 48.8256C176.951 49.0842 177.266 49.4511 177.495 49.9263C177.724 50.3994 177.838 50.9568 177.838 51.5984ZM177.29 51.5984C177.29 51.047 177.198 50.5748 177.013 50.1819C176.829 49.7869 176.576 49.4851 176.258 49.2767C175.939 49.0682 175.577 48.9639 175.171 48.9639C174.768 48.9639 174.407 49.0682 174.088 49.2767C173.769 49.4851 173.516 49.786 173.329 50.1789C173.145 50.5719 173.053 51.045 173.053 51.5984C173.053 52.1497 173.145 52.6219 173.329 53.0148C173.514 53.4078 173.766 53.7096 174.085 53.9201C174.403 54.1286 174.766 54.2329 175.171 54.2329C175.577 54.2329 175.939 54.1286 176.258 53.9201C176.579 53.7116 176.831 53.4109 177.016 53.0179C177.201 52.6229 177.292 52.1497 177.29 51.5984Z" fill="black"/>
<path id="Vector_19" d="M171.145 48.5188V54.678H170.583V48.5188H171.145Z" fill="black"/>
<path id="Vector_20" d="M164.846 49.0241V48.5188H169.316V49.0241H167.362V54.678H166.799V49.0241H164.846Z" fill="black"/>
<path id="Vector_21" d="M160.387 54.678H159.797L162.038 48.5188H162.641L164.883 54.678H164.293L162.361 49.2497H162.319L160.387 54.678ZM160.811 52.3172H163.869V52.8223H160.811V52.3172Z" fill="black"/>
<path id="Vector_22" d="M159.055 50.4436H158.49C158.447 50.233 158.371 50.0386 158.261 49.8601C158.152 49.6797 158.016 49.5222 157.852 49.3879C157.687 49.2536 157.5 49.1494 157.291 49.0752C157.083 49.001 156.857 48.9639 156.615 48.9639C156.226 48.9639 155.87 49.0651 155.549 49.2677C155.229 49.4701 154.974 49.7679 154.781 50.1608C154.591 50.5518 154.496 51.031 154.496 51.5984C154.496 52.1698 154.591 52.6509 154.781 53.0419C154.974 53.4329 155.229 53.7296 155.549 53.9321C155.87 54.1326 156.226 54.2329 156.615 54.2329C156.857 54.2329 157.083 54.1958 157.291 54.1216C157.5 54.0475 157.687 53.9441 157.852 53.8118C158.016 53.6775 158.152 53.5201 158.261 53.3396C158.371 53.1593 158.447 52.9637 158.49 52.7532H159.055C159.006 53.036 158.91 53.2996 158.772 53.5442C158.636 53.7868 158.461 53.9993 158.248 54.1818C158.038 54.3642 157.795 54.5066 157.52 54.6088C157.245 54.711 156.944 54.7621 156.615 54.7621C156.097 54.7621 155.638 54.6328 155.236 54.3742C154.835 54.1136 154.52 53.7466 154.29 53.2735C154.064 52.8003 153.951 52.2419 153.951 51.5984C153.951 50.9548 154.064 50.3965 154.29 49.9233C154.52 49.4501 154.835 49.0842 155.236 48.8256C155.638 48.565 156.097 48.4346 156.615 48.4346C156.944 48.4346 157.245 48.4857 157.52 48.588C157.795 48.6883 158.038 48.8306 158.248 49.0151C158.461 49.1975 158.636 49.41 158.772 49.6526C158.91 49.8952 159.006 50.1588 159.055 50.4436Z" fill="black"/>
<path id="Vector_23" d="M152.028 48.5188H152.591V52.5969C152.591 53.0159 152.493 53.3908 152.296 53.7216C152.099 54.0504 151.825 54.31 151.474 54.5005C151.125 54.6889 150.719 54.7832 150.256 54.7832C149.794 54.7832 149.388 54.688 149.037 54.4975C148.686 54.3071 148.412 54.0474 148.215 53.7186C148.019 53.3897 147.92 53.0159 147.92 52.5969V48.5188H148.483V52.5578C148.483 52.8846 148.556 53.1763 148.703 53.4329C148.849 53.6875 149.055 53.888 149.319 54.0344C149.587 54.1807 149.899 54.2539 150.256 54.2539C150.612 54.2539 150.924 54.1807 151.192 54.0344C151.458 53.888 151.665 53.6875 151.808 53.4329C151.955 53.1763 152.028 52.8846 152.028 52.5578V48.5188Z" fill="black"/>
<path id="Vector_24" d="M143.643 54.678H141.836V48.5188H143.75C144.338 48.5188 144.841 48.6412 145.258 48.8858C145.678 49.1304 145.999 49.4812 146.222 49.9383C146.445 50.3954 146.556 50.9438 146.556 51.5834C146.556 52.229 146.442 52.7833 146.212 53.2465C145.986 53.7076 145.655 54.0614 145.219 54.308C144.786 54.5546 144.26 54.678 143.643 54.678ZM142.399 54.1727H143.609C144.139 54.1727 144.583 54.0685 144.939 53.8599C145.296 53.6515 145.565 53.3537 145.743 52.9668C145.921 52.5797 146.011 52.1186 146.011 51.5834C146.009 51.052 145.92 50.5949 145.746 50.212C145.574 49.829 145.317 49.5354 144.976 49.3308C144.637 49.1263 144.217 49.0241 143.718 49.0241H142.399V54.1727Z" fill="black"/>
<path id="Vector_25" d="M136.804 54.678V48.5188H140.379V49.0241H137.367V51.3428H140.19V51.8479H137.367V54.1727H140.44V54.678H136.804Z" fill="black"/>
<path id="Vector_26" d="M129.123 54.678V48.5188H131.113C131.549 48.5188 131.915 48.603 132.208 48.7714C132.503 48.9378 132.724 49.1644 132.873 49.4511C133.024 49.7378 133.099 50.0606 133.099 50.4195C133.099 50.7783 133.025 51.1022 132.877 51.3909C132.727 51.6776 132.506 51.9051 132.214 52.0735C131.921 52.2399 131.557 52.3232 131.121 52.3232H129.556V51.8179H131.106C131.429 51.8179 131.697 51.7578 131.91 51.6375C132.123 51.5152 132.281 51.3488 132.386 51.1382C132.492 50.9277 132.545 50.6881 132.545 50.4195C132.545 50.1508 132.492 49.9112 132.386 49.7007C132.281 49.4902 132.122 49.3248 131.907 49.2045C131.694 49.0842 131.425 49.0241 131.097 49.0241H129.685V54.678H129.123Z" fill="black"/>
<path id="Vector_27" d="M127.483 48.5188V54.678H126.921V48.5188H127.483Z" fill="black"/>
<path id="Vector_28" d="M120.664 54.678V48.5188H121.226V51.3428H124.723V48.5188H125.287V54.678H124.723V51.8479H121.226V54.678H120.664Z" fill="black"/>
<path id="Vector_29" d="M118.68 50.0585C118.646 49.7156 118.495 49.443 118.226 49.2405C117.957 49.038 117.619 48.9368 117.211 48.9368C116.925 48.9368 116.672 48.9858 116.453 49.0841C116.236 49.1823 116.066 49.3186 115.941 49.4931C115.819 49.6655 115.758 49.8621 115.758 50.0826C115.758 50.245 115.793 50.3873 115.863 50.5096C115.934 50.6319 116.028 50.7371 116.146 50.8254C116.267 50.9116 116.399 50.9858 116.543 51.0479C116.69 51.1101 116.837 51.1622 116.986 51.2043L117.636 51.3907C117.833 51.4448 118.03 51.5141 118.226 51.5983C118.422 51.6825 118.602 51.7888 118.765 51.917C118.93 52.0434 119.061 52.1987 119.159 52.3832C119.26 52.5657 119.309 52.7851 119.309 53.0418C119.309 53.3706 119.225 53.6664 119.053 53.929C118.883 54.1916 118.638 54.4002 118.319 54.5545C118 54.7069 117.618 54.7831 117.172 54.7831C116.753 54.7831 116.388 54.714 116.08 54.5756C115.771 54.4352 115.528 54.2418 115.351 53.9952C115.175 53.7486 115.075 53.4629 115.054 53.1381H115.631C115.651 53.3806 115.732 53.5862 115.872 53.7546C116.013 53.923 116.195 54.0513 116.42 54.1395C116.644 54.2257 116.895 54.2688 117.172 54.2688C117.48 54.2688 117.753 54.2177 117.992 54.1154C118.232 54.0112 118.421 53.8669 118.557 53.6824C118.696 53.4959 118.765 53.2794 118.765 53.0328C118.765 52.8242 118.711 52.6499 118.602 52.5095C118.494 52.3672 118.343 52.2479 118.148 52.1516C117.955 52.0554 117.731 51.9702 117.477 51.896L116.739 51.6795C116.255 51.5351 115.88 51.3356 115.613 51.081C115.347 50.8264 115.213 50.5016 115.213 50.1067C115.213 49.7758 115.301 49.4851 115.478 49.2344C115.657 48.9818 115.897 48.7854 116.2 48.6451C116.505 48.5026 116.847 48.4315 117.227 48.4315C117.61 48.4315 117.949 48.5017 118.244 48.642C118.539 48.7823 118.773 48.9759 118.945 49.2224C119.12 49.467 119.213 49.7457 119.225 50.0585H118.68Z" fill="black"/>
<path id="Vector_30" d="M113.694 48.5188V54.678H113.146L109.504 49.5202H109.457V54.678H108.894V48.5188H109.439L113.092 53.6825H113.141V48.5188H113.694Z" fill="black"/>
<path id="Vector_31" d="M103.861 54.678V48.5188H107.437V49.0241H104.424V51.3428H107.247V51.8479H104.424V54.1727H107.497V54.678H103.861Z" fill="black"/>
<path id="Vector_32" d="M98.3782 54.678V54.2539L101.8 49.0241H98.3601V48.5188H102.472V48.9428L99.0464 54.1727H102.502V54.678H98.3782Z" fill="black"/>
<path id="Vector_33" d="M96.9827 48.5188V54.678H96.4199V48.5188H96.9827Z" fill="black"/>
<path id="Vector_34" d="M90.6833 49.0241V48.5188H95.153V49.0241H93.1996V54.678H92.6367V49.0241H90.6833Z" fill="black"/>
<path id="Vector_35" d="M89.4173 48.5188V54.678H88.8545V48.5188H89.4173Z" fill="black"/>
<path id="Vector_36" d="M87.5327 50.4436H86.9669C86.9248 50.233 86.8485 50.0386 86.7381 49.8601C86.6298 49.6797 86.4933 49.5222 86.3288 49.3879C86.1642 49.2536 85.9777 49.1494 85.769 49.0752C85.5603 49.001 85.3345 48.9639 85.0918 48.9639C84.7025 48.9639 84.3473 49.0651 84.0262 49.2677C83.7072 49.4701 83.4514 49.7679 83.2587 50.1608C83.0682 50.5518 82.9728 51.031 82.9728 51.5984C82.9728 52.1698 83.0682 52.6509 83.2587 53.0419C83.4514 53.4329 83.7072 53.7296 84.0262 53.9321C84.3473 54.1326 84.7025 54.2329 85.0918 54.2329C85.3345 54.2329 85.5603 54.1958 85.769 54.1216C85.9777 54.0475 86.1642 53.9441 86.3288 53.8118C86.4933 53.6775 86.6298 53.5201 86.7381 53.3396C86.8485 53.1593 86.9248 52.9637 86.9669 52.7532H87.5327C87.4826 53.036 87.3883 53.2996 87.2498 53.5442C87.1134 53.7868 86.9388 53.9993 86.7261 54.1818C86.5154 54.3642 86.2726 54.5066 85.9977 54.6088C85.7228 54.711 85.4208 54.7621 85.0918 54.7621C84.574 54.7621 84.1145 54.6328 83.7132 54.3742C83.3119 54.1136 82.9969 53.7466 82.7682 53.2735C82.5414 52.8003 82.428 52.2419 82.428 51.5984C82.428 50.9548 82.5414 50.3965 82.7682 49.9233C82.9969 49.4501 83.3119 49.0842 83.7132 48.8256C84.1145 48.565 84.574 48.4346 85.0918 48.4346C85.4208 48.4346 85.7228 48.4857 85.9977 48.588C86.2726 48.6883 86.5154 48.8306 86.7261 49.0151C86.9388 49.1975 87.1134 49.41 87.2498 49.6526C87.3883 49.8952 87.4826 50.1588 87.5327 50.4436Z" fill="black"/>
<path id="Vector_37" d="M75.5535 54.678V48.5188H76.1162V54.1727H79.0539V54.678H75.5535Z" fill="black"/>
<path id="Vector_38" d="M70.0001 54.678H69.4102L71.6525 48.5188H72.2545L74.4969 54.678H73.9069L71.9746 49.2497H71.9324L70.0001 54.678ZM70.4245 52.3172H73.4826V52.8223H70.4245V52.3172Z" fill="black"/>
<path id="Vector_39" d="M64.5032 54.678V48.5188H66.5829C66.9842 48.5188 67.3184 48.589 67.5852 48.7294C67.8541 48.8697 68.0557 49.0612 68.1903 49.3037C68.3247 49.5463 68.3919 49.822 68.3919 50.1308C68.3919 50.3874 68.3488 50.607 68.2625 50.7894C68.1762 50.9718 68.0588 51.1192 67.9102 51.2315C67.7618 51.3437 67.5963 51.425 67.4137 51.4751V51.5232C67.6124 51.5372 67.8049 51.6074 67.9916 51.7337C68.1782 51.858 68.3316 52.0324 68.4521 52.257C68.5724 52.4816 68.6327 52.7502 68.6327 53.0629C68.6327 53.3738 68.5634 53.6515 68.425 53.8961C68.2865 54.1387 68.0738 54.3301 67.7869 54.4704C67.5019 54.6087 67.1388 54.678 66.6973 54.678H64.5032ZM65.066 54.1727H66.6973C67.1729 54.1727 67.5241 54.0674 67.7508 53.857C67.9795 53.6464 68.0939 53.3818 68.0939 53.0629C68.0939 52.8284 68.0367 52.6159 67.9223 52.4254C67.81 52.233 67.6504 52.0806 67.4438 51.9683C67.2391 51.856 66.9983 51.7999 66.7214 51.7999H65.066V54.1727ZM65.066 51.3006H66.6341C66.8769 51.3006 67.0896 51.2505 67.2722 51.1503C67.4548 51.05 67.5972 50.9117 67.6996 50.7352C67.802 50.5588 67.8531 50.3573 67.8531 50.1308C67.8531 49.8039 67.7468 49.5383 67.5341 49.3339C67.3213 49.1273 67.0043 49.0241 66.5829 49.0241H65.066V51.3006Z" fill="black"/>
<path id="Vector_40" d="M63.1423 51.5984C63.1423 52.2399 63.0279 52.7983 62.7991 53.2735C62.5704 53.7466 62.2554 54.1136 61.8541 54.3742C61.4548 54.6328 60.9952 54.7621 60.4755 54.7621C59.9558 54.7621 59.4953 54.6328 59.094 54.3742C58.6947 54.1136 58.3807 53.7466 58.152 53.2735C57.9251 52.7983 57.8118 52.2399 57.8118 51.5984C57.8118 50.9568 57.9251 50.3994 58.152 49.9263C58.3807 49.4511 58.6957 49.0842 59.097 48.8256C59.4983 48.565 59.9578 48.4346 60.4755 48.4346C60.9952 48.4346 61.4548 48.565 61.8541 48.8256C62.2554 49.0842 62.5704 49.4511 62.7991 49.9263C63.0279 50.3994 63.1423 50.9568 63.1423 51.5984ZM62.5945 51.5984C62.5945 51.047 62.5022 50.5748 62.3175 50.1819C62.1329 49.7869 61.8811 49.4851 61.5621 49.2767C61.2431 49.0682 60.8809 48.9639 60.4755 48.9639C60.0722 48.9639 59.711 49.0682 59.3919 49.2767C59.0729 49.4851 58.8201 49.786 58.6335 50.1789C58.4489 50.5719 58.3566 51.045 58.3566 51.5984C58.3566 52.1497 58.4489 52.6219 58.6335 53.0148C58.8181 53.4078 59.0699 53.7096 59.389 53.9201C59.708 54.1286 60.0702 54.2329 60.4755 54.2329C60.8809 54.2329 61.2431 54.1286 61.5621 53.9201C61.8831 53.7116 62.136 53.4109 62.3205 53.0179C62.5051 52.6229 62.5965 52.1497 62.5945 51.5984Z" fill="black"/>
<path id="Vector_41" d="M53.5608 54.678V48.5188H54.1237V54.1727H57.0612V54.678H53.5608Z" fill="black"/>
<path id="Vector_42" d="M51.5438 50.4436C51.4876 50.239 51.4054 50.0476 51.2971 49.8691C51.1887 49.6886 51.0543 49.5313 50.8937 49.397C50.7351 49.2606 50.5516 49.1544 50.3429 49.0781C50.1362 49.002 49.9055 48.9639 49.6506 48.9639C49.2493 48.9639 48.8902 49.0682 48.5731 49.2767C48.2561 49.4851 48.0053 49.786 47.8206 50.1789C47.638 50.5719 47.5468 51.045 47.5468 51.5984C47.5468 52.1497 47.6391 52.6219 47.8236 53.0148C48.0082 53.4078 48.2611 53.7096 48.5821 53.9201C48.9052 54.1286 49.2745 54.2329 49.6897 54.2329C50.069 54.2329 50.4042 54.1487 50.6951 53.9803C50.986 53.8118 51.2128 53.5712 51.3753 53.2585C51.5399 52.9457 51.6201 52.5738 51.6161 52.1427L51.7966 52.1999H49.8222V51.6946H52.1639V52.1999C52.1639 52.7251 52.0575 53.1792 51.8449 53.5623C51.6321 53.9452 51.3401 54.2409 50.969 54.4494C50.5978 54.6579 50.1713 54.7621 49.6897 54.7621C49.152 54.7621 48.6814 54.6328 48.2781 54.3742C47.8748 54.1136 47.5608 53.7466 47.336 53.2735C47.1133 52.7983 47.002 52.2399 47.002 51.5984C47.002 51.1152 47.0661 50.6791 47.1946 50.2902C47.323 49.9012 47.5046 49.5684 47.7393 49.2917C47.9762 49.0151 48.2561 48.8035 48.5792 48.6572C48.9022 48.5088 49.2593 48.4346 49.6506 48.4346C49.9877 48.4346 50.2958 48.4877 50.5746 48.594C50.8556 48.7003 51.1024 48.8466 51.3151 49.0331C51.5298 49.2175 51.7054 49.4311 51.8418 49.6736C51.9803 49.9142 52.0736 50.1709 52.1217 50.4436H51.5438Z" fill="black"/>
</g>
<defs>
<radialGradient id="paint0_radial_8147_20012" cx="0" cy="0" r="1" gradientUnits="userSpaceOnUse" gradientTransform="translate(24.0225 5.84767) scale(5.84247 5.84786)">
<stop stop-color="#00AEE9"/>
<stop offset="0.2614" stop-color="#01ABE7"/>
<stop offset="0.437" stop-color="#04A2E0"/>
<stop offset="0.5874" stop-color="#0893D4"/>
<stop offset="0.7235" stop-color="#0F7EC3"/>
<stop offset="0.8501" stop-color="#1762AE"/>
<stop offset="0.968" stop-color="#224193"/>
<stop offset="1" stop-color="#25368B"/>
</radialGradient>
<radialGradient id="paint1_radial_8147_20012" cx="0" cy="0" r="1" gradientUnits="userSpaceOnUse" gradientTransform="translate(24.1565 5.80283) scale(5.60285 5.60816)">
<stop stop-color="#B1CA07"/>
<stop offset="0.3087" stop-color="#AFC908"/>
<stop offset="0.4605" stop-color="#A7C409"/>
<stop offset="0.5781" stop-color="#9ABD0D"/>
<stop offset="0.6781" stop-color="#87B211"/>
<stop offset="0.7669" stop-color="#6FA517"/>
<stop offset="0.8477" stop-color="#51941F"/>
<stop offset="0.9227" stop-color="#2E8028"/>
<stop offset="0.9909" stop-color="#066932"/>
<stop offset="1" stop-color="#006633"/>
</radialGradient>
<radialGradient id="paint2_radial_8147_20012" cx="0" cy="0" r="1" gradientUnits="userSpaceOnUse" gradientTransform="translate(24.1561 5.80271) scale(5.60287 5.60807)">
<stop stop-color="#B1CA07"/>
<stop offset="0.3087" stop-color="#AFC908"/>
<stop offset="0.4605" stop-color="#A7C409"/>
<stop offset="0.5781" stop-color="#9ABD0D"/>
<stop offset="0.6781" stop-color="#87B211"/>
<stop offset="0.7669" stop-color="#6FA517"/>
<stop offset="0.8477" stop-color="#51941F"/>
<stop offset="0.9227" stop-color="#2E8028"/>
<stop offset="0.9909" stop-color="#066932"/>
<stop offset="1" stop-color="#006633"/>
</radialGradient>
<radialGradient id="paint3_radial_8147_20012" cx="0" cy="0" r="1" gradientUnits="userSpaceOnUse" gradientTransform="translate(24.1567 5.80275) scale(5.60301 5.60819)">
<stop stop-color="#B1CA07"/>
<stop offset="0.3087" stop-color="#AFC908"/>
<stop offset="0.4605" stop-color="#A7C409"/>
<stop offset="0.5781" stop-color="#9ABD0D"/>
<stop offset="0.6781" stop-color="#87B211"/>
<stop offset="0.7669" stop-color="#6FA517"/>
<stop offset="0.8477" stop-color="#51941F"/>
<stop offset="0.9227" stop-color="#2E8028"/>
<stop offset="0.9909" stop-color="#066932"/>
<stop offset="1" stop-color="#006633"/>
</radialGradient>
<radialGradient id="paint4_radial_8147_20012" cx="0" cy="0" r="1" gradientUnits="userSpaceOnUse" gradientTransform="translate(24.1069 5.80174) scale(5.47151 5.54162)">
<stop stop-color="#B1CA07"/>
<stop offset="0.3087" stop-color="#AFC908"/>
<stop offset="0.4605" stop-color="#A7C409"/>
<stop offset="0.5781" stop-color="#9ABD0D"/>
<stop offset="0.6781" stop-color="#87B211"/>
<stop offset="0.7669" stop-color="#6FA517"/>
<stop offset="0.8477" stop-color="#51941F"/>
<stop offset="0.9227" stop-color="#2E8028"/>
<stop offset="0.9909" stop-color="#066932"/>
<stop offset="1" stop-color="#006633"/>
</radialGradient>
<radialGradient id="paint5_radial_8147_20012" cx="0" cy="0" r="1" gradientUnits="userSpaceOnUse" gradientTransform="translate(24.1564 5.80273) scale(5.60298 5.60816)">
<stop stop-color="#B1CA07"/>
<stop offset="0.3087" stop-color="#AFC908"/>
<stop offset="0.4605" stop-color="#A7C409"/>
<stop offset="0.5781" stop-color="#9ABD0D"/>
<stop offset="0.6781" stop-color="#87B211"/>
<stop offset="0.7669" stop-color="#6FA517"/>
<stop offset="0.8477" stop-color="#51941F"/>
<stop offset="0.9227" stop-color="#2E8028"/>
<stop offset="0.9909" stop-color="#066932"/>
<stop offset="1" stop-color="#006633"/>
</radialGradient>
<radialGradient id="paint6_radial_8147_20012" cx="0" cy="0" r="1" gradientUnits="userSpaceOnUse" gradientTransform="translate(24.1562 5.80295) scale(5.60313 5.60829)">
<stop stop-color="#B1CA07"/>
<stop offset="0.3087" stop-color="#AFC908"/>
<stop offset="0.4605" stop-color="#A7C409"/>
<stop offset="0.5781" stop-color="#9ABD0D"/>
<stop offset="0.6781" stop-color="#87B211"/>
<stop offset="0.7669" stop-color="#6FA517"/>
<stop offset="0.8477" stop-color="#51941F"/>
<stop offset="0.9227" stop-color="#2E8028"/>
<stop offset="0.9909" stop-color="#066932"/>
<stop offset="1" stop-color="#006633"/>
</radialGradient>
<radialGradient id="paint7_radial_8147_20012" cx="0" cy="0" r="1" gradientUnits="userSpaceOnUse" gradientTransform="translate(24.1565 5.80249) scale(5.60288 5.60784)">
<stop stop-color="#B1CA07"/>
<stop offset="0.3087" stop-color="#AFC908"/>
<stop offset="0.4605" stop-color="#A7C409"/>
<stop offset="0.5781" stop-color="#9ABD0D"/>
<stop offset="0.6781" stop-color="#87B211"/>
<stop offset="0.7669" stop-color="#6FA517"/>
<stop offset="0.8477" stop-color="#51941F"/>
<stop offset="0.9227" stop-color="#2E8028"/>
<stop offset="0.9909" stop-color="#066932"/>
<stop offset="1" stop-color="#006633"/>
</radialGradient>
<radialGradient id="paint8_radial_8147_20012" cx="0" cy="0" r="1" gradientUnits="userSpaceOnUse" gradientTransform="translate(24.1563 5.803) scale(5.60325 5.60841)">
<stop stop-color="#B1CA07"/>
<stop offset="0.3087" stop-color="#AFC908"/>
<stop offset="0.4605" stop-color="#A7C409"/>
<stop offset="0.5781" stop-color="#9ABD0D"/>
<stop offset="0.6781" stop-color="#87B211"/>
<stop offset="0.7669" stop-color="#6FA517"/>
<stop offset="0.8477" stop-color="#51941F"/>
<stop offset="0.9227" stop-color="#2E8028"/>
<stop offset="0.9909" stop-color="#066932"/>
<stop offset="1" stop-color="#006633"/>
</radialGradient>
<clipPath id="clip0_8147_20012">
<rect width="184" height="56" fill="white"/>
</clipPath>
</defs>
</svg>
