<svg width="50" height="50" viewBox="0 0 50 50" fill="none" xmlns="http://www.w3.org/2000/svg">
<g id="Bin">
<g id="Group">
<g id="Group_2">
<path id="Vector" d="M42.5781 5.85938H35.2539V4.39453C35.2539 1.97139 33.2825 0 30.8594 0H19.1406C16.7175 0 14.7461 1.97139 14.7461 4.39453V5.85938H7.42188C4.99873 5.85938 3.02734 7.83076 3.02734 10.2539C3.02734 12.2 4.29932 13.8536 6.05518 14.4298L8.66797 45.9703C8.85615 48.23 10.7798 50 13.0473 50H36.9527C39.2203 50 41.1439 48.23 41.3322 45.9696L43.9448 14.4297C45.7007 13.8536 46.9727 12.2 46.9727 10.2539C46.9727 7.83076 45.0013 5.85938 42.5781 5.85938ZM17.6758 4.39453C17.6758 3.58682 18.3329 2.92969 19.1406 2.92969H30.8594C31.6671 2.92969 32.3242 3.58682 32.3242 4.39453V5.85938H17.6758V4.39453ZM38.4125 45.7271C38.3497 46.4803 37.7086 47.0703 36.9527 47.0703H13.0473C12.2915 47.0703 11.6503 46.4803 11.5877 45.7278L9.01309 14.6484H40.9869L38.4125 45.7271ZM42.5781 11.7188H7.42188C6.61416 11.7188 5.95703 11.0616 5.95703 10.2539C5.95703 9.44619 6.61416 8.78906 7.42188 8.78906H42.5781C43.3858 8.78906 44.043 9.44619 44.043 10.2539C44.043 11.0616 43.3858 11.7188 42.5781 11.7188Z" fill="#B3404A"/>
</g>
</g>
<g id="Group_3">
<g id="Group_4">
<path id="Vector_2" d="M19.1379 42.5851L17.6731 18.9523C17.623 18.1448 16.924 17.5306 16.1204 17.5809C15.3129 17.631 14.6989 18.3261 14.7489 19.1335L16.2138 42.7664C16.2619 43.5431 16.9069 44.1406 17.6744 44.1406C18.5228 44.1406 19.19 43.4262 19.1379 42.5851Z" fill="#B3404A"/>
</g>
</g>
<g id="Group_5">
<g id="Group_6">
<path id="Vector_3" d="M25 17.5781C24.191 17.5781 23.5352 18.234 23.5352 19.043V42.6758C23.5352 43.4848 24.191 44.1406 25 44.1406C25.809 44.1406 26.4648 43.4848 26.4648 42.6758V19.043C26.4648 18.234 25.809 17.5781 25 17.5781Z" fill="#B3404A"/>
</g>
</g>
<g id="Group_7">
<g id="Group_8">
<path id="Vector_4" d="M33.8797 17.581C33.074 17.5309 32.3771 18.1449 32.3271 18.9524L30.8622 42.5852C30.8123 43.3926 31.4263 44.0877 32.2337 44.1378C33.0416 44.1878 33.7363 43.5736 33.7863 42.7664L35.2512 19.1336C35.3012 18.3261 34.6872 17.631 33.8797 17.581Z" fill="#B3404A"/>
</g>
</g>
</g>
</svg>
