<svg width="17" height="17" viewBox="0 0 17 17" fill="none" xmlns="http://www.w3.org/2000/svg">
<path d="M8.5 17C3.80545 17 0 13.1946 0 8.5C0 3.80545 3.80545 0 8.5 0C13.1946 0 17 3.80545 17 8.5C17 13.1946 13.1946 17 8.5 17ZM8.5 15.3C10.3035 15.3 12.0331 14.5836 13.3083 13.3083C14.5836 12.0331 15.3 10.3035 15.3 8.5C15.3 6.69653 14.5836 4.96692 13.3083 3.69167C12.0331 2.41643 10.3035 1.7 8.5 1.7C6.69653 1.7 4.96692 2.41643 3.69167 3.69167C2.41643 4.96692 1.7 6.69653 1.7 8.5C1.7 10.3035 2.41643 12.0331 3.69167 13.3083C4.96692 14.5836 6.69653 15.3 8.5 15.3ZM4.25 8.5H5.95C5.95 9.1763 6.21866 9.82491 6.69688 10.3031C7.1751 10.7813 7.8237 11.05 8.5 11.05C9.1763 11.05 9.82491 10.7813 10.3031 10.3031C10.7813 9.82491 11.05 9.1763 11.05 8.5H12.75C12.75 9.62717 12.3022 10.7082 11.5052 11.5052C10.7082 12.3022 9.62717 12.75 8.5 12.75C7.37283 12.75 6.29183 12.3022 5.4948 11.5052C4.69777 10.7082 4.25 9.62717 4.25 8.5Z" fill="white"/>
<path d="M8.5 17C3.80545 17 0 13.1946 0 8.5C0 3.80545 3.80545 0 8.5 0C13.1946 0 17 3.80545 17 8.5C17 13.1946 13.1946 17 8.5 17ZM8.5 15.3C10.3035 15.3 12.0331 14.5836 13.3083 13.3083C14.5836 12.0331 15.3 10.3035 15.3 8.5C15.3 6.69653 14.5836 4.96692 13.3083 3.69167C12.0331 2.41643 10.3035 1.7 8.5 1.7C6.69653 1.7 4.96692 2.41643 3.69167 3.69167C2.41643 4.96692 1.7 6.69653 1.7 8.5C1.7 10.3035 2.41643 12.0331 3.69167 13.3083C4.96692 14.5836 6.69653 15.3 8.5 15.3ZM4.25 8.5H5.95C5.95 9.1763 6.21866 9.82491 6.69688 10.3031C7.1751 10.7813 7.8237 11.05 8.5 11.05C9.1763 11.05 9.82491 10.7813 10.3031 10.3031C10.7813 9.82491 11.05 9.1763 11.05 8.5H12.75C12.75 9.62717 12.3022 10.7082 11.5052 11.5052C10.7082 12.3022 9.62717 12.75 8.5 12.75C7.37283 12.75 6.29183 12.3022 5.4948 11.5052C4.69777 10.7082 4.25 9.62717 4.25 8.5Z" fill="#4E5D78"/>
</svg>
