<svg width="24" height="24" viewBox="0 0 24 24" fill="none" xmlns="http://www.w3.org/2000/svg">
<path d="M22.4125 4.61244V17.9687C21.7831 19.0643 20.9858 20.0513 20.0557 20.8937H3.9443C3.0137 20.0508 2.2163 19.0639 1.58691 17.9677V4.61244C1.58691 3.78078 2.26135 3.10681 3.09305 3.10681H20.9064C21.7386 3.10681 22.4125 3.78078 22.4125 4.61244Z" fill="#F5B500"/>
<path d="M3.48584 4.87878H20.5131V19.121H3.48584V4.87878Z" fill="#009E58"/>
<path d="M18.1588 14.5764V15.3739H13.2571V14.5764C13.2571 13.8781 14.3545 13.3121 15.7079 13.3121C16.6478 13.3121 17.4644 13.5852 17.8756 13.986C18.0565 14.1621 18.1588 14.3629 18.1588 14.5764Z" fill="#5DBF90"/>
<path d="M15.7078 12.5218C16.2977 12.5218 16.7758 12.0436 16.7758 11.4538C16.7758 10.864 16.2977 10.3859 15.7078 10.3859C15.118 10.3859 14.6399 10.864 14.6399 11.4538C14.6399 12.0436 15.118 12.5218 15.7078 12.5218Z" fill="#5DBF90"/>
<path d="M10.7213 14.5764V15.3739H5.81958V14.5764C5.81958 13.8781 6.91702 13.3121 8.27044 13.3121C9.21033 13.3121 10.0269 13.5852 10.4381 13.986C10.6189 14.1621 10.7213 14.3629 10.7213 14.5764Z" fill="#5DBF90"/>
<path d="M8.27035 12.5218C8.86016 12.5218 9.3383 12.0436 9.3383 11.4538C9.3383 10.864 8.86016 10.3859 8.27035 10.3859C7.68053 10.3859 7.20239 10.864 7.20239 11.4538C7.20239 12.0436 7.68053 12.5218 8.27035 12.5218Z" fill="#5DBF90"/>
<path d="M19.8806 20.8936H15.5763L13.804 19.1212L15.9877 18.2034L18.1083 19.1212L19.8806 20.8936Z" fill="#EFA400"/>
<path d="M15.2597 14.3096V15.3738H8.71851V14.3096C8.71851 13.3777 10.183 12.6223 11.9891 12.6223C13.2434 12.6223 14.3331 12.9868 14.8818 13.5215C15.1232 13.7567 15.2597 14.0246 15.2597 14.3096Z" fill="#F7F7F7"/>
<path d="M11.9893 11.5679C12.7765 11.5679 13.4146 10.9298 13.4146 10.1426C13.4146 9.35543 12.7765 8.71729 11.9893 8.71729C11.2021 8.71729 10.564 9.35543 10.564 10.1426C10.564 10.9298 11.2021 11.5679 11.9893 11.5679Z" fill="#F7F7F7"/>
<path d="M13.804 18.2032H18.1083V19.1211H13.804V18.2032Z" fill="#F7F7F7"/>
</svg>
