<svg width="25" height="24" viewBox="0 0 25 24" fill="none" xmlns="http://www.w3.org/2000/svg">
<g clip-path="url(#clip0_175_27055)">
<path d="M15.5 23.1797H9.50001C9.06473 23.1797 8.73538 22.789 8.80626 22.3608L9.55626 17.8608C9.61298 17.5219 9.90642 17.2734 10.25 17.2734H14.75C15.0936 17.2734 15.387 17.5219 15.4438 17.8608L16.1938 22.3608C16.2645 22.7884 15.9359 23.1797 15.5 23.1797Z" fill="#8BB9FF"/>
<path d="M15.5 23.1797H12.5V17.2734H14.75C15.0936 17.2734 15.387 17.5219 15.4437 17.8608L16.1937 22.3608C16.2645 22.7884 15.9359 23.1797 15.5 23.1797Z" fill="#6E75E2"/>
<path d="M17.7031 22.4766C17.7031 22.8647 17.3881 23.1797 17 23.1797H8C7.61187 23.1797 7.29688 22.8647 7.29688 22.4766C7.29688 22.0884 7.61187 21.7734 8 21.7734H17C17.3881 21.7734 17.7031 22.0884 17.7031 22.4766Z" fill="#6E75E2"/>
<path d="M17.7031 22.4766C17.7031 22.8647 17.3881 23.1797 17 23.1797H12.5V21.7734H17C17.3881 21.7734 17.7031 22.0884 17.7031 22.4766Z" fill="#3340D8"/>
<path d="M23.7969 2.92969V16.5703C23.7969 17.347 23.1673 17.9766 22.3906 17.9766H2.60938C1.83266 17.9766 1.20312 17.347 1.20312 16.5703V2.92969C1.20312 2.15297 1.83266 1.52344 2.60938 1.52344H22.3906C23.1673 1.52344 23.7969 2.15297 23.7969 2.92969Z" fill="#F6F9F9"/>
<path d="M23.7969 2.92969V16.5703C23.7969 17.347 23.1673 17.9766 22.3906 17.9766H12.5V1.52344H22.3906C23.1673 1.52344 23.7969 2.15297 23.7969 2.92969Z" fill="#E2DFF4"/>
<path d="M22.3906 0.820312H2.60938C1.44641 0.820312 0.5 1.76672 0.5 2.92969V16.5703C0.5 17.7333 1.44641 18.6797 2.60938 18.6797H22.3906C23.5536 18.6797 24.5 17.7333 24.5 16.5703V2.92969C24.5 1.76672 23.5536 0.820312 22.3906 0.820312ZM23.0938 16.5703C23.0938 16.958 22.7783 17.2734 22.3906 17.2734H2.60938C2.22172 17.2734 1.90625 16.958 1.90625 16.5703V2.92969C1.90625 2.54203 2.22172 2.22656 2.60938 2.22656H22.3906C22.7783 2.22656 23.0938 2.54203 23.0938 2.92969V16.5703Z" fill="#6E75E2"/>
<path d="M24.5 2.92969V16.5703C24.5 17.7333 23.5536 18.6797 22.3906 18.6797H12.5V17.2734H22.3906C22.7783 17.2734 23.0938 16.958 23.0938 16.5703V2.92969C23.0938 2.54203 22.7783 2.22656 22.3906 2.22656H12.5V0.820312H22.3906C23.5536 0.820312 24.5 1.76672 24.5 2.92969Z" fill="#3340D8"/>
<path d="M13.2031 1.52344V3.02344C13.2031 3.41156 12.8881 3.72656 12.5 3.72656C12.1119 3.72656 11.7969 3.41156 11.7969 3.02344V1.52344C11.7969 1.13531 12.1119 0.820312 12.5 0.820312C12.8881 0.820312 13.2031 1.13531 13.2031 1.52344Z" fill="#6E75E2"/>
<path d="M13.2031 1.52344V3.02344C13.2031 3.41156 12.8881 3.72656 12.5 3.72656V0.820312C12.8881 0.820312 13.2031 1.13531 13.2031 1.52344Z" fill="#3340D8"/>
<path d="M7.25 13.5234C6.86169 13.5234 6.54688 13.2086 6.54688 12.8203V8.27344C6.54688 7.88512 6.86169 7.57031 7.25 7.57031C7.63831 7.57031 7.95312 7.88512 7.95312 8.27344V12.8203C7.95312 13.2086 7.63831 13.5234 7.25 13.5234Z" fill="#FFB454"/>
<path d="M10.25 13.5234C9.86169 13.5234 9.54688 13.2086 9.54688 12.8203V10.5234C9.54688 10.1351 9.86169 9.82031 10.25 9.82031C10.6383 9.82031 10.9531 10.1351 10.9531 10.5234V12.8203C10.9531 13.2086 10.6383 13.5234 10.25 13.5234Z" fill="#E27A4E"/>
<path d="M17.375 13.8516C19.6273 13.8516 21.4531 12.0257 21.4531 9.77344C21.4531 7.52115 19.6273 5.69531 17.375 5.69531C15.1227 5.69531 13.2969 7.52115 13.2969 9.77344C13.2969 12.0257 15.1227 13.8516 17.375 13.8516Z" fill="#FFB454"/>
<path d="M21.4531 9.77344C21.4531 12.022 19.6236 13.8516 17.375 13.8516C16.2856 13.8516 15.2618 13.4273 14.4912 12.6572L17.375 9.77344V9.07031H20.75C21.1381 9.07031 21.4531 9.38531 21.4531 9.77344Z" fill="#00CB75"/>
<path d="M21.4531 9.77344H17.375V5.69531C19.6236 5.69531 21.4531 7.52484 21.4531 9.77344Z" fill="#6E75E2"/>
<path d="M4.25 13.5234C3.86169 13.5234 3.54688 13.2086 3.54688 12.8203V6.02344C3.54688 5.63512 3.86169 5.32031 4.25 5.32031C4.63831 5.32031 4.95312 5.63512 4.95312 6.02344V12.8203C4.95312 13.2086 4.63831 13.5234 4.25 13.5234Z" fill="#ACE233"/>
<path d="M3.54688 12.8203V13.5234C3.54688 13.9118 3.86169 14.2266 4.25 14.2266H10.25C10.6383 14.2266 10.9531 13.9118 10.9531 13.5234V12.8203C10.0179 12.8203 4.47837 12.8203 3.54688 12.8203Z" fill="#E2DFF4"/>
</g>
<defs>
<clipPath id="clip0_175_27055">
<rect width="24" height="24" fill="white" transform="translate(0.5)"/>
</clipPath>
</defs>
</svg>
