<svg width="41" height="41" viewBox="0 0 41 41" fill="none" xmlns="http://www.w3.org/2000/svg">
<g id="Cartoon" clip-path="url(#clip0_216_1099)">
<g id="Group">
<path id="Vector" d="M40.774 15.5119C40.2358 13.8555 38.8308 12.6709 37.1072 12.4205L28.4464 11.162L24.5732 3.31397C23.8024 1.75221 22.2417 0.781982 20.5 0.781982L19.6992 21.1018L20.5 35.6187L28.2464 39.6912C28.917 40.0438 29.6424 40.2179 30.3644 40.2179C31.3021 40.2178 32.2339 39.9239 33.03 39.3455C34.439 38.3218 35.1315 36.6195 34.837 34.903L33.3576 26.2771L39.6246 20.1683C40.8718 18.9525 41.3122 17.1684 40.774 15.5119Z" fill="#FFDD33"/>
<path id="Vector_2" d="M16.4265 3.31397L12.5532 11.162L3.89248 12.4205C2.16896 12.6709 0.763906 13.8555 0.2257 15.5119C-0.312505 17.1683 0.127925 18.9525 1.37514 20.1682L7.64214 26.277L6.16261 34.9029C5.86817 36.6195 6.5606 38.3217 7.96966 39.3454C9.37871 40.3692 11.2116 40.5017 12.7532 39.6911L20.4997 35.6187V0.781982C18.758 0.781982 17.1973 1.75221 16.4265 3.31397Z" fill="#FFEE99"/>
<path id="Vector_3" d="M38.4892 16.2543C38.2319 15.4621 37.586 14.9177 36.7618 14.7979L26.8512 13.3578L22.4189 4.37725C22.0503 3.63028 21.333 3.18433 20.5 3.18433L19.6992 21.1018L20.5 32.9046L29.3643 37.5649C30.1017 37.9526 30.9442 37.8916 31.618 37.402C32.2918 36.9124 32.6101 36.1301 32.4693 35.3091L30.7763 25.4384L37.9477 18.4479C38.5442 17.8665 38.7467 17.0465 38.4892 16.2543Z" fill="#FFBB33"/>
<path id="Vector_4" d="M18.5814 4.37725L14.1491 13.3578L4.23839 14.7979C3.41415 14.9177 2.7684 15.4621 2.51095 16.2543C2.2535 17.0465 2.45594 17.8665 3.05244 18.4479L10.2238 25.4384L8.53098 35.309C8.39021 36.13 8.70844 36.9123 9.38229 37.4019C10.0562 37.8915 10.8986 37.9524 11.6359 37.5648L20.5003 32.9045V3.18433C19.6673 3.18433 18.9499 3.63028 18.5814 4.37725Z" fill="#FFDD33"/>
<path id="Vector_5" d="M36.1953 26.5872H38.5977V28.9895H36.1953V26.5872Z" fill="#FFBB33"/>
<path id="Vector_6" d="M38.5977 31.3918H41V33.7942H38.5977V31.3918Z" fill="#FFBB33"/>
<g id="Group_2">
<path id="Vector_7" d="M2.40234 26.5872H4.80469V28.9895H2.40234V26.5872Z" fill="#FFDD33"/>
<path id="Vector_8" d="M0 31.3918H2.40234V33.7942H0V31.3918Z" fill="#FFDD33"/>
<path id="Vector_9" d="M3.60352 3.60474H6.00586V6.00708H3.60352V3.60474Z" fill="#FFDD33"/>
<path id="Vector_10" d="M8.4082 6.00708H10.8105V8.40942H8.4082V6.00708Z" fill="#FFDD33"/>
</g>
<path id="Vector_11" d="M34.9941 3.60474H37.3965V6.00708H34.9941V3.60474Z" fill="#FFBB33"/>
<path id="Vector_12" d="M30.1895 6.00708H32.5918V8.40942H30.1895V6.00708Z" fill="#FFBB33"/>
<path id="Vector_13" d="M16.8965 16.2971H19.2988V18.6995H16.8965V16.2971Z" fill="#574D8C"/>
<path id="Vector_14" d="M21.7012 16.2971H24.1035V18.6995H21.7012V16.2971Z" fill="#493373"/>
<path id="Vector_15" d="M24.1035 21.1018C24.1035 23.0888 22.487 24.7053 20.5 24.7053L19.6992 25.9065L20.5 27.1077C23.8116 27.1077 26.5059 24.4134 26.5059 21.1018H24.1035Z" fill="#493373"/>
<path id="Vector_16" d="M16.8965 21.1018H14.4941C14.4941 24.4134 17.1884 27.1077 20.5 27.1077V24.7053C18.513 24.7053 16.8965 23.0888 16.8965 21.1018Z" fill="#574D8C"/>
</g>
</g>
<defs>
<clipPath id="clip0_216_1099">
<rect width="41" height="41" fill="white"/>
</clipPath>
</defs>
</svg>
