<svg width="171" height="171" viewBox="0 0 171 171" fill="none" xmlns="http://www.w3.org/2000/svg">
<g id="Chat" clip-path="url(#clip0_182_29791)">
<path id="Vector" d="M113.677 54.8178C144.9 54.3408 170.385 78.9157 170.989 110.137C171.078 114.721 170.62 119.182 169.676 123.462C168.077 130.709 167.127 138.083 167.127 145.503V159.847C167.127 162.045 165.346 163.826 163.148 163.826H148.804C141.383 163.826 134.009 164.777 126.763 166.375C122.484 167.319 118.022 167.777 113.438 167.688C82.2172 167.084 57.6424 141.6 58.1186 110.378C58.5832 79.9016 83.2011 55.2833 113.677 54.8178Z" fill="url(#paint0_linear_182_29791)"/>
<path id="Vector_2" d="M113.677 54.8178C144.9 54.3408 170.385 78.9157 170.989 110.137C171.078 114.721 170.62 119.182 169.676 123.462C168.077 130.709 167.127 138.083 167.127 145.503V159.847C167.127 162.045 165.346 163.826 163.148 163.826H148.804C141.383 163.826 134.009 164.777 126.763 166.375C122.484 167.319 118.022 167.777 113.438 167.688C82.2172 167.084 57.6424 141.6 58.1186 110.378C58.5832 79.9016 83.2011 55.2833 113.677 54.8178Z" fill="url(#paint1_linear_182_29791)"/>
<path id="Vector_3" d="M69.8354 3.30944C31.7967 2.72831 0.749914 32.6669 0.0131454 70.703C-0.0947314 76.2869 0.463355 81.7231 1.6136 86.9366C3.56072 95.7645 4.71831 104.748 4.71831 113.789V131.264C4.71831 133.941 6.88853 136.111 9.56608 136.111H27.0408C36.081 136.111 45.0649 137.269 53.8931 139.216C59.1066 140.366 64.5425 140.924 70.1264 140.816C108.162 140.08 138.1 109.034 137.521 70.9959C136.954 33.868 106.963 3.87621 69.8354 3.30944Z" fill="url(#paint2_linear_182_29791)"/>
<path id="Vector_4" d="M44.1503 68.3795C42.2078 66.3155 39.4585 65.0193 36.3999 65.0193C30.5174 65.0193 25.7488 69.7879 25.7488 75.6704C25.7488 78.7287 27.0446 81.478 29.109 83.4208L52.0851 106.397C54.0278 108.461 56.7772 109.757 59.8355 109.757C65.7179 109.757 70.4866 104.988 70.4866 99.106C70.4866 96.0477 69.1904 93.2984 67.1264 91.3556L44.1503 68.3795Z" fill="url(#paint3_linear_182_29791)"/>
<path id="Vector_5" d="M36.3996 86.3201C42.282 86.3201 47.0507 81.5514 47.0507 75.669C47.0507 69.7866 42.282 65.0179 36.3996 65.0179C30.5172 65.0179 25.7485 69.7866 25.7485 75.669C25.7485 81.5514 30.5172 86.3201 36.3996 86.3201Z" fill="white"/>
<path id="Vector_6" d="M74.2724 68.3795C72.3299 66.3155 69.5806 65.0193 66.5219 65.0193C60.6395 65.0193 55.8708 69.7879 55.8708 75.6704C55.8708 78.7287 57.1667 81.478 59.2311 83.4208L82.2071 106.397C84.1499 108.461 86.8993 109.757 89.9576 109.757C95.84 109.757 100.609 104.988 100.609 99.106C100.609 96.0477 99.3125 93.2984 97.2484 91.3556L74.2724 68.3795Z" fill="url(#paint4_linear_182_29791)"/>
<path id="Vector_7" d="M66.5222 86.3201C72.4046 86.3201 77.1732 81.5514 77.1732 75.669C77.1732 69.7866 72.4046 65.0179 66.5222 65.0179C60.6397 65.0179 55.8711 69.7866 55.8711 75.669C55.8711 81.5514 60.6397 86.3201 66.5222 86.3201Z" fill="white"/>
<path id="Vector_8" d="M104.394 68.3795C102.451 66.3155 99.7021 65.0193 96.6435 65.0193C90.761 65.0193 85.9924 69.7879 85.9924 75.6704C85.9924 78.7287 87.2886 81.478 89.3526 83.4208L112.329 106.397C114.271 108.461 117.021 109.757 120.079 109.757C125.962 109.757 130.73 104.988 130.73 99.106C130.73 96.0477 129.434 93.2984 127.37 91.3556L104.394 68.3795Z" fill="url(#paint5_linear_182_29791)"/>
<path id="Vector_9" d="M96.6452 86.3201C102.528 86.3201 107.296 81.5514 107.296 75.669C107.296 69.7866 102.528 65.0179 96.6452 65.0179C90.7628 65.0179 85.9941 69.7866 85.9941 75.669C85.9941 81.5514 90.7628 86.3201 96.6452 86.3201Z" fill="white"/>
</g>
<defs>
<linearGradient id="paint0_linear_182_29791" x1="103.162" y1="99.8646" x2="186.031" y2="182.734" gradientUnits="userSpaceOnUse">
<stop stop-color="#A7F3CE"/>
<stop offset="1" stop-color="#61DB99"/>
</linearGradient>
<linearGradient id="paint1_linear_182_29791" x1="130.289" y1="126.99" x2="95.0906" y2="91.7952" gradientUnits="userSpaceOnUse">
<stop stop-color="#61DB99" stop-opacity="0"/>
<stop offset="1" stop-color="#009E74"/>
</linearGradient>
<linearGradient id="paint2_linear_182_29791" x1="43.6415" y1="60.9483" x2="131.134" y2="148.441" gradientUnits="userSpaceOnUse">
<stop stop-color="#62E1FB"/>
<stop offset="1" stop-color="#00A2F3"/>
</linearGradient>
<linearGradient id="paint3_linear_182_29791" x1="60.0933" y1="99.366" x2="14.0269" y2="53.301" gradientUnits="userSpaceOnUse">
<stop stop-color="#00A2F3" stop-opacity="0"/>
<stop offset="1" stop-color="#0075CD"/>
</linearGradient>
<linearGradient id="paint4_linear_182_29791" x1="90.2133" y1="99.3648" x2="44.1483" y2="53.2998" gradientUnits="userSpaceOnUse">
<stop stop-color="#00A2F3" stop-opacity="0"/>
<stop offset="1" stop-color="#0075CD"/>
</linearGradient>
<linearGradient id="paint5_linear_182_29791" x1="120.335" y1="99.3653" x2="74.2698" y2="53.3003" gradientUnits="userSpaceOnUse">
<stop stop-color="#00A2F3" stop-opacity="0"/>
<stop offset="1" stop-color="#0075CD"/>
</linearGradient>
<clipPath id="clip0_182_29791">
<rect width="171" height="171" fill="white"/>
</clipPath>
</defs>
</svg>
