<svg width="418" height="320" viewBox="0 0 418 320" fill="none" xmlns="http://www.w3.org/2000/svg">
<path d="M284.202 312.375L284.19 312.376L284.178 312.378C283.86 312.431 283.541 312.484 283.221 312.537L283.303 313.031C280.743 313.453 278.142 313.857 275.504 314.24L275.432 313.745C274.779 313.84 274.124 313.934 273.467 314.026L273.537 314.521C270.966 314.883 268.36 315.226 265.724 315.549L265.663 315.053C265.004 315.134 264.344 315.213 263.682 315.291L263.741 315.788C261.16 316.093 258.551 316.379 255.916 316.647L255.866 316.149C255.208 316.216 254.549 316.281 253.888 316.345L253.937 316.843C251.343 317.095 248.725 317.329 246.085 317.543L246.045 317.045C245.388 317.098 244.73 317.15 244.071 317.201L244.109 317.7C241.504 317.901 238.878 318.084 236.235 318.247L236.204 317.748C235.548 317.788 234.891 317.827 234.233 317.865L234.262 318.365C231.647 318.516 229.015 318.648 226.369 318.761L226.348 318.262C225.693 318.29 225.036 318.317 224.379 318.342L224.399 318.842C221.776 318.944 219.14 319.027 216.494 319.09L216.482 318.59C215.827 318.605 215.171 318.62 214.515 318.633L214.525 319.133C211.898 319.186 209.26 319.219 206.615 319.232L206.613 318.732C205.958 318.735 205.302 318.737 204.646 318.738L204.646 319.238C202.02 319.241 199.386 319.224 196.747 319.187L196.754 318.687C196.096 318.678 195.437 318.668 194.778 318.656L194.769 319.156C192.142 319.109 189.511 319.041 186.878 318.953L186.895 318.454C186.237 318.432 185.579 318.408 184.922 318.384L184.903 318.883C182.273 318.785 179.642 318.666 177.011 318.525L177.038 318.026C176.382 317.991 175.725 317.954 175.069 317.916L175.04 318.416C172.409 318.264 169.781 318.091 167.156 317.896L167.193 317.398C166.537 317.349 165.881 317.299 165.225 317.248L165.186 317.746C162.558 317.54 159.935 317.311 157.318 317.06L157.366 316.562C156.71 316.499 156.055 316.435 155.4 316.369L155.35 316.867C152.728 316.603 150.113 316.316 147.507 316.006L147.566 315.51C146.911 315.432 146.256 315.352 145.602 315.271L145.54 315.768C142.92 315.443 140.31 315.095 137.713 314.722L137.784 314.227C137.135 314.134 136.486 314.039 135.838 313.943L135.765 314.437C133.146 314.048 130.541 313.633 127.952 313.193L128.036 312.7C127.389 312.59 126.744 312.479 126.1 312.366L126.013 312.858C123.404 312.4 120.811 311.916 118.237 311.404L118.335 310.914C117.691 310.786 117.048 310.656 116.406 310.525L116.306 311.014C113.71 310.483 111.134 309.923 108.581 309.335L108.694 308.848C108.052 308.701 107.413 308.551 106.774 308.4L106.659 308.886C104.08 308.275 101.526 307.635 98.9991 306.964L99.1273 306.481C98.4897 306.312 97.8539 306.141 97.2198 305.968L97.0882 306.45C94.5319 305.753 92.0042 305.024 89.5079 304.264L89.6536 303.786C89.0209 303.593 88.3903 303.398 87.7617 303.201L87.6123 303.679C85.0835 302.887 82.5882 302.062 80.1293 301.203L80.2942 300.731C79.6682 300.512 79.0446 300.291 78.4235 300.068L78.2545 300.539C75.7599 299.643 73.3042 298.711 70.8906 297.744L71.0767 297.28C70.4599 297.032 69.8459 296.783 69.2348 296.53L69.0441 296.993C66.5924 295.982 64.1858 294.932 61.8277 293.843L62.0373 293.389C61.4331 293.11 60.8322 292.829 60.2345 292.545L60.0199 292.996C57.6223 291.857 55.2771 290.676 52.9877 289.452L53.2234 289.011C52.6365 288.697 52.0534 288.381 51.474 288.062L51.2327 288.5C48.9057 287.217 46.6391 285.89 44.4369 284.517L44.7014 284.093C44.1371 283.741 43.5771 283.386 43.0215 283.028L42.7507 283.448C40.5155 282.008 38.3498 280.519 36.2582 278.98L36.5545 278.577C36.0203 278.184 35.4909 277.788 34.9665 277.388L34.6634 277.786C32.5486 276.174 30.5135 274.508 28.563 272.788L28.8936 272.413C28.3981 271.976 27.908 271.536 27.4235 271.092L27.0857 271.46C25.1277 269.666 23.2601 267.813 21.4883 265.902L21.855 265.562C21.4079 265.08 20.967 264.593 20.5322 264.104L20.1583 264.435C18.4002 262.454 16.7432 260.411 15.193 258.305L15.5956 258.009C15.2073 257.481 14.8257 256.95 14.451 256.414L14.0413 256.701C12.5293 254.54 11.1277 252.315 9.84234 250.023L10.2784 249.779C9.9585 249.208 9.64584 248.634 9.34052 248.055L8.89833 248.289C7.67449 245.97 6.56777 243.585 5.5839 241.133L6.04795 240.946C5.80406 240.338 5.56777 239.726 5.33917 239.11L4.87039 239.284C3.96427 236.841 3.17816 234.333 2.5175 231.759L3.0018 231.635C2.83814 230.997 2.68222 230.355 2.53414 229.709L2.04678 229.821C1.4685 227.298 1.0089 224.712 0.672927 222.063L1.16895 222.001C1.08665 221.352 1.0118 220.699 0.944494 220.042L0.4471 220.093C0.183982 217.526 0.035365 214.9 0.00558749 212.215L0.505557 212.209C0.501855 211.876 0.5 211.541 0.5 211.205C0.5 210.87 0.50034 210.534 0.501022 210.199L0.00102344 210.198C0.00648542 207.512 0.0338372 204.825 0.0837371 202.139L0.583651 202.148C0.596117 201.477 0.609992 200.806 0.625286 200.135L0.125416 200.124C0.186667 197.437 0.270654 194.751 0.378038 192.069L0.877638 192.089C0.904499 191.418 0.932826 190.747 0.962629 190.077L0.463122 190.054C0.582514 187.368 0.725566 184.685 0.892941 182.008L1.39197 182.039C1.43391 181.369 1.47738 180.698 1.52239 180.028L1.02351 179.995C1.20381 177.31 1.40879 174.632 1.63911 171.961L2.13726 172.004C2.19506 171.334 2.25445 170.665 2.31545 169.996L1.81751 169.95C2.06195 167.269 2.33218 164.597 2.62888 161.935L3.1258 161.99C3.20033 161.321 3.27653 160.653 3.35441 159.986L2.85778 159.928C3.17005 157.252 3.50935 154.588 3.87638 151.936L4.37166 152.005C4.46392 151.338 4.55793 150.672 4.6537 150.008L4.15881 149.936C4.54316 147.268 4.95591 144.614 5.39776 141.975L5.8909 142.058C6.00201 141.394 6.11496 140.732 6.22976 140.07L5.73712 139.985C6.19839 137.327 6.68956 134.685 7.21135 132.063L7.70174 132.16C7.83296 131.501 7.96611 130.842 8.10121 130.185L7.61146 130.085C8.15511 127.44 8.73032 124.816 9.33785 122.213L9.82476 122.327C9.97748 121.672 10.1322 121.019 10.2891 120.368L9.80294 120.251C10.4351 117.624 11.1007 115.021 11.8004 112.442L12.283 112.573C12.4587 111.926 12.6367 111.28 12.8167 110.635L12.3352 110.501C13.0628 107.897 13.8257 105.32 14.625 102.771L15.102 102.921C15.3025 102.282 15.5053 101.644 15.7103 101.009L15.2345 100.855C16.065 98.2809 16.9332 95.7368 17.8398 93.2255L18.3101 93.3953C18.5371 92.7664 18.7665 92.1397 18.9984 91.515L18.5296 91.341C19.4714 88.8039 20.4532 86.3012 21.4759 83.8355L21.9377 84.0271C22.194 83.4093 22.4528 82.7939 22.7142 82.1808L22.2542 81.9847C23.3153 79.4963 24.4189 77.0468 25.5661 74.639L26.0175 74.8541C26.3075 74.2454 26.6003 73.6393 26.8959 73.036L26.4469 72.816C27.6372 70.3868 28.8728 68.0015 30.1548 65.6629L30.5933 65.9032C30.9167 65.3132 31.2431 64.7261 31.5725 64.1422L31.137 63.8965C32.4658 61.5406 33.8429 59.2337 35.2694 56.9791L35.692 57.2464C36.0505 56.6797 36.4121 56.1164 36.7769 55.5565L36.3579 55.2835C37.8335 53.0184 39.3604 50.8079 40.9398 48.6552L41.3429 48.9509C41.7383 48.4121 42.1369 47.8769 42.5389 47.3453L42.1401 47.0438C43.7692 44.8895 45.4526 42.7956 47.1914 40.7654L47.5712 41.0906C48.0065 40.5823 48.4454 40.078 48.8877 39.5777L48.5131 39.2465C50.2995 37.2262 52.1429 35.2719 54.0446 33.3868L54.3966 33.7419C54.8724 33.2701 55.3519 32.8028 55.8351 32.3399L55.4892 31.9788C57.4319 30.1175 59.4338 28.3273 61.4962 26.6114L61.816 26.9958C62.3301 26.5682 62.8479 26.1451 63.3695 25.7269L63.0567 25.3368C65.1501 23.658 67.3043 22.0545 69.5206 20.53L69.804 20.9419C70.3551 20.5628 70.9102 20.1885 71.4691 19.8192L71.1934 19.402C73.4264 17.9266 75.721 16.5298 78.0784 15.2152L78.322 15.6519C78.9035 15.3275 79.4889 15.0083 80.0781 14.694L79.8428 14.2528C82.1966 12.9977 84.6116 11.8231 87.089 10.7323L87.2905 11.1899C87.8987 10.9221 88.5108 10.6594 89.1266 10.4018L88.9337 9.94049C91.3866 8.91442 93.8994 7.96927 96.4733 7.10808L96.632 7.58224C97.2645 7.37062 97.9007 7.16409 98.5406 6.96269L98.3905 6.48575C100.92 5.68985 103.506 4.97385 106.152 4.34053L106.268 4.82679C106.92 4.67072 107.576 4.51969 108.235 4.37374L108.127 3.88556C110.709 3.31393 113.346 2.81997 116.039 2.40621L116.115 2.90041C116.781 2.79801 117.451 2.70054 118.124 2.60803L118.056 2.11269C120.67 1.75368 123.335 1.46923 126.053 1.26157L126.091 1.76012C126.76 1.70898 127.433 1.66251 128.108 1.62075L128.078 1.1217C130.711 0.958975 133.392 0.867467 136.123 0.849141L136.127 1.34913C136.467 1.34685 136.808 1.3457 137.15 1.3457C137.474 1.3457 137.798 1.34659 138.123 1.34835L138.126 0.848362C140.734 0.862534 143.386 0.933305 146.078 1.05946L146.055 1.55891C146.714 1.58979 147.375 1.62399 148.039 1.66151L148.067 1.1623C150.674 1.30965 153.318 1.50791 155.994 1.75601L155.948 2.25387C156.609 2.3152 157.273 2.37958 157.938 2.44699L157.988 1.94954C160.586 2.2127 163.214 2.52201 165.868 2.8765L165.802 3.3721C166.464 3.46056 167.128 3.55183 167.793 3.64591L167.863 3.15083C170.45 3.51641 173.061 3.92425 175.693 4.37345L175.609 4.86633C176.265 4.9783 176.923 5.09285 177.582 5.20996L177.669 4.71767C180.249 5.17617 182.848 5.67387 185.465 6.20992L185.365 6.69975C186.014 6.83285 186.665 6.96832 187.317 7.10614L187.42 6.61696C189.991 7.16056 192.578 7.74077 195.179 8.3568L195.063 8.84334C195.707 8.99569 196.351 9.15024 196.995 9.30698L197.113 8.82112C199.674 9.44355 202.247 10.1003 204.83 10.7908L204.701 11.2738C205.338 11.444 205.975 11.6162 206.613 11.7905L206.745 11.3082C209.293 12.0042 211.851 12.7327 214.416 13.493L214.274 13.9724C214.904 14.1593 215.535 14.3481 216.166 14.5388L216.311 14.0602C218.839 14.824 221.374 15.6185 223.914 16.4429L223.759 16.9185C224.389 17.1229 225.019 17.3291 225.649 17.5372L225.806 17.0624C228.309 17.8891 230.816 18.7447 233.325 19.6285L233.159 20.1001C233.785 20.3207 234.411 20.5432 235.038 20.7674L235.207 20.2966C237.692 21.1858 240.178 22.1026 242.663 23.0463L242.486 23.5137C243.105 23.7488 243.724 23.9856 244.344 24.224L244.523 23.7574C246.992 24.7082 249.459 25.6854 251.923 26.6883L251.735 27.1514C252.347 27.4007 252.96 27.6516 253.572 27.9041L253.762 27.4419C256.211 28.4521 258.656 29.4877 261.096 30.548L260.897 31.0066C261.503 31.27 262.109 31.535 262.714 31.8014L262.916 31.3438C265.34 32.4109 267.759 33.5024 270.169 34.6177L269.959 35.0715C270.561 35.3498 271.162 35.6296 271.763 35.9109L271.975 35.458C274.374 36.5815 276.765 37.7285 279.146 38.8984L278.925 39.3472C279.52 39.6393 280.114 39.9329 280.707 40.2279L280.93 39.7802C283.305 40.9611 285.669 42.1648 288.022 43.3907L287.791 43.8341C288.378 44.1402 288.965 44.4476 289.55 44.7564L289.784 44.3142C292.131 45.5519 294.466 46.8116 296.787 48.0929L296.545 48.5306C297.125 48.851 297.705 49.1727 298.283 49.4958L298.527 49.0593C300.843 50.3532 303.145 51.6685 305.429 53.0046L305.177 53.4362C305.75 53.7714 306.322 54.1079 306.893 54.4457L307.148 54.0154C309.435 55.3686 311.705 56.7426 313.955 58.137L313.692 58.562C314.254 58.9101 314.814 59.2595 315.374 59.6102L315.639 59.1865C317.895 60.6005 320.131 62.0349 322.344 63.4891L322.07 63.907C322.623 64.2703 323.174 64.6349 323.725 65.0007L324.001 64.5843C326.218 66.0579 328.412 67.5514 330.582 69.0642L330.296 69.4743C330.84 69.8537 331.382 70.2342 331.923 70.6159L332.211 70.2074C334.384 71.7414 336.532 73.2948 338.651 74.867L338.353 75.2686C338.888 75.6648 339.42 76.0622 339.951 76.4607L340.251 76.0609C342.377 77.6575 344.474 79.2731 346.54 80.9071L346.23 81.2993C346.752 81.7121 347.272 82.1261 347.79 82.5413L348.103 82.1511C350.185 83.8191 352.234 85.5058 354.249 87.2105L353.926 87.5922C354.429 88.0177 354.93 88.4443 355.429 88.8719L355.754 88.4924C357.785 90.2339 359.779 91.9938 361.735 93.7714L361.399 94.1414C361.887 94.5855 362.374 95.0307 362.857 95.477L363.196 95.1095C365.161 96.9219 367.086 98.7524 368.969 100.6L368.619 100.957C369.091 101.421 369.561 101.886 370.028 102.352L370.381 101.998C372.273 103.884 374.12 105.788 375.92 107.709L375.555 108.051C376.009 108.536 376.46 109.021 376.908 109.508L377.276 109.169C379.084 111.133 380.843 113.114 382.55 115.111L382.17 115.436C382.603 115.942 383.033 116.45 383.459 116.958L383.842 116.637C385.555 118.681 387.214 120.743 388.816 122.82L388.421 123.126C388.828 123.655 389.232 124.184 389.633 124.715L390.032 124.414C391.637 126.543 393.183 128.689 394.665 130.85L394.253 131.133C394.631 131.685 395.005 132.237 395.375 132.791L395.791 132.513C397.276 134.735 398.694 136.972 400.041 139.225L399.612 139.482C399.953 140.052 400.29 140.622 400.622 141.194L401.054 140.943C402.397 143.257 403.666 145.587 404.857 147.93L404.411 148.157C404.71 148.746 405.004 149.336 405.294 149.927L405.743 149.707C406.92 152.11 408.015 154.528 409.024 156.96L408.562 157.152C408.815 157.76 409.062 158.37 409.304 158.98L409.769 158.796C410.754 161.282 411.648 163.781 412.449 166.294L411.973 166.445C412.173 167.073 412.367 167.702 412.556 168.331L413.035 168.187C413.799 170.743 414.467 173.312 415.032 175.892L414.544 175.999C414.685 176.643 414.82 177.288 414.948 177.933L415.439 177.835C415.958 180.444 416.373 183.064 416.679 185.695L416.182 185.752C416.259 186.407 416.328 187.062 416.391 187.718L416.888 187.67C417.141 190.309 417.283 192.957 417.312 195.614L416.812 195.62C416.813 195.771 416.814 195.921 416.815 196.072C416.816 196.252 416.817 196.431 416.817 196.611C416.817 196.951 416.816 197.289 416.816 197.626L417.316 197.627C417.309 200.329 417.276 202.96 417.216 205.523L416.717 205.512C416.701 206.181 416.684 206.846 416.664 207.506L417.164 207.52C417.085 210.222 416.976 212.846 416.836 215.396L416.337 215.368C416.299 216.044 416.26 216.715 416.219 217.38L416.718 217.412C416.548 220.122 416.343 222.746 416.101 225.287L415.603 225.24C415.54 225.905 415.474 226.564 415.405 227.218L415.903 227.27C415.619 229.98 415.292 232.592 414.922 235.112L414.427 235.039C414.332 235.687 414.233 236.329 414.132 236.964L414.626 237.043C414.198 239.733 413.718 242.314 413.184 244.792L412.696 244.686C412.554 245.344 412.409 245.993 412.26 246.636L412.747 246.749C412.128 249.419 411.445 251.964 410.696 254.392L410.218 254.244C410.025 254.87 409.828 255.488 409.626 256.099L410.1 256.256C409.241 258.854 408.302 261.312 407.282 263.64L406.824 263.44C406.558 264.048 406.286 264.647 406.009 265.237L406.461 265.45C405.307 267.906 404.056 270.211 402.708 272.376L402.284 272.112C401.933 272.675 401.576 273.228 401.213 273.772L401.628 274.05C400.135 276.283 398.53 278.359 396.812 280.294L396.438 279.962C396.002 280.453 395.559 280.934 395.108 281.407L395.47 281.752C393.646 283.665 391.701 285.432 389.634 287.069L389.323 286.677C388.813 287.081 388.295 287.477 387.77 287.865L388.067 288.268C385.973 289.814 383.761 291.238 381.427 292.554L381.181 292.119C380.617 292.437 380.045 292.749 379.466 293.055L379.7 293.497C377.419 294.702 375.027 295.813 372.523 296.841L372.333 296.378C371.737 296.623 371.133 296.863 370.523 297.099L370.704 297.566C368.308 298.492 365.814 299.349 363.219 300.147L363.072 299.669C362.451 299.86 361.824 300.048 361.192 300.232L361.332 300.712C358.874 301.428 356.33 302.095 353.697 302.722L353.581 302.236C352.94 302.388 352.294 302.538 351.643 302.686L351.754 303.174C349.252 303.741 346.672 304.276 344.014 304.783L343.92 304.292C343.284 304.413 342.644 304.533 341.999 304.651L342.089 305.143C339.56 305.607 336.963 306.049 334.295 306.475L334.216 305.981C333.563 306.085 332.907 306.188 332.245 306.29L332.322 306.785C329.772 307.179 327.16 307.559 324.484 307.931L324.415 307.436C323.776 307.525 323.133 307.613 322.487 307.701L322.554 308.196C319.999 308.544 317.387 308.884 314.717 309.222L314.654 308.726C314.006 308.808 313.354 308.89 312.699 308.972L312.761 309.468C310.197 309.788 307.581 310.106 304.913 310.427L304.853 309.93C304.198 310.009 303.539 310.087 302.877 310.166L302.936 310.663C300.368 310.969 297.753 311.277 295.089 311.591L295.03 311.095L293.04 311.329L293.098 311.826C290.529 312.128 287.916 312.436 285.259 312.752L285.2 312.256L284.202 312.375Z" fill="#E5E7FF" stroke="#4146B8" stroke-dasharray="2 8"/>
</svg>
