<svg width="20" height="20" viewBox="0 0 20 20" fill="none" xmlns="http://www.w3.org/2000/svg">
<g id="fi_12888040" clip-path="url(#clip0_22_10803)">
<g id="Group 2085663931">
<path id="Vector" d="M6.55481 7.28927C7.52125 7.28927 8.3047 6.59027 8.3047 5.72801C8.3047 4.86575 7.52125 4.16675 6.55481 4.16675C5.58838 4.16675 4.80493 4.86575 4.80493 5.72801C4.80493 6.59027 5.58838 7.28927 6.55481 7.28927Z" fill="#394245"/>
<path id="Vector_2" d="M13.4286 7.31755C13.7748 7.31773 14.1132 7.22634 14.4011 7.05493C14.689 6.88352 14.9134 6.63979 15.0461 6.35455C15.1787 6.06932 15.2136 5.7554 15.1463 5.45249C15.0789 5.14958 14.9125 4.87128 14.6679 4.65279C14.4233 4.4343 14.1115 4.28543 13.7721 4.22501C13.4327 4.16458 13.0808 4.19532 12.7609 4.31332C12.4411 4.43133 12.1677 4.63131 11.9752 4.88798C11.7827 5.14464 11.6799 5.44646 11.6797 5.75527C11.6799 6.16924 11.8641 6.56624 12.192 6.85913C12.5199 7.15203 12.9647 7.31689 13.4286 7.31755Z" fill="#394245"/>
<path id="Vector_3" d="M11.3619 9.10186C11.3049 7.48636 8.6793 7.48414 8.62231 9.10186C8.6793 10.7173 11.3049 10.7173 11.3619 9.10186Z" fill="#394245"/>
<path id="Vector_4" d="M11.3371 7.95039C11.5905 8.18569 11.7607 8.48225 11.8267 8.80319C11.8926 9.12414 11.8514 9.4553 11.7081 9.7555C11.5647 10.0557 11.3257 10.3117 11.0206 10.4916C10.7155 10.6715 10.3578 10.7674 9.99211 10.7674C9.62639 10.7674 9.26874 10.6715 8.96364 10.4916C8.65855 10.3117 8.41947 10.0557 8.27614 9.7555C8.13282 9.4553 8.09156 9.12414 8.15752 8.80319C8.22348 8.48225 8.39373 8.18569 8.64711 7.95039C8.17786 7.78236 7.6714 7.71348 7.16735 7.74914C6.6633 7.7848 6.17534 7.92402 5.74163 8.15592C3.83435 9.16809 3.70061 11.2874 5.11743 12.6974C5.45542 13.0623 5.82927 13.3996 6.23453 13.7051C6.44261 13.8952 6.76708 14.0786 7.0247 13.8422C7.06658 13.8048 7.09931 13.7601 7.12079 13.7109C7.14227 13.6616 7.15204 13.6089 7.14947 13.5562C7.14691 13.5034 7.13207 13.4516 7.1059 13.4042C7.07972 13.3568 7.04279 13.3148 6.99744 13.2809C5.67723 12.3217 5.00844 11.4377 5.00844 10.651C4.98119 10.3394 5.24375 9.15039 5.73915 9.39791C5.76634 9.414 5.7897 9.43471 5.80791 9.45887C5.82612 9.48302 5.83881 9.51014 5.84525 9.53867C5.85169 9.56721 5.85176 9.59659 5.84546 9.62515C5.83916 9.65371 5.8266 9.68088 5.80851 9.70511C5.14221 10.7305 5.59301 11.4863 6.74728 12.4985C8.444 10.9007 11.5427 10.8919 13.2419 12.4941C14.3912 11.4841 14.8395 10.7283 14.1757 9.70511C14.1576 9.68088 14.1451 9.65371 14.1388 9.62515C14.1324 9.59659 14.1325 9.56721 14.139 9.53867C14.1454 9.51014 14.1581 9.48302 14.1763 9.45886C14.1945 9.43471 14.2179 9.414 14.2451 9.39791C14.7355 9.1482 15.0055 10.3394 14.9758 10.651C14.9758 11.4377 14.307 12.3217 12.9868 13.2809C12.9414 13.3146 12.9045 13.3564 12.8783 13.4036C12.8522 13.4508 12.8373 13.5024 12.8348 13.555C12.8322 13.6077 12.842 13.6602 12.8634 13.7092C12.8849 13.7583 12.9176 13.8028 12.9595 13.84C13.284 14.1317 13.6357 13.8002 13.8834 13.5991C14.6194 13.062 15.2089 12.3826 15.6074 11.6123C16.6502 9.26974 13.8884 7.01559 11.3371 7.95039Z" fill="#394245"/>
<path id="Vector_5" d="M12.8725 12.7903C12.4945 12.4531 12.0456 12.1857 11.5517 12.0033C11.0577 11.8209 10.5283 11.7271 9.99377 11.7273C9.45919 11.7275 8.92989 11.8217 8.43612 12.0044C7.94235 12.1872 7.49378 12.455 7.11604 12.7925C7.24861 12.8546 7.36335 12.9432 7.45133 13.0513C7.53931 13.1594 7.59817 13.2841 7.62333 13.4158C7.64849 13.5475 7.63927 13.6826 7.59639 13.8106C7.55352 13.9386 7.47814 14.0561 7.37611 14.1539C7.29828 14.2208 7.20877 14.2761 7.11108 14.3174C8.02051 14.8959 8.98435 15.4032 9.99181 15.8334C10.9993 15.4032 11.9631 14.8959 12.8725 14.3174C12.7747 14.2773 12.6858 14.222 12.61 14.1539C12.1269 13.7317 12.3375 13.082 12.8725 12.7903Z" fill="#394245"/>
</g>
<circle id="Ellipse 19" cx="10" cy="10" r="9.35" stroke="#394245" stroke-width="1.3"/>
</g>
<defs>
<clipPath id="clip0_22_10803">
<rect width="20" height="20" fill="white"/>
</clipPath>
</defs>
</svg>
