<svg width="92" height="92" viewBox="0 0 92 92" fill="none" xmlns="http://www.w3.org/2000/svg">
<g id="Diversity" clip-path="url(#clip0_3260_21864)">
<g id="Group">
<path id="Vector" d="M45.9998 50.9439C45.9998 43.3857 39.8726 37.2585 32.3145 37.2585L30.5176 49.9386L32.3145 80.3253H45.9998V50.9439Z" fill="#24B3B3"/>
<path id="Vector_2" d="M18.6289 50.9439V80.3253H32.3143V37.2585C24.7561 37.2585 18.6289 43.3857 18.6289 50.9439Z" fill="#2EE6A8"/>
<path id="Vector_3" d="M73.3709 50.9439C73.3709 43.3857 67.2437 37.2585 59.6855 37.2585L57.8887 49.9386L59.6855 80.3253H73.3709V50.9439Z" fill="#E62E6B"/>
<path id="Vector_4" d="M46 50.9439V80.3253H59.6854V37.2585C52.1272 37.2585 46 43.3857 46 50.9439Z" fill="#FF6666"/>
<path id="Vector_5" d="M43.3047 0H48.6953V8.08594H43.3047V0Z" fill="#FFB655"/>
<path id="Vector_6" d="M43.3047 0H48.6953V8.08594H43.3047V0Z" fill="#FFB655"/>
<path id="Vector_7" d="M29.2207 3.08496L34.3472 1.41926L36.8457 9.10898L31.7193 10.7747L29.2207 3.08496Z" fill="#FFDA44"/>
<path id="Vector_8" d="M29.2207 3.08496L34.3472 1.41926L36.8457 9.10898L31.7193 10.7747L29.2207 3.08496Z" fill="#FFDA44"/>
<path id="Vector_9" d="M16.7832 10.3655L21.1442 7.19579L25.8987 13.7373L21.5377 16.907L16.7832 10.3655Z" fill="#FFDA44"/>
<path id="Vector_10" d="M16.7832 10.3655L21.1442 7.19579L25.8987 13.7373L21.5377 16.907L16.7832 10.3655Z" fill="#FFDA44"/>
<path id="Vector_11" d="M7.20312 21.1462L10.3728 16.7852L16.9143 21.5398L13.7446 25.9008L7.20312 21.1462Z" fill="#FFDA44"/>
<path id="Vector_12" d="M7.20312 21.1462L10.3728 16.7852L16.9143 21.5398L13.7446 25.9008L7.20312 21.1462Z" fill="#FFDA44"/>
<path id="Vector_13" d="M1.41602 34.3486L3.08172 29.2221L10.7714 31.7207L9.10574 36.8472L1.41602 34.3486Z" fill="#FFDA44"/>
<path id="Vector_14" d="M1.41602 34.3486L3.08172 29.2221L10.7714 31.7207L9.10574 36.8472L1.41602 34.3486Z" fill="#FFDA44"/>
<path id="Vector_15" d="M0 43.3047H8.08594V48.6953H0V43.3047Z" fill="#FFDA44"/>
<path id="Vector_16" d="M0 43.3047H8.08594V48.6953H0V43.3047Z" fill="#FFDA44"/>
<g id="Group_2">
<path id="Vector_17" d="M83.9141 43.3047H92V48.6953H83.9141V43.3047Z" fill="#FFB655"/>
<path id="Vector_18" d="M83.9141 43.3047H92V48.6953H83.9141V43.3047Z" fill="#FFB655"/>
<path id="Vector_19" d="M81.2188 31.7206L88.9085 29.222L90.5742 34.3485L82.8845 36.8471L81.2188 31.7206Z" fill="#FFB655"/>
<path id="Vector_20" d="M81.2188 31.7206L88.9085 29.222L90.5742 34.3485L82.8845 36.8471L81.2188 31.7206Z" fill="#FFB655"/>
<path id="Vector_21" d="M75.0918 21.5179L81.6333 16.7634L84.803 21.1244L78.2615 25.879L75.0918 21.5179Z" fill="#FFB655"/>
<path id="Vector_22" d="M75.0918 21.5179L81.6333 16.7634L84.803 21.1244L78.2615 25.879L75.0918 21.5179Z" fill="#FFB655"/>
<path id="Vector_23" d="M66.1172 13.7454L70.8717 7.20384L75.2327 10.3735L70.4782 16.915L66.1172 13.7454Z" fill="#FFB655"/>
<path id="Vector_24" d="M66.1172 13.7454L70.8717 7.20384L75.2327 10.3735L70.4782 16.915L66.1172 13.7454Z" fill="#FFB655"/>
<path id="Vector_25" d="M55.1504 9.11169L57.6489 1.42197L62.7754 3.08767L60.2769 10.7774L55.1504 9.11169Z" fill="#FFB655"/>
<path id="Vector_26" d="M55.1504 9.11169L57.6489 1.42197L62.7754 3.08767L60.2769 10.7774L55.1504 9.11169Z" fill="#FFB655"/>
</g>
<path id="Vector_27" d="M40.1625 29.4105C40.1625 25.0761 36.6489 21.5625 32.3145 21.5625L30.5176 29.4105L32.3145 37.2586C36.6487 37.2586 40.1625 33.7448 40.1625 29.4105Z" fill="#DBAD5C"/>
<path id="Vector_28" d="M24.4668 29.4105C24.4668 33.745 27.9804 37.2586 32.3148 37.2586V21.5625C27.9804 21.5625 24.4668 25.0761 24.4668 29.4105Z" fill="#E7C994"/>
<path id="Vector_29" d="M67.5336 29.4105C67.5336 25.0761 64.02 21.5625 59.6855 21.5625L57.8887 29.4105L59.6855 37.2586C64.02 37.2586 67.5336 33.7448 67.5336 29.4105Z" fill="#8C574D"/>
<path id="Vector_30" d="M51.8379 29.4105C51.8379 33.745 55.3515 37.2586 59.6859 37.2586V21.5625C55.3517 21.5625 51.8379 25.0761 51.8379 29.4105Z" fill="#A6756B"/>
<path id="Vector_31" d="M81.2191 58.792C81.2191 54.4576 77.7055 50.944 73.3711 50.944L71.5742 58.792L73.3711 66.64C77.7055 66.6399 81.2191 63.1262 81.2191 58.792Z" fill="#DBAD5C"/>
<path id="Vector_32" d="M65.5234 58.792C65.5234 63.1264 69.037 66.64 73.3715 66.64V50.944C69.0372 50.944 65.5234 54.4576 65.5234 58.792Z" fill="#E7C994"/>
<path id="Vector_33" d="M87.0565 80.3254C87.0565 72.7672 80.9293 66.64 73.3711 66.64L71.5742 79.32L73.3711 92H87.0565V80.3254Z" fill="#6A4DFF"/>
<path id="Vector_34" d="M59.6855 80.3253L57.8887 86.6093L59.6855 92H73.3709V66.6398C65.8127 66.6398 59.6855 72.7669 59.6855 80.3253Z" fill="#6680FF"/>
<path id="Vector_35" d="M53.848 58.792C53.848 54.4576 50.3344 50.944 46 50.944L44.2031 58.792L46 66.64C50.3344 66.6399 53.848 63.1262 53.848 58.792Z" fill="#FFCDBE"/>
<path id="Vector_36" d="M38.1523 58.792C38.1523 63.1264 41.666 66.64 46.0004 66.64V50.944C41.666 50.944 38.1523 54.4576 38.1523 58.792Z" fill="#FFDECF"/>
<path id="Vector_37" d="M59.6854 80.3254C59.6854 72.7672 53.5582 66.64 46 66.64L44.2031 79.32L46 92H59.6854V80.3254Z" fill="#404A80"/>
<path id="Vector_38" d="M32.3145 80.3253L30.5176 86.6093L32.3145 92H45.9998V66.6398C38.4416 66.6398 32.3145 72.7669 32.3145 80.3253Z" fill="#5C6699"/>
<path id="Vector_39" d="M26.4769 58.792C26.4769 54.4576 22.9633 50.944 18.6289 50.944L16.832 58.792L18.6289 66.64C22.9631 66.6399 26.4769 63.1262 26.4769 58.792Z" fill="#8C574D"/>
<path id="Vector_40" d="M10.7812 58.792C10.7812 63.1264 14.2949 66.64 18.6293 66.64V50.944C14.2949 50.944 10.7812 54.4576 10.7812 58.792Z" fill="#A6756B"/>
<path id="Vector_41" d="M32.3143 80.3254C32.3143 72.7672 26.1871 66.64 18.6289 66.64L16.832 79.32L18.6289 92H32.3143V80.3254Z" fill="#FFB655"/>
<path id="Vector_42" d="M4.94336 80.3253V92H18.6287V66.6398C11.0705 66.6398 4.94336 72.7669 4.94336 80.3253Z" fill="#FFDA44"/>
</g>
</g>
<defs>
<clipPath id="clip0_3260_21864">
<rect width="92" height="92" fill="white"/>
</clipPath>
</defs>
</svg>
