<svg width="21" height="20" viewBox="0 0 21 20" fill="none" xmlns="http://www.w3.org/2000/svg">
<g id="fi_2404482">
<g id="15. Women sign">
<path id="Vector" d="M16.4584 5.40626L18.7512 3.11063C18.8683 2.99344 18.9341 2.83456 18.9341 2.66891C18.9341 2.50326 18.8683 2.34439 18.7512 2.22719L18.0718 1.54782C17.9547 1.43074 17.7958 1.36498 17.6301 1.36498C17.4645 1.36498 17.3056 1.43074 17.1884 1.54782L14.8928 3.84063L12.9128 1.86063C12.7956 1.74346 12.6366 1.67764 12.4709 1.67764C12.3052 1.67764 12.1462 1.74346 12.029 1.86063C10.6853 3.20438 10.725 2.79813 13.3303 5.40313L11.2209 7.51563C7.16497 4.65251 1.48028 7.44126 1.24278 12.4094C1.19396 13.4173 1.38627 14.4222 1.80375 15.3409C2.22122 16.2595 2.85182 17.0654 3.64318 17.6914C4.43454 18.3175 5.36383 18.7457 6.35389 18.9406C7.34395 19.1355 8.36622 19.0914 9.33582 18.812C10.3054 18.5325 11.1944 18.0258 11.9289 17.334C12.6634 16.6421 13.2222 15.7849 13.559 14.8338C13.8958 13.8826 14.0009 12.8648 13.8654 11.8648C13.73 10.8649 13.358 9.9117 12.7803 9.08438C12.7865 9.07501 14.8865 6.97501 14.8959 6.96876L16.8759 8.94876C16.9931 9.06593 17.1521 9.13175 17.3178 9.13175C17.4835 9.13175 17.6425 9.06593 17.7597 8.94876L18.4384 8.27001C18.5556 8.1528 18.6214 7.99386 18.6214 7.82813C18.6214 7.6624 18.5556 7.50346 18.4384 7.38626L16.4584 5.40626ZM11.6084 12.7156C11.6081 13.5113 11.3719 14.2889 10.9297 14.9503C10.4875 15.6118 9.85907 16.1272 9.12395 16.4315C8.38883 16.7359 7.57998 16.8154 6.79965 16.6601C6.01933 16.5048 5.30256 16.1217 4.73997 15.5591C4.17738 14.9965 3.79421 14.2797 3.63892 13.4994C3.48362 12.7191 3.56317 11.9102 3.8675 11.1751C4.17183 10.44 4.68728 9.81157 5.34869 9.36935C6.01011 8.92713 6.78778 8.69094 7.58341 8.69063C8.11202 8.69047 8.63549 8.79446 9.1239 8.99668C9.61231 9.1989 10.0561 9.49537 10.4299 9.86916C10.8037 10.2429 11.1001 10.6867 11.3024 11.1751C11.5046 11.6635 11.6086 12.187 11.6084 12.7156Z" fill="#FC7CB4"/>
</g>
</g>
</svg>
