<svg width="112" height="112" viewBox="0 0 112 112" fill="none" xmlns="http://www.w3.org/2000/svg">
<g id="Friends" clip-path="url(#clip0_313_13984)">
<path id="Vector" d="M29.2203 112C26.2724 112 23.8828 109.61 23.8828 106.662V63.9999C23.8828 61.052 26.2724 58.6624 29.2203 58.6624C32.1682 58.6624 34.5578 61.052 34.5578 63.9999V106.662C34.5578 109.61 32.1682 112 29.2203 112Z" fill="#55696E"/>
<path id="Vector_2" d="M16.2398 112C13.292 112 10.9023 109.61 10.9023 106.662V63.9999C10.9023 61.052 13.292 58.6624 16.2398 58.6624C19.1877 58.6624 21.5773 61.052 21.5773 63.9999V106.662C21.5773 109.61 19.1877 112 16.2398 112Z" fill="#748488"/>
<path id="Vector_3" d="M22.7301 18.4367C27.8212 18.4367 31.9484 14.3095 31.9484 9.21834C31.9484 4.12719 27.8212 0 22.7301 0C17.6389 0 13.5117 4.12719 13.5117 9.21834C13.5117 14.3095 17.6389 18.4367 22.7301 18.4367Z" fill="#BA6746"/>
<path id="Vector_4" d="M0.0839844 42.7503V64.547C0.0839844 67.0036 2.07527 68.9948 4.53183 68.9948C6.98839 68.9948 8.97967 67.0036 8.97967 64.547V42.7503L4.53183 41.1534L0.0839844 42.7503Z" fill="#BA6746"/>
<path id="Vector_5" d="M36.2396 21.5428C36.2396 21.5242 36.244 21.5084 36.2449 21.4903C35.7306 21.415 35.205 21.3748 34.6699 21.3748H10.7914C4.91639 21.3748 0.113297 26.0729 0.0839844 31.8702V42.7501H8.97967V31.8925C8.98405 31.0435 9.84745 30.2704 10.7914 30.2704H10.9018V63.9997H34.5577L34.5163 30.2704H34.6699C35.3165 30.2704 35.9244 30.6404 36.2396 31.1419V21.5428Z" fill="#FFDA52"/>
<path id="Vector_6" d="M58.3375 112C55.3896 112 53 109.61 53 106.662V63.9999C53 61.052 55.3896 58.6624 58.3375 58.6624C61.2854 58.6624 63.675 61.052 63.675 63.9999V106.662C63.675 109.61 61.2854 112 58.3375 112Z" fill="#414B82"/>
<path id="Vector_7" d="M45.357 112C42.4092 112 40.0195 109.61 40.0195 106.662V63.9999C40.0195 61.052 42.4092 58.6624 45.357 58.6624C48.3049 58.6624 50.6945 61.052 50.6945 63.9999V106.662C50.6945 109.61 48.3049 112 45.357 112Z" fill="#5F6E9B"/>
<path id="Vector_8" d="M51.8492 18.4367C56.9404 18.4367 61.0675 14.3095 61.0675 9.21834C61.0675 4.12719 56.9404 0 51.8492 0C46.7581 0 42.6309 4.12719 42.6309 9.21834C42.6309 14.3095 46.7581 18.4367 51.8492 18.4367Z" fill="#FFB69E"/>
<path id="Vector_9" d="M65.582 42.7503V64.547C65.582 67.0036 67.5733 68.9948 70.0299 68.9948C72.4864 68.9948 74.4777 67.0036 74.4777 64.547V42.7503L70.0299 41.1534L65.582 42.7503Z" fill="#FFB69E"/>
<path id="Vector_10" d="M74.4786 42.7503V31.848C74.4497 26.0732 69.6543 21.3749 63.7887 21.3749H39.9355L40.0209 30.2706V63.9999H63.6767L63.6354 30.2706H63.7889C64.7239 30.2706 65.579 31.0436 65.5831 31.8703V42.7503H74.4786Z" fill="#64AFFF"/>
<path id="Vector_11" d="M61.5685 45.0184H44.1325L43.9444 42.6679L39.3804 41.4285L35.0332 42.6679L35.605 49.814C35.7899 52.1223 37.7168 53.9012 40.0323 53.9012H61.5687C64.0217 53.9012 66.0102 51.9127 66.0102 49.4597C66.0102 47.0066 64.0215 45.0184 61.5685 45.0184Z" fill="#BA6746"/>
<path id="Vector_12" d="M34.3321 33.908L35.033 42.6678H43.9444L43.1867 33.1995C43.1036 32.1597 42.8953 31.1454 42.5737 30.1737C42.5737 30.1737 30.1223 30.2271 30.3447 30.2271C32.4154 30.2271 34.167 31.8441 34.3321 33.908Z" fill="#FFDA52"/>
<path id="Vector_13" d="M33.6869 25.9074L29.7041 22.8136L23.473 24.7358L8.68859 15.1042C6.633 13.7655 3.88156 14.3461 2.54281 16.4014C1.20384 18.4568 1.78462 21.2082 3.84 22.5472L20.369 33.3154C21.4555 34.0231 22.8209 34.2333 24.1026 33.838L32.323 31.302L33.6869 25.9074Z" fill="#FFB69E"/>
<path id="Vector_14" d="M38.6095 21.3601C35.6446 21.4354 32.7088 21.9061 29.8672 22.7667L32.3229 31.3021C34.3658 30.6719 36.4767 30.3173 38.6098 30.2431L46.8118 30.6839L39.9349 21.375L38.6095 21.3601Z" fill="#64AFFF"/>
<path id="Vector_15" d="M95.775 112C92.8271 112 90.4375 109.61 90.4375 106.662V63.9999C90.4375 61.052 92.8271 58.6624 95.775 58.6624C98.7229 58.6624 101.112 61.052 101.112 63.9999V106.662C101.112 109.61 98.7229 112 95.775 112Z" fill="#55696E"/>
<path id="Vector_16" d="M82.7965 112C79.8486 112 77.459 109.61 77.459 106.662V63.9999C77.459 61.052 79.8486 58.6624 82.7965 58.6624C85.7444 58.6624 88.134 61.052 88.134 63.9999V106.662C88.134 109.61 85.7441 112 82.7965 112Z" fill="#748488"/>
<path id="Vector_17" d="M89.2867 18.4367C94.3779 18.4367 98.505 14.3095 98.505 9.21834C98.505 4.12719 94.3779 0 89.2867 0C84.1956 0 80.0684 4.12719 80.0684 9.21834C80.0684 14.3095 84.1956 18.4367 89.2867 18.4367Z" fill="#80391B"/>
<path id="Vector_18" d="M103.02 42.7503V64.547C103.02 67.0036 105.011 68.9948 107.467 68.9948C109.924 68.9948 111.915 67.0036 111.915 64.547V42.7503L107.467 41.1534L103.02 42.7503Z" fill="#80391B"/>
<path id="Vector_19" d="M111.916 42.7503V31.848C111.887 26.0732 107.092 21.3749 101.226 21.3749H77.373L77.4584 30.2706V63.9999H101.114L101.073 30.2706H101.226C102.161 30.2706 103.016 31.0436 103.021 31.8703V42.7503H111.916Z" fill="#E64937"/>
<path id="Vector_20" d="M71.1246 25.9074L67.1418 22.8136L60.9107 24.7358L46.1261 15.104C44.0705 13.7652 41.3191 14.3458 39.9803 16.4012C38.6413 18.4566 39.2221 21.208 41.2775 22.547L57.8065 33.3152C58.893 34.0228 60.2584 34.233 61.5401 33.8377L69.7605 31.3018L71.1246 25.9074Z" fill="#80391B"/>
<path id="Vector_21" d="M76.047 21.3601C73.0821 21.4354 70.1463 21.9061 67.3047 22.7667L69.7604 31.3021C71.8033 30.6719 73.9142 30.3173 76.0473 30.2431L84.2493 30.6839L77.3724 21.375L76.047 21.3601Z" fill="#E64937"/>
</g>
<defs>
<clipPath id="clip0_313_13984">
<rect width="112" height="112" fill="white"/>
</clipPath>
</defs>
</svg>
