<svg width="36" height="36" viewBox="0 0 36 36" fill="none" xmlns="http://www.w3.org/2000/svg">
<g id="graduate-hat 1" clip-path="url(#clip0_7212_19178)">
<g id="Group">
<path id="Vector" d="M26.9645 27.8394C21.9886 31.3612 15.3034 31.3612 10.3273 27.8395C9.55492 27.2928 9.11279 26.3922 9.11279 25.4459C9.11279 22.2855 9.11279 14.8028 9.11279 12.3588C9.11279 12.0434 9.47409 11.8842 9.72164 12.0796C14.9425 16.2003 22.3254 16.2053 27.5515 12.0944C27.8069 11.8936 28.1791 12.0675 28.1791 12.3924C28.179 17.2932 28.179 20.6615 28.1791 25.4365C28.1791 26.3828 27.7369 27.2927 26.9645 27.8394Z" fill="#606060"/>
<path id="Vector_2" opacity="0.09" d="M28.1826 12.3902V25.4415C28.1826 26.3946 27.7305 27.2997 26.953 27.8509C26.625 28.0835 26.2968 28.2946 25.9543 28.4914V24.4433C25.9543 22.8515 24.2911 21.8065 22.857 22.4973L19.388 24.1682C19.1585 24.2718 18.8994 24.331 18.6477 24.331C18.396 24.331 18.1369 24.2718 17.9074 24.1682L9.11279 19.9338V12.3606C9.11279 12.0477 9.47229 11.8838 9.71782 12.0777C14.5742 15.914 21.2898 16.181 26.4133 12.901C26.4799 12.8566 26.5391 12.8196 26.6058 12.7752C26.9321 12.5601 27.2509 12.3302 27.5624 12.0854C27.8141 11.8875 28.1826 12.0701 28.1826 12.3902Z" fill="black"/>
<path id="Vector_3" d="M18.3257 22.925L1.7141 14.9274C1.1552 14.6583 1.1552 13.8625 1.7141 13.5934L18.3257 5.59574C18.5286 5.49803 18.765 5.49803 18.9679 5.59574L35.5795 13.5934C36.1384 13.8624 36.1384 14.6583 35.5795 14.9274L18.9679 22.925C18.765 23.0227 18.5286 23.0227 18.3257 22.925Z" fill="#767676"/>
<path id="Vector_4" d="M1.29485 23.4314C1.05612 23.4314 0.862793 23.238 0.862793 22.9997V14.2602C0.862793 14.0215 1.05618 13.8281 1.29485 13.8281H18.1628C18.4015 13.8281 18.5949 14.0215 18.5949 14.2602C18.5949 14.4988 18.4015 14.6922 18.1628 14.6922H1.72691V22.9997C1.72691 23.2381 1.53357 23.4314 1.29485 23.4314Z" fill="#1D1E1E"/>
<path id="Vector_5" d="M1.84241 27.9571H0.746379C0.282429 27.9571 -0.0671649 27.5353 0.0189539 27.0794L0.585954 24.0791H2.00284L2.56984 27.0794C2.65601 27.5353 2.30636 27.9571 1.84241 27.9571Z" fill="#FFD731"/>
<path id="Vector_6" opacity="0.09" d="M2.569 27.0815C2.6554 27.5351 2.3098 27.9527 1.8418 27.9527H1.021C1.4818 27.9527 1.8346 27.5351 1.7482 27.0815L1.1794 24.0791H2.0002L2.569 27.0815Z" fill="black"/>
<path id="Vector_7" d="M1.29488 24.7294C2.01001 24.7294 2.58975 24.1497 2.58975 23.4345C2.58975 22.7194 2.01001 22.1396 1.29488 22.1396C0.579735 22.1396 0 22.7194 0 23.4345C0 24.1497 0.579735 24.7294 1.29488 24.7294Z" fill="#F7BC23"/>
<path id="Vector_8" opacity="0.09" d="M2.59117 23.4313C2.59117 24.1513 2.00797 24.7274 1.29517 24.7274C1.15117 24.7274 1.01442 24.7058 0.884766 24.6554C1.39597 24.4898 1.77042 24.0074 1.77042 23.4314C1.77042 22.8626 1.39602 22.3802 0.884766 22.2146C1.01442 22.1642 1.15117 22.1426 1.29517 22.1426C2.00797 22.1425 2.59117 22.7185 2.59117 23.4313Z" fill="black"/>
<path id="Vector_9" d="M18.6475 15.2066C19.4629 15.2066 20.124 14.7832 20.124 14.261C20.124 13.7388 19.4629 13.3154 18.6475 13.3154C17.832 13.3154 17.1709 13.7388 17.1709 14.261C17.1709 14.7832 17.832 15.2066 18.6475 15.2066Z" fill="#606060"/>
<path id="Vector_10" opacity="0.09" d="M35.578 14.9281L18.966 22.9232C18.7661 23.0268 18.5292 23.0268 18.3219 22.9232L17.0782 22.3235L28.4405 16.8558C30.615 15.8095 30.6155 12.7131 28.4415 11.666L17.0783 6.19272L18.322 5.5931C18.5254 5.49506 18.7624 5.495 18.9658 5.59299L35.578 13.5956C36.1406 13.8621 36.1406 14.6616 35.578 14.9281Z" fill="black"/>
</g>
</g>
<defs>
<clipPath id="clip0_7212_19178">
<rect width="36" height="36" fill="white"/>
</clipPath>
</defs>
</svg>
