<svg width="66" height="67" viewBox="0 0 66 67" fill="none" xmlns="http://www.w3.org/2000/svg">
<g id="Icons" filter="url(#filter0_d_182_29843)">
<rect x="16" y="12.5" width="34" height="34" rx="8" fill="white"/>
<path id="Vector" d="M33.1118 25.25C34.3421 25.25 35.3487 24.2938 35.3487 23.125C35.3487 21.9562 34.3421 21 33.1118 21C31.8816 21 30.875 21.9562 30.875 23.125C30.875 24.2938 31.8816 25.25 33.1118 25.25ZM33.1118 27.375C31.8816 27.375 30.875 28.3313 30.875 29.5C30.875 30.6687 31.8816 31.625 33.1118 31.625C34.3421 31.625 35.3487 30.6687 35.3487 29.5C35.3487 28.3313 34.3421 27.375 33.1118 27.375ZM33.1118 33.75C31.8816 33.75 30.875 34.7063 30.875 35.875C30.875 37.0438 31.8816 38 33.1118 38C34.3421 38 35.3487 37.0438 35.3487 35.875C35.3487 34.7063 34.3421 33.75 33.1118 33.75Z" fill="#1A1A1B"/>
</g>
<defs>
<filter id="filter0_d_182_29843" x="0" y="0.5" width="66" height="66" filterUnits="userSpaceOnUse" color-interpolation-filters="sRGB">
<feFlood flood-opacity="0" result="BackgroundImageFix"/>
<feColorMatrix in="SourceAlpha" type="matrix" values="0 0 0 0 0 0 0 0 0 0 0 0 0 0 0 0 0 0 127 0" result="hardAlpha"/>
<feOffset dy="4"/>
<feGaussianBlur stdDeviation="8"/>
<feComposite in2="hardAlpha" operator="out"/>
<feColorMatrix type="matrix" values="0 0 0 0 0.85098 0 0 0 0 0.85098 0 0 0 0 0.85098 0 0 0 0.32 0"/>
<feBlend mode="normal" in2="BackgroundImageFix" result="effect1_dropShadow_182_29843"/>
<feBlend mode="normal" in="SourceGraphic" in2="effect1_dropShadow_182_29843" result="shape"/>
</filter>
</defs>
</svg>
