<svg width="65" height="52" viewBox="0 0 65 52" fill="none" xmlns="http://www.w3.org/2000/svg">
<g id="Asset 3 1" clip-path="url(#clip0_7827_19233)">
<g id="Layer 2">
<g id="Layer 1">
<path id="Vector" d="M58.8995 23.471C57.4587 22.2562 55.7303 21.3804 54.052 20.2889C54.1586 19.932 54.3088 19.4979 54.4193 19.0549C55.9743 12.845 54.5079 7.48637 49.5319 3.40803C44.7088 -0.545738 39.2783 -0.957937 33.6603 1.62826C32.6087 2.11237 31.8626 2.13163 30.8237 1.61927C23.7406 -1.8581 15.5506 0.60996 11.5197 7.38492C9.04654 11.5416 8.9772 15.923 10.5297 20.5522C7.28988 21.9647 4.67672 23.9345 2.76211 26.7544C-1.26357 32.6832 -0.855222 40.5381 3.76115 46.1226C8.33386 51.6546 16.0681 53.5345 22.6157 50.617C23.7406 50.1162 24.6202 50.0546 25.7836 50.5657C30.1778 52.4982 34.644 52.4751 39.0292 50.5015C40.0308 50.0507 40.7666 50.1162 41.7592 50.522C47.8112 53.017 53.5602 52.4122 58.6812 48.2517C62.3358 45.2828 64.2286 41.4806 64.3505 36.5432C64.4828 31.2129 62.9213 26.8661 58.8995 23.471ZM56.0026 46.6979C51.4324 49.9082 46.5246 50.0366 41.6552 47.3027C40.6099 46.7159 39.9615 46.6928 38.9098 47.2938C34.409 49.8697 29.8183 49.8389 25.3316 47.2321C24.4019 46.6915 23.8074 46.6633 22.861 47.2206C16.0835 51.2193 7.55056 48.7551 4.10914 41.88C0.618935 34.9085 3.62247 26.6658 10.8263 23.5531C12.0013 23.0395 13.2661 22.7557 14.6632 22.3127C14.1059 21.1878 13.5512 20.2453 13.157 19.2424C11.2372 14.3628 12.687 8.81927 16.6806 5.61028C20.8295 2.2716 26.4398 1.96855 30.8392 5.00675C31.9114 5.74768 32.5085 5.63211 33.5062 4.95539C38.0392 1.87352 44.1271 2.35763 48.1695 6.01221C52.2119 9.66678 53.2019 15.5955 50.6093 20.5226C50.3217 21.0684 50.0327 21.6141 49.6629 22.314C50.305 22.5143 50.879 22.7095 51.4607 22.8687C56.8539 24.3519 60.33 27.7881 61.4099 33.261C62.5001 38.7981 60.6331 43.4453 56.0026 46.6979Z" fill="black"/>
<path id="Vector_2" d="M41.5448 12.0707C37.365 12.0707 33.808 15.6906 33.7824 19.9667C33.7675 21.0139 33.9607 22.0537 34.3508 23.0257C34.7409 23.9977 35.3202 24.8825 36.0549 25.6289C36.7897 26.3753 37.6653 26.9684 38.631 27.3738C39.5968 27.7791 40.6334 27.9887 41.6808 27.9903C42.7281 27.9919 43.7654 27.7856 44.7323 27.3832C45.6993 26.9808 46.5768 26.3904 47.3138 25.6463C48.0509 24.9022 48.6328 24.0191 49.0259 23.0483C49.4191 22.0775 49.6155 21.0384 49.6039 19.9911C49.5846 15.5596 46.0276 12.0707 41.5448 12.0707ZM41.6732 25.6951C38.608 25.6951 36.0694 23.105 36.0912 20.0052C36.113 16.9053 38.7018 14.3757 41.7811 14.4399C44.7885 14.5015 47.3027 17.0517 47.3156 20.0399C47.3259 23.0883 44.7281 25.6925 41.6758 25.6899L41.6732 25.6951Z" fill="black"/>
<path id="Vector_3" d="M22.9753 12.0783C21.9383 12.0658 20.9091 12.259 19.9474 12.647C18.9856 13.0349 18.1103 13.6097 17.3722 14.3383C16.6342 15.0668 16.048 15.9345 15.6475 16.8911C15.2471 17.8478 15.0405 18.8743 15.0395 19.9114C15.001 24.3339 18.4064 27.851 22.7981 27.923C23.8487 27.9389 24.892 27.7468 25.868 27.3576C26.8439 26.9684 27.7332 26.3899 28.4845 25.6554C29.2358 24.9209 29.8343 24.045 30.2455 23.0781C30.6567 22.1112 30.8724 21.0725 30.8803 20.0218C30.8918 15.7316 27.2822 12.1014 22.9753 12.0783ZM22.9137 25.6616C19.8472 25.6616 17.288 23.0767 17.2983 19.9949C17.3085 16.913 19.9127 14.3615 22.974 14.3962C25.993 14.4295 28.4816 16.9413 28.4957 19.9743C28.5201 23.0754 25.9763 25.6642 22.9137 25.6616Z" fill="black"/>
<path id="Vector_4" d="M40.0809 38.3948C40.14 41.311 38.8893 43.5403 36.452 45.0722C33.6591 46.834 30.7621 46.8533 27.9602 45.1005C25.5088 43.5659 24.3352 41.2879 24.3236 38.3666C25.7567 37.9505 26.5387 38.0173 26.8019 39.6892C27.1962 42.1997 29.6 44.0077 32.1348 44.0552C34.7198 44.0976 37.0543 42.2651 37.6719 39.7059C38.0841 37.9968 38.0841 37.9968 40.0809 38.3948Z" fill="black"/>
<path id="Vector_5" d="M41.6758 17.0863C40.8913 17.0895 40.1402 17.4043 39.5877 17.9613C39.0353 18.5183 38.7268 19.272 38.73 20.0565C38.7332 20.841 39.048 21.592 39.605 22.1445C40.162 22.6969 40.9157 23.0054 41.7002 23.0022C42.0882 23.0052 42.4728 22.9303 42.8313 22.7819C43.1898 22.6335 43.5149 22.4146 43.7872 22.1382C44.0596 21.8618 44.2736 21.5335 44.4167 21.1728C44.5598 20.8121 44.629 20.4264 44.6202 20.0385C44.6223 19.6509 44.5475 19.2667 44.4004 18.9081C44.2532 18.5495 44.0365 18.2236 43.7628 17.9492C43.4891 17.6747 43.1637 17.4572 42.8055 17.3091C42.4473 17.161 42.0634 17.0853 41.6758 17.0863ZM41.7079 20.8488C41.558 20.849 41.4114 20.8048 41.2866 20.7217C41.1618 20.6386 41.0645 20.5204 41.007 20.382C40.9494 20.2435 40.9343 20.0912 40.9633 19.9441C40.9924 19.7971 41.0645 19.6619 41.1704 19.5559C41.2763 19.4498 41.4113 19.3775 41.5583 19.3482C41.7053 19.3188 41.8577 19.3337 41.9962 19.3911C42.1347 19.4484 42.2531 19.5455 42.3364 19.6701C42.4197 19.7947 42.4642 19.9412 42.4642 20.0911C42.4642 20.2918 42.3846 20.4844 42.2427 20.6264C42.1009 20.7684 41.9086 20.8484 41.7079 20.8488Z" fill="black"/>
<path id="Vector_6" d="M22.9149 17.0516C22.5279 17.0523 22.1448 17.1293 21.7876 17.2781C21.4304 17.4269 21.106 17.6447 20.833 17.919C20.56 18.1933 20.3437 18.5188 20.1966 18.8767C20.0495 19.2347 19.9744 19.6181 19.9756 20.0051C19.9666 20.3958 20.0357 20.7843 20.1788 21.148C20.3219 21.5117 20.5361 21.8431 20.809 22.1229C21.0818 22.4027 21.4078 22.6252 21.7677 22.7774C22.1276 22.9296 22.5143 23.0085 22.9051 23.0093C23.2959 23.0102 23.683 22.933 24.0436 22.7824C24.4042 22.6318 24.7311 22.4107 25.0051 22.1321C25.2792 21.8535 25.4949 21.523 25.6396 21.1599C25.7843 20.7969 25.8551 20.4087 25.8478 20.0179C25.8468 19.2373 25.5386 18.4884 24.9897 17.9333C24.4408 17.3781 23.6955 17.0614 22.9149 17.0516ZM22.9804 20.8487C22.8305 20.8487 22.6841 20.8043 22.5595 20.7211C22.4349 20.6378 22.3378 20.5195 22.2804 20.3811C22.2231 20.2426 22.2081 20.0903 22.2373 19.9433C22.2666 19.7964 22.3387 19.6614 22.4447 19.5554C22.5506 19.4494 22.6856 19.3773 22.8326 19.3481C22.9795 19.3188 23.1319 19.3338 23.2703 19.3912C23.4088 19.4485 23.5271 19.5456 23.6103 19.6702C23.6936 19.7948 23.738 19.9413 23.738 20.0911C23.738 20.2912 23.6589 20.4831 23.5179 20.625C23.377 20.767 23.1856 20.8474 22.9855 20.8487H22.9804Z" fill="black"/>
</g>
</g>
</g>
<defs>
<clipPath id="clip0_7827_19233">
<rect width="64.3583" height="52" fill="white"/>
</clipPath>
</defs>
</svg>
