<svg width="187" height="51" viewBox="0 0 187 51" fill="none" xmlns="http://www.w3.org/2000/svg">
<g clip-path="url(#clip0_1_1573)">
<path d="M27.4628 48.9075C40.4408 48.9075 50.9617 38.3497 50.9617 25.326C50.9617 12.3023 40.4408 1.74451 27.4628 1.74451C14.4847 1.74451 3.96387 12.3023 3.96387 25.326C3.96387 38.3497 14.4847 48.9075 27.4628 48.9075Z" fill="#ECEDF8"/>
<path d="M27.463 1.74451C26.9637 1.74451 26.4679 1.76024 25.9763 1.79102C38.2618 2.56074 47.9886 12.8034 47.9886 25.3259C47.9886 37.8485 38.2618 48.0913 25.9763 48.8609C26.4679 48.8917 26.9637 48.9074 27.463 48.9074C40.441 48.9074 50.9619 38.3496 50.9619 25.3259C50.9619 12.3022 40.441 1.74451 27.463 1.74451Z" fill="#B1B3E2"/>
<path d="M14.7508 4.93352C14.3483 4.85127 13.9558 5.11009 13.8734 5.51162C13.8358 5.69512 13.8695 5.87654 13.9556 6.02748C14.4291 5.69314 14.9155 5.37593 15.4138 5.07663C15.1936 5.02705 14.9727 4.97895 14.7508 4.93352Z" fill="#3498AC"/>
<path d="M3.83134 22.2504C3.87673 22.4224 3.97901 22.5644 4.11261 22.6615C4.16147 22.2254 4.22233 21.793 4.29458 21.3645C3.93798 21.4945 3.73272 21.8766 3.83134 22.2504Z" fill="#3498AC"/>
<path d="M13.5208 44.674C13.521 44.7419 13.5303 44.8109 13.5503 44.8794C13.5564 44.9004 13.5635 44.921 13.5713 44.9411C13.5714 44.9418 13.5716 44.9426 13.5717 44.9433C13.6408 45.2978 13.9519 45.544 14.3005 45.544C14.3476 45.544 14.3954 45.5395 14.4434 45.5301C14.6239 45.4951 14.7762 45.3974 14.8824 45.2641C14.8887 45.2622 14.8949 45.2602 14.9011 45.2583C14.4029 44.9414 13.9172 44.6064 13.4453 44.2538C13.4696 44.394 13.4947 44.5339 13.5208 44.674Z" fill="#3498AC"/>
<path d="M40.4827 45.5301C40.5307 45.5394 40.5784 45.5439 40.6255 45.5439C40.9741 45.5439 41.2853 45.2978 41.3544 44.9433C41.3992 44.7134 41.4414 44.4834 41.4814 44.2534C41.0122 44.6039 40.5296 44.937 40.0344 45.2524C40.141 45.3915 40.297 45.494 40.4827 45.5301Z" fill="#3498AC"/>
<path d="M41.0521 5.51163C40.9696 5.10999 40.5769 4.85127 40.1747 4.93352C39.9529 4.97895 39.7319 5.02705 39.5117 5.07664C40.01 5.37593 40.4964 5.69315 40.9699 6.02748C41.056 5.87654 41.0897 5.69512 41.0521 5.51163Z" fill="#3498AC"/>
<path d="M46.7854 11.2344C46.8779 10.8349 46.6286 10.4362 46.2287 10.3439C46.0339 10.2991 45.8395 10.3352 45.6804 10.4299C46.0238 10.8523 46.353 11.2867 46.667 11.7327C46.7073 11.567 46.7468 11.4008 46.7854 11.2344Z" fill="#3498AC"/>
<path d="M27.4632 13.3688C28.7112 13.3688 29.723 12.3534 29.723 11.101C29.723 9.84851 28.7112 8.83319 27.4632 8.83319C26.2151 8.83319 25.2034 9.84851 25.2034 11.101C25.2034 12.3534 26.2151 13.3688 27.4632 13.3688Z" fill="#FF815C"/>
<path d="M18.669 23.3328C19.917 23.3328 20.9288 22.3174 20.9288 21.065C20.9288 19.8125 19.917 18.7972 18.669 18.7972C17.4209 18.7972 16.4092 19.8125 16.4092 21.065C16.4092 22.3174 17.4209 23.3328 18.669 23.3328Z" fill="#FF43CA"/>
<path d="M39.221 29.1214C40.469 29.1214 41.4808 28.1061 41.4808 26.8536C41.4808 25.6011 40.469 24.5858 39.221 24.5858C37.9729 24.5858 36.9612 25.6011 36.9612 26.8536C36.9612 28.1061 37.9729 29.1214 39.221 29.1214Z" fill="#4146B8"/>
<path d="M14.2644 46.9404C13.0183 46.9404 12.0046 45.9231 12.0046 44.6726C12.0046 43.422 13.0183 42.4048 14.2644 42.4048C15.5106 42.4048 16.5244 43.422 16.5244 44.6726C16.5244 45.9231 15.5106 46.9404 14.2644 46.9404Z" fill="#5C63FF"/>
<path d="M40.7925 47.0693C39.5464 47.0693 38.5327 46.052 38.5327 44.8015C38.5327 43.5511 39.5464 42.5338 40.7925 42.5338C42.0386 42.5338 43.0524 43.551 43.0524 44.8015C43.0524 46.052 42.0386 47.0693 40.7925 47.0693Z" fill="#FF815C"/>
<path d="M46.0614 13.2539C44.8153 13.2539 43.8015 12.2366 43.8015 10.9861C43.8015 9.73558 44.8153 8.71832 46.0614 8.71832C47.3075 8.71832 48.3212 9.73568 48.3212 10.9861C48.3212 12.2365 47.3075 13.2539 46.0614 13.2539Z" fill="#FFD249"/>
<path d="M40.3243 7.92852C39.0782 7.92852 38.0645 6.91127 38.0645 5.66073C38.0645 4.4102 39.0782 3.39294 40.3243 3.39294C41.5704 3.39294 42.5842 4.4102 42.5842 5.66073C42.5842 6.91127 41.5703 7.92852 40.3243 7.92852Z" fill="#FFD249"/>
<path d="M14.2644 7.92852C13.0183 7.92852 12.0046 6.91127 12.0046 5.66073C12.0046 4.4102 13.0183 3.39294 14.2644 3.39294C15.5106 3.39294 16.5244 4.4102 16.5244 5.66073C16.5244 6.91127 15.5106 7.92852 14.2644 7.92852Z" fill="#FF815C"/>
<path d="M3.96415 24.5012C5.21221 24.5012 6.22396 23.4858 6.22396 22.2334C6.22396 20.9809 5.21221 19.9656 3.96415 19.9656C2.7161 19.9656 1.70435 20.9809 1.70435 22.2334C1.70435 23.4858 2.7161 24.5012 3.96415 24.5012Z" fill="#DEA580"/>
<path d="M49.7318 34.9493C49.7467 34.9191 49.7599 34.8882 49.7704 34.8566C52.7755 27.9303 52.2385 19.4389 48.3355 12.9488C50.4192 10.4613 47.7126 6.89901 44.7527 8.27732C44.2326 7.74653 43.6865 7.2378 43.1206 6.75679C44.2314 3.74125 40.5241 1.2675 38.2152 3.52054C31.5044 0.136524 23.1577 0.179379 16.4839 3.63505C14.1098 1.1226 10.1227 3.81647 11.5601 6.96879C10.7369 7.68764 9.95769 8.46419 9.23924 9.28537C8.61891 9.99442 9.74272 10.9662 10.3588 10.2621C11.0272 9.49827 11.7514 8.77566 12.5163 8.106C13.9955 9.17146 16.1404 8.62868 16.9519 7.00234C19.6299 7.77216 22.1874 8.87701 24.5705 10.295C24.371 11.0135 24.4524 11.8158 24.7948 12.4791C22.8334 14.171 21.067 16.085 19.5332 18.1825C18.1172 17.7553 16.5564 18.4704 15.9407 19.8096C12.818 19.8263 9.68563 20.1617 6.61025 20.8109C6.33869 20.3055 5.92698 19.8868 5.42787 19.6063C6.00568 17.3561 6.92086 15.2156 8.15359 13.2364C8.64478 12.4476 7.40491 11.6276 6.89123 12.4522C5.5806 14.5564 4.60714 16.8319 3.99147 19.2239C0.430442 19.2843 -0.16739 24.2039 3.22267 25.1503C3.17272 32.1519 6.2041 38.9591 11.4607 43.5963C10.3641 46.5543 13.9241 48.9942 16.2734 46.9078C23.1296 50.5486 31.7947 50.5491 38.6513 46.909C41.0408 49.2689 44.8678 46.6325 43.5219 43.5474C46.2311 41.143 48.3357 38.2022 49.7318 34.9493ZM48.7952 33.2891C46.7376 31.2477 44.4858 29.3958 42.0817 27.7701C42.4232 26.7021 42.1264 25.5005 41.3291 24.712C43.3507 21.3553 44.9378 17.7561 46.055 13.9961C46.4272 13.9974 46.7851 13.9288 47.1148 13.8047C50.538 19.5782 51.1641 27.022 48.7952 33.2891ZM14.5898 41.6805C13.9642 35.5615 15.062 29.4568 17.7789 23.9401C19.4667 24.4661 21.291 23.3577 21.6188 21.6275C26.7443 22.2585 31.6806 23.7612 36.3132 26.1014C36.0904 26.9663 36.2749 27.9199 36.8056 28.6393C31.5838 35.2457 24.691 40.2169 16.8022 43.0661C16.3242 42.3102 15.5203 41.7814 14.5898 41.6805ZM37.7049 26.8536C37.7049 26.0125 38.3852 25.3282 39.2214 25.3282C41.2332 25.4118 41.2326 28.2958 39.2214 28.3791C38.3852 28.3791 37.7049 27.6948 37.7049 26.8536ZM47.578 10.9861C47.578 11.8273 46.8977 12.5116 46.0615 12.5116C44.0497 12.428 44.0502 9.54399 46.0615 9.46066C46.8977 9.46066 47.578 10.145 47.578 10.9861ZM43.6168 9.24103C42.5895 10.6826 43.0663 12.7665 44.6152 13.6233C43.533 17.2501 41.9988 20.7219 40.047 23.9602C39.639 23.843 39.186 23.8139 38.7665 23.8781C36.7264 19.5277 33.758 15.6092 30.1317 12.4793C30.4744 11.8156 30.556 11.0146 30.3562 10.2952C32.6515 8.92956 35.1101 7.85332 37.6811 7.08825C38.5357 8.73577 40.828 9.20095 42.2511 7.96764C42.7228 8.37283 43.1794 8.79852 43.6168 9.24103ZM25.9468 11.1011C25.9468 10.2599 26.6271 9.57557 27.4633 9.57557C29.4751 9.6592 29.4745 12.5431 27.4633 12.6264C26.6271 12.6264 25.9468 11.9421 25.9468 11.1011ZM40.3245 4.13537C41.1608 4.13537 41.8411 4.81967 41.8411 5.66085C41.7576 7.68457 38.8912 7.68407 38.808 5.66085C38.808 4.81967 39.4883 4.13537 40.3245 4.13537ZM14.2645 7.18624C13.4283 7.18624 12.748 6.50193 12.748 5.66075C12.8315 3.63693 15.6979 3.63763 15.7811 5.66075C15.7811 6.50193 15.1007 7.18624 14.2645 7.18624ZM17.2649 5.54693C17.2571 5.34087 17.2288 5.14025 17.1816 4.94665C23.404 1.73327 31.1775 1.67725 37.4479 4.7972C37.3674 5.06631 37.3233 5.35086 37.3218 5.64551C34.6175 6.44443 32.0316 7.57293 29.6175 9.00676C28.4571 7.80809 26.47 7.80769 25.3092 9.00666C22.7935 7.51236 20.0931 6.3508 17.2649 5.54693ZM25.7789 13.5917C26.7841 14.2768 28.1422 14.2769 29.1475 13.5918C32.6096 16.577 35.4457 20.3137 37.3993 24.4632C37.2669 24.5649 37.1432 24.6774 37.0294 24.7992C32.1454 22.3254 26.9334 20.7525 21.5196 20.1196C21.3734 19.6778 21.128 19.2811 20.8094 18.9564C22.2624 16.9853 23.9298 15.1851 25.7789 13.5917ZM18.669 19.5396C19.5052 19.5396 20.1854 20.2239 20.1854 21.065C20.102 23.0889 17.2355 23.0883 17.1524 21.065C17.1525 20.2239 17.8328 19.5396 18.669 19.5396ZM2.44783 22.2334C2.44783 21.3923 3.12812 20.708 3.96431 20.708C5.97604 20.7916 5.97545 23.6755 3.96431 23.7588C3.12822 23.7589 2.44783 23.0746 2.44783 22.2334ZM4.70922 25.1497C4.70922 25.1497 6.96705 24.658 6.96705 22.253C6.96705 22.253 12.7606 21.3282 15.6755 21.2958C15.7303 22.0149 16.0378 22.6639 16.5095 23.1536C13.6127 28.9734 12.4443 35.4257 13.1168 41.8914C12.8272 42.012 12.5606 42.1768 12.3249 42.3771C7.47538 38.0387 4.70922 30.7696 4.70922 25.1497ZM14.2645 46.198C13.4283 46.198 12.748 45.5137 12.748 44.6725C12.748 43.8313 13.4283 43.147 14.2645 43.147C15.0895 43.147 15.7811 43.8606 15.7811 44.6725C15.7811 45.5137 15.1007 46.198 14.2645 46.198ZM27.4633 48.1653C23.8556 48.1653 20.288 47.3024 17.0995 45.6643C17.2289 45.2939 17.286 44.8718 17.2608 44.4787C25.4213 41.5413 32.5524 36.4078 37.9545 29.5819C38.3983 29.7897 38.8908 29.8851 39.3801 29.8595C39.7103 31.0835 40.3181 36.5603 40.503 37.809C40.6446 38.7649 42.1157 38.5513 41.9737 37.5918C41.7774 36.266 41.1526 30.7118 40.7996 29.4131C40.9773 29.3026 41.1425 29.1739 41.2929 29.0299C43.7734 30.7115 46.0861 32.642 48.1812 34.7786C46.8818 37.6469 44.9907 40.2441 42.588 42.3902C42.3504 42.212 42.0855 42.0687 41.8012 41.9668C41.9472 40.5868 42.0109 39.1934 41.9895 37.8153C41.9744 36.8455 40.4878 36.8683 40.503 37.8383C40.5236 39.1629 40.4622 40.5023 40.321 41.8289C38.5679 42.1073 37.4213 43.9227 37.9043 45.624C34.6958 47.2882 31.1005 48.1653 27.4633 48.1653ZM40.7926 46.327C39.9564 46.327 39.2761 45.6427 39.2761 44.8016C39.3596 42.7777 42.226 42.7784 42.3092 44.8016C42.3092 45.6427 41.6289 46.327 40.7926 46.327Z" fill="black"/>
<path d="M40.9138 48.7684C43.0392 48.7684 44.7622 47.0376 44.7622 44.9025C44.7622 42.7675 43.0392 41.0367 40.9138 41.0367C38.7884 41.0367 37.0654 42.7675 37.0654 44.9025C37.0654 47.0376 38.7884 48.7684 40.9138 48.7684Z" fill="#FFEAC6"/>
<path d="M42.1032 41.2269C42.9613 41.9358 43.5086 43.0104 43.5086 44.2136C43.5086 46.3486 41.7857 48.0795 39.6602 48.0795C39.2449 48.0795 38.8457 48.0115 38.4709 47.8892C39.1356 48.4383 39.9863 48.7683 40.914 48.7683C43.0394 48.7683 44.7624 47.0374 44.7624 44.9024C44.7624 43.1846 43.6462 41.7304 42.1032 41.2269Z" fill="#FCDBB2"/>
<path d="M40.914 44.9024C41.4453 44.9024 41.8761 44.4697 41.8761 43.9359C41.8761 43.4022 41.4453 42.9695 40.914 42.9695C40.3826 42.9695 39.9519 43.4022 39.9519 43.9359C39.9519 44.4697 40.3826 44.9024 40.914 44.9024Z" fill="#E29A6C"/>
<path d="M40.914 48.7683C41.7661 48.7683 42.5508 48.4867 43.1884 48.0159C42.8722 47.0523 41.9792 46.3521 40.914 46.3521C39.8489 46.3521 38.9559 47.0523 38.6396 48.0159C39.2773 48.4868 40.062 48.7683 40.914 48.7683Z" fill="#F2D1FF"/>
<path d="M36.2991 44.8669C36.2991 47.2479 38.2274 49.1849 40.5975 49.1849C42.9677 49.1849 44.896 47.2479 44.896 44.8669C44.896 42.486 42.9677 40.549 40.5975 40.549C38.2274 40.549 36.2991 42.486 36.2991 44.8669ZM38.8826 47.8123C39.2173 47.1771 39.8708 46.7687 40.5975 46.7687C41.3242 46.7687 41.9777 47.1771 42.3124 47.8123C41.8086 48.1094 41.2227 48.2807 40.5975 48.2807C39.9722 48.2807 39.3864 48.1094 38.8826 47.8123ZM43.9958 44.8669C43.9958 45.7926 43.6266 46.6328 43.0291 47.2483C42.5208 46.4012 41.6075 45.8645 40.5975 45.8645C39.5874 45.8645 38.6742 46.4011 38.1659 47.2483C37.5683 46.6328 37.1992 45.7925 37.1992 44.8669C37.1992 42.9846 38.7237 41.4532 40.5975 41.4532C42.4713 41.4532 43.9958 42.9846 43.9958 44.8669Z" fill="black"/>
<path d="M39.1855 43.9004C39.1855 44.6826 39.8191 45.3189 40.5977 45.3189C41.3763 45.3189 42.0099 44.6825 42.0099 43.9004C42.0099 43.1182 41.3763 42.4818 40.5977 42.4818C39.8191 42.4818 39.1855 43.1182 39.1855 43.9004ZM41.1098 43.9004C41.1098 44.184 40.8801 44.4147 40.5978 44.4147C40.3155 44.4147 40.0858 44.184 40.0858 43.9004C40.0858 43.6167 40.3155 43.386 40.5978 43.386C40.8801 43.386 41.1098 43.6167 41.1098 43.9004Z" fill="black"/>
<path d="M13.7417 8.49812C15.8671 8.49812 17.5901 6.76732 17.5901 4.63227C17.5901 2.49722 15.8671 0.766418 13.7417 0.766418C11.6163 0.766418 9.89331 2.49722 9.89331 4.63227C9.89331 6.76732 11.6163 8.49812 13.7417 8.49812Z" fill="#FFEAC6"/>
<path d="M14.9311 0.956604C15.7892 1.66559 16.3365 2.74018 16.3365 3.94336C16.3365 6.07838 14.6136 7.80921 12.4881 7.80921C12.0728 7.80921 11.6736 7.74121 11.2988 7.61889C11.9634 8.16807 12.8142 8.49799 13.7419 8.49799C15.8673 8.49799 17.5903 6.76716 17.5903 4.63214C17.5902 2.91433 16.4741 1.46014 14.9311 0.956604Z" fill="#FCDBB2"/>
<path d="M13.7419 4.63211C14.2732 4.63211 14.704 4.19942 14.704 3.66567C14.704 3.13191 14.2732 2.69922 13.7419 2.69922C13.2105 2.69922 12.7798 3.13191 12.7798 3.66567C12.7798 4.19942 13.2105 4.63211 13.7419 4.63211Z" fill="#E29A6C"/>
<path d="M13.7419 8.49803C14.5939 8.49803 15.3787 8.21645 16.0162 7.74564C15.7001 6.78203 14.807 6.08185 13.7419 6.08185C12.6768 6.08185 11.7838 6.78203 11.4675 7.74564C12.1052 8.21651 12.8899 8.49803 13.7419 8.49803Z" fill="#F2D1FF"/>
<path d="M9.12695 4.59665C9.12695 6.97763 11.0553 8.91462 13.4254 8.91462C15.7956 8.91462 17.7239 6.97763 17.7239 4.59665C17.7239 2.21574 15.7956 0.278687 13.4254 0.278687C11.0553 0.278687 9.12695 2.21574 9.12695 4.59665ZM11.7105 7.54199C12.0451 6.90686 12.6986 6.49844 13.4254 6.49844C14.1521 6.49844 14.8056 6.9068 15.1403 7.54199C14.6365 7.83913 14.0506 8.01039 13.4254 8.01039C12.8001 8.01039 12.2142 7.83913 11.7105 7.54199ZM16.8237 4.59665C16.8237 5.52229 16.4545 6.36251 15.857 6.97799C15.3486 6.1309 14.4354 5.59421 13.4254 5.59421C12.4153 5.59421 11.502 6.13084 10.9938 6.97799C10.3962 6.36251 10.027 5.52223 10.027 4.59665C10.027 2.71434 11.5515 1.18292 13.4254 1.18292C15.2992 1.18292 16.8237 2.71434 16.8237 4.59665Z" fill="black"/>
<path d="M12.0134 3.63011C12.0134 4.41234 12.647 5.04868 13.4256 5.04868C14.2042 5.04868 14.8378 4.41228 14.8378 3.63011C14.8378 2.84795 14.2042 2.21155 13.4256 2.21155C12.647 2.21155 12.0134 2.84789 12.0134 3.63011ZM13.9377 3.63011C13.9377 3.91374 13.7079 4.14444 13.4256 4.14444C13.1434 4.14444 12.9136 3.91374 12.9136 3.63011C12.9136 3.34648 13.1434 3.11578 13.4256 3.11578C13.7079 3.11578 13.9377 3.34648 13.9377 3.63011Z" fill="black"/>
<path d="M40.3565 8.63746C42.4819 8.63746 44.2049 6.90666 44.2049 4.77161C44.2049 2.63656 42.4819 0.905762 40.3565 0.905762C38.231 0.905762 36.5081 2.63656 36.5081 4.77161C36.5081 6.90666 38.231 8.63746 40.3565 8.63746Z" fill="#FFEAC6"/>
<path d="M41.5459 1.09595C42.4039 1.80493 42.9513 2.87952 42.9513 4.0827C42.9513 6.21772 41.2283 7.94855 39.1029 7.94855C38.6875 7.94855 38.2883 7.88055 37.9136 7.75824C38.5782 8.30741 39.429 8.63734 40.3567 8.63734C42.482 8.63734 44.2051 6.90651 44.2051 4.77149C44.205 3.05368 43.0888 1.59949 41.5459 1.09595Z" fill="#FCDBB2"/>
<path d="M40.3566 4.77146C40.888 4.77146 41.3187 4.33876 41.3187 3.80501C41.3187 3.27125 40.888 2.83856 40.3566 2.83856C39.8253 2.83856 39.3945 3.27125 39.3945 3.80501C39.3945 4.33876 39.8253 4.77146 40.3566 4.77146Z" fill="#E29A6C"/>
<path d="M40.3567 8.63737C41.2087 8.63737 41.9934 8.35579 42.631 7.88499C42.3148 6.92137 41.4218 6.22119 40.3567 6.22119C39.2915 6.22119 38.3985 6.92137 38.0823 7.88499C38.7199 8.35585 39.5046 8.63737 40.3567 8.63737Z" fill="#F2D1FF"/>
<path d="M35.7417 4.736C35.7417 7.11697 37.67 9.05397 40.0402 9.05397C42.4103 9.05397 44.3386 7.11697 44.3386 4.736C44.3386 2.35508 42.4103 0.41803 40.0402 0.41803C37.67 0.41803 35.7417 2.35508 35.7417 4.736ZM38.3252 7.68134C38.6599 7.0462 39.3134 6.63779 40.0401 6.63779C40.7668 6.63779 41.4203 7.04614 41.755 7.68134C41.2512 7.97847 40.6654 8.14973 40.0401 8.14973C39.4149 8.14973 38.829 7.97847 38.3252 7.68134ZM43.4384 4.736C43.4384 5.66163 43.0693 6.50185 42.4717 7.11733C41.9634 6.27025 41.0501 5.73355 40.0401 5.73355C39.03 5.73355 38.1168 6.27018 37.6085 7.11733C37.011 6.50185 36.6418 5.66157 36.6418 4.736C36.6418 2.85368 38.1663 1.32227 40.0401 1.32227C41.9139 1.32227 43.4384 2.85368 43.4384 4.736Z" fill="black"/>
<path d="M38.6282 3.76946C38.6282 4.55168 39.2617 5.18802 40.0403 5.18802C40.819 5.18802 41.4525 4.55162 41.4525 3.76946C41.4525 2.98729 40.819 2.35089 40.0403 2.35089C39.2617 2.35089 38.6282 2.98723 38.6282 3.76946ZM40.5524 3.76946C40.5524 4.05308 40.3227 4.28379 40.0404 4.28379C39.7581 4.28379 39.5284 4.05308 39.5284 3.76946C39.5284 3.48583 39.7581 3.25513 40.0404 3.25513C40.3227 3.25513 40.5524 3.48583 40.5524 3.76946Z" fill="black"/>
</g>
<path d="M157.007 30.8162V0.349121H169.847C173.097 0.349121 175.955 0.987479 178.421 2.2642C180.916 3.54091 182.846 5.32541 184.21 7.61769C185.603 9.90998 186.299 12.565 186.299 15.5827C186.299 18.6003 185.603 21.2553 184.21 23.5476C182.846 25.8399 180.916 27.6244 178.421 28.9011C175.955 30.1778 173.097 30.8162 169.847 30.8162H157.007ZM161.36 27.0296H169.586C172.11 27.0296 174.286 26.5508 176.114 25.5933C177.971 24.6357 179.408 23.301 180.423 21.589C181.439 19.848 181.947 17.8459 181.947 15.5827C181.947 13.2904 181.439 11.2883 180.423 9.57629C179.408 7.86433 177.971 6.52958 176.114 5.57205C174.286 4.61451 172.11 4.13574 169.586 4.13574H161.36V27.0296Z" fill="#1E1704"/>
<path d="M131.81 13.4935H147.479V17.1931H131.81V13.4935ZM132.202 27.0296H149.96V30.8162H127.849V0.349121H149.35V4.13574H132.202V27.0296Z" fill="#1E1704"/>
<path d="M105.05 31.1635C102.728 31.1635 100.567 30.7717 98.5644 29.9883C96.5913 29.2049 94.8793 28.1168 93.4285 26.724C91.9777 25.3022 90.8461 23.6482 90.0336 21.7622C89.2212 19.8761 88.8149 17.816 88.8149 15.5817C88.8149 13.3475 89.2212 11.2873 90.0336 9.40127C90.8461 7.51521 91.9777 5.87579 93.4285 4.48301C94.8793 3.06121 96.5913 1.9586 98.5644 1.17516C100.538 0.391719 102.699 0 105.05 0C107.371 0 109.504 0.391719 111.448 1.17516C113.421 1.92958 115.133 3.01769 116.584 4.43949C118.063 5.83227 119.195 7.47168 119.978 9.35774C120.791 11.2438 121.197 13.3185 121.197 15.5817C121.197 17.845 120.791 19.9197 119.978 21.8057C119.195 23.6918 118.063 25.3457 116.584 26.7675C115.133 28.1603 113.421 29.2484 111.448 30.0318C109.504 30.7862 107.371 31.1635 105.05 31.1635ZM115.017 37.1698C114.001 37.1698 113.029 37.0393 112.1 36.7781C111.172 36.546 110.243 36.1543 109.315 35.6029C108.386 35.0807 107.429 34.3843 106.442 33.5138C105.456 32.6723 104.382 31.6277 103.222 30.38L107.879 29.1613C108.749 30.2349 109.576 31.1054 110.36 31.7728C111.172 32.4692 111.97 32.9625 112.753 33.2526C113.537 33.5718 114.306 33.7314 115.06 33.7314C117.236 33.7314 119.093 32.8609 120.631 31.1199L122.677 33.6008C120.704 35.9802 118.15 37.1698 115.017 37.1698ZM105.05 27.2898C106.732 27.2898 108.285 26.9996 109.707 26.4193C111.157 25.839 112.405 25.012 113.45 23.9384C114.523 22.8648 115.35 21.6171 115.931 20.1953C116.54 18.7735 116.845 17.2357 116.845 15.5817C116.845 13.8988 116.54 12.3464 115.931 10.9246C115.35 9.50282 114.523 8.26963 113.45 7.22504C112.405 6.15144 111.157 5.32448 109.707 4.74416C108.285 4.16383 106.732 3.87367 105.05 3.87367C103.338 3.87367 101.756 4.16383 100.305 4.74416C98.8836 5.32448 97.6359 6.15144 96.5623 7.22504C95.4887 8.26963 94.6472 9.50282 94.0379 10.9246C93.4575 12.3464 93.1674 13.8988 93.1674 15.5817C93.1674 17.2357 93.4575 18.7735 94.0379 20.1953C94.6472 21.6171 95.4887 22.8648 96.5623 23.9384C97.6359 25.012 98.8836 25.839 100.305 26.4193C101.756 26.9996 103.338 27.2898 105.05 27.2898Z" fill="#1E1704"/>
<path d="M74.104 31.1635C71.7827 31.1635 69.6355 30.7863 67.6624 30.0318C65.7183 29.2484 64.0209 28.1603 62.5701 26.7675C61.1483 25.3457 60.0311 23.6918 59.2187 21.8057C58.4062 19.9197 58 17.845 58 15.5817C58 13.3185 58.4062 11.2438 59.2187 9.35774C60.0311 7.47168 61.1628 5.83227 62.6136 4.43949C64.0644 3.01769 65.7619 1.92958 67.7059 1.17516C69.679 0.391719 71.8262 0 74.1476 0C76.4979 0 78.6596 0.406227 80.6327 1.21868C82.6348 2.00212 84.3323 3.17728 85.725 4.74416L82.896 7.48619C81.7353 6.26751 80.4296 5.36801 78.9788 4.78768C77.5279 4.17834 75.9756 3.87367 74.3216 3.87367C72.6097 3.87367 71.0138 4.16383 69.534 4.74416C68.0832 5.32448 66.8209 6.13694 65.7473 7.18152C64.6737 8.22611 63.8323 9.47381 63.2229 10.9246C62.6426 12.3464 62.3524 13.8988 62.3524 15.5817C62.3524 17.2647 62.6426 18.8316 63.2229 20.2824C63.8323 21.7042 64.6737 22.9374 65.7473 23.9819C66.8209 25.0265 68.0832 25.839 69.534 26.4193C71.0138 26.9996 72.6097 27.2898 74.3216 27.2898C75.9756 27.2898 77.5279 26.9996 78.9788 26.4193C80.4296 25.81 81.7353 24.8814 82.896 23.6337L85.725 26.3758C84.3323 27.9427 82.6348 29.1323 80.6327 29.9448C78.6596 30.7572 76.4834 31.1635 74.104 31.1635Z" fill="#1E1704"/>
<path d="M186 43.1073V48.4141L182.742 44.4447V48.3069H182.202V43L185.466 46.9336V43.1073H186Z" fill="black"/>
<path d="M178.525 48.4141C177.024 48.4141 175.818 47.2006 175.818 45.6999C175.818 44.2135 177.024 43 178.525 43C180.025 43 181.232 44.2135 181.232 45.6999C181.232 47.2006 180.025 48.4141 178.525 48.4141ZM178.525 47.8971C179.724 47.8971 180.672 46.9134 180.672 45.6999C180.672 44.5007 179.731 43.5098 178.525 43.5098C177.318 43.5098 176.371 44.5007 176.371 45.6999C176.371 46.9062 177.318 47.8971 178.525 47.8971Z" fill="black"/>
<path d="M174.363 48.3339V43.0814H174.929V48.3339H174.363Z" fill="black"/>
<path d="M173.636 43.0814V43.5872H172.092V48.3339H171.544V43.5872H170V43.0814H173.636Z" fill="black"/>
<path d="M169.81 48.3333L169.304 47.018H167.14L166.626 48.3333H166.04L168.233 43L170.404 48.3333H169.81ZM167.328 46.5436H169.123L168.233 44.2507L167.328 46.5436Z" fill="black"/>
<path d="M163.85 48.4141C162.368 48.4141 161.192 47.215 161.192 45.7071C161.192 44.1992 162.368 43 163.857 43C164.52 43 165.133 43.2226 165.717 43.6893L165.389 44.0914C164.926 43.7181 164.377 43.5098 163.857 43.5098C162.674 43.5098 161.74 44.4864 161.74 45.7071C161.74 46.9349 162.674 47.8971 163.864 47.8971C164.406 47.8971 164.94 47.6961 165.389 47.3299L165.717 47.7248C165.133 48.2059 164.548 48.4141 163.85 48.4141Z" fill="black"/>
<path d="M158.484 48.4147C157.528 48.4147 156.828 47.7445 156.828 46.822V43.0814H157.373V46.7643C157.373 47.3769 157.854 47.8598 158.484 47.8598C159.114 47.8598 159.596 47.3769 159.596 46.7643V43.0814H160.141V46.822C160.141 47.7445 159.44 48.4147 158.484 48.4147Z" fill="black"/>
<path d="M153.357 43.0814C154.773 43.0814 155.777 44.2519 155.777 45.7041C155.777 47.1563 154.773 48.3339 153.357 48.3339H151.914H151.737V43.0814H152.282H153.357ZM153.258 47.8282C154.426 47.8282 155.233 46.8528 155.233 45.7041C155.233 44.6854 154.56 43.5872 153.258 43.5872H152.282V47.8282H153.258Z" fill="black"/>
<path d="M150.525 43.5799H148.087V45.3645H150.21V45.8702H148.087V47.8282H150.525V48.3339H147.736H147.535V43.0814H148.087H150.525V43.5799Z" fill="black"/>
<path d="M144.141 43.5799H141.703V45.3645H143.826V45.8702H141.703V47.8282H144.141V48.3339H141.352H141.151V43.0814H141.703H144.141V43.5799Z" fill="black"/>
<path d="M138.395 48.4141C136.913 48.4141 135.737 47.215 135.737 45.7071C135.737 44.1992 136.913 43 138.402 43C139.065 43 139.678 43.2226 140.262 43.6893L139.934 44.0914C139.471 43.7181 138.922 43.5098 138.402 43.5098C137.219 43.5098 136.286 44.4864 136.286 45.7071C136.286 46.9349 137.219 47.8971 138.409 47.8971C138.951 47.8971 139.485 47.6961 139.934 47.3299L140.262 47.7248C139.678 48.2059 139.093 48.4141 138.395 48.4141Z" fill="black"/>
<path d="M134.606 43.1073V48.4141L131.348 44.4447V48.3069H130.808V43L134.072 46.9336V43.1073H134.606Z" fill="black"/>
<path d="M129.596 43.5799H127.158V45.3645H129.28V45.8702H127.158V47.8282H129.596V48.3339H126.807H126.606V43.0814H127.158H129.596V43.5799Z" fill="black"/>
<path d="M123.426 45.3911H125.394V47.4376C124.866 48.0623 124.067 48.4141 123.226 48.4141C121.736 48.4141 120.545 47.2006 120.545 45.6999C120.545 44.2135 121.715 43 123.262 43C124.046 43 124.759 43.3088 125.251 43.7827L124.93 44.1848C124.538 43.8186 123.946 43.5098 123.269 43.5098C122.028 43.5098 121.101 44.4792 121.101 45.7071C121.101 46.899 122.078 47.8971 123.24 47.8971C123.854 47.8971 124.502 47.6315 124.902 47.2006V45.8794H123.426V45.3911Z" fill="black"/>
<path d="M119.01 48.3339V43.0814H119.575V48.3339H119.01Z" fill="black"/>
<path d="M115.611 47.8282H118.202V48.3339H115.05V43.0814H115.611V47.8282Z" fill="black"/>
<path d="M111.57 47.8282H114.162V48.3339H111.01V43.0814H111.57V47.8282Z" fill="black"/>
<path d="M109.879 43.5799H107.441V45.3645H109.563V45.8702H107.441V47.8282H109.879V48.3339H107.089H106.889V43.0814H107.441H109.879V43.5799Z" fill="black"/>
<path d="M106 43.0814V43.5872H104.456V48.3339H103.908V43.5872H102.364V43.0814H106Z" fill="black"/>
<path d="M101.555 43.1073V48.4141L98.2283 44.4447V48.3069H97.6763V43L101.01 46.9336V43.1073H101.555Z" fill="black"/>
<path d="M95.8179 48.3339V43.0814H96.3835V48.3339H95.8179Z" fill="black"/>
<path d="M90.3036 47.8282H92.8283V48.3339H89.7576V43.0814H90.3036V47.8282Z" fill="black"/>
<path d="M88.4367 48.3333L87.9302 47.018H85.7665L85.2527 48.3333H84.6665L86.8592 43L89.0301 48.3333H88.4367ZM85.9546 46.5436H87.7493L86.8592 44.2507L85.9546 46.5436Z" fill="black"/>
<path d="M83.9388 47.8166C84.0103 47.8166 84.096 47.8094 84.1818 47.7878V48.298C84.0889 48.3268 83.9746 48.3339 83.8888 48.3339C82.6384 48.3339 82.6527 46.0634 81.6238 46.0634H81.3237V48.3052H80.7878V43.0814H81.3237H82.4169C83.553 43.0814 84.0532 43.7568 84.0532 44.5401C84.0532 45.4598 83.403 45.9915 82.4884 46.0059H82.4812C83.0814 46.3292 83.2601 47.8166 83.9388 47.8166ZM81.3237 45.5676H82.124C82.9099 45.5676 83.5387 45.3448 83.5387 44.5401C83.5387 43.9868 83.2029 43.5772 82.4241 43.5772H81.3237V45.5676Z" fill="black"/>
<path d="M77.7172 48.4147C76.7382 48.4147 76.0203 47.7445 76.0203 46.822V43.0814H76.5787V46.7643C76.5787 47.3769 77.0718 47.8598 77.7172 47.8598C78.3627 47.8598 78.8558 47.3769 78.8558 46.7643V43.0814H79.4142V46.822C79.4142 47.7445 78.6962 48.4147 77.7172 48.4147Z" fill="black"/>
<path d="M75.2931 43.0814V43.5872H73.7146V48.3339H73.1544V43.5872H71.5759V43.0814H75.2931Z" fill="black"/>
<path d="M68.7279 47.8282H71.2526V48.3339H68.1819V43.0814H68.7279V47.8282Z" fill="black"/>
<path d="M65.1115 48.4147C64.1325 48.4147 63.4146 47.7445 63.4146 46.822V43.0814H63.973V46.7643C63.973 47.3769 64.4661 47.8598 65.1115 47.8598C65.7569 47.8598 66.2501 47.3769 66.2501 46.7643V43.0814H66.8085V46.822C66.8085 47.7445 66.0905 48.4147 65.1115 48.4147Z" fill="black"/>
<path d="M60.7056 48.4141C59.1968 48.4141 58 47.215 58 45.7071C58 44.1992 59.1968 43 60.7129 43C61.3874 43 62.0113 43.2226 62.6061 43.6893L62.2724 44.0914C61.8009 43.7181 61.2424 43.5098 60.7129 43.5098C59.5088 43.5098 58.5585 44.4864 58.5585 45.7071C58.5585 46.9349 59.5088 47.8971 60.7201 47.8971C61.2714 47.8971 61.8154 47.6961 62.2724 47.3299L62.6061 47.7248C62.0113 48.2059 61.4165 48.4141 60.7056 48.4141Z" fill="black"/>
<defs>
<clipPath id="clip0_1_1573">
<rect width="51.6965" height="50.6514" fill="white"/>
</clipPath>
</defs>
</svg>
