<svg width="159" height="43" viewBox="0 0 159 43" fill="none" xmlns="http://www.w3.org/2000/svg">
<g clip-path="url(#clip0_243_38006)">
<path d="M23.3145 41.5196C34.3321 41.5196 43.2637 32.5566 43.2637 21.5003C43.2637 10.4439 34.3321 1.48096 23.3145 1.48096C12.2969 1.48096 3.36536 10.4439 3.36536 21.5003C3.36536 32.5566 12.2969 41.5196 23.3145 41.5196Z" fill="#ECEDF8"/>
<path d="M23.3147 1.48096C22.8908 1.48096 22.4699 1.49432 22.0526 1.52045C32.4823 2.17389 40.7397 10.8693 40.7397 21.5002C40.7397 32.1311 32.4823 40.8266 22.0526 41.48C22.4699 41.5061 22.8908 41.5195 23.3147 41.5195C34.3323 41.5195 43.2639 32.5565 43.2639 21.5002C43.2639 10.4439 34.3323 1.48096 23.3147 1.48096Z" fill="#B1B3E2"/>
<path d="M12.5227 4.18823C12.181 4.11841 11.8478 4.33813 11.7778 4.67901C11.7459 4.83479 11.7746 4.9888 11.8476 5.11694C12.2496 4.83311 12.6625 4.56382 13.0855 4.30973C12.8986 4.26763 12.7111 4.2268 12.5227 4.18823Z" fill="#3498AC"/>
<path d="M3.25278 18.8892C3.29131 19.0352 3.37814 19.1557 3.49156 19.2381C3.53304 18.8679 3.5847 18.5008 3.64604 18.1371C3.34331 18.2474 3.16906 18.5718 3.25278 18.8892Z" fill="#3498AC"/>
<path d="M11.4785 37.9255C11.4787 37.9832 11.4866 38.0417 11.5035 38.0999C11.5087 38.1178 11.5147 38.1352 11.5214 38.1523C11.5215 38.1529 11.5216 38.1536 11.5217 38.1541C11.5803 38.4551 11.8445 38.6641 12.1405 38.6641C12.1804 38.6641 12.221 38.6603 12.2617 38.6523C12.415 38.6226 12.5442 38.5396 12.6344 38.4265C12.6397 38.4249 12.645 38.4232 12.6503 38.4216C12.2274 38.1526 11.815 37.8681 11.4144 37.5688C11.435 37.6878 11.4563 37.8066 11.4785 37.9255Z" fill="#3498AC"/>
<path d="M34.3675 38.6523C34.4082 38.6602 34.4488 38.6641 34.4887 38.6641C34.7847 38.6641 35.0489 38.4551 35.1075 38.1541C35.1455 37.959 35.1814 37.7638 35.2154 37.5685C34.817 37.866 34.4073 38.1488 33.9869 38.4165C34.0774 38.5347 34.2098 38.6216 34.3675 38.6523Z" fill="#3498AC"/>
<path d="M34.851 4.67901C34.781 4.33805 34.4476 4.11841 34.1061 4.18824C33.9178 4.2268 33.7303 4.26764 33.5433 4.30973C33.9664 4.56382 34.3793 4.83311 34.7813 5.11694C34.8543 4.98881 34.883 4.83479 34.851 4.67901Z" fill="#3498AC"/>
<path d="M39.7182 9.53733C39.7967 9.19821 39.5851 8.85977 39.2456 8.78137C39.0803 8.74331 38.9152 8.77398 38.7802 8.85439C39.0717 9.213 39.3511 9.58178 39.6177 9.96038C39.6519 9.81973 39.6855 9.67866 39.7182 9.53733Z" fill="#3498AC"/>
<path d="M23.3147 11.3492C24.3742 11.3492 25.2331 10.4873 25.2331 9.424C25.2331 8.36073 24.3742 7.49878 23.3147 7.49878C22.2552 7.49878 21.3962 8.36073 21.3962 9.424C21.3962 10.4873 22.2552 11.3492 23.3147 11.3492Z" fill="#FF815C"/>
<path d="M15.849 19.8081C16.9085 19.8081 17.7674 18.9461 17.7674 17.8829C17.7674 16.8196 16.9085 15.9576 15.849 15.9576C14.7895 15.9576 13.9305 16.8196 13.9305 17.8829C13.9305 18.9461 14.7895 19.8081 15.849 19.8081Z" fill="#FF43CA"/>
<path d="M33.2965 24.7223C34.356 24.7223 35.2149 23.8603 35.2149 22.797C35.2149 21.7338 34.356 20.8718 33.2965 20.8718C32.237 20.8718 31.3781 21.7338 31.3781 22.797C31.3781 23.8603 32.237 24.7223 33.2965 24.7223Z" fill="url(#paint0_linear_243_38006)"/>
<path d="M12.1097 39.8496C11.0519 39.8496 10.1913 38.986 10.1913 37.9244C10.1913 36.8627 11.0519 35.9991 12.1097 35.9991C13.1676 35.9991 14.0283 36.8627 14.0283 37.9244C14.0283 38.986 13.1676 39.8496 12.1097 39.8496Z" fill="#5C63FF"/>
<path d="M34.6305 39.9591C33.5726 39.9591 32.712 39.0954 32.712 38.0339C32.712 36.9723 33.5726 36.1086 34.6305 36.1086C35.6884 36.1086 36.549 36.9722 36.549 38.0339C36.549 39.0954 35.6884 39.9591 34.6305 39.9591Z" fill="#FF815C"/>
<path d="M39.1036 11.2518C38.0457 11.2518 37.1851 10.3882 37.1851 9.32658C37.1851 8.26495 38.0457 7.40137 39.1036 7.40137C40.1615 7.40137 41.022 8.26504 41.022 9.32658C41.022 10.3881 40.1615 11.2518 39.1036 11.2518Z" fill="#FFD249"/>
<path d="M34.2331 6.73081C33.1753 6.73081 32.3147 5.86722 32.3147 4.80559C32.3147 3.74396 33.1753 2.88037 34.2331 2.88037C35.291 2.88037 36.1517 3.74396 36.1517 4.80559C36.1517 5.86722 35.2909 6.73081 34.2331 6.73081Z" fill="#FFD249"/>
<path d="M12.1097 6.73081C11.0519 6.73081 10.1913 5.86722 10.1913 4.80559C10.1913 3.74396 11.0519 2.88037 12.1097 2.88037C13.1676 2.88037 14.0283 3.74396 14.0283 4.80559C14.0283 5.86722 13.1676 6.73081 12.1097 6.73081Z" fill="#FF815C"/>
<path d="M3.36546 20.8C4.42499 20.8 5.28391 19.9381 5.28391 18.8748C5.28391 17.8115 4.42499 16.9496 3.36546 16.9496C2.30594 16.9496 1.44702 17.8115 1.44702 18.8748C1.44702 19.9381 2.30594 20.8 3.36546 20.8Z" fill="#DEA580"/>
<path d="M42.2194 29.6699C42.232 29.6443 42.2432 29.618 42.2521 29.5912C44.8033 23.7111 44.3474 16.5025 41.0339 10.9928C42.8029 8.88101 40.5051 5.85686 37.9924 7.02696C37.5509 6.57635 37.0872 6.14447 36.6068 5.73612C37.5498 3.1761 34.4026 1.07604 32.4425 2.98873C26.7454 0.115905 19.6595 0.152287 13.9938 3.08595C11.9784 0.953026 8.59357 3.23996 9.81383 5.91609C9.11498 6.52635 8.45348 7.1856 7.84356 7.88273C7.31694 8.48467 8.27099 9.3097 8.79399 8.71196C9.36142 8.06347 9.97622 7.45002 10.6256 6.88152C11.8814 7.78602 13.7022 7.32524 14.3911 5.94458C16.6646 6.59811 18.8358 7.53606 20.8589 8.73985C20.6895 9.34977 20.7587 10.0309 21.0493 10.594C19.3842 12.0304 17.8847 13.6552 16.5825 15.4359C15.3804 15.0732 14.0554 15.6803 13.5327 16.8171C10.8817 16.8313 8.22252 17.1161 5.6117 17.6672C5.38116 17.2382 5.03165 16.8827 4.60793 16.6446C5.09846 14.7343 5.87539 12.9171 6.92191 11.2369C7.3389 10.5673 6.28633 9.87114 5.85024 10.5712C4.73759 12.3575 3.91118 14.2893 3.38851 16.32C0.365415 16.3712 -0.142109 20.5477 2.73585 21.3511C2.69344 27.2951 5.2669 33.074 9.72944 37.0106C8.79853 39.5218 11.8207 41.5932 13.8151 39.822C19.6357 42.9127 26.9918 42.9132 32.8127 39.823C34.8412 41.8264 38.0901 39.5882 36.9475 36.9691C39.2474 34.928 41.0341 32.4314 42.2194 29.6699ZM41.4243 28.2605C39.6775 26.5274 37.7658 24.9553 35.7249 23.5752C36.0147 22.6685 35.7628 21.6484 35.0859 20.9791C36.8022 18.1294 38.1495 15.0738 39.0979 11.8819C39.4139 11.883 39.7178 11.8248 39.9977 11.7194C42.9037 16.6207 43.4352 22.9401 41.4243 28.2605ZM12.3859 35.3843C11.8548 30.1896 12.7867 25.0071 15.0932 20.3238C16.5261 20.7703 18.0748 19.8293 18.3531 18.3605C22.7043 18.8961 26.895 20.1718 30.8278 22.1586C30.6386 22.8928 30.7952 23.7023 31.2458 24.3131C26.8128 29.9215 20.9612 34.1418 14.2641 36.5605C13.8583 35.9188 13.1758 35.4699 12.3859 35.3843ZM32.0092 22.7971C32.0092 22.083 32.5868 21.5021 33.2966 21.5021C35.0045 21.5731 35.004 24.0214 33.2966 24.0922C32.5868 24.0922 32.0092 23.5113 32.0092 22.7971ZM40.3909 9.32658C40.3909 10.0407 39.8133 10.6216 39.1035 10.6216C37.3955 10.5506 37.396 8.10229 39.1035 8.03154C39.8133 8.03154 40.3909 8.61247 40.3909 9.32658ZM37.0281 7.84509C36.1559 9.06889 36.5607 10.838 37.8756 11.5654C36.9569 14.6443 35.6545 17.5917 33.9975 20.3408C33.6511 20.2413 33.2666 20.2166 32.9104 20.2711C31.1785 16.5778 28.6585 13.2513 25.58 10.5942C25.8709 10.0308 25.9402 9.35078 25.7706 8.74002C27.7192 7.58067 29.8064 6.66701 31.989 6.01751C32.7145 7.41615 34.6605 7.81106 35.8687 6.76405C36.2691 7.10804 36.6567 7.46943 37.0281 7.84509ZM22.0273 9.42414C22.0273 8.71002 22.6048 8.12909 23.3147 8.12909C25.0226 8.20009 25.0221 10.6483 23.3147 10.7191C22.6048 10.7191 22.0273 10.1382 22.0273 9.42414ZM34.2331 3.51068C34.9431 3.51068 35.5206 4.09162 35.5206 4.80573C35.4497 6.52375 33.0163 6.52333 32.9457 4.80573C32.9457 4.09162 33.5232 3.51068 34.2331 3.51068ZM12.1097 6.10069C11.3998 6.10069 10.8223 5.51976 10.8223 4.80565C10.8932 3.08754 13.3266 3.08813 13.3972 4.80565C13.3972 5.51976 12.8196 6.10069 12.1097 6.10069ZM14.6568 4.70902C14.6503 4.53408 14.6262 4.36377 14.5862 4.19942C19.8686 1.47145 26.4679 1.42389 31.7911 4.07255C31.7227 4.301 31.6852 4.54257 31.684 4.79271C29.3882 5.47094 27.1929 6.42897 25.1435 7.64621C24.1584 6.62861 22.4715 6.62827 21.486 7.64613C19.3503 6.37755 17.0578 5.39145 14.6568 4.70902ZM21.8848 11.5386C22.7381 12.1202 23.891 12.1203 24.7445 11.5387C27.6836 14.0729 30.0913 17.2452 31.7498 20.7678C31.6373 20.8541 31.5323 20.9496 31.4358 21.0531C27.2895 18.9529 22.8648 17.6176 18.2688 17.0804C18.1447 16.7053 17.9364 16.3685 17.666 16.0929C18.8994 14.4196 20.315 12.8913 21.8848 11.5386ZM15.8488 16.5879C16.5587 16.5879 17.1362 17.1689 17.1362 17.883C17.0654 19.6011 14.6319 19.6006 14.5614 17.883C14.5614 17.1689 15.139 16.5879 15.8488 16.5879ZM2.07805 18.8749C2.07805 18.1608 2.65558 17.5798 3.36546 17.5798C5.0733 17.6508 5.0728 20.0991 3.36546 20.1698C2.65567 20.1699 2.07805 19.589 2.07805 18.8749ZM3.99784 21.3506C3.99784 21.3506 5.9146 20.9332 5.9146 18.8915C5.9146 18.8915 10.833 18.1064 13.3076 18.0788C13.354 18.6893 13.6151 19.2403 14.0155 19.656C11.5563 24.5967 10.5644 30.0743 11.1354 35.5633C10.8895 35.6657 10.6632 35.8056 10.4631 35.9756C6.34615 32.2926 3.99784 26.1216 3.99784 21.3506ZM12.1097 39.2193C11.3998 39.2193 10.8223 38.6384 10.8223 37.9243C10.8223 37.2102 11.3998 36.6292 12.1097 36.6292C12.8101 36.6292 13.3972 37.2351 13.3972 37.9243C13.3972 38.6384 12.8196 39.2193 12.1097 39.2193ZM23.3147 40.8895C20.252 40.8895 17.2233 40.157 14.5164 38.7663C14.6263 38.4518 14.6748 38.0935 14.6534 37.7598C21.5812 35.2661 27.635 30.908 32.2211 25.1132C32.5979 25.2897 33.016 25.3707 33.4313 25.3489C33.7117 26.388 34.2276 31.0375 34.3846 32.0976C34.5049 32.9091 35.7537 32.7277 35.6332 31.9132C35.4665 30.7876 34.9361 26.0725 34.6365 24.97C34.7873 24.8762 34.9275 24.7669 35.0552 24.6446C37.161 26.0723 39.1243 27.7111 40.9029 29.5249C39.7999 31.96 38.1944 34.1649 36.1547 35.9867C35.953 35.8355 35.7281 35.7138 35.4867 35.6273C35.6107 34.4557 35.6647 33.2729 35.6465 32.1029C35.6338 31.2797 34.3718 31.299 34.3846 32.1224C34.4021 33.247 34.35 34.3841 34.2302 35.5102C32.7418 35.7466 31.7684 37.2877 32.1785 38.7321C29.4546 40.1449 26.4025 40.8895 23.3147 40.8895ZM34.6305 39.3289C33.9206 39.3289 33.3431 38.748 33.3431 38.0339C33.4139 36.3158 35.8474 36.3163 35.918 38.0339C35.918 38.748 35.3405 39.3289 34.6305 39.3289Z" fill="black"/>
<path d="M34.7334 41.4015C36.5377 41.4015 38.0004 39.9322 38.0004 38.1196C38.0004 36.3071 36.5377 34.8378 34.7334 34.8378C32.929 34.8378 31.4663 36.3071 31.4663 38.1196C31.4663 39.9322 32.929 41.4015 34.7334 41.4015Z" fill="#FFEAC6"/>
<path d="M35.743 34.9993C36.4714 35.6012 36.9361 36.5134 36.9361 37.5348C36.9361 39.3473 35.4734 40.8167 33.6691 40.8167C33.3165 40.8167 32.9776 40.759 32.6594 40.6552C33.2236 41.1214 33.9459 41.4015 34.7335 41.4015C36.5378 41.4015 38.0005 39.9321 38.0005 38.1196C38.0005 36.6613 37.0529 35.4267 35.743 34.9993Z" fill="#FCDBB2"/>
<path d="M34.7335 38.1196C35.1846 38.1196 35.5503 37.7522 35.5503 37.2991C35.5503 36.846 35.1846 36.4786 34.7335 36.4786C34.2824 36.4786 33.9167 36.846 33.9167 37.2991C33.9167 37.7522 34.2824 38.1196 34.7335 38.1196Z" fill="#E29A6C"/>
<path d="M34.7334 41.4014C35.4568 41.4014 36.123 41.1624 36.6642 40.7627C36.3958 39.9446 35.6377 39.3502 34.7334 39.3502C33.8292 39.3502 33.0711 39.9446 32.8026 40.7627C33.344 41.1624 34.0101 41.4014 34.7334 41.4014Z" fill="#F2D1FF"/>
<path d="M30.8157 38.0894C30.8157 40.1107 32.4527 41.7551 34.4648 41.7551C36.477 41.7551 38.114 40.1107 38.114 38.0894C38.114 36.0682 36.477 34.4237 34.4648 34.4237C32.4527 34.4237 30.8157 36.0682 30.8157 38.0894ZM33.0089 40.5898C33.293 40.0506 33.8478 39.7039 34.4648 39.7039C35.0817 39.7039 35.6365 40.0506 35.9206 40.5898C35.4929 40.8421 34.9956 40.9875 34.4648 40.9875C33.934 40.9875 33.4366 40.8421 33.0089 40.5898ZM37.3497 38.0894C37.3497 38.8752 37.0363 39.5885 36.5291 40.111C36.0975 39.3919 35.3222 38.9363 34.4648 38.9363C33.6073 38.9363 32.832 39.3918 32.4005 40.111C31.8932 39.5885 31.5798 38.8752 31.5798 38.0894C31.5798 36.4914 32.874 35.1913 34.4648 35.1913C36.0555 35.1913 37.3497 36.4914 37.3497 38.0894Z" fill="black"/>
<path d="M33.2661 37.2689C33.2661 37.9329 33.8039 38.4731 34.465 38.4731C35.126 38.4731 35.6638 37.9329 35.6638 37.2689C35.6638 36.6048 35.126 36.0646 34.465 36.0646C33.8039 36.0646 33.2661 36.6048 33.2661 37.2689ZM34.8997 37.2689C34.8997 37.5096 34.7047 37.7055 34.465 37.7055C34.2254 37.7055 34.0303 37.5096 34.0303 37.2689C34.0303 37.0281 34.2254 36.8322 34.465 36.8322C34.7047 36.8322 34.8997 37.0281 34.8997 37.2689Z" fill="black"/>
<path d="M11.666 7.21439C13.4703 7.21439 14.933 5.74504 14.933 3.93251C14.933 2.11998 13.4703 0.650635 11.666 0.650635C9.86164 0.650635 8.39893 2.11998 8.39893 3.93251C8.39893 5.74504 9.86164 7.21439 11.666 7.21439Z" fill="#FFEAC6"/>
<path d="M12.6756 0.812134C13.4041 1.41402 13.8687 2.32628 13.8687 3.34771C13.8687 5.16021 12.406 6.62958 10.6017 6.62958C10.2491 6.62958 9.91019 6.57186 9.59204 6.46802C10.1563 6.93424 10.8785 7.21432 11.6661 7.21432C13.4704 7.21432 14.9331 5.74495 14.9331 3.93245C14.9331 2.47413 13.9855 1.23961 12.6756 0.812134Z" fill="#FCDBB2"/>
<path d="M11.6661 3.93242C12.1172 3.93242 12.4829 3.56509 12.4829 3.11196C12.4829 2.65883 12.1172 2.2915 11.6661 2.2915C11.215 2.2915 10.8494 2.65883 10.8494 3.11196C10.8494 3.56509 11.215 3.93242 11.6661 3.93242Z" fill="#E29A6C"/>
<path d="M11.6661 7.21428C12.3894 7.21428 13.0556 6.97523 13.5968 6.57555C13.3284 5.7575 12.5703 5.16309 11.6661 5.16309C10.7618 5.16309 10.0037 5.7575 9.73523 6.57555C10.2766 6.97529 10.9427 7.21428 11.6661 7.21428Z" fill="#F2D1FF"/>
<path d="M7.74829 3.90227C7.74829 5.92358 9.38531 7.56797 11.3974 7.56797C13.4096 7.56797 15.0466 5.92358 15.0466 3.90227C15.0466 1.88102 13.4096 0.236572 11.3974 0.236572C9.38531 0.236572 7.74829 1.88102 7.74829 3.90227ZM9.94153 6.40269C10.2257 5.86349 10.7804 5.51678 11.3974 5.51678C12.0143 5.51678 12.5691 5.86344 12.8532 6.40269C12.4256 6.65493 11.9282 6.80033 11.3974 6.80033C10.8666 6.80033 10.3692 6.65493 9.94153 6.40269ZM14.2824 3.90227C14.2824 4.68808 13.9689 5.40137 13.4617 5.92388C13.0301 5.20475 12.2548 4.74913 11.3974 4.74913C10.5399 4.74913 9.7646 5.2047 9.33309 5.92388C8.82583 5.40137 8.51242 4.68803 8.51242 3.90227C8.51242 2.30429 9.80663 1.00421 11.3974 1.00421C12.9882 1.00421 14.2824 2.30429 14.2824 3.90227Z" fill="black"/>
<path d="M10.1987 3.08172C10.1987 3.74578 10.7366 4.286 11.3976 4.286C12.0586 4.286 12.5964 3.74573 12.5964 3.08172C12.5964 2.41771 12.0586 1.87744 11.3976 1.87744C10.7366 1.87744 10.1987 2.41766 10.1987 3.08172ZM11.8323 3.08172C11.8323 3.3225 11.6373 3.51835 11.3976 3.51835C11.158 3.51835 10.963 3.3225 10.963 3.08172C10.963 2.84093 11.158 2.64508 11.3976 2.64508C11.6373 2.64508 11.8323 2.84093 11.8323 3.08172Z" fill="black"/>
<path d="M34.2602 7.33267C36.0646 7.33267 37.5273 5.86333 37.5273 4.0508C37.5273 2.23827 36.0646 0.768921 34.2602 0.768921C32.4559 0.768921 30.9932 2.23827 30.9932 4.0508C30.9932 5.86333 32.4559 7.33267 34.2602 7.33267Z" fill="#FFEAC6"/>
<path d="M35.2699 0.93042C35.9983 1.5323 36.463 2.44457 36.463 3.46599C36.463 5.2785 35.0003 6.74787 33.1959 6.74787C32.8433 6.74787 32.5044 6.69014 32.1863 6.58631C32.7505 7.05252 33.4727 7.33261 34.2603 7.33261C36.0646 7.33261 37.5274 5.86324 37.5274 4.05073C37.5273 2.59242 36.5797 1.35789 35.2699 0.93042Z" fill="#FCDBB2"/>
<path d="M34.2604 4.0507C34.7114 4.0507 35.0771 3.68337 35.0771 3.23025C35.0771 2.77712 34.7114 2.40979 34.2604 2.40979C33.8093 2.40979 33.4436 2.77712 33.4436 3.23025C33.4436 3.68337 33.8093 4.0507 34.2604 4.0507Z" fill="#E29A6C"/>
<path d="M34.2603 7.33256C34.9836 7.33256 35.6498 7.09352 36.1911 6.69383C35.9226 5.87578 35.1645 5.28137 34.2603 5.28137C33.3561 5.28137 32.5979 5.87578 32.3295 6.69383C32.8708 7.09357 33.537 7.33256 34.2603 7.33256Z" fill="#F2D1FF"/>
<path d="M30.3425 4.02056C30.3425 6.04186 31.9795 7.68625 33.9917 7.68625C36.0038 7.68625 37.6408 6.04186 37.6408 4.02056C37.6408 1.9993 36.0038 0.354858 33.9917 0.354858C31.9795 0.354858 30.3425 1.9993 30.3425 4.02056ZM32.5358 6.52097C32.8199 5.98178 33.3747 5.63506 33.9916 5.63506C34.6086 5.63506 35.1634 5.98173 35.4475 6.52097C35.0198 6.77322 34.5224 6.91861 33.9916 6.91861C33.4608 6.91861 32.9635 6.77322 32.5358 6.52097ZM36.8766 4.02056C36.8766 4.80637 36.5632 5.51966 36.0559 6.04217C35.6244 5.32304 34.8491 4.86742 33.9916 4.86742C33.1341 4.86742 32.3588 5.32299 31.9273 6.04217C31.4201 5.51966 31.1067 4.80631 31.1067 4.02056C31.1067 2.42258 32.4009 1.1225 33.9916 1.1225C35.5824 1.1225 36.8766 2.42258 36.8766 4.02056Z" fill="black"/>
<path d="M32.793 3.2C32.793 3.86407 33.3308 4.40428 33.9918 4.40428C34.6528 4.40428 35.1907 3.86402 35.1907 3.2C35.1907 2.53599 34.6528 1.99573 33.9918 1.99573C33.3308 1.99573 32.793 2.53594 32.793 3.2ZM34.4265 3.2C34.4265 3.44079 34.2315 3.63664 33.9919 3.63664C33.7522 3.63664 33.5572 3.44079 33.5572 3.2C33.5572 2.95922 33.7522 2.76337 33.9919 2.76337C34.2315 2.76337 34.4265 2.95922 34.4265 3.2Z" fill="black"/>
</g>
<path d="M133.29 26.1612V0.296509H144.19C146.949 0.296509 149.375 0.838437 151.469 1.92229C153.587 3.00615 155.225 4.52108 156.383 6.46709C157.566 8.41311 158.157 10.667 158.157 13.2289C158.157 15.7907 157.566 18.0446 156.383 19.9907C155.225 21.9367 153.587 23.4516 151.469 24.5355C149.375 25.6193 146.949 26.1612 144.19 26.1612H133.29ZM136.985 22.9466H143.968C146.111 22.9466 147.959 22.5402 149.511 21.7273C151.087 20.9144 152.306 19.7813 153.169 18.3279C154.031 16.8499 154.462 15.1503 154.462 13.2289C154.462 11.2829 154.031 9.58318 153.169 8.12983C152.306 6.67648 151.087 5.54335 149.511 4.73046C147.959 3.91757 146.111 3.51113 143.968 3.51113H136.985V22.9466Z" fill="white"/>
<path d="M111.899 11.4553H125.201V14.596H111.899V11.4553ZM112.231 22.9466H127.307V26.1612H108.536V0.296509H126.789V3.51113H112.231V22.9466Z" fill="white"/>
<path d="M89.1804 26.4559C87.2098 26.4559 85.3746 26.1234 83.6749 25.4583C81.9999 24.7932 80.5465 23.8694 79.3149 22.6871C78.0832 21.48 77.1225 20.076 76.4328 18.4748C75.7431 16.8737 75.3982 15.1247 75.3982 13.228C75.3982 11.3312 75.7431 9.58226 76.4328 7.98112C77.1225 6.37996 78.0832 4.9882 79.3149 3.80581C80.5465 2.59879 81.9999 1.66273 83.6749 0.997638C85.35 0.332546 87.1851 0 89.1804 0C91.151 0 92.9616 0.332546 94.612 0.997638C96.287 1.6381 97.7404 2.56184 98.9721 3.76886C100.228 4.95125 101.189 6.34301 101.854 7.94416C102.544 9.54531 102.889 11.3066 102.889 13.228C102.889 15.1493 102.544 16.9106 101.854 18.5118C101.189 20.1129 100.228 21.517 98.9721 22.724C97.7404 23.9064 96.287 24.8301 94.612 25.4952C92.9616 26.1357 91.151 26.4559 89.1804 26.4559ZM97.6419 31.555C96.7797 31.555 95.9545 31.4441 95.1662 31.2224C94.378 31.0254 93.5897 30.6928 92.8015 30.2248C92.0132 29.7814 91.2003 29.1902 90.3628 28.4512C89.5253 27.7368 88.6138 26.8501 87.6285 25.7908L91.5821 24.7562C92.3211 25.6677 93.0232 26.4067 93.6883 26.9732C94.378 27.5644 95.0554 27.9832 95.7205 28.2295C96.3856 28.5005 97.0384 28.636 97.6788 28.636C99.5263 28.636 101.103 27.897 102.408 26.419L104.145 28.5251C102.47 30.545 100.302 31.555 97.6419 31.555ZM89.1804 23.1674C90.6091 23.1674 91.927 22.9211 93.134 22.4284C94.3657 21.9358 95.4249 21.2337 96.3117 20.3223C97.2231 19.4109 97.9251 18.3516 98.4178 17.1446C98.9351 15.9376 99.1938 14.632 99.1938 13.228C99.1938 11.7992 98.9351 10.4814 98.4178 9.27435C97.9251 8.06733 97.2231 7.02042 96.3117 6.13363C95.4249 5.22221 94.3657 4.52017 93.134 4.02751C91.927 3.53485 90.6091 3.28851 89.1804 3.28851C87.7271 3.28851 86.3845 3.53485 85.1529 4.02751C83.9459 4.52017 82.8867 5.22221 81.9752 6.13363C81.0638 7.02042 80.3494 8.06733 79.8321 9.27435C79.3395 10.4814 79.0932 11.7992 79.0932 13.228C79.0932 14.632 79.3395 15.9376 79.8321 17.1446C80.3494 18.3516 81.0638 19.4109 81.9752 20.3223C82.8867 21.2337 83.9459 21.9358 85.1529 22.4284C86.3845 22.9211 87.7271 23.1674 89.1804 23.1674Z" fill="white"/>
<path d="M62.9098 26.4559C60.9391 26.4559 59.1163 26.1357 57.4412 25.4952C55.7908 24.8301 54.3498 23.9064 53.1181 22.724C51.9111 21.517 50.9627 20.1129 50.273 18.5118C49.5833 16.9106 49.2384 15.1493 49.2384 13.228C49.2384 11.3066 49.5833 9.54532 50.273 7.94417C50.9627 6.34302 51.9234 4.95125 53.1551 3.76886C54.3867 2.56184 55.8278 1.6381 57.4782 0.997638C59.1532 0.332546 60.9761 0 62.9467 0C64.942 0 66.7772 0.344863 68.4522 1.03459C70.1519 1.69968 71.5929 2.69732 72.7753 4.02751L70.3736 6.35533C69.3883 5.32074 68.2798 4.55712 67.0481 4.06446C65.8165 3.54716 64.4986 3.28852 63.0945 3.28852C61.6412 3.28852 60.2863 3.53485 59.0301 4.02751C57.7984 4.52017 56.7269 5.20989 55.8154 6.09669C54.904 6.98348 54.1897 8.0427 53.6724 9.27435C53.1797 10.4814 52.9334 11.7992 52.9334 13.228C52.9334 14.6567 53.1797 15.9869 53.6724 17.2185C54.1897 18.4255 54.904 19.4724 55.8154 20.3592C56.7269 21.246 57.7984 21.9358 59.0301 22.4284C60.2863 22.9211 61.6412 23.1674 63.0945 23.1674C64.4986 23.1674 65.8165 22.9211 67.0481 22.4284C68.2798 21.9111 69.3883 21.1229 70.3736 20.0636L72.7753 22.3915C71.5929 23.7217 70.1519 24.7316 68.4522 25.4213C66.7772 26.1111 64.9297 26.4559 62.9098 26.4559Z" fill="white"/>
<path d="M157.903 36.5955V41.1007L155.138 37.7309V41.0096H154.679V36.5044L157.45 39.8438V36.5955H157.903Z" fill="white"/>
<path d="M151.557 41.1007C150.283 41.1007 149.258 40.0705 149.258 38.7964C149.258 37.5346 150.283 36.5044 151.557 36.5044C152.831 36.5044 153.855 37.5346 153.855 38.7964C153.855 40.0705 152.831 41.1007 151.557 41.1007ZM151.557 40.6618C152.575 40.6618 153.379 39.8266 153.379 38.7964C153.379 37.7784 152.581 36.9372 151.557 36.9372C150.532 36.9372 149.728 37.7784 149.728 38.7964C149.728 39.8205 150.532 40.6618 151.557 40.6618Z" fill="white"/>
<path d="M148.024 41.0326V36.5735H148.504V41.0326H148.024Z" fill="white"/>
<path d="M147.407 36.5735V37.0028H146.096V41.0326H145.631V37.0028H144.32V36.5735H147.407Z" fill="white"/>
<path d="M144.159 41.0321L143.729 39.9154H141.892L141.455 41.0321H140.958L142.819 36.5044L144.662 41.0321H144.159ZM142.051 39.5127H143.575L142.819 37.5661L142.051 39.5127Z" fill="white"/>
<path d="M139.099 41.1007C137.84 41.1007 136.842 40.0827 136.842 38.8025C136.842 37.5224 137.84 36.5044 139.105 36.5044C139.667 36.5044 140.187 36.6934 140.684 37.0896L140.405 37.431C140.012 37.114 139.546 36.9372 139.105 36.9372C138.1 36.9372 137.308 37.7662 137.308 38.8025C137.308 39.8449 138.1 40.6618 139.111 40.6618C139.57 40.6618 140.024 40.4911 140.405 40.1802L140.684 40.5155C140.187 40.9239 139.691 41.1007 139.099 41.1007Z" fill="white"/>
<path d="M134.544 41.1012C133.732 41.1012 133.137 40.5321 133.137 39.749V36.5735H133.6V39.7C133.6 40.2201 134.009 40.63 134.544 40.63C135.078 40.63 135.487 40.2201 135.487 39.7V36.5735H135.95V39.749C135.95 40.5321 135.355 41.1012 134.544 41.1012Z" fill="white"/>
<path d="M130.191 36.5735C131.392 36.5735 132.245 37.5671 132.245 38.8C132.245 40.0328 131.392 41.0326 130.191 41.0326H128.965H128.815V36.5735H129.278H130.191ZM130.107 40.6032C131.098 40.6032 131.783 39.7752 131.783 38.8C131.783 37.9351 131.212 37.0028 130.107 37.0028H129.278V40.6032H130.107Z" fill="white"/>
<path d="M127.787 36.9967H125.717V38.5117H127.519V38.941H125.717V40.6032H127.787V41.0326H125.419H125.248V36.5735H125.717H127.787V36.9967Z" fill="white"/>
<path d="M122.367 36.9967H120.297V38.5117H122.099V38.941H120.297V40.6032H122.367V41.0326H119.999H119.829V36.5735H120.297H122.367V36.9967Z" fill="white"/>
<path d="M117.489 41.1007C116.231 41.1007 115.232 40.0827 115.232 38.8025C115.232 37.5224 116.231 36.5044 117.495 36.5044C118.058 36.5044 118.578 36.6934 119.074 37.0896L118.796 37.431C118.402 37.114 117.937 36.9372 117.495 36.9372C116.491 36.9372 115.698 37.7662 115.698 38.8025C115.698 39.8449 116.491 40.6618 117.501 40.6618C117.961 40.6618 118.415 40.4911 118.796 40.1802L119.074 40.5155C118.578 40.9239 118.082 41.1007 117.489 41.1007Z" fill="white"/>
<path d="M114.272 36.5955V41.1007L111.506 37.7309V41.0096H111.048V36.5044L113.819 39.8438V36.5955H114.272Z" fill="white"/>
<path d="M110.019 36.9967H107.95V38.5117H109.751V38.941H107.95V40.6032H110.019V41.0326H107.651H107.481V36.5735H107.95H110.019V36.9967Z" fill="white"/>
<path d="M104.781 38.5343H106.451V40.2716C106.003 40.802 105.325 41.1007 104.611 41.1007C103.346 41.1007 102.335 40.0705 102.335 38.7964C102.335 37.5346 103.328 36.5044 104.641 36.5044C105.307 36.5044 105.913 36.7665 106.33 37.1688L106.058 37.5102C105.725 37.1993 105.223 36.9372 104.647 36.9372C103.594 36.9372 102.807 37.7601 102.807 38.8025C102.807 39.8144 103.637 40.6618 104.623 40.6618C105.144 40.6618 105.695 40.4362 106.034 40.0705V38.9488H104.781V38.5343Z" fill="white"/>
<path d="M101.032 41.0326V36.5735H101.512V41.0326H101.032Z" fill="white"/>
<path d="M98.1463 40.6032H100.346V41.0326H97.6705V36.5735H98.1463V40.6032Z" fill="white"/>
<path d="M94.7163 40.6032H96.9159V41.0326H94.2405V36.5735H94.7163V40.6032Z" fill="white"/>
<path d="M93.2801 36.9967H91.2105V38.5117H93.0122V38.941H91.2105V40.6032H93.2801V41.0326H90.9123H90.7418V36.5735H91.2105H93.2801V36.9967Z" fill="white"/>
<path d="M89.9874 36.5735V37.0028H88.6765V41.0326H88.2113V37.0028H86.9004V36.5735H89.9874Z" fill="white"/>
<path d="M86.214 36.5955V41.1007L83.3898 37.7309V41.0096H82.9211V36.5044L85.7515 39.8438V36.5955H86.214Z" fill="white"/>
<path d="M81.3434 41.0326V36.5735H81.8236V41.0326H81.3434Z" fill="white"/>
<path d="M76.6618 40.6032H78.8051V41.0326H76.1982V36.5735H76.6618V40.6032Z" fill="white"/>
<path d="M75.077 41.0321L74.647 39.9154H72.8101L72.374 41.0321H71.8763L73.7378 36.5044L75.5808 41.0321H75.077ZM72.9699 39.5127H74.4934L73.7378 37.5661L72.9699 39.5127Z" fill="white"/>
<path d="M71.2585 40.5934C71.3192 40.5934 71.392 40.5873 71.4647 40.569V41.0021C71.3859 41.0265 71.2888 41.0326 71.216 41.0326C70.1545 41.0326 70.1667 39.105 69.2932 39.105H69.0384V41.0082H68.5835V36.5735H69.0384H69.9665C70.931 36.5735 71.3556 37.1469 71.3556 37.8118C71.3556 38.5926 70.8036 39.044 70.0272 39.0562H70.0211C70.5306 39.3307 70.6823 40.5934 71.2585 40.5934ZM69.0384 38.6841H69.7178C70.385 38.6841 70.9188 38.495 70.9188 37.8118C70.9188 37.3421 70.6337 36.9944 69.9726 36.9944H69.0384V38.6841Z" fill="white"/>
<path d="M65.9769 41.1012C65.1457 41.1012 64.5363 40.5321 64.5363 39.749V36.5735H65.0103V39.7C65.0103 40.2201 65.4289 40.63 65.9769 40.63C66.5248 40.63 66.9435 40.2201 66.9435 39.7V36.5735H67.4175V39.749C67.4175 40.5321 66.808 41.1012 65.9769 41.1012Z" fill="white"/>
<path d="M63.9191 36.5735V37.0028H62.579V41.0326H62.1035V37.0028H60.7634V36.5735H63.9191Z" fill="white"/>
<path d="M58.3455 40.6032H60.4888V41.0326H57.882V36.5735H58.3455V40.6032Z" fill="white"/>
<path d="M55.2753 41.1012C54.4442 41.1012 53.8347 40.5321 53.8347 39.749V36.5735H54.3088V39.7C54.3088 40.2201 54.7274 40.63 55.2753 40.63C55.8233 40.63 56.2419 40.2201 56.2419 39.7V36.5735H56.716V39.749C56.716 40.5321 56.1065 41.1012 55.2753 41.1012Z" fill="white"/>
<path d="M51.5352 41.1007C50.2543 41.1007 49.2383 40.0827 49.2383 38.8025C49.2383 37.5224 50.2543 36.5044 51.5413 36.5044C52.114 36.5044 52.6436 36.6934 53.1485 37.0896L52.8653 37.431C52.465 37.114 51.9909 36.9372 51.5413 36.9372C50.5191 36.9372 49.7124 37.7662 49.7124 38.8025C49.7124 39.8449 50.5191 40.6618 51.5475 40.6618C52.0155 40.6618 52.4773 40.4911 52.8653 40.1802L53.1485 40.5155C52.6436 40.9239 52.1387 41.1007 51.5352 41.1007Z" fill="white"/>
<defs>
<linearGradient id="paint0_linear_243_38006" x1="33.2965" y1="20.8718" x2="33.2965" y2="24.7223" gradientUnits="userSpaceOnUse">
<stop stop-color="#5429E8"/>
<stop offset="1" stop-color="#70369A"/>
</linearGradient>
<clipPath id="clip0_243_38006">
<rect width="43.8872" height="43" fill="white"/>
</clipPath>
</defs>
</svg>
