<svg width="32" height="32" viewBox="0 0 32 32" fill="none" xmlns="http://www.w3.org/2000/svg">
<g id="fi_7186404" clip-path="url(#clip0_9_7969)">
<g id="Flat">
<g id="Color">
<path id="Vector" d="M28.625 11.875H3.375C1.71815 11.875 0.375 13.2181 0.375 14.875V28.625C0.375 30.2819 1.71815 31.625 3.375 31.625H28.625C30.2819 31.625 31.625 30.2819 31.625 28.625V14.875C31.625 13.2181 30.2819 11.875 28.625 11.875Z" fill="#D32F2F"/>
<path id="Vector_2" d="M31.625 14.875V17.625H0.375V14.875C0.375 14.0794 0.69107 13.3163 1.25368 12.7537C1.81629 12.1911 2.57935 11.875 3.375 11.875H28.625C29.4206 11.875 30.1837 12.1911 30.7463 12.7537C31.3089 13.3163 31.625 14.0794 31.625 14.875Z" fill="#37474F"/>
<path id="Vector_3" d="M8.5 29.375C11.1924 29.375 13.375 27.1924 13.375 24.5C13.375 21.8076 11.1924 19.625 8.5 19.625C5.80761 19.625 3.625 21.8076 3.625 24.5C3.625 27.1924 5.80761 29.375 8.5 29.375Z" fill="#ECEFF1"/>
<path id="Vector_4" d="M8.5002 29.3759C9.19691 29.3765 9.8856 29.2273 10.5197 28.9385C11.1537 28.6498 11.7183 28.2281 12.1752 27.7022C11.9079 26.9408 11.4107 26.2814 10.7524 25.8148C10.094 25.3482 9.30708 25.0977 8.5002 25.0977C7.69331 25.0977 6.90635 25.3482 6.24803 25.8148C5.58971 26.2814 5.09253 26.9408 4.8252 27.7022C5.2821 28.2281 5.84669 28.6498 6.48074 28.9385C7.11479 29.2273 7.80348 29.3765 8.5002 29.3759Z" fill="#03A9F4"/>
<path id="Vector_5" d="M8.50022 25.0971C9.48923 25.0971 10.291 24.2954 10.291 23.3064C10.291 22.3174 9.48923 21.5156 8.50022 21.5156C7.51122 21.5156 6.70947 22.3174 6.70947 23.3064C6.70947 24.2954 7.51122 25.0971 8.50022 25.0971Z" fill="#03A9F4"/>
<path id="Vector_6" d="M28 21.75H19.5C19.2929 21.75 19.125 21.9179 19.125 22.125V23.125C19.125 23.3321 19.2929 23.5 19.5 23.5H28C28.2071 23.5 28.375 23.3321 28.375 23.125V22.125C28.375 21.9179 28.2071 21.75 28 21.75Z" fill="white"/>
<path id="Vector_7" d="M28 25.5H19.5C19.2929 25.5 19.125 25.6679 19.125 25.875V26.875C19.125 27.0821 19.2929 27.25 19.5 27.25H28C28.2071 27.25 28.375 27.0821 28.375 26.875V25.875C28.375 25.6679 28.2071 25.5 28 25.5Z" fill="white"/>
<g id="Group">
<path id="Vector_8" d="M29.5332 0.674591C29.3686 0.51145 29.1462 0.419922 28.9144 0.419922C28.6827 0.419922 28.4603 0.51145 28.2957 0.674591L26.8814 2.08884C26.72 2.2535 26.6302 2.4752 26.6314 2.70574C26.6325 2.93629 26.7247 3.15705 26.8877 3.32006C27.0507 3.48307 27.2715 3.57514 27.5021 3.57627C27.7326 3.5774 27.9543 3.48749 28.1189 3.32609L29.5332 1.91184C29.6963 1.74727 29.7878 1.52493 29.7878 1.29322C29.7878 1.0615 29.6963 0.83916 29.5332 0.674591Z" fill="#FFC107"/>
<path id="Vector_9" d="M29.5332 8.58947L28.1189 7.17597C27.9543 7.01457 27.7326 6.92466 27.5021 6.92579C27.2715 6.92692 27.0507 7.01899 26.8877 7.182C26.7247 7.34501 26.6325 7.56577 26.6314 7.79632C26.6302 8.02686 26.72 8.24856 26.8814 8.41322L28.2957 9.82747C28.3766 9.91006 28.4731 9.97579 28.5796 10.0209C28.6861 10.0659 28.8005 10.0894 28.9161 10.09C29.0318 10.0906 29.1464 10.0683 29.2533 10.0243C29.3603 9.98032 29.4575 9.91557 29.5393 9.83381C29.621 9.75205 29.6858 9.65488 29.7298 9.54794C29.7738 9.44099 29.7962 9.32639 29.7956 9.21074C29.795 9.0951 29.7715 8.98072 29.7265 8.87421C29.6814 8.7677 29.6157 8.67118 29.5332 8.59022V8.58947Z" fill="#FFC107"/>
<path id="Vector_10" d="M2.46717 0.674591C2.63178 0.51145 2.85416 0.419922 3.08592 0.419922C3.31767 0.419922 3.54005 0.51145 3.70467 0.674591L5.11892 2.08884C5.28028 2.2535 5.37014 2.4752 5.36897 2.70574C5.36779 2.93629 5.27568 3.15705 5.11264 3.32006C4.9496 3.48307 4.72881 3.57514 4.49827 3.57627C4.26772 3.5774 4.04604 3.48749 3.88142 3.32609L2.46717 1.91109C2.30427 1.74655 2.21289 1.52437 2.21289 1.29284C2.21289 1.06131 2.30427 0.839128 2.46717 0.674591Z" fill="#FFC107"/>
<path id="Vector_11" d="M2.46686 8.58947L3.88111 7.17597C4.04574 7.01457 4.26742 6.92466 4.49796 6.92579C4.72851 6.92692 4.94929 7.01899 5.11233 7.182C5.27537 7.34501 5.36749 7.56577 5.36866 7.79632C5.36984 8.02686 5.27998 8.24856 5.11861 8.41322L3.70436 9.82597C3.53973 9.98737 3.31806 10.0773 3.08751 10.0761C2.85696 10.075 2.63618 9.98294 2.47314 9.81994C2.3101 9.65693 2.21798 9.43617 2.21681 9.20562C2.21563 8.97507 2.30549 8.75338 2.46686 8.58872V8.58947Z" fill="#FFC107"/>
<path id="Vector_12" d="M16.3234 15.2109L19.6829 15.9284C19.8954 15.9736 20.115 15.9736 20.3275 15.9284C20.5401 15.8833 20.7407 15.7939 20.9165 15.6662C21.0922 15.5385 21.2392 15.3752 21.3478 15.1871C21.4564 14.9989 21.5242 14.79 21.5469 14.5739L21.9029 11.1571C21.9254 10.9403 21.9936 10.7306 22.1029 10.5419L23.8231 7.56864C23.9318 7.3805 23.9997 7.17161 24.0225 6.95552C24.0452 6.73943 24.0223 6.52098 23.9551 6.31433C23.888 6.10769 23.7782 5.91746 23.6328 5.75601C23.4874 5.59455 23.3096 5.46547 23.1111 5.37714L19.9716 3.98289C19.7723 3.89438 19.5939 3.7648 19.4481 3.60264L17.1519 1.04889C17.0066 0.887214 16.829 0.757919 16.6305 0.669409C16.4321 0.580899 16.2172 0.535156 15.9999 0.535156C15.7826 0.535156 15.5677 0.580899 15.3692 0.669409C15.1707 0.757919 14.9931 0.887214 14.8479 1.04889L12.5516 3.60389C12.4058 3.76605 12.2274 3.89563 12.0281 3.98414L8.88862 5.37714C8.69011 5.46547 8.51238 5.59455 8.36698 5.75601C8.22157 5.91746 8.11174 6.10769 8.0446 6.31433C7.97746 6.52098 7.95452 6.73943 7.97727 6.95552C8.00001 7.17161 8.06793 7.3805 8.17662 7.56864L9.89687 10.5419C10.0061 10.7306 10.0743 10.9403 10.0969 11.1571L10.4529 14.5739C10.4755 14.79 10.5433 14.9989 10.6519 15.1871C10.7605 15.3752 10.9075 15.5385 11.0833 15.6662C11.259 15.7939 11.4597 15.8833 11.6722 15.9284C11.8847 15.9736 12.1044 15.9736 12.3169 15.9284L15.6764 15.2109C15.8896 15.1654 16.1101 15.1654 16.3234 15.2109Z" fill="#FFC107"/>
</g>
<path id="Vector_13" d="M19.6893 3.81916L16 8.89916V0.535164C16.2174 0.534463 16.4324 0.579919 16.6309 0.668526C16.8294 0.757133 17.0069 0.886873 17.1515 1.04916L19.45 3.60216C19.5209 3.68369 19.6012 3.75653 19.6893 3.81916Z" fill="#FFA000"/>
<path id="Vector_14" d="M10.0283 10.8399L15.9998 8.90039L11.0843 15.6676C10.9077 15.5407 10.76 15.3777 10.651 15.1895C10.542 15.0012 10.4741 14.792 10.4518 14.5756L10.0981 11.1599C10.0869 11.0509 10.0635 10.9436 10.0283 10.8399Z" fill="#FFA000"/>
<path id="Vector_15" d="M16.0001 8.90031L8.0459 6.31406C8.11252 6.10782 8.22194 5.91797 8.36699 5.75693C8.51204 5.5959 8.68947 5.4673 8.88765 5.37956L12.0296 3.98556C12.1284 3.93953 12.2226 3.8842 12.3109 3.82031L16.0001 8.90031Z" fill="#FFA000"/>
<path id="Vector_16" d="M20.9155 15.6676C20.7406 15.7963 20.5404 15.8863 20.3281 15.9317C20.1157 15.9771 19.8962 15.9768 19.684 15.9309L16.3228 15.2131C16.2167 15.1904 16.1085 15.1791 16 15.1796V8.90039L20.9155 15.6676Z" fill="#FFA000"/>
<path id="Vector_17" d="M23.8225 7.56841L22.103 10.5434C22.0487 10.6374 22.0046 10.737 21.9715 10.8404L16 8.89991L23.9543 6.31641C24.022 6.52255 24.0453 6.74072 24.0226 6.95653C23.9999 7.17234 23.9317 7.38088 23.8225 7.56841Z" fill="#FFA000"/>
</g>
</g>
</g>
<defs>
<clipPath id="clip0_9_7969">
<rect width="32" height="32" fill="white"/>
</clipPath>
</defs>
</svg>
