<svg width="146" height="146" viewBox="0 0 146 146" fill="none" xmlns="http://www.w3.org/2000/svg">
<g id="Online course" clip-path="url(#clip0_313_14028)">
<g id="Group">
<g id="Group_2">
<g id="Group_3">
<path id="Vector" d="M139.413 35.1901H6.5866C2.94891 35.1901 0 38.139 0 41.7767V125.356C0 128.993 2.94891 131.942 6.5866 131.942H139.413C143.051 131.942 146 128.993 146 125.356V41.7767C146 38.139 143.051 35.1901 139.413 35.1901Z" fill="url(#paint0_linear_313_14028)"/>
<path id="Vector_2" d="M4.21094 44.7132V122.419C4.21094 124.784 6.1284 126.702 8.4936 126.702H137.506C139.871 126.702 141.789 124.784 141.789 122.419V44.7132C141.789 42.348 139.871 40.4305 137.506 40.4305H8.4936C6.1284 40.4305 4.21094 42.348 4.21094 44.7132Z" fill="url(#paint1_linear_313_14028)"/>
<path id="Vector_3" d="M79.3926 131.943H139.412C143.05 131.943 145.999 128.994 145.999 125.356V41.7767C145.999 38.139 143.05 35.1901 139.412 35.1901H79.3926V131.943Z" fill="url(#paint2_linear_313_14028)"/>
<path id="Vector_4" d="M139.415 35.1901H46.6641V81.4669L97.1397 131.943H139.415C143.052 131.943 146.001 128.994 146.001 125.356V41.7767C146.001 38.139 143.052 35.1901 139.415 35.1901Z" fill="url(#paint3_linear_313_14028)"/>
</g>
<path id="Vector_5" d="M129.836 49.3509V117.779C129.836 119.921 128.099 121.658 125.957 121.658H13.0363C10.8956 121.658 9.16016 119.923 9.16016 117.782V99.98C9.16016 98.6099 10.2706 97.4994 11.6407 97.4994C13.0108 97.4994 14.1213 96.3889 14.1213 95.0188V72.114C14.1213 70.7439 13.0108 69.6334 11.6407 69.6334C10.2706 69.6334 9.16016 68.523 9.16016 67.1529V49.3537C9.16016 47.2116 10.897 45.4747 13.0392 45.4747H125.96C128.101 45.4747 129.836 47.2101 129.836 49.3509Z" fill="url(#paint4_linear_313_14028)"/>
<path id="Vector_6" d="M125.962 45.4756H46.6641V81.4669L86.8541 121.657H125.962C128.103 121.657 129.839 119.921 129.839 117.78V49.3523C129.839 47.2113 128.103 45.4756 125.962 45.4756Z" fill="url(#paint5_linear_313_14028)"/>
</g>
<g id="Group_4">
<g id="Group_5">
<path id="Vector_7" d="M18.8133 113.903H41.4977C42.5423 113.903 43.3891 114.75 43.3891 115.795C43.3891 116.839 42.5423 117.686 41.4977 117.686H18.8133C17.7687 117.686 16.9219 116.839 16.9219 115.795C16.9219 114.75 17.7687 113.903 18.8133 113.903Z" fill="#CA6E59"/>
<path id="Vector_8" d="M18.8133 106.27H27.3881C28.4327 106.27 29.2795 107.116 29.2795 108.161C29.2795 109.206 28.4327 110.052 27.3881 110.052H18.8133C17.7687 110.052 16.9219 109.206 16.9219 108.161C16.9219 107.116 17.7687 106.27 18.8133 106.27Z" fill="#CA6E59"/>
<path id="Vector_9" d="M33.9461 106.27H36.0897C37.1343 106.27 37.9811 107.116 37.9811 108.161C37.9811 109.206 37.1343 110.052 36.0897 110.052H33.9461C32.9015 110.052 32.0547 109.206 32.0547 108.161C32.0547 107.116 32.9015 106.27 33.9461 106.27Z" fill="#CA6E59"/>
</g>
</g>
<path id="Vector_10" d="M18.8133 95.6775H120.187C121.231 95.6775 122.078 96.5243 122.078 97.5689C122.078 98.6135 121.231 99.4603 120.187 99.4603H18.8133C17.7687 99.4603 16.9219 98.6135 16.9219 97.5689C16.9219 96.5243 17.7687 95.6775 18.8133 95.6775Z" fill="white"/>
<path id="Vector_11" d="M59.689 95.6775H18.8133C17.7687 95.6775 16.9219 96.5243 16.9219 97.5689C16.9219 98.6135 17.7687 99.4603 18.8133 99.4603H59.689V95.6775Z" fill="url(#paint6_linear_313_14028)"/>
<path id="Vector_12" d="M59.8304 102.149C62.3601 102.149 64.4108 100.099 64.4108 97.5689C64.4108 95.0392 62.3601 92.9885 59.8304 92.9885C57.3007 92.9885 55.25 95.0392 55.25 97.5689C55.25 100.099 57.3007 102.149 59.8304 102.149Z" fill="url(#paint7_linear_313_14028)"/>
<g id="Group_6">
<path id="Vector_13" d="M102.909 106.27H111.484C112.528 106.27 113.375 107.116 113.375 108.161C113.375 109.206 112.528 110.052 111.484 110.052H102.909C101.864 110.052 101.018 109.206 101.018 108.161C101.017 107.116 101.864 106.27 102.909 106.27Z" fill="#CA6E59"/>
<path id="Vector_14" d="M118.04 106.27H120.183C121.228 106.27 122.075 107.116 122.075 108.161C122.075 109.206 121.228 110.052 120.183 110.052H118.04C116.995 110.052 116.148 109.206 116.148 108.161C116.148 107.116 116.995 106.27 118.04 106.27Z" fill="#CA6E59"/>
</g>
<g id="Group_7">
<path id="Vector_15" d="M97.2475 38.5234L63.5859 16.3071C54.6341 10.3989 42.7051 16.8189 42.7051 27.5445V71.9777C42.7051 82.7033 54.6341 89.1233 63.5859 83.2151L97.2475 60.9982C105.311 55.6764 105.311 43.8455 97.2475 38.5234Z" fill="url(#paint8_linear_313_14028)"/>
<path id="Vector_16" d="M97.2472 38.5234L84.3715 30.0254L42.7051 57.5252V71.9772C42.7051 82.7028 54.6341 89.1228 63.5859 83.2146L97.2472 60.9983C105.31 55.6764 105.31 43.8456 97.2472 38.5234Z" fill="url(#paint9_linear_313_14028)"/>
</g>
</g>
</g>
<defs>
<linearGradient id="paint0_linear_313_14028" x1="28.7365" y1="39.303" x2="115.045" y2="125.611" gradientUnits="userSpaceOnUse">
<stop stop-color="#5A5A5A"/>
<stop offset="1" stop-color="#444444"/>
</linearGradient>
<linearGradient id="paint1_linear_313_14028" x1="108.389" y1="118.955" x2="31.8593" y2="42.4256" gradientUnits="userSpaceOnUse">
<stop stop-color="#5A5A5A"/>
<stop offset="1" stop-color="#444444"/>
</linearGradient>
<linearGradient id="paint2_linear_313_14028" x1="122.435" y1="83.5665" x2="144.437" y2="83.5665" gradientUnits="userSpaceOnUse">
<stop stop-color="#433F43" stop-opacity="0"/>
<stop offset="1" stop-color="#1A1A1A"/>
</linearGradient>
<linearGradient id="paint3_linear_313_14028" x1="101.987" y1="71.303" x2="87.1012" y2="43.6297" gradientUnits="userSpaceOnUse">
<stop stop-color="#433F43" stop-opacity="0"/>
<stop offset="1" stop-color="#1A1A1A"/>
</linearGradient>
<linearGradient id="paint4_linear_313_14028" x1="40.2965" y1="54.3647" x2="96.83" y2="110.898" gradientUnits="userSpaceOnUse">
<stop stop-color="#FFEEE6"/>
<stop offset="1" stop-color="#FFC4C8"/>
</linearGradient>
<linearGradient id="paint5_linear_313_14028" x1="107.428" y1="86.1964" x2="79.3735" y2="54.7062" gradientUnits="userSpaceOnUse">
<stop stop-color="#FE99A0" stop-opacity="0"/>
<stop offset="1" stop-color="#FD8087"/>
</linearGradient>
<linearGradient id="paint6_linear_313_14028" x1="33.6598" y1="84.9027" x2="41.8186" y2="105.801" gradientUnits="userSpaceOnUse">
<stop stop-color="#7BACDF" stop-opacity="0"/>
<stop offset="1" stop-color="#7BACDF"/>
</linearGradient>
<linearGradient id="paint7_linear_313_14028" x1="56.4793" y1="94.2175" x2="63.4446" y2="101.183" gradientUnits="userSpaceOnUse">
<stop stop-color="#AEFFD1"/>
<stop offset="0.1201" stop-color="#A3F9CB"/>
<stop offset="0.3288" stop-color="#87EAB9"/>
<stop offset="0.6012" stop-color="#59D19D"/>
<stop offset="0.9235" stop-color="#19AF77"/>
<stop offset="1" stop-color="#09A76D"/>
</linearGradient>
<linearGradient id="paint8_linear_313_14028" x1="47.8952" y1="35.7666" x2="89.3956" y2="77.2669" gradientUnits="userSpaceOnUse">
<stop stop-color="#FE860A"/>
<stop offset="0.2435" stop-color="#FB7C0E"/>
<stop offset="0.6648" stop-color="#F55F19"/>
<stop offset="1" stop-color="#EF4424"/>
</linearGradient>
<linearGradient id="paint9_linear_313_14028" x1="75.8445" y1="64.9958" x2="81.3793" y2="73.0115" gradientUnits="userSpaceOnUse">
<stop stop-color="#CA2E43" stop-opacity="0"/>
<stop offset="0.7782" stop-color="#C30C47" stop-opacity="0.778"/>
<stop offset="1" stop-color="#C00148"/>
</linearGradient>
<clipPath id="clip0_313_14028">
<rect width="146" height="146" fill="white"/>
</clipPath>
</defs>
</svg>
