<svg width="100" height="72" viewBox="0 0 100 72" fill="none" xmlns="http://www.w3.org/2000/svg">
<path d="M80.6733 25.6135C79.3183 11.496 67.5644 0.419434 53.0939 0.419434C41.8969 0.419434 32.3089 7.0651 27.8905 16.6008C26.56 16.1768 25.1739 15.8892 23.7043 15.8892C16.0158 15.8892 9.78164 22.1264 9.78164 29.8118C9.78164 31.3402 10.0879 32.7852 10.5427 34.1558C4.5623 37.6429 0.5 44.0442 0.5 51.4634C0.5 62.5708 9.50337 71.5742 20.6107 71.5742V71.5804H76.2985V71.5742C89.1198 71.5742 99.5 61.1877 99.5 48.3696C99.5 37.058 91.3937 27.6618 80.6733 25.6135ZM61.6951 43.4254H56.1878V55.8383C56.1878 57.5491 54.8078 58.9384 53.0939 58.9384H46.9061C45.1984 58.9384 43.8122 57.5491 43.8122 55.8383V43.4254H38.3018C34.9418 43.4254 33.5712 41.1822 35.2481 38.4473L46.9463 26.9163C49.2389 24.6267 50.6898 24.5495 53.0537 26.9163L64.7519 38.4473C66.435 41.1853 65.0551 43.4254 61.6951 43.4254Z" fill="#80C6F5"/>
</svg>
