<svg width="100" height="100" viewBox="0 0 100 100" fill="none" xmlns="http://www.w3.org/2000/svg">
<g id="fi_179378" clip-path="url(#clip0_9_8497)">
<g id="Group">
<path id="Vector" d="M80.6733 39.614C79.3183 25.4965 67.5644 14.4199 53.0939 14.4199C41.8969 14.4199 32.3089 21.0656 27.8905 30.6013C26.56 30.1773 25.1739 29.8897 23.7043 29.8897C16.0158 29.8897 9.78164 36.1269 9.78164 43.8123C9.78164 45.3407 10.0879 46.7857 10.5427 48.1563C4.5623 51.6434 0.5 58.0447 0.5 65.4639C0.5 76.5713 9.50337 85.5747 20.6107 85.5747V85.5809H76.2985V85.5747C89.1198 85.5747 99.5 75.1882 99.5 62.37C99.5 51.0585 91.3937 41.6623 80.6733 39.614ZM61.6951 57.4259H56.1878V69.8388C56.1878 71.5496 54.8078 72.9389 53.0939 72.9389H46.9061C45.1984 72.9389 43.8122 71.5496 43.8122 69.8388V57.4259H38.3018C34.9418 57.4259 33.5712 55.1827 35.2481 52.4478L46.9463 40.9167C49.2389 38.6272 50.6898 38.55 53.0537 40.9167L64.7519 52.4478C66.435 55.1858 65.0551 57.4259 61.6951 57.4259Z" fill="#8083CF"/>
</g>
</g>
<defs>
<clipPath id="clip0_9_8497">
<rect width="99" height="99" fill="white" transform="translate(0.5 0.5)"/>
</clipPath>
</defs>
</svg>
