<svg width="26" height="26" viewBox="0 0 26 26" fill="none" xmlns="http://www.w3.org/2000/svg">
<g id="Videoconference" clip-path="url(#clip0_182_28182)">
<g id="Group">
<path id="Vector" d="M23.5118 19.9401H2.48839C1.53463 19.9401 0.761475 19.167 0.761475 18.2132V2.51818C0.761475 1.56441 1.53463 0.79126 2.48839 0.79126H23.5118C24.4655 0.79126 25.2387 1.56441 25.2387 2.51818V18.2132C25.2387 19.1669 24.4655 19.9401 23.5118 19.9401Z" fill="#CCEEFF"/>
<path id="Vector_2" d="M23.5118 0.79126H12.9973V19.9401H23.5118C24.4655 19.9401 25.2387 19.167 25.2387 18.2132V2.51818C25.2387 1.56441 24.4655 0.79126 23.5118 0.79126Z" fill="#FF405C"/>
<path id="Vector_3" d="M0.761475 10.3657V18.2132C0.761475 19.167 1.53463 19.9402 2.48839 19.9402H23.5117C24.4655 19.9402 25.2386 19.167 25.2386 18.2132V10.3657H0.761475Z" fill="white"/>
<path id="Vector_4" d="M12.9973 10.3657V19.9402H23.5118C24.4655 19.9402 25.2387 19.167 25.2387 18.2132V10.3657H12.9973Z" fill="#00215A"/>
<path id="Vector_5" d="M8.78394 25.2131L9.61186 19.9402H16.3583L17.1013 25.2125L8.78394 25.2131Z" fill="#004DB6"/>
<path id="Vector_6" d="M12.9973 25.2131L17.1013 25.2128L16.3583 19.9404H12.9973V25.2131Z" fill="#192B80"/>
<g id="Group_2">
<path id="Vector_7" d="M19.0228 25.9701H6.97713C6.55661 25.9701 6.2157 25.6292 6.2157 25.2087C6.2157 24.7882 6.55661 24.4473 6.97713 24.4473H19.0228C19.4433 24.4473 19.7842 24.7882 19.7842 25.2087C19.7842 25.6292 19.4433 25.9701 19.0228 25.9701Z" fill="#0089FF"/>
</g>
<path id="Vector_8" d="M19.0229 24.4473H12.9973V25.9701H19.0229C19.4434 25.9701 19.7843 25.6292 19.7843 25.2087C19.7843 24.7882 19.4434 24.4473 19.0229 24.4473Z" fill="#295FCC"/>
<path id="Vector_9" d="M18.9402 16.3088C19.9111 16.3088 20.6981 15.5218 20.6981 14.5509C20.6981 13.58 19.9111 12.793 18.9402 12.793C17.9693 12.793 17.1823 13.58 17.1823 14.5509C17.1823 15.5218 17.9693 16.3088 18.9402 16.3088Z" fill="#FFA64D"/>
<path id="Vector_10" d="M18.9402 12.793V16.3088C19.9111 16.3088 20.6981 15.5218 20.6981 14.5509C20.6981 13.58 19.9111 12.793 18.9402 12.793Z" fill="#FF9933"/>
<path id="Vector_11" d="M20.0813 16.5806H17.7747L17.7746 16.5809C16.8009 16.5886 16.0139 17.38 16.0139 18.3555V18.754C16.0139 19.0107 16.222 19.2188 16.4787 19.2188H21.3915C21.6482 19.2188 21.8562 19.0107 21.8562 18.754V18.3555C21.8562 17.3752 21.0616 16.5806 20.0813 16.5806Z" fill="#7AFFE4"/>
<path id="Vector_12" d="M20.0813 16.5806H18.9402V19.2188H21.3915C21.6482 19.2188 21.8562 19.0107 21.8562 18.754V18.3555C21.8562 17.3752 21.0616 16.5806 20.0813 16.5806Z" fill="#00ECCE"/>
<path id="Vector_13" d="M7.09118 16.3088C8.06206 16.3088 8.84912 15.5218 8.84912 14.5509C8.84912 13.58 8.06206 12.793 7.09118 12.793C6.12031 12.793 5.33325 13.58 5.33325 14.5509C5.33325 15.5218 6.12031 16.3088 7.09118 16.3088Z" fill="#FFCC99"/>
<path id="Vector_14" d="M7.09119 12.793V16.3088C8.06206 16.3088 8.84912 15.5218 8.84912 14.5509C8.84912 13.58 8.06206 12.793 7.09119 12.793Z" fill="#FFB366"/>
<path id="Vector_15" d="M8.23219 16.5806H5.92562L5.92552 16.5809C4.95181 16.5886 4.16479 17.38 4.16479 18.3555V18.754C4.16479 19.0107 4.37287 19.2188 4.62957 19.2188H9.54235C9.79905 19.2188 10.0071 19.0107 10.0071 18.754V18.3555C10.0071 17.3752 9.21245 16.5806 8.23219 16.5806Z" fill="#FF9100"/>
<path id="Vector_16" d="M8.23219 16.5806H7.09106V19.2188H9.54235C9.79905 19.2188 10.0071 19.0107 10.0071 18.754V18.3555C10.0071 17.3752 9.21245 16.5806 8.23219 16.5806Z" fill="#FF641A"/>
<path id="Vector_17" d="M18.9402 7.45483C19.9111 7.45483 20.6981 6.66778 20.6981 5.6969C20.6981 4.72602 19.9111 3.93896 18.9402 3.93896C17.9693 3.93896 17.1823 4.72602 17.1823 5.6969C17.1823 6.66778 17.9693 7.45483 18.9402 7.45483Z" fill="#FFA64D"/>
<path id="Vector_18" d="M18.9402 3.93896V7.45483C19.9111 7.45483 20.6981 6.66777 20.6981 5.6969C20.6981 4.72603 19.9111 3.93896 18.9402 3.93896Z" fill="#FF9933"/>
<path id="Vector_19" d="M20.0813 7.72681H17.7747L17.7746 7.72716C16.8009 7.73483 16.0139 8.5262 16.0139 9.50174V9.90023C16.0139 10.1569 16.222 10.365 16.4787 10.365H21.3915C21.6482 10.365 21.8562 10.1569 21.8562 9.90023V9.50174C21.8562 8.52148 21.0616 7.72681 20.0813 7.72681Z" fill="#FFDA2D"/>
<path id="Vector_20" d="M20.0813 7.72681H18.9402V10.365H21.3915C21.6482 10.365 21.8562 10.1569 21.8562 9.90023V9.50174C21.8562 8.52148 21.0616 7.72681 20.0813 7.72681Z" fill="#FDBF00"/>
<path id="Vector_21" d="M7.09118 7.45483C8.06206 7.45483 8.84912 6.66778 8.84912 5.6969C8.84912 4.72602 8.06206 3.93896 7.09118 3.93896C6.12031 3.93896 5.33325 4.72602 5.33325 5.6969C5.33325 6.66778 6.12031 7.45483 7.09118 7.45483Z" fill="#FFCC99"/>
<path id="Vector_22" d="M7.09119 3.93896V7.45483C8.06206 7.45483 8.84912 6.66777 8.84912 5.6969C8.84912 4.72603 8.06206 3.93896 7.09119 3.93896Z" fill="#FFB366"/>
<path id="Vector_23" d="M8.23219 7.72681H5.92562L5.92552 7.72716C4.95181 7.73483 4.16479 8.5262 4.16479 9.50174V9.90023C4.16479 10.1569 4.37287 10.365 4.62957 10.365H9.54235C9.79905 10.365 10.0071 10.1569 10.0071 9.90023V9.50174C10.0071 8.52148 9.21245 7.72681 8.23219 7.72681Z" fill="#FF405C"/>
<path id="Vector_24" d="M8.23219 7.72681H7.09106V10.365H9.54235C9.79905 10.365 10.0071 10.1569 10.0071 9.90023V9.50174C10.0071 8.52148 9.21245 7.72681 8.23219 7.72681Z" fill="#C1126B"/>
<path id="Vector_25" d="M23.7129 20.7018H2.28712C1.02397 20.7018 0 19.6778 0 18.4146V2.3171C0 1.054 1.02397 0.0300293 2.28712 0.0300293H23.713C24.9761 0.0300293 26.0001 1.054 26.0001 2.3171V18.4147C26 19.6778 24.976 20.7018 23.7129 20.7018ZM2.28712 1.55288C1.86504 1.55288 1.52285 1.89502 1.52285 2.3171V18.4146C1.52285 18.8367 1.86504 19.1789 2.28712 19.1789H23.7129C24.135 19.1789 24.4772 18.8367 24.4772 18.4146V2.3171C24.4772 1.89502 24.135 1.55283 23.7129 1.55283L2.28712 1.55288Z" fill="#0089FF"/>
<path id="Vector_26" d="M23.9048 0.0297852H12.9973V1.55264H23.9048C24.2209 1.55264 24.4772 1.80894 24.4772 2.12508V18.3665C24.4772 18.8151 24.1136 19.1787 23.6651 19.1787H12.9973V20.7015H23.9048C25.062 20.7015 26.0001 19.7634 26.0001 18.6062V2.12508C26.0001 0.967864 25.062 0.0297852 23.9048 0.0297852Z" fill="#295FCC"/>
</g>
</g>
<defs>
<clipPath id="clip0_182_28182">
<rect width="26" height="26" fill="white"/>
</clipPath>
</defs>
</svg>
