<svg width="29" height="29" viewBox="0 0 29 29" fill="none" xmlns="http://www.w3.org/2000/svg">
<g id="fi_2636869" clip-path="url(#clip0_9_7933)">
<g id="Group">
<path id="Vector" d="M26.9177 5.65799L24.6108 3.83818L24.8022 0.905989C24.8254 0.554828 24.6413 0.267102 24.3785 0.115877C24.1163 -0.0359156 23.7748 -0.0506417 23.4825 0.144196L21.0391 1.7754L18.3091 0.687929C17.6561 0.42739 16.9866 1.03059 17.1769 1.70743L17.9738 4.53541L16.0957 6.7953C15.646 7.3362 16.013 8.15973 16.7153 8.18748L19.6515 8.30359L21.2198 10.7883C21.5964 11.3842 22.4925 11.2862 22.7354 10.6292L23.7532 7.87257L26.601 7.14816C27.2824 6.97484 27.4699 6.09298 26.9177 5.65799Z" fill="#FED843"/>
<path id="Vector_2" d="M8.26903 23.9023H0.849339C0.380142 23.9023 -0.000244141 24.2827 -0.000244141 24.7519V28.1503C-0.000244141 28.6195 0.380142 28.9998 0.849339 28.9998H8.26903C8.73822 28.9998 9.11861 28.6195 9.11861 28.1503V24.7519C9.11861 24.2827 8.73822 23.9023 8.26903 23.9023Z" fill="#FED843"/>
<path id="Vector_3" d="M15.3494 20.5039H8.2695C7.80031 20.5039 7.41992 20.8843 7.41992 21.3535V28.9997H15.3494C15.8186 28.9997 16.1989 28.6193 16.1989 28.1502V21.3535C16.1989 20.8843 15.8186 20.5039 15.3494 20.5039Z" fill="#FFB64C"/>
<path id="Vector_4" d="M21.8631 17.1055H15.3496C14.8804 17.1055 14.5 17.4859 14.5 17.9551V28.9996H21.8631C22.3322 28.9996 22.7126 28.6192 22.7126 28.15V17.9551C22.7126 17.4859 22.3322 17.1055 21.8631 17.1055Z" fill="#FED843"/>
<path id="Vector_5" d="M28.1502 28.9995H21.0137V14.5566C21.0137 14.0874 21.3941 13.707 21.8633 13.707H28.1502C28.6194 13.707 28.9998 14.0874 28.9998 14.5566V28.1499C28.9998 28.6191 28.6194 28.9995 28.1502 28.9995Z" fill="#FFB64C"/>
<path id="Vector_6" d="M4.30466 18.8044C3.83546 18.8044 3.45508 18.424 3.45508 17.9548C3.45508 16.5495 4.59845 15.4061 6.00383 15.4061H9.40216C9.87062 15.4061 10.2517 15.025 10.2517 14.5565C10.2517 13.1511 11.3951 12.0078 12.8005 12.0078H16.1988C16.6673 12.0078 17.0484 11.6266 17.0484 11.1582C17.0484 10.689 17.4288 10.3086 17.898 10.3086C18.3672 10.3086 18.7476 10.689 18.7476 11.1582C18.7476 12.5636 17.6042 13.7069 16.1988 13.7069H12.8005C12.332 13.7069 11.9509 14.088 11.9509 14.5565C11.9509 15.9619 10.8075 17.1053 9.40216 17.1053H6.00383C5.53537 17.1053 5.15424 17.4864 5.15424 17.9548C5.15424 18.424 4.77386 18.8044 4.30466 18.8044Z" fill="#EFE2DD"/>
<path id="Vector_7" d="M26.6019 7.14947L23.7541 7.87388L22.7363 10.6305C22.4933 11.2875 21.5973 11.3855 21.2207 10.7896L19.6523 8.3049L24.3794 0.117188C24.6422 0.268413 24.8263 0.556139 24.8031 0.9073L24.6116 3.83949L26.9185 5.6593C27.4708 6.09429 27.2833 6.97615 26.6019 7.14947Z" fill="#FFB64C"/>
</g>
</g>
<defs>
<clipPath id="clip0_9_7933">
<rect width="29" height="29" fill="white"/>
</clipPath>
</defs>
</svg>
