<svg width="32" height="32" viewBox="0 0 32 32" fill="none" xmlns="http://www.w3.org/2000/svg">
<circle cx="16" cy="16" r="16" fill="#FECBD7"/>
<g clip-path="url(#clip0_125_17421)">
<path d="M25.1013 22.9609H7.88251V14.9453H11.445L16.4919 9.89844L21.5389 14.9453H25.1013V22.9609Z" fill="#E6BE94"/>
<path d="M18.2731 19.3984H14.7106V22.9609H18.2731V19.3984Z" fill="#996459"/>
<path d="M18.1989 18.2109H14.7849C14.7438 18.2109 14.7106 18.2442 14.7106 18.2852V19.3984H18.2731V18.2852C18.2731 18.2442 18.2399 18.2109 18.1989 18.2109Z" fill="#4BB9EC"/>
<path d="M19.2319 7.52344L19.7158 6.7975C19.7763 6.70647 19.7821 6.58936 19.7305 6.4928C19.6789 6.39624 19.5783 6.33594 19.4688 6.33594H16.5C16.3359 6.33594 16.2031 6.46871 16.2031 6.63281V8.41406C16.2031 8.57816 16.3359 8.71094 16.5 8.71094H19.4688C19.5783 8.71094 19.6789 8.65063 19.7306 8.55408C19.7822 8.45752 19.7764 8.3404 19.7158 8.24937L19.2319 7.52344Z" fill="#FF4F19"/>
<path d="M16.5 10.1953C16.3359 10.1953 16.2031 10.0625 16.2031 9.89844V6.03906C16.2031 5.87496 16.3359 5.74219 16.5 5.74219C16.6641 5.74219 16.7969 5.87496 16.7969 6.03906V9.89844C16.7969 10.0625 16.6641 10.1953 16.5 10.1953Z" fill="#5C546A"/>
<path d="M17.702 11.2692C17.7478 11.1582 17.8562 11.0859 17.9763 11.0859H23.6169C23.7184 11.0859 23.8129 11.1378 23.8674 11.2234L25.9455 14.489C26.0038 14.5806 26.0073 14.6963 25.9554 14.7913C25.9032 14.8862 25.8035 14.9453 25.695 14.9453H21.2419C21.1631 14.9453 21.0877 14.914 21.032 14.8583L17.7664 11.5927C17.6814 11.5078 17.6559 11.3802 17.702 11.2692Z" fill="#FF4F19"/>
<path d="M15.2899 11.2692C15.2441 11.1581 15.1356 11.0859 15.0156 11.0859H9.375C9.27355 11.0859 9.17903 11.1378 9.12452 11.2234L7.04639 14.489C6.98813 14.5806 6.98464 14.6963 7.03652 14.7913C7.08873 14.8862 7.18844 14.9453 7.29688 14.9453H11.75C11.8289 14.9453 11.9042 14.914 11.9599 14.8583L15.2255 11.5927C15.3105 11.5078 15.336 11.3802 15.2899 11.2692Z" fill="#FF4F19"/>
<path d="M21.5428 15.2381C21.4669 15.2381 21.3909 15.2092 21.3329 15.1512L16.5 10.3183L11.6671 15.1512C11.5511 15.2671 11.3633 15.2671 11.2473 15.1512C11.1313 15.0352 11.1313 14.8473 11.2473 14.7313L16.2901 9.68851C16.4061 9.57254 16.594 9.57254 16.7099 9.68851L21.7528 14.7313C21.8687 14.8473 21.8687 15.0352 21.7528 15.1512C21.6947 15.2091 21.6188 15.2381 21.5428 15.2381Z" fill="#E3001E"/>
<path d="M16.5 16.7266C17.4838 16.7266 18.2813 15.9291 18.2813 14.9453C18.2813 13.9616 17.4838 13.1641 16.5 13.1641C15.5163 13.1641 14.7188 13.9616 14.7188 14.9453C14.7188 15.9291 15.5163 16.7266 16.5 16.7266Z" fill="#FFEBB7"/>
<path d="M16.5 13.7578C16.3359 13.7578 16.2031 13.8906 16.2031 14.0547V14.6484H15.6094C15.4453 14.6484 15.3125 14.7812 15.3125 14.9453C15.3125 15.1094 15.4453 15.2422 15.6094 15.2422H16.5C16.6641 15.2422 16.7969 15.1094 16.7969 14.9453V14.0547C16.7969 13.8906 16.6641 13.7578 16.5 13.7578Z" fill="#5C546A"/>
<path d="M20.945 16.875C20.945 16.4651 20.6127 16.1328 20.2028 16.1328C19.7929 16.1328 19.4606 16.4651 19.4606 16.875C19.4606 16.9258 19.4659 16.9755 19.4756 17.0234H19.4606V18.2109H20.945V17.0234H20.9301C20.9398 16.9755 20.945 16.9258 20.945 16.875Z" fill="#4BB9EC"/>
<path d="M20.2109 15.8359C19.638 15.8359 19.1719 16.3021 19.1719 16.875V18.2109C19.1719 18.375 19.3047 18.5078 19.4688 18.5078H20.9531C21.1172 18.5078 21.25 18.375 21.25 18.2109V16.875C21.25 16.3021 20.7838 15.8359 20.2109 15.8359ZM20.2109 16.4297C20.4565 16.4297 20.6562 16.6294 20.6562 16.875V17.0234H19.7656V16.875C19.7656 16.6294 19.9654 16.4297 20.2109 16.4297ZM19.7656 17.9141V17.6172H20.6562V17.9141H19.7656Z" fill="#7E5C62"/>
<path d="M13.5313 19.6953H12.0469V21.4766H13.5313V19.6953Z" fill="#4BB9EC"/>
<path d="M13.5312 19.3984H12.0469C11.8828 19.3984 11.75 19.5312 11.75 19.6953V21.4766C11.75 21.6407 11.8828 21.7734 12.0469 21.7734H13.5312C13.6953 21.7734 13.8281 21.6407 13.8281 21.4766V19.6953C13.8281 19.5312 13.6953 19.3984 13.5312 19.3984ZM13.2344 19.9922V20.2891H12.3438V19.9922H13.2344ZM12.3438 21.1797V20.8828H13.2344V21.1797H12.3438Z" fill="#7E5C62"/>
<path d="M10.8513 19.6953H9.36691V21.4766H10.8513V19.6953Z" fill="#4BB9EC"/>
<path d="M10.8513 19.3984H9.36688C9.20278 19.3984 9.07001 19.5312 9.07001 19.6953V21.4766C9.07001 21.6407 9.20278 21.7734 9.36688 21.7734H10.8513C11.0154 21.7734 11.1481 21.6407 11.1481 21.4766V19.6953C11.1481 19.5312 11.0154 19.3984 10.8513 19.3984ZM10.5544 19.9922V20.2891H9.66376V19.9922H10.5544ZM9.66376 21.1797V20.8828H10.5544V21.1797H9.66376Z" fill="#7E5C62"/>
<path d="M23.625 19.6953H22.1406V21.4766H23.625V19.6953Z" fill="#4BB9EC"/>
<path d="M23.625 19.3984H22.1406C21.9765 19.3984 21.8438 19.5312 21.8438 19.6953V21.4766C21.8438 21.6407 21.9765 21.7734 22.1406 21.7734H23.625C23.7891 21.7734 23.9219 21.6407 23.9219 21.4766V19.6953C23.9219 19.5312 23.7891 19.3984 23.625 19.3984ZM23.3281 19.9922V20.2891H22.4375V19.9922H23.3281ZM22.4375 21.1797V20.8828H23.3281V21.1797H22.4375Z" fill="#7E5C62"/>
<path d="M20.945 19.6953H19.4607V21.4766H20.945V19.6953Z" fill="#4BB9EC"/>
<path d="M20.945 19.3984H19.4606C19.2965 19.3984 19.1638 19.5312 19.1638 19.6953V21.4766C19.1638 21.6407 19.2965 21.7734 19.4606 21.7734H20.945C21.1091 21.7734 21.2419 21.6407 21.2419 21.4766V19.6953C21.2419 19.5312 21.1091 19.3984 20.945 19.3984ZM20.6481 19.9922V20.2891H19.7575V19.9922H20.6481ZM19.7575 21.1797V20.8828H20.6481V21.1797H19.7575Z" fill="#7E5C62"/>
<path d="M23.6088 16.875C23.6088 16.4651 23.2765 16.1328 22.8666 16.1328C22.4567 16.1328 22.1244 16.4651 22.1244 16.875C22.1244 16.9258 22.1297 16.9755 22.1394 17.0234H22.1244V18.2109H23.6088V17.0234H23.5938C23.6036 16.9755 23.6088 16.9258 23.6088 16.875Z" fill="#4BB9EC"/>
<path d="M22.8747 15.8359C22.3018 15.8359 21.8356 16.3021 21.8356 16.875V18.2109C21.8356 18.375 21.9684 18.5078 22.1325 18.5078H23.6169C23.781 18.5078 23.9138 18.375 23.9138 18.2109V16.875C23.9138 16.3021 23.4476 15.8359 22.8747 15.8359ZM22.8747 16.4297C23.1202 16.4297 23.32 16.6294 23.32 16.875V17.0234H22.4294V16.875C22.4294 16.6294 22.6291 16.4297 22.8747 16.4297ZM22.4294 17.9141V17.6172H23.32V17.9141H22.4294Z" fill="#7E5C62"/>
<path d="M10.8432 16.875C10.8432 16.4651 10.5109 16.1328 10.101 16.1328C9.69107 16.1328 9.3588 16.4651 9.3588 16.875C9.3588 16.9258 9.36403 16.9755 9.37375 17.0234H9.3588V18.2109H10.8432V17.0234H10.8282C10.8379 16.9755 10.8432 16.9258 10.8432 16.875Z" fill="#4BB9EC"/>
<path d="M10.1091 15.8359C9.53618 15.8359 9.07001 16.3021 9.07001 16.875V18.2109C9.07001 18.375 9.20278 18.5078 9.36688 18.5078H10.8513C11.0154 18.5078 11.1481 18.375 11.1481 18.2109V16.875C11.1481 16.3021 10.682 15.8359 10.1091 15.8359ZM10.1091 16.4297C10.3546 16.4297 10.5544 16.6294 10.5544 16.875V17.0234H9.66376V16.875C9.66376 16.6294 9.86352 16.4297 10.1091 16.4297ZM9.66376 17.9141V17.6172H10.5544V17.9141H9.66376Z" fill="#7E5C62"/>
<path d="M13.5069 16.875C13.5069 16.4651 13.1747 16.1328 12.7647 16.1328C12.3548 16.1328 12.0226 16.4651 12.0226 16.875C12.0226 16.9258 12.0278 16.9755 12.0375 17.0234H12.0226V18.2109H13.5069V17.0234H13.492C13.5017 16.9755 13.5069 16.9258 13.5069 16.875Z" fill="#4BB9EC"/>
<path d="M12.7729 15.8359C12.2 15.8359 11.7338 16.3021 11.7338 16.875V18.2109C11.7338 18.375 11.8666 18.5078 12.0307 18.5078H13.515C13.6791 18.5078 13.8119 18.375 13.8119 18.2109V16.875C13.8119 16.3021 13.3457 15.8359 12.7729 15.8359ZM12.7729 16.4297C13.0184 16.4297 13.2182 16.6294 13.2182 16.875V17.0234H12.3275V16.875C12.3275 16.6294 12.5273 16.4297 12.7729 16.4297ZM12.3275 17.9141V17.6172H13.2182V17.9141H12.3275Z" fill="#7E5C62"/>
<path d="M16.5 17.0234C15.3541 17.0234 14.4219 16.0912 14.4219 14.9453C14.4219 13.7994 15.3541 12.8672 16.5 12.8672C17.6459 12.8672 18.5781 13.7994 18.5781 14.9453C18.5781 16.0912 17.6459 17.0234 16.5 17.0234ZM16.5 13.4609C15.6816 13.4609 15.0156 14.1268 15.0156 14.9453C15.0156 15.7638 15.6816 16.4297 16.5 16.4297C17.3184 16.4297 17.9844 15.7638 17.9844 14.9453C17.9844 14.1268 17.3184 13.4609 16.5 13.4609Z" fill="#7E5C62"/>
<path d="M17.6875 17.9141H15.3125C14.8214 17.9141 14.4219 18.3136 14.4219 18.8047V22.9609C14.4219 23.125 14.5547 23.2578 14.7188 23.2578C14.8828 23.2578 15.0156 23.125 15.0156 22.9609V19.6953H16.195V22.9609H16.7887V19.6953H17.9844V22.9609C17.9844 23.125 18.1172 23.2578 18.2812 23.2578C18.4453 23.2578 18.5781 23.125 18.5781 22.9609V18.8047C18.5781 18.3136 18.1786 17.9141 17.6875 17.9141ZM17.9844 19.1016H15.0156V18.8047C15.0156 18.6409 15.1487 18.5078 15.3125 18.5078H17.6875C17.8513 18.5078 17.9844 18.6409 17.9844 18.8047V19.1016Z" fill="#7E5C62"/>
<path d="M25.7031 23.2578H7.29688C7.13278 23.2578 7 23.125 7 22.9609C7 22.7968 7.13278 22.6641 7.29688 22.6641H25.7031C25.8672 22.6641 26 22.7968 26 22.9609C26 23.125 25.8672 23.2578 25.7031 23.2578Z" fill="#5C546A"/>
</g>
<defs>
<clipPath id="clip0_125_17421">
<rect width="19" height="19" fill="white" transform="translate(7 5)"/>
</clipPath>
</defs>
</svg>
