<svg width="50" height="49" viewBox="0 0 50 49" fill="none" xmlns="http://www.w3.org/2000/svg">
<g id="Videoconference" clip-path="url(#clip0_22_12803)">
<g id="Group">
<path id="Vector" d="M44.8106 37.5795H5.18963C3.39216 37.5795 1.93506 36.1224 1.93506 34.3249V4.74579C1.93506 2.94831 3.39216 1.49121 5.18963 1.49121H44.8106C46.6081 1.49121 48.0652 2.94831 48.0652 4.74579V34.3249C48.0652 36.1223 46.608 37.5795 44.8106 37.5795Z" fill="#CCEEFF"/>
<path id="Vector_2" d="M44.8106 1.49121H24.9949V37.5795H44.8106C46.608 37.5795 48.0651 36.1224 48.0651 34.3249V4.74579C48.0651 2.94831 46.6079 1.49121 44.8106 1.49121Z" fill="#FF405C"/>
<path id="Vector_3" d="M1.93506 19.5354V34.325C1.93506 36.1224 3.39216 37.5795 5.18963 37.5795H44.8105C46.608 37.5795 48.0651 36.1224 48.0651 34.325V19.5354H1.93506Z" fill="white"/>
<path id="Vector_4" d="M24.9949 19.5354V37.5795H44.8106C46.608 37.5795 48.0651 36.1224 48.0651 34.325V19.5354H24.9949Z" fill="#00215A"/>
<path id="Vector_5" d="M17.0542 47.5168L18.6145 37.5793H31.3289L32.7293 47.5157L17.0542 47.5168Z" fill="#004DB6"/>
<path id="Vector_6" d="M24.9949 47.517L32.7293 47.5164L31.329 37.5801H24.9949V47.517Z" fill="#192B80"/>
<g id="Group_2">
<path id="Vector_7" d="M36.3508 48.9437H13.6494C12.8569 48.9437 12.2144 48.3012 12.2144 47.5087C12.2144 46.7162 12.8569 46.0737 13.6494 46.0737H36.3508C37.1433 46.0737 37.7858 46.7162 37.7858 47.5087C37.7858 48.3012 37.1433 48.9437 36.3508 48.9437Z" fill="#0089FF"/>
</g>
<path id="Vector_8" d="M36.3508 46.0737H24.9949V48.9437H36.3508C37.1433 48.9437 37.7858 48.3012 37.7858 47.5087C37.7858 46.7162 37.1433 46.0737 36.3508 46.0737Z" fill="#295FCC"/>
<path id="Vector_9" d="M36.1949 30.7357C38.0246 30.7357 39.5079 29.2524 39.5079 27.4226C39.5079 25.5929 38.0246 24.1096 36.1949 24.1096C34.3651 24.1096 32.8818 25.5929 32.8818 27.4226C32.8818 29.2524 34.3651 30.7357 36.1949 30.7357Z" fill="#FFA64D"/>
<path id="Vector_10" d="M36.1951 24.1096V30.7357C38.0248 30.7357 39.5081 29.2524 39.5081 27.4226C39.5081 25.5929 38.0248 24.1096 36.1951 24.1096Z" fill="#FF9933"/>
<path id="Vector_11" d="M38.3454 31.248H33.9984L33.9982 31.2487C32.1631 31.2632 30.6799 32.7546 30.6799 34.5931V35.3441C30.6799 35.8279 31.0721 36.22 31.5559 36.22H40.8146C41.2983 36.22 41.6905 35.8279 41.6905 35.3441V34.5931C41.6905 32.7457 40.1928 31.248 38.3454 31.248Z" fill="#7AFFE4"/>
<path id="Vector_12" d="M38.3454 31.248H36.1948V36.22H40.8146C41.2983 36.22 41.6905 35.8279 41.6905 35.3441V34.5931C41.6905 32.7457 40.1928 31.248 38.3454 31.248Z" fill="#00ECCE"/>
<path id="Vector_13" d="M13.8641 30.7357C15.6938 30.7357 17.1771 29.2524 17.1771 27.4226C17.1771 25.5929 15.6938 24.1096 13.8641 24.1096C12.0343 24.1096 10.551 25.5929 10.551 27.4226C10.551 29.2524 12.0343 30.7357 13.8641 30.7357Z" fill="#FFCC99"/>
<path id="Vector_14" d="M13.864 24.1096V30.7357C15.6937 30.7357 17.177 29.2524 17.177 27.4226C17.177 25.5929 15.6937 24.1096 13.864 24.1096Z" fill="#FFB366"/>
<path id="Vector_15" d="M16.0146 31.248H11.6676L11.6674 31.2487C9.83233 31.2632 8.34912 32.7546 8.34912 34.5931V35.3441C8.34912 35.8279 8.74126 36.22 9.22504 36.22H18.4837C18.9675 36.22 19.3597 35.8279 19.3597 35.3441V34.5931C19.3597 32.7457 17.862 31.248 16.0146 31.248Z" fill="#FF9100"/>
<path id="Vector_16" d="M16.0146 31.248H13.864V36.22H18.4837C18.9675 36.22 19.3597 35.8279 19.3597 35.3441V34.5931C19.3597 32.7457 17.862 31.248 16.0146 31.248Z" fill="#FF641A"/>
<path id="Vector_17" d="M36.1949 14.0496C38.0246 14.0496 39.5079 12.5663 39.5079 10.7366C39.5079 8.90688 38.0246 7.42358 36.1949 7.42358C34.3651 7.42358 32.8818 8.90688 32.8818 10.7366C32.8818 12.5663 34.3651 14.0496 36.1949 14.0496Z" fill="#FFA64D"/>
<path id="Vector_18" d="M36.1951 7.42358V14.0496C38.0248 14.0496 39.5081 12.5663 39.5081 10.7366C39.5081 8.90689 38.0248 7.42358 36.1951 7.42358Z" fill="#FF9933"/>
<path id="Vector_19" d="M38.3454 14.562H33.9984L33.9982 14.5627C32.1631 14.5771 30.6799 16.0686 30.6799 17.9071V18.6581C30.6799 19.1419 31.0721 19.534 31.5559 19.534H40.8146C41.2983 19.534 41.6905 19.1419 41.6905 18.6581V17.9071C41.6905 16.0597 40.1928 14.562 38.3454 14.562Z" fill="#FFDA2D"/>
<path id="Vector_20" d="M38.3454 14.562H36.1948V19.534H40.8146C41.2983 19.534 41.6905 19.1419 41.6905 18.6581V17.9071C41.6905 16.0597 40.1928 14.562 38.3454 14.562Z" fill="#FDBF00"/>
<path id="Vector_21" d="M13.8641 14.0496C15.6938 14.0496 17.1771 12.5663 17.1771 10.7366C17.1771 8.90688 15.6938 7.42358 13.8641 7.42358C12.0343 7.42358 10.551 8.90688 10.551 10.7366C10.551 12.5663 12.0343 14.0496 13.8641 14.0496Z" fill="#FFCC99"/>
<path id="Vector_22" d="M13.864 7.42358V14.0496C15.6937 14.0496 17.177 12.5663 17.177 10.7366C17.177 8.90689 15.6937 7.42358 13.864 7.42358Z" fill="#FFB366"/>
<path id="Vector_23" d="M16.0146 14.562H11.6676L11.6674 14.5627C9.83233 14.5771 8.34912 16.0686 8.34912 17.9071V18.6581C8.34912 19.1419 8.74126 19.534 9.22504 19.534H18.4837C18.9675 19.534 19.3597 19.1419 19.3597 18.6581V17.9071C19.3597 16.0597 17.862 14.562 16.0146 14.562Z" fill="#FF405C"/>
<path id="Vector_24" d="M16.0146 14.562H13.864V19.534H18.4837C18.9675 19.534 19.3597 19.1419 19.3597 18.6581V17.9071C19.3597 16.0597 17.862 14.562 16.0146 14.562Z" fill="#C1126B"/>
<path id="Vector_25" d="M45.1897 39.0147H4.81035C2.42978 39.0147 0.5 37.0849 0.5 34.7043V4.36665C0.5 1.98618 2.42978 0.0563965 4.81035 0.0563965H45.1898C47.5703 0.0563965 49.5001 1.98618 49.5001 4.36665V34.7044C49.5 37.0849 47.5702 39.0147 45.1897 39.0147ZM4.81035 2.92639C4.01488 2.92639 3.37 3.57118 3.37 4.36665V34.7043C3.37 35.4998 4.01488 36.1447 4.81035 36.1447H45.1897C45.9852 36.1447 46.6301 35.4998 46.6301 34.7043V4.36665C46.6301 3.57118 45.9852 2.9263 45.1897 2.9263L4.81035 2.92639Z" fill="#0089FF"/>
<path id="Vector_26" d="M45.5512 0.0561523H24.9949V2.92615H45.5512C46.147 2.92615 46.63 3.40917 46.63 4.00498V34.6139C46.63 35.4592 45.9448 36.1444 45.0995 36.1444H24.9949V39.0144H45.5512C47.7321 39.0144 49.5 37.2465 49.5 35.0656V4.00498C49.5 1.82407 47.7321 0.0561523 45.5512 0.0561523Z" fill="#295FCC"/>
</g>
</g>
<defs>
<clipPath id="clip0_22_12803">
<rect width="49" height="49" fill="white" transform="translate(0.5)"/>
</clipPath>
</defs>
</svg>
