<svg width="42" height="42" viewBox="0 0 42 42" fill="none" xmlns="http://www.w3.org/2000/svg">
<g clip-path="url(#clip0_1217_15307)">
<path d="M22.314 40.5547C32.8578 40.5547 41.4053 31.8002 41.4053 21.001C41.4053 10.2018 32.8578 1.44727 22.314 1.44727C11.7701 1.44727 3.22266 10.2018 3.22266 21.001C3.22266 31.8002 11.7701 40.5547 22.314 40.5547Z" fill="#ECEDF8"/>
<path d="M22.3133 1.44727C21.9076 1.44727 21.5049 1.46031 21.1055 1.48584C31.0866 2.12409 38.989 10.6172 38.989 21.0009C38.989 31.3846 31.0866 39.8779 21.1055 40.5161C21.5049 40.5416 21.9076 40.5547 22.3133 40.5547C32.8571 40.5547 41.4046 31.8001 41.4046 21.0009C41.4046 10.2017 32.8571 1.44727 22.3133 1.44727Z" fill="#B1B3E2"/>
<path d="M11.987 4.09076C11.66 4.02257 11.341 4.23718 11.2741 4.57013C11.2435 4.72228 11.271 4.87272 11.3409 4.99787C11.7256 4.72064 12.1207 4.45761 12.5256 4.20944C12.3466 4.16832 12.1672 4.12843 11.987 4.09076Z" fill="#3498AC"/>
<path d="M3.11382 18.4494C3.15069 18.5921 3.23379 18.7098 3.34233 18.7903C3.38203 18.4287 3.43147 18.0701 3.49017 17.7148C3.20045 17.8226 3.0337 18.1395 3.11382 18.4494Z" fill="#3498AC"/>
<path d="M10.9871 37.0437C10.9873 37.1 10.9949 37.1572 11.0111 37.214C11.016 37.2315 11.0218 37.2485 11.0281 37.2652C11.0282 37.2658 11.0284 37.2664 11.0284 37.267C11.0846 37.561 11.3373 37.7651 11.6206 37.7651C11.6588 37.7651 11.6977 37.7614 11.7366 37.7536C11.8833 37.7245 12.007 37.6435 12.0933 37.533C12.0984 37.5314 12.1035 37.5298 12.1085 37.5282C11.7038 37.2654 11.3091 36.9876 10.9258 36.6953C10.9455 36.8115 10.9659 36.9276 10.9871 37.0437Z" fill="#3498AC"/>
<path d="M32.8915 37.7539C32.9305 37.7616 32.9693 37.7654 33.0076 37.7654C33.2908 37.7654 33.5436 37.5613 33.5997 37.2673C33.6361 37.0768 33.6704 36.886 33.7029 36.6953C33.3218 36.9859 32.9296 37.2622 32.5273 37.5236C32.6139 37.639 32.7406 37.724 32.8915 37.7539Z" fill="#3498AC"/>
<path d="M33.353 4.57013C33.286 4.2371 32.9669 4.02257 32.6402 4.09077C32.46 4.12844 32.2805 4.16832 32.1016 4.20944C32.5064 4.45762 32.9015 4.72065 33.2863 4.99788C33.3562 4.87272 33.3836 4.72229 33.353 4.57013Z" fill="#3498AC"/>
<path d="M38.011 9.31673C38.0861 8.9855 37.8836 8.65493 37.5587 8.57836C37.4005 8.54118 37.2425 8.57114 37.1133 8.64968C37.3923 8.99995 37.6597 9.36015 37.9148 9.72995C37.9476 9.59257 37.9797 9.45477 38.011 9.31673Z" fill="#3498AC"/>
<path d="M22.3125 11.0851C23.3265 11.0851 24.1485 10.2432 24.1485 9.20466C24.1485 8.16612 23.3265 7.32422 22.3125 7.32422C21.2985 7.32422 20.4766 8.16612 20.4766 9.20466C20.4766 10.2432 21.2985 11.0851 22.3125 11.0851Z" fill="#FF815C"/>
<path d="M15.168 19.3488C16.1819 19.3488 17.0039 18.5069 17.0039 17.4683C17.0039 16.4298 16.1819 15.5879 15.168 15.5879C14.154 15.5879 13.332 16.4298 13.332 17.4683C13.332 18.5069 14.154 19.3488 15.168 19.3488Z" fill="#FF43CA"/>
<path d="M31.8672 24.1476C32.8812 24.1476 33.7031 23.3057 33.7031 22.2672C33.7031 21.2286 32.8812 20.3867 31.8672 20.3867C30.8532 20.3867 30.0312 21.2286 30.0312 22.2672C30.0312 23.3057 30.8532 24.1476 31.8672 24.1476Z" fill="url(#paint0_linear_1217_15307)"/>
<path d="M11.5938 38.925C10.5814 38.925 9.75781 38.0814 9.75781 37.0445C9.75781 36.0076 10.5814 35.1641 11.5938 35.1641C12.6061 35.1641 13.4298 36.0076 13.4298 37.0445C13.4298 38.0814 12.6061 38.925 11.5938 38.925Z" fill="#5C63FF"/>
<path d="M33.1406 39.0304C32.1283 39.0304 31.3047 38.1868 31.3047 37.15C31.3047 36.1131 32.1283 35.2695 33.1406 35.2695C34.153 35.2695 34.9767 36.113 34.9767 37.15C34.9767 38.1868 34.153 39.0304 33.1406 39.0304Z" fill="#FF815C"/>
<path d="M37.4259 10.9914C36.4135 10.9914 35.5898 10.1479 35.5898 9.11091C35.5898 8.07397 36.4135 7.23047 37.4259 7.23047C38.4383 7.23047 39.2618 8.07406 39.2618 9.11091C39.2618 10.1478 38.4383 10.9914 37.4259 10.9914Z" fill="#FFD249"/>
<path d="M32.7617 6.57534C31.7493 6.57534 30.9258 5.73184 30.9258 4.6949C30.9258 3.65796 31.7493 2.81445 32.7617 2.81445C33.7741 2.81445 34.5978 3.65796 34.5978 4.6949C34.5978 5.73184 33.774 6.57534 32.7617 6.57534Z" fill="#FFD249"/>
<path d="M11.5938 6.57534C10.5814 6.57534 9.75781 5.73184 9.75781 4.6949C9.75781 3.65796 10.5814 2.81445 11.5938 2.81445C12.6061 2.81445 13.4298 3.65796 13.4298 4.6949C13.4298 5.73184 12.6061 6.57534 11.5938 6.57534Z" fill="#FF815C"/>
<path d="M3.22267 20.3173C4.23663 20.3173 5.05861 19.4754 5.05861 18.4368C5.05861 17.3983 4.23663 16.5564 3.22267 16.5564C2.2087 16.5564 1.38672 17.3983 1.38672 18.4368C1.38672 19.4754 2.2087 20.3173 3.22267 20.3173Z" fill="#DEA580"/>
<path d="M40.4044 28.9801C40.4165 28.9551 40.4272 28.9295 40.4358 28.9032C42.8772 23.1599 42.441 16.1189 39.27 10.7373C40.9628 8.67469 38.7639 5.72087 36.3593 6.86376C35.9367 6.42362 35.493 6.00179 35.0332 5.60293C35.9357 3.10246 32.9238 1.05123 31.048 2.91944C25.5958 0.113425 18.8147 0.148961 13.3927 3.0144C11.4639 0.931078 8.22461 3.16483 9.3924 5.77873C8.72359 6.37479 8.09054 7.0187 7.50685 7.69963C7.00287 8.28757 7.91589 9.09341 8.41641 8.50957C8.95944 7.87616 9.5478 7.27698 10.1693 6.7217C11.371 7.60517 13.1136 7.1551 13.7729 5.80655C15.9486 6.44488 18.0264 7.36101 19.9625 8.53681C19.8004 9.13255 19.8666 9.79789 20.1447 10.3478C18.5512 11.7508 17.1162 13.3378 15.87 15.0771C14.7196 14.7228 13.4516 15.3159 12.9513 16.4263C10.4144 16.4401 7.86951 16.7183 5.37096 17.2566C5.15034 16.8375 4.81586 16.4903 4.41035 16.2577C4.87979 14.3919 5.62332 12.617 6.62483 10.9758C7.02389 10.3217 6.01658 9.64179 5.59924 10.3256C4.53444 12.0704 3.74357 13.9572 3.24337 15.9407C0.350273 15.9907 -0.135427 20.07 2.61878 20.8548C2.57819 26.6605 5.04099 32.305 9.31163 36.1501C8.42075 38.6029 11.313 40.6261 13.2216 38.8961C18.7919 41.915 25.8317 41.9154 31.4023 38.8971C33.3435 40.8539 36.4527 38.6678 35.3593 36.1096C37.5603 34.1159 39.2701 31.6774 40.4044 28.9801ZM39.6435 27.6035C37.9718 25.9107 36.1424 24.3751 34.1892 23.0271C34.4666 22.1415 34.2255 21.1451 33.5778 20.4914C35.2202 17.708 36.5096 14.7235 37.4172 11.6058C37.7196 11.6068 38.0104 11.55 38.2783 11.4471C41.0594 16.2344 41.568 22.4068 39.6435 27.6035ZM11.8538 34.5616C11.3456 29.4877 12.2374 24.4258 14.4447 19.8513C15.816 20.2874 17.2981 19.3684 17.5644 17.9337C21.7285 18.4569 25.739 19.7029 29.5027 21.6435C29.3217 22.3606 29.4715 23.1513 29.9027 23.7479C25.6603 29.2259 20.0604 33.348 13.6513 35.7105C13.2629 35.0837 12.6098 34.6452 11.8538 34.5616ZM30.6334 22.2672C30.6334 21.5697 31.1861 21.0023 31.8654 21.0023C33.4998 21.0716 33.4993 23.463 31.8654 23.5321C31.1861 23.5321 30.6334 22.9647 30.6334 22.2672ZM38.6546 9.1099C38.6546 9.80741 38.1019 10.3748 37.4225 10.3748C35.788 10.3055 35.7884 7.91408 37.4225 7.84497C38.1019 7.84497 38.6546 8.4124 38.6546 9.1099ZM35.4364 7.66286C34.6017 8.8582 34.9891 10.5862 36.2475 11.2966C35.3683 14.304 34.1218 17.1828 32.5361 19.868C32.2046 19.7708 31.8367 19.7467 31.4958 19.7999C29.8384 16.1925 27.4267 12.9433 24.4806 10.348C24.759 9.79772 24.8253 9.13354 24.663 8.53698C26.5278 7.40459 28.5253 6.51217 30.614 5.87778C31.3083 7.2439 33.1706 7.62963 34.3268 6.60696C34.71 6.94295 35.081 7.29593 35.4364 7.66286ZM21.0807 9.20518C21.0807 8.50768 21.6334 7.94026 22.3127 7.94026C23.9472 8.0096 23.9467 10.4009 22.3127 10.47C21.6334 10.47 21.0807 9.90261 21.0807 9.20518ZM32.7616 3.42926C33.441 3.42926 33.9937 3.99668 33.9937 4.69418C33.9259 6.37225 31.5971 6.37184 31.5296 4.69418C31.5296 3.99668 32.0822 3.42926 32.7616 3.42926ZM11.5896 5.95903C10.9102 5.95903 10.3575 5.39161 10.3575 4.6941C10.4253 3.01596 12.7541 3.01653 12.8217 4.6941C12.8217 5.39161 12.2689 5.95903 11.5896 5.95903ZM14.0272 4.59972C14.0209 4.42886 13.9978 4.2625 13.9595 4.10197C19.0148 1.43744 25.3303 1.39099 30.4246 3.97805C30.3591 4.2012 30.3233 4.43714 30.3221 4.68146C28.125 5.34392 26.0241 6.27967 24.0628 7.46861C23.1201 6.47467 21.5057 6.47434 20.5627 7.46852C18.5188 6.22945 16.3249 5.26629 14.0272 4.59972ZM20.9443 11.2704C21.7609 11.8385 22.8643 11.8386 23.681 11.2705C26.4937 13.7458 28.7979 16.8443 30.385 20.2851C30.2775 20.3693 30.177 20.4627 30.0845 20.5637C26.1166 18.5124 21.8822 17.2081 17.4838 16.6834C17.365 16.317 17.1657 15.9881 16.9069 15.7188C18.0873 14.0844 19.442 12.5917 20.9443 11.2704ZM15.1679 16.2024C15.8472 16.2024 16.3999 16.7698 16.3999 17.4673C16.3321 19.1455 14.0033 19.145 13.9358 17.4673C13.9358 16.7698 14.4885 16.2024 15.1679 16.2024ZM1.98927 18.4361C1.98927 17.7386 2.54196 17.1712 3.22131 17.1712C4.85571 17.2406 4.85523 19.6319 3.22131 19.701C2.54204 19.7011 1.98927 19.1336 1.98927 18.4361ZM3.8265 20.8543C3.8265 20.8543 5.66084 20.4466 5.66084 18.4524C5.66084 18.4524 10.3677 17.6855 12.7359 17.6586C12.7804 18.2549 13.0302 18.793 13.4134 19.1991C11.06 24.0249 10.1107 29.3751 10.6571 34.7365C10.4219 34.8365 10.2052 34.9731 10.0138 35.1392C6.07383 31.5418 3.8265 25.5143 3.8265 20.8543ZM11.5896 38.3075C10.9102 38.3075 10.3575 37.7401 10.3575 37.0425C10.3575 36.345 10.9102 35.7776 11.5896 35.7776C12.2598 35.7776 12.8217 36.3693 12.8217 37.0425C12.8217 37.7401 12.2689 38.3075 11.5896 38.3075ZM22.3127 39.9388C19.3817 39.9388 16.4833 39.2233 13.8928 37.865C13.9979 37.5578 14.0443 37.2078 14.0239 36.8819C20.6537 34.4461 26.4473 30.1895 30.8361 24.5294C31.1967 24.7018 31.5968 24.7809 31.9943 24.7596C32.2626 25.7746 32.7564 30.3159 32.9066 31.3513C33.0217 32.1439 34.2168 31.9668 34.1015 31.1713C33.942 30.0719 33.4343 25.4664 33.1476 24.3895C33.292 24.2979 33.4261 24.1911 33.5484 24.0717C35.5636 25.4662 37.4425 27.0669 39.1446 28.8385C38.089 31.217 36.5526 33.3705 34.6005 35.15C34.4075 35.0023 34.1923 34.8835 33.9613 34.799C34.08 33.6547 34.1317 32.4993 34.1143 31.3566C34.102 30.5525 32.8943 30.5713 32.9066 31.3756C32.9234 32.474 32.8734 33.5847 32.7588 34.6846C31.3345 34.9155 30.4029 36.4208 30.7954 37.8316C28.1886 39.2115 25.2677 39.9388 22.3127 39.9388ZM33.1419 38.4145C32.4625 38.4145 31.9099 37.8471 31.9099 37.1496C31.9777 35.4714 34.3065 35.472 34.374 37.1496C34.374 37.8471 33.8213 38.4145 33.1419 38.4145Z" fill="black"/>
<path d="M33.2438 40.4385C34.9705 40.4385 36.3703 39.0033 36.3703 37.2329C36.3703 35.4625 34.9705 34.0273 33.2438 34.0273C31.517 34.0273 30.1172 35.4625 30.1172 37.2329C30.1172 39.0033 31.517 40.4385 33.2438 40.4385Z" fill="#FFEAC6"/>
<path d="M34.2088 34.1855C34.9059 34.7734 35.3506 35.6645 35.3506 36.6622C35.3506 38.4325 33.9508 39.8677 32.224 39.8677C31.8866 39.8677 31.5623 39.8113 31.2578 39.7099C31.7978 40.1653 32.489 40.4388 33.2427 40.4388C34.9694 40.4388 36.3692 39.0036 36.3692 37.2333C36.3692 35.8089 35.4623 34.6031 34.2088 34.1855Z" fill="#FCDBB2"/>
<path d="M33.2426 37.2317C33.6743 37.2317 34.0242 36.8729 34.0242 36.4303C34.0242 35.9877 33.6743 35.6289 33.2426 35.6289C32.8109 35.6289 32.4609 35.9877 32.4609 36.4303C32.4609 36.8729 32.8109 37.2317 33.2426 37.2317Z" fill="#E29A6C"/>
<path d="M33.2384 40.4371C33.9306 40.4371 34.5682 40.2036 35.0862 39.8132C34.8293 39.0142 34.1038 38.4336 33.2384 38.4336C32.3731 38.4336 31.6476 39.0142 31.3906 39.8132C31.9087 40.2036 32.5462 40.4371 33.2384 40.4371Z" fill="#F2D1FF"/>
<path d="M29.4922 37.2035C29.4922 39.1778 31.0588 40.7839 32.9844 40.7839C34.91 40.7839 36.4766 39.1778 36.4766 37.2035C36.4766 35.2292 34.91 33.623 32.9844 33.623C31.0588 33.623 29.4922 35.2292 29.4922 37.2035ZM31.5911 39.6458C31.863 39.1191 32.394 38.7805 32.9844 38.7805C33.5748 38.7805 34.1057 39.1191 34.3776 39.6458C33.9683 39.8921 33.4923 40.0342 32.9844 40.0342C32.4764 40.0342 32.0004 39.8921 31.5911 39.6458ZM35.7453 37.2035C35.7453 37.971 35.4453 38.6677 34.9599 39.1781C34.5469 38.4757 33.805 38.0307 32.9844 38.0307C32.1637 38.0307 31.4218 38.4756 31.0088 39.1781C30.5234 38.6677 30.2235 37.971 30.2235 37.2035C30.2235 35.6427 31.462 34.3728 32.9844 34.3728C34.5067 34.3728 35.7453 35.6427 35.7453 37.2035Z" fill="black"/>
<path d="M31.8359 36.4028C31.8359 37.0515 32.3506 37.5791 32.9832 37.5791C33.6158 37.5791 34.1305 37.0514 34.1305 36.4028C34.1305 35.7543 33.6158 35.2266 32.9832 35.2266C32.3506 35.2266 31.8359 35.7542 31.8359 36.4028ZM33.3992 36.4028C33.3992 36.638 33.2126 36.8293 32.9833 36.8293C32.7539 36.8293 32.5673 36.638 32.5673 36.4028C32.5673 36.1676 32.7539 35.9764 32.9833 35.9764C33.2126 35.9764 33.3992 36.1676 33.3992 36.4028Z" fill="black"/>
<path d="M11.1656 7.04587C12.8924 7.04587 14.2922 5.6107 14.2922 3.84032C14.2922 2.06994 12.8924 0.634766 11.1656 0.634766C9.43888 0.634766 8.03906 2.06994 8.03906 3.84032C8.03906 5.6107 9.43888 7.04587 11.1656 7.04587Z" fill="#FFEAC6"/>
<path d="M12.1307 0.792969C12.8278 1.38085 13.2725 2.2719 13.2725 3.26958C13.2725 5.03993 11.8727 6.47513 10.1459 6.47513C9.80847 6.47513 9.48416 6.41875 9.17969 6.31732C9.71964 6.7727 10.4108 7.04627 11.1645 7.04627C12.8913 7.04627 14.2911 5.61107 14.2911 3.84072C14.2911 2.41631 13.3842 1.2105 12.1307 0.792969Z" fill="#FCDBB2"/>
<path d="M11.1644 3.84103C11.5961 3.84103 11.9461 3.48224 11.9461 3.03966C11.9461 2.59707 11.5961 2.23828 11.1644 2.23828C10.7328 2.23828 10.3828 2.59707 10.3828 3.03966C10.3828 3.48224 10.7328 3.84103 11.1644 3.84103Z" fill="#E29A6C"/>
<path d="M11.1642 7.04646C11.8564 7.04646 12.494 6.81297 13.0119 6.42258C12.7551 5.62356 12.0295 5.04297 11.1642 5.04297C10.2989 5.04297 9.57334 5.62356 9.31641 6.42258C9.83447 6.81302 10.472 7.04646 11.1642 7.04646Z" fill="#F2D1FF"/>
<path d="M7.41406 3.81092C7.41406 5.78522 8.98069 7.39137 10.9063 7.39137C12.8319 7.39137 14.3985 5.78522 14.3985 3.81092C14.3985 1.83667 12.8319 0.230469 10.9063 0.230469C8.98069 0.230469 7.41406 1.83667 7.41406 3.81092ZM9.51299 6.25319C9.78489 5.72653 10.3158 5.38788 10.9062 5.38788C11.4967 5.38788 12.0276 5.72648 12.2995 6.25319C11.8902 6.49957 11.4142 6.64158 10.9062 6.64158C10.3983 6.64158 9.92228 6.49957 9.51299 6.25319ZM13.6672 3.81092C13.6672 4.57845 13.3672 5.27516 12.8818 5.78552C12.4688 5.08311 11.7268 4.63809 10.9062 4.63809C10.0856 4.63809 9.34366 5.08306 8.93071 5.78552C8.44527 5.27516 8.14533 4.5784 8.14533 3.81092C8.14533 2.2501 9.38389 0.980259 10.9062 0.980259C12.4286 0.980259 13.6672 2.2501 13.6672 3.81092Z" fill="black"/>
<path d="M9.75781 3.0083C9.75781 3.65692 10.2725 4.18457 10.9051 4.18457C11.5377 4.18457 12.0524 3.65687 12.0524 3.0083C12.0524 2.35973 11.5377 1.83203 10.9051 1.83203C10.2725 1.83203 9.75781 2.35968 9.75781 3.0083ZM11.3211 3.0083C11.3211 3.24349 11.1345 3.43478 10.9052 3.43478C10.6758 3.43478 10.4892 3.24349 10.4892 3.0083C10.4892 2.77312 10.6758 2.58182 10.9052 2.58182C11.1345 2.58182 11.3211 2.77312 11.3211 3.0083Z" fill="black"/>
<path d="M32.7906 7.16306C34.5174 7.16306 35.9172 5.72789 35.9172 3.95751C35.9172 2.18713 34.5174 0.751953 32.7906 0.751953C31.0639 0.751953 29.6641 2.18713 29.6641 3.95751C29.6641 5.72789 31.0639 7.16306 32.7906 7.16306Z" fill="#FFEAC6"/>
<path d="M33.7557 0.910156C34.4528 1.49804 34.8975 2.38909 34.8975 3.38676C34.8975 5.15712 33.4977 6.59232 31.7709 6.59232C31.4335 6.59232 31.1092 6.53593 30.8047 6.43451C31.3446 6.88988 32.0358 7.16346 32.7895 7.16346C34.5163 7.16346 35.9161 5.72826 35.9161 3.9579C35.9161 2.5335 35.0092 1.32769 33.7557 0.910156Z" fill="#FCDBB2"/>
<path d="M32.7894 3.95822C33.2211 3.95822 33.5711 3.59943 33.5711 3.15684C33.5711 2.71426 33.2211 2.35547 32.7894 2.35547C32.3578 2.35547 32.0078 2.71426 32.0078 3.15684C32.0078 3.59943 32.3578 3.95822 32.7894 3.95822Z" fill="#E29A6C"/>
<path d="M32.7853 7.16365C33.4775 7.16365 34.1151 6.93016 34.633 6.53977C34.3761 5.74074 33.6506 5.16016 32.7853 5.16016C31.92 5.16016 31.1944 5.74074 30.9375 6.53977C31.4556 6.93021 32.0931 7.16365 32.7853 7.16365Z" fill="#F2D1FF"/>
<path d="M29.0391 3.92811C29.0391 5.9024 30.6057 7.50855 32.5313 7.50855C34.4569 7.50855 36.0235 5.9024 36.0235 3.92811C36.0235 1.95386 34.4569 0.347656 32.5313 0.347656C30.6057 0.347656 29.0391 1.95386 29.0391 3.92811ZM31.138 6.37037C31.4099 5.84372 31.9408 5.50506 32.5312 5.50506C33.1217 5.50506 33.6526 5.84367 33.9245 6.37037C33.5152 6.61675 33.0392 6.75876 32.5312 6.75876C32.0233 6.75876 31.5473 6.61675 31.138 6.37037ZM35.2922 3.92811C35.2922 4.69564 34.9922 5.39235 34.5068 5.9027C34.0938 5.2003 33.3518 4.75527 32.5312 4.75527C31.7106 4.75527 30.9687 5.20025 30.5557 5.9027C30.0703 5.39235 29.7703 4.69559 29.7703 3.92811C29.7703 2.36729 31.0089 1.09745 32.5312 1.09745C34.0536 1.09745 35.2922 2.36729 35.2922 3.92811Z" fill="black"/>
<path d="M31.3828 3.12549C31.3828 3.77411 31.8975 4.30176 32.5301 4.30176C33.1627 4.30176 33.6774 3.77406 33.6774 3.12549C33.6774 2.47692 33.1627 1.94922 32.5301 1.94922C31.8975 1.94922 31.3828 2.47687 31.3828 3.12549ZM32.9461 3.12549C32.9461 3.36067 32.7595 3.55197 32.5302 3.55197C32.3008 3.55197 32.1142 3.36067 32.1142 3.12549C32.1142 2.8903 32.3008 2.69901 32.5302 2.69901C32.7595 2.69901 32.9461 2.8903 32.9461 3.12549Z" fill="black"/>
</g>
<defs>
<linearGradient id="paint0_linear_1217_15307" x1="31.8672" y1="20.3867" x2="31.8672" y2="24.1476" gradientUnits="userSpaceOnUse">
<stop stop-color="#5429E8"/>
<stop offset="1" stop-color="#70369A"/>
</linearGradient>
<clipPath id="clip0_1217_15307">
<rect width="42" height="42" fill="white"/>
</clipPath>
</defs>
</svg>
