<svg width="129" height="49" viewBox="0 0 129 49" fill="none" xmlns="http://www.w3.org/2000/svg">
<g id="Group 1171275261">
<g id="CQED">
<path id="Vector" d="M99.0071 30.8162V0.349121H111.847C115.097 0.349121 117.955 0.987479 120.421 2.2642C122.917 3.54091 124.846 5.32541 126.21 7.61769C127.603 9.90998 128.299 12.565 128.299 15.5827C128.299 18.6003 127.603 21.2553 126.21 23.5476C124.846 25.8399 122.917 27.6244 120.421 28.9011C117.955 30.1778 115.097 30.8162 111.847 30.8162H99.0071ZM103.36 27.0296H111.586C114.11 27.0296 116.286 26.5508 118.114 25.5933C119.971 24.6357 121.408 23.301 122.423 21.589C123.439 19.848 123.947 17.8459 123.947 15.5827C123.947 13.2904 123.439 11.2883 122.423 9.57629C121.408 7.86433 119.971 6.52958 118.114 5.57205C116.286 4.61451 114.11 4.13574 111.586 4.13574H103.36V27.0296Z" fill="#1E1704"/>
<path id="Vector_2" d="M73.8099 13.4935H89.4787V17.1931H73.8099V13.4935ZM74.2017 27.0296H91.9596V30.8162H69.8492V0.349121H91.3503V4.13574H74.2017V27.0296Z" fill="#1E1704"/>
<path id="Vector_3" d="M47.0496 31.1635C44.7283 31.1635 42.5666 30.7717 40.5644 29.9883C38.5913 29.2049 36.8794 28.1168 35.4286 26.724C33.9777 25.3022 32.8461 23.6482 32.0337 21.7622C31.2212 19.8761 30.815 17.816 30.815 15.5817C30.815 13.3475 31.2212 11.2873 32.0337 9.40127C32.8461 7.51521 33.9777 5.87579 35.4286 4.48301C36.8794 3.06121 38.5913 1.9586 40.5644 1.17516C42.5375 0.391719 44.6993 0 47.0496 0C49.3709 0 51.5036 0.391719 53.4477 1.17516C55.4208 1.92958 57.1327 3.01769 58.5835 4.43949C60.0634 5.83227 61.195 7.47168 61.9784 9.35774C62.7909 11.2438 63.1971 13.3185 63.1971 15.5817C63.1971 17.845 62.7909 19.9197 61.9784 21.8057C61.195 23.6918 60.0634 25.3457 58.5835 26.7675C57.1327 28.1603 55.4208 29.2484 53.4477 30.0318C51.5036 30.7862 49.3709 31.1635 47.0496 31.1635ZM57.0167 37.1698C56.0011 37.1698 55.029 37.0393 54.1005 36.7781C53.172 36.546 52.2435 36.1543 51.315 35.6029C50.3864 35.0807 49.4289 34.3843 48.4424 33.5138C47.4558 32.6723 46.3822 31.6277 45.2215 30.38L49.8787 29.1613C50.7491 30.2349 51.5761 31.1054 52.3595 31.7728C53.172 32.4692 53.97 32.9625 54.7534 33.2526C55.5368 33.5718 56.3058 33.7314 57.0602 33.7314C59.2364 33.7314 61.0934 32.8609 62.6313 31.1199L64.677 33.6008C62.7038 35.9802 60.1504 37.1698 57.0167 37.1698ZM47.0496 27.2898C48.7325 27.2898 50.2849 26.9996 51.7067 26.4193C53.1575 25.839 54.4052 25.012 55.4498 23.9384C56.5234 22.8648 57.3503 21.6171 57.9307 20.1953C58.54 18.7735 58.8447 17.2357 58.8447 15.5817C58.8447 13.8988 58.54 12.3464 57.9307 10.9246C57.3503 9.50282 56.5234 8.26963 55.4498 7.22504C54.4052 6.15144 53.1575 5.32448 51.7067 4.74416C50.2849 4.16383 48.7325 3.87367 47.0496 3.87367C45.3376 3.87367 43.7562 4.16383 42.3054 4.74416C40.8836 5.32448 39.6359 6.15144 38.5623 7.22504C37.4887 8.26963 36.6472 9.50282 36.0379 10.9246C35.4576 12.3464 35.1674 13.8988 35.1674 15.5817C35.1674 17.2357 35.4576 18.7735 36.0379 20.1953C36.6472 21.6171 37.4887 22.8648 38.5623 23.9384C39.6359 25.012 40.8836 25.839 42.3054 26.4193C43.7562 26.9996 45.3376 27.2898 47.0496 27.2898Z" fill="#1E1704"/>
<path id="Vector_4" d="M16.104 31.1635C13.7827 31.1635 11.6355 30.7863 9.66242 30.0318C7.71833 29.2484 6.02087 28.1603 4.57006 26.7675C3.14826 25.3457 2.03114 23.6918 1.21868 21.8057C0.406228 19.9197 0 17.845 0 15.5817C0 13.3185 0.406228 11.2438 1.21868 9.35774C2.03114 7.47168 3.16277 5.83227 4.61359 4.43949C6.0644 3.01769 7.76185 1.92958 9.70594 1.17516C11.679 0.391719 13.8262 0 16.1476 0C18.4979 0 20.6596 0.406227 22.6327 1.21868C24.6348 2.00212 26.3323 3.17728 27.725 4.74416L24.896 7.48619C23.7353 6.26751 22.4296 5.36801 20.9788 4.78768C19.5279 4.17834 17.9756 3.87367 16.3216 3.87367C14.6097 3.87367 13.0138 4.16383 11.534 4.74416C10.0832 5.32448 8.82094 6.13694 7.74734 7.18152C6.67374 8.22611 5.83227 9.47381 5.22293 10.9246C4.6426 12.3464 4.35244 13.8988 4.35244 15.5817C4.35244 17.2647 4.6426 18.8316 5.22293 20.2824C5.83227 21.7042 6.67374 22.9374 7.74734 23.9819C8.82094 25.0265 10.0832 25.839 11.534 26.4193C13.0138 26.9996 14.6097 27.2898 16.3216 27.2898C17.9756 27.2898 19.5279 26.9996 20.9788 26.4193C22.4296 25.81 23.7353 24.8814 24.896 23.6337L27.725 26.3758C26.3323 27.9427 24.6348 29.1323 22.6327 29.9448C20.6596 30.7572 18.4834 31.1635 16.104 31.1635Z" fill="#1E1704"/>
</g>
<g id="Cultural intelligence Education">
<path id="Vector_5" d="M128 43.1073V48.4141L124.742 44.4447V48.3069H124.202V43L127.466 46.9336V43.1073H128Z" fill="black"/>
<path id="Vector_6" d="M120.525 48.4141C119.024 48.4141 117.818 47.2006 117.818 45.6999C117.818 44.2135 119.024 43 120.525 43C122.026 43 123.232 44.2135 123.232 45.6999C123.232 47.2006 122.026 48.4141 120.525 48.4141ZM120.525 47.8971C121.724 47.8971 122.672 46.9134 122.672 45.6999C122.672 44.5007 121.731 43.5098 120.525 43.5098C119.318 43.5098 118.371 44.5007 118.371 45.6999C118.371 46.9062 119.318 47.8971 120.525 47.8971Z" fill="black"/>
<path id="Vector_7" d="M116.363 48.3339V43.0814H116.929V48.3339H116.363Z" fill="black"/>
<path id="Vector_8" d="M115.636 43.0814V43.5872H114.092V48.3339H113.544V43.5872H112V43.0814H115.636Z" fill="black"/>
<path id="Vector_9" d="M111.81 48.3333L111.304 47.018H109.14L108.626 48.3333H108.04L110.233 43L112.404 48.3333H111.81ZM109.328 46.5436H111.123L110.233 44.2507L109.328 46.5436Z" fill="black"/>
<path id="Vector_10" d="M105.85 48.4141C104.367 48.4141 103.192 47.215 103.192 45.7071C103.192 44.1992 104.367 43 105.857 43C106.52 43 107.132 43.2226 107.717 43.6893L107.389 44.0914C106.926 43.7181 106.377 43.5098 105.857 43.5098C104.674 43.5098 103.74 44.4864 103.74 45.7071C103.74 46.9349 104.674 47.8971 105.864 47.8971C106.406 47.8971 106.94 47.6961 107.389 47.3299L107.717 47.7248C107.132 48.2059 106.548 48.4141 105.85 48.4141Z" fill="black"/>
<path id="Vector_11" d="M100.484 48.4147C99.5286 48.4147 98.8277 47.7445 98.8277 46.822V43.0814H99.3728V46.7643C99.3728 47.3769 99.8542 47.8598 100.484 47.8598C101.114 47.8598 101.596 47.3769 101.596 46.7643V43.0814H102.141V46.822C102.141 47.7445 101.44 48.4147 100.484 48.4147Z" fill="black"/>
<path id="Vector_12" d="M95.3573 43.0814C96.7725 43.0814 97.7773 44.2519 97.7773 45.7041C97.7773 47.1563 96.7725 48.3339 95.3573 48.3339H93.9138H93.7369V43.0814H94.2818H95.3573ZM95.2583 47.8282C96.4258 47.8282 97.2325 46.8528 97.2325 45.7041C97.2325 44.6854 96.5603 43.5872 95.2583 43.5872H94.2818V47.8282H95.2583Z" fill="black"/>
<path id="Vector_13" d="M92.5254 43.5799H90.0876V45.3645H92.2099V45.8702H90.0876V47.8282H92.5254V48.3339H89.7362H89.5355V43.0814H90.0876H92.5254V43.5799Z" fill="black"/>
<path id="Vector_14" d="M86.1414 43.5799H83.7036V45.3645H85.8259V45.8702H83.7036V47.8282H86.1414V48.3339H83.3522H83.1515V43.0814H83.7036H86.1414V43.5799Z" fill="black"/>
<path id="Vector_15" d="M80.395 48.4141C78.9127 48.4141 77.7368 47.215 77.7368 45.7071C77.7368 44.1992 78.9127 43 80.4021 43C81.0649 43 81.6777 43.2226 82.2621 43.6893L81.9343 44.0914C81.4711 43.7181 80.9223 43.5098 80.4021 43.5098C79.2191 43.5098 78.2856 44.4864 78.2856 45.7071C78.2856 46.9349 79.2191 47.8971 80.4092 47.8971C80.9508 47.8971 81.4853 47.6961 81.9343 47.3299L82.2621 47.7248C81.6777 48.2059 81.0934 48.4141 80.395 48.4141Z" fill="black"/>
<path id="Vector_16" d="M76.6058 43.1073V48.4141L73.3483 44.4447V48.3069H72.8078V43L76.0724 46.9336V43.1073H76.6058Z" fill="black"/>
<path id="Vector_17" d="M71.5959 43.5799H69.1581V45.3645H71.2805V45.8702H69.1581V47.8282H71.5959V48.3339H68.8068H68.606V43.0814H69.1581H71.5959V43.5799Z" fill="black"/>
<path id="Vector_18" d="M65.4256 45.3911H67.3935V47.4376C66.8659 48.0623 66.0673 48.4141 65.226 48.4141C63.7358 48.4141 62.545 47.2006 62.545 45.6999C62.545 44.2135 63.7144 43 65.2616 43C66.0459 43 66.7589 43.3088 67.2509 43.7827L66.9301 44.1848C66.5379 43.8186 65.9461 43.5098 65.2687 43.5098C64.0281 43.5098 63.1012 44.4792 63.1012 45.7071C63.1012 46.899 64.078 47.8971 65.2402 47.8971C65.8534 47.8971 66.5023 47.6315 66.9015 47.2006V45.8794H65.4256V45.3911Z" fill="black"/>
<path id="Vector_19" d="M61.0098 48.3339V43.0814H61.5755V48.3339H61.0098Z" fill="black"/>
<path id="Vector_20" d="M57.6108 47.8282H60.2019V48.3339H57.0504V43.0814H57.6108V47.8282Z" fill="black"/>
<path id="Vector_21" d="M53.5703 47.8282H56.1614V48.3339H53.0099V43.0814H53.5703V47.8282Z" fill="black"/>
<path id="Vector_22" d="M51.8786 43.5799H49.4408V45.3645H51.5631V45.8702H49.4408V47.8282H51.8786V48.3339H49.0895H48.8887V43.0814H49.4408H51.8786V43.5799Z" fill="black"/>
<path id="Vector_23" d="M47.9999 43.0814V43.5872H46.4557V48.3339H45.9078V43.5872H44.3636V43.0814H47.9999Z" fill="black"/>
<path id="Vector_24" d="M43.5551 43.1073V48.4141L40.2283 44.4447V48.3069H39.6763V43L43.0103 46.9336V43.1073H43.5551Z" fill="black"/>
<path id="Vector_25" d="M37.8179 48.3339V43.0814H38.3835V48.3339H37.8179Z" fill="black"/>
<path id="Vector_26" d="M32.3036 47.8282H34.8282V48.3339H31.7575V43.0814H32.3036V47.8282Z" fill="black"/>
<path id="Vector_27" d="M30.4368 48.3333L29.9302 47.018H27.7665L27.2527 48.3333H26.6665L28.8592 43L31.0302 48.3333H30.4368ZM27.9546 46.5436H29.7493L28.8592 44.2507L27.9546 46.5436Z" fill="black"/>
<path id="Vector_28" d="M25.9388 47.8166C26.0103 47.8166 26.096 47.8094 26.1817 47.7878V48.298C26.0889 48.3268 25.9745 48.3339 25.8888 48.3339C24.6384 48.3339 24.6527 46.0634 23.6238 46.0634H23.3237V48.3052H22.7878V43.0814H23.3237H24.4169C25.553 43.0814 26.0531 43.7568 26.0531 44.5401C26.0531 45.4598 25.4029 45.9915 24.4884 46.0059H24.4812C25.0814 46.3292 25.26 47.8166 25.9388 47.8166ZM23.3237 45.5676H24.1239C24.9099 45.5676 25.5387 45.3448 25.5387 44.5401C25.5387 43.9868 25.2029 43.5772 24.424 43.5772H23.3237V45.5676Z" fill="black"/>
<path id="Vector_29" d="M19.7172 48.4147C18.7382 48.4147 18.0202 47.7445 18.0202 46.822V43.0814H18.5786V46.7643C18.5786 47.3769 19.0717 47.8598 19.7172 47.8598C20.3626 47.8598 20.8557 47.3769 20.8557 46.7643V43.0814H21.4141V46.822C21.4141 47.7445 20.6962 48.4147 19.7172 48.4147Z" fill="black"/>
<path id="Vector_30" d="M17.2932 43.0814V43.5872H15.7147V48.3339H15.1546V43.5872H13.576V43.0814H17.2932Z" fill="black"/>
<path id="Vector_31" d="M10.7278 47.8282H13.2525V48.3339H10.1818V43.0814H10.7278V47.8282Z" fill="black"/>
<path id="Vector_32" d="M7.11158 48.4147C6.13256 48.4147 5.41461 47.7445 5.41461 46.822V43.0814H5.97302V46.7643C5.97302 47.3769 6.46615 47.8598 7.11158 47.8598C7.75701 47.8598 8.25014 47.3769 8.25014 46.7643V43.0814H8.80855V46.822C8.80855 47.7445 8.0906 48.4147 7.11158 48.4147Z" fill="black"/>
<path id="Vector_33" d="M2.7056 48.4141C1.19685 48.4141 0 47.215 0 45.7071C0 44.1992 1.19685 43 2.71286 43C3.38744 43 4.01126 43.2226 4.60605 43.6893L4.27239 44.0914C3.8009 43.7181 3.24237 43.5098 2.71286 43.5098C1.50875 43.5098 0.558529 44.4864 0.558529 45.7071C0.558529 46.9349 1.50875 47.8971 2.72011 47.8971C3.27139 47.8971 3.81541 47.6961 4.27239 47.3299L4.60605 47.7248C4.01126 48.2059 3.41646 48.4141 2.7056 48.4141Z" fill="black"/>
</g>
</g>
</svg>
