<svg width="23" height="22" viewBox="0 0 23 22" fill="none" xmlns="http://www.w3.org/2000/svg">
<g id="fi_8603410">
<path id="Vector" d="M19.1461 5H3.84221C3.09767 5 2.49414 5.56294 2.49414 6.2574V14.7426C2.49414 15.437 3.09767 16 3.84221 16H19.1461C19.8906 16 20.4941 15.4371 20.4941 14.7426V6.2574C20.4941 5.56294 19.8906 5 19.1461 5Z" fill="#41479B"/>
<path id="Vector_2" d="M20.4755 6.04957C20.3692 5.4541 19.8146 5 19.1461 5H18.7953L13.0459 8.51355V5.00003H9.94241V8.51358L4.19296 5.00003H3.84221C3.17364 5.00003 2.61905 5.4541 2.51281 6.0496L7.42688 9.05268H2.49414V11.9474H7.42688L2.51281 14.9504C2.61905 15.5459 3.17364 16 3.84221 16H4.19296L9.94241 12.4864V16H13.0459V12.4864L18.7953 16H19.1461C19.8146 16 20.3692 15.5459 20.4755 14.9504L15.5614 11.9474H20.4941V9.05262H15.5614L20.4755 6.04957Z" fill="#F5F5F5"/>
<g id="Group">
<path id="Vector_3" d="M12.4252 5H10.5631V9.63157H2.49414V11.3684H10.5631V16H12.4252V11.3684H20.4941V9.63157H12.4252V5Z" fill="#FF4B55"/>
<path id="Vector_4" d="M3.03325 16L9.49414 12H8.37124L2.49414 15.6386C2.63795 15.7987 2.82275 15.9241 3.03325 16Z" fill="#FF4B55"/>
<path id="Vector_5" d="M14.6703 12H13.4941L20.0485 16C20.2319 15.8868 20.385 15.7338 20.4941 15.5542L14.6703 12Z" fill="#FF4B55"/>
<path id="Vector_6" d="M2.63477 5.73412L8.09751 9.28014H9.2206L3.03049 5.26196C2.86428 5.38567 2.72828 5.54741 2.63477 5.73412Z" fill="#FF4B55"/>
<path id="Vector_7" d="M14.0118 9.28034L19.9007 5.45766C19.7553 5.29035 19.569 5.15957 19.357 5.08154L12.8887 9.28034H14.0118Z" fill="#FF4B55"/>
</g>
</g>
</svg>
