<?xml version="1.0" ?><!-- Uploaded to: SVG Repo, www.svgrepo.com, Generator: SVG Repo Mixer Tools -->
<svg width="800px" height="800px" viewBox="0 0 32 32" data-name="Layer 1" id="Layer_1" xmlns="http://www.w3.org/2000/svg"><defs><style>.cls-1{fill:#edbe9d;}.cls-2{fill:#f9dcc4;}.cls-3{fill:#f8edeb;}.cls-4{fill:#fff2e9;}.cls-5{fill:#dbd2d1;}.cls-6{fill:#ffffff;}.cls-7{fill:#577590;}</style></defs><rect class="cls-1" height="22" rx="2.5" width="21" x="4" y="5"/><rect class="cls-2" height="22" rx="2.5" width="21" x="7" y="8"/><path class="cls-1" d="M26,22v2a4,4,0,0,1-4,4H12a1,1,0,0,0-1,1h0a1,1,0,0,0,1,1H25.5A2.5,2.5,0,0,0,28,27.5V22a1,1,0,0,0-1-1h0A1,1,0,0,0,26,22Z"/><path class="cls-3" d="M20,2a5,5,0,0,0-5,5v5a2,2,0,0,0,3,1.73V15.5a3.5,3.5,0,0,0,7,0V7A5,5,0,0,0,20,2Z"/><path class="cls-4" d="M7,13.5v-2a1,1,0,0,1,2,0v2a1,1,0,0,1-2,0Z"/><path class="cls-4" d="M7,24.5v-8a1,1,0,0,1,2,0v8a1,1,0,0,1-2,0Z"/><path class="cls-5" d="M23,15.5v-4a1,1,0,0,1,2,0v4a1,1,0,0,1-2,0Z"/><path class="cls-6" d="M15,10.5v-4a1,1,0,0,1,2,0v4a1,1,0,0,1-2,0Z"/><path class="cls-7" d="M20,2a5,5,0,0,0-5,5v4.5a.5.5,0,0,0,1,0V7a4,4,0,0,1,8,0v8.5a2.5,2.5,0,0,1-5,0V7a1,1,0,0,1,2,0v8.5a.5.5,0,0,0,1,0V7a2,2,0,0,0-4,0v8.5a3.5,3.5,0,0,0,7,0V7A5,5,0,0,0,20,2Z"/></svg>