<svg width="33" height="32" viewBox="0 0 33 32" fill="none" xmlns="http://www.w3.org/2000/svg">
<g id="fi_1041916" clip-path="url(#clip0_22_12643)">
<path id="Vector" d="M21.7731 10.2584C27.6161 10.1691 32.3851 14.7679 32.4982 20.6105C32.5149 21.4683 32.4291 22.3032 32.2525 23.1041C31.9534 24.4601 31.7755 25.8401 31.7755 27.2288V29.913C31.7755 30.3243 31.4422 30.6576 31.0309 30.6576H28.3467C26.958 30.6576 25.5781 30.8354 24.222 31.1346C23.4212 31.3112 22.5863 31.3969 21.7284 31.3803C15.886 31.2673 11.2871 26.4984 11.3763 20.6555C11.4632 14.9524 16.0701 10.3455 21.7731 10.2584Z" fill="url(#paint0_linear_22_12643)"/>
<path id="Vector_2" d="M21.7731 10.2584C27.6161 10.1691 32.3851 14.7679 32.4982 20.6105C32.5149 21.4683 32.4291 22.3032 32.2525 23.1041C31.9534 24.4601 31.7755 25.8401 31.7755 27.2288V29.913C31.7755 30.3243 31.4422 30.6576 31.0309 30.6576H28.3467C26.958 30.6576 25.5781 30.8354 24.222 31.1346C23.4212 31.3112 22.5863 31.3969 21.7284 31.3803C15.886 31.2673 11.2871 26.4984 11.3763 20.6555C11.4632 14.9524 16.0701 10.3455 21.7731 10.2584Z" fill="url(#paint1_linear_22_12643)"/>
<path id="Vector_3" d="M13.5686 0.619232C6.45026 0.510483 0.640335 6.11303 0.50246 13.2309C0.482272 14.2758 0.58671 15.2931 0.801959 16.2688C1.16633 17.9208 1.38296 19.6019 1.38296 21.2938V24.5639C1.38296 25.0649 1.78908 25.4711 2.29014 25.4711H5.56026C7.25201 25.4711 8.9332 25.6877 10.5853 26.0521C11.5609 26.2672 12.5781 26.3717 13.6231 26.3515C20.7408 26.2137 26.3433 20.4039 26.2348 13.2857C26.1289 6.33778 20.5165 0.725295 13.5686 0.619232Z" fill="url(#paint2_linear_22_12643)"/>
<path id="Vector_4" d="M8.76216 12.796C8.39866 12.4098 7.88416 12.1672 7.31179 12.1672C6.21098 12.1672 5.3186 13.0596 5.3186 14.1604C5.3186 14.7327 5.5611 15.2472 5.94741 15.6108L10.247 19.9104C10.6106 20.2967 11.1251 20.5392 11.6974 20.5392C12.7982 20.5392 13.6906 19.6468 13.6906 18.546C13.6906 17.9737 13.448 17.4592 13.0618 17.0957L8.76216 12.796Z" fill="url(#paint3_linear_22_12643)"/>
<path id="Vector_5" d="M7.31154 16.1534C8.41235 16.1534 9.30473 15.261 9.30473 14.1602C9.30473 13.0594 8.41235 12.167 7.31154 12.167C6.21074 12.167 5.31836 13.0594 5.31836 14.1602C5.31836 15.261 6.21074 16.1534 7.31154 16.1534Z" fill="white"/>
<path id="Vector_6" d="M14.3986 12.796C14.0351 12.4098 13.5206 12.1672 12.9483 12.1672C11.8475 12.1672 10.9551 13.0596 10.9551 14.1604C10.9551 14.7327 11.1976 15.2472 11.5839 15.6108L15.8835 19.9104C16.2471 20.2967 16.7616 20.5392 17.3339 20.5392C18.4347 20.5392 19.3271 19.6468 19.3271 18.546C19.3271 17.9737 19.0845 17.4592 18.6983 17.0957L14.3986 12.796Z" fill="url(#paint4_linear_22_12643)"/>
<path id="Vector_7" d="M12.9483 16.1534C14.0491 16.1534 14.9414 15.261 14.9414 14.1602C14.9414 13.0594 14.0491 12.167 12.9483 12.167C11.8475 12.167 10.9551 13.0594 10.9551 14.1602C10.9551 15.261 11.8475 16.1534 12.9483 16.1534Z" fill="white"/>
<path id="Vector_8" d="M20.0354 12.796C19.6719 12.4098 19.1574 12.1672 18.585 12.1672C17.4842 12.1672 16.5918 13.0596 16.5918 14.1604C16.5918 14.7327 16.8344 15.2472 17.2206 15.6108L21.5202 19.9104C21.8838 20.2967 22.3983 20.5392 22.9706 20.5392C24.0714 20.5392 24.9638 19.6468 24.9638 18.546C24.9638 17.9737 24.7212 17.4592 24.335 17.0957L20.0354 12.796Z" fill="url(#paint5_linear_22_12643)"/>
<path id="Vector_9" d="M18.586 16.1534C19.6868 16.1534 20.5791 15.261 20.5791 14.1602C20.5791 13.0594 19.6868 12.167 18.586 12.167C17.4852 12.167 16.5928 13.0594 16.5928 14.1602C16.5928 15.261 17.4852 16.1534 18.586 16.1534Z" fill="white"/>
</g>
<defs>
<linearGradient id="paint0_linear_22_12643" x1="19.8054" y1="18.6882" x2="35.3131" y2="34.1959" gradientUnits="userSpaceOnUse">
<stop stop-color="#A7F3CE"/>
<stop offset="1" stop-color="#61DB99"/>
</linearGradient>
<linearGradient id="paint1_linear_22_12643" x1="24.8818" y1="23.7643" x2="18.295" y2="17.1781" gradientUnits="userSpaceOnUse">
<stop stop-color="#61DB99" stop-opacity="0"/>
<stop offset="1" stop-color="#009E74"/>
</linearGradient>
<linearGradient id="paint2_linear_22_12643" x1="8.66682" y1="11.4055" x2="25.0398" y2="27.7784" gradientUnits="userSpaceOnUse">
<stop stop-color="#62E1FB"/>
<stop offset="1" stop-color="#00A2F3"/>
</linearGradient>
<linearGradient id="paint3_linear_22_12643" x1="11.7456" y1="18.5947" x2="3.12505" y2="9.97434" gradientUnits="userSpaceOnUse">
<stop stop-color="#00A2F3" stop-opacity="0"/>
<stop offset="1" stop-color="#0075CD"/>
</linearGradient>
<linearGradient id="paint4_linear_22_12643" x1="17.3817" y1="18.5945" x2="8.76139" y2="9.97412" gradientUnits="userSpaceOnUse">
<stop stop-color="#00A2F3" stop-opacity="0"/>
<stop offset="1" stop-color="#0075CD"/>
</linearGradient>
<linearGradient id="paint5_linear_22_12643" x1="23.0184" y1="18.5946" x2="14.3981" y2="9.97422" gradientUnits="userSpaceOnUse">
<stop stop-color="#00A2F3" stop-opacity="0"/>
<stop offset="1" stop-color="#0075CD"/>
</linearGradient>
<clipPath id="clip0_22_12643">
<rect width="32" height="32" fill="white" transform="translate(0.5)"/>
</clipPath>
</defs>
</svg>
