<svg width="33" height="32" viewBox="0 0 33 32" fill="none" xmlns="http://www.w3.org/2000/svg">
<g id="Group">
<g id="Group_2">
<g id="Group_3">
<g id="Group_4">
<g id="Group_5">
<g id="Group_6">
<path id="Vector" d="M25.2709 0H5.20319C4.52362 0 3.97275 0.550875 3.97275 1.23044V13.7349C3.97275 14.4145 4.52362 14.9654 5.20319 14.9654H25.2709V0L25.2709 0Z" fill="#DF9874"/>
<path id="Vector_2" d="M27.8596 0H24.8274V14.9654H27.8596C28.5392 14.9654 29.09 14.4145 29.09 13.7349V1.23044C29.09 0.550875 28.5392 0 27.8596 0Z" fill="#DA8659"/>
<path id="Vector_3" d="M25.2709 1.93164H6.23286C6.05136 1.93164 5.90424 2.07877 5.90424 2.26027V12.7055C5.90424 12.887 6.05136 13.0341 6.23286 13.0341H25.271V1.93164H25.2709Z" fill="#B9EA6A"/>
<path id="Vector_4" d="M26.83 1.93164H24.8274V13.0341H26.83C27.0115 13.0341 27.1586 12.887 27.1586 12.7055V2.26027C27.1586 2.07883 27.0115 1.93164 26.83 1.93164Z" fill="#A1E42C"/>
</g>
<g id="Group_7">
<path id="Vector_5" d="M16.5315 11.7905C18.0501 11.7905 19.2812 10.5594 19.2812 9.04077C19.2812 7.52212 18.0501 6.29102 16.5315 6.29102C15.0128 6.29102 13.7817 7.52212 13.7817 9.04077C13.7817 10.5594 15.0128 11.7905 16.5315 11.7905Z" fill="#FFB983"/>
</g>
<path id="Vector_6" d="M8.50696 19.0186H20.6972V31.0772H8.50696V19.0186Z" fill="#F5F5F5"/>
<path id="Vector_7" d="M20.2465 19.0186H24.4931V31.0772H20.2465V19.0186Z" fill="#DFDFDF"/>
</g>
</g>
<g id="Group_8">
<path id="Vector_8" d="M4.51037 27.1747C3.31012 27.1747 2.33362 26.1982 2.33362 24.998C2.33362 23.7977 3.31006 22.8213 4.51037 22.8213C5.71062 22.8213 6.68706 23.7977 6.68706 24.998C6.68706 26.1982 5.71056 27.1747 4.51037 27.1747Z" fill="#FFB983"/>
<path id="Vector_9" d="M12.5034 27.1747C11.3031 27.1747 10.3266 26.1982 10.3266 24.998C10.3266 23.7977 11.3031 22.8213 12.5034 22.8213C13.7036 22.8213 14.6801 23.7977 14.6801 24.998C14.6801 26.1982 13.7036 27.1747 12.5034 27.1747Z" fill="#FFB983"/>
<path id="Vector_10" d="M20.4966 27.1747C19.2963 27.1747 18.3198 26.1982 18.3198 24.998C18.3198 23.7977 19.2963 22.8213 20.4966 22.8213C21.6968 22.8213 22.6733 23.7977 22.6733 24.998C22.6733 26.1982 21.6968 27.1747 20.4966 27.1747Z" fill="#FFB983"/>
<path id="Vector_11" d="M28.4897 27.1747C27.2895 27.1747 26.313 26.1982 26.313 24.998C26.313 23.7977 27.2894 22.8213 28.4897 22.8213C29.69 22.8213 30.6664 23.7977 30.6664 24.998C30.6664 26.1982 29.6899 27.1747 28.4897 27.1747Z" fill="#FFB983"/>
</g>
</g>
<g id="Group_9">
<path id="Vector_12" d="M4.44142 31.0007C4.44142 29.629 3.77498 28.4138 2.74879 27.6589C2.64604 27.5832 2.50642 27.5769 2.39817 27.6444C2.39761 27.6448 2.39698 27.6452 2.39642 27.6455C1.26604 28.3514 0.513794 29.6062 0.513794 31.037V31.3995C0.513794 31.7314 0.782919 32.0005 1.11486 32.0005H4.27923L4.44142 31.6739V31.0007Z" fill="#FB636F"/>
<path id="Vector_13" d="M12.4754 31.1145C12.4754 29.727 11.8367 28.4892 10.8377 27.6775C10.7102 27.5739 10.531 27.5568 10.3917 27.6437C10.3909 27.6442 10.3902 27.6446 10.3894 27.6451C9.25909 28.351 8.5069 29.6059 8.5069 31.0368L8.26578 31.2391V31.8065L8.50684 32.0002H12.2723L12.4754 31.7782V31.1145Z" fill="#89C6FC"/>
<path id="Vector_14" d="M20.4794 31.074C20.4794 29.6642 19.7983 28.4143 18.7477 27.6332C18.6533 27.563 18.5251 27.5572 18.4245 27.6183C17.2707 28.3192 16.4999 29.5878 16.4999 31.0364L16.2382 31.2414V31.8691L16.4999 31.9999H20.2654L20.4794 31.7055V31.074Z" fill="#FB636F"/>
<g id="Group_10">
<path id="Vector_15" d="M28.4717 30.9548C28.4717 29.6082 27.8233 28.4139 26.8223 27.6647C26.6942 27.5687 26.5203 27.5556 26.3843 27.6401C25.2492 28.345 24.4931 29.6026 24.4931 31.0372L24.1732 31.2073V31.8001L24.471 32.0007H28.2585L28.4717 31.6874V30.9548Z" fill="#89C6FC"/>
<path id="Vector_16" d="M31.376 32.0004H31.885C31.9704 32.0004 32.0516 31.9823 32.1253 31.9502L31.376 32.0004Z" fill="#89C6FC"/>
</g>
<g id="Group_11">
<path id="Vector_17" d="M28.4897 27.04C27.7133 27.04 26.9891 27.2622 26.3758 27.6452C27.5061 28.3512 28.2585 29.6057 28.2585 31.0366V32.0001H31.8851C32.2171 32.0001 32.4862 31.731 32.4862 31.399V31.0366C32.4862 28.8294 30.6969 27.04 28.4897 27.04Z" fill="#62B4FD"/>
</g>
<g id="Group_12">
<path id="Vector_18" d="M24.4932 31.0366C24.4932 28.8294 22.7039 27.04 20.4966 27.04C19.7203 27.04 18.9961 27.2622 18.3828 27.6452C19.5131 28.3513 20.2655 29.6057 20.2655 31.0366V32.0001H24.4932V31.0366Z" fill="#FA2A3B"/>
</g>
<path id="Vector_19" d="M12.5034 27.04C11.7271 27.04 11.0029 27.2622 10.3896 27.6452C11.5199 28.3513 12.2723 29.6057 12.2723 31.0366V32.0001H16.5V31.0366C16.5 28.8294 14.7107 27.04 12.5034 27.04Z" fill="#62B4FD"/>
<path id="Vector_20" d="M8.50683 32.0001V31.0366C8.50683 28.8294 6.71752 27.04 4.51027 27.04C3.73389 27.04 3.0097 27.2622 2.39645 27.6452C3.5267 28.3513 4.27914 29.6057 4.27914 31.0366V32.0001H8.50683Z" fill="#FA2A3B"/>
</g>
<g id="Group_13">
<path id="Vector_21" d="M17.472 16.575C17.472 14.8404 16.6605 13.296 15.397 12.2988C15.1327 12.0902 14.7714 12.049 14.468 12.1949C12.8688 12.964 11.7646 14.5985 11.7646 16.4918V17.9876H17.472V16.575Z" fill="#3590BB"/>
<path id="Vector_22" d="M16.5314 11.7256C15.7764 11.7256 15.0628 11.9018 14.4283 12.2143C16.006 12.9915 17.0919 14.6148 17.0919 16.4923V17.9881H21.2981V16.4923C21.2982 13.8598 19.164 11.7256 16.5314 11.7256Z" fill="#0E80AC"/>
<path id="Vector_23" d="M21.9261 19.3967V18.0437L21.7008 17.7861H7.8892C7.4842 17.7861 7.15588 18.1144 7.15588 18.5194V19.276C7.15588 19.681 7.4842 20.0093 7.8892 20.0093H21.2983C21.6361 20.0093 21.9226 19.7423 21.926 19.4044C21.9261 19.4018 21.9261 19.3993 21.9261 19.3967Z" fill="#DFDFDF"/>
<path id="Vector_24" d="M25.1736 17.7861H21.7007V19.276C21.7007 19.681 21.3724 20.0093 20.9674 20.0093H25.1736C25.5786 20.0093 25.9069 19.681 25.9069 19.276V18.5194C25.9069 18.1144 25.5786 17.7861 25.1736 17.7861Z" fill="#CBCBCB"/>
</g>
</g>
</g>
</svg>
