<svg width="33" height="33" viewBox="0 0 33 33" fill="none" xmlns="http://www.w3.org/2000/svg">
<g id="fi_4762311" clip-path="url(#clip0_22_12690)">
<g id="Group">
<path id="Vector" d="M1.9082 5.6814H32.0328V26.8632H1.9082V5.6814Z" fill="#ECF4FF"/>
<path id="Vector_2" d="M16.5 5.6814H32.033V26.8632H16.5V5.6814Z" fill="#D5E7FD"/>
<path id="Vector_3" d="M23.0897 26.8633V30.6285C23.0897 31.1468 22.1098 31.0924 21.5048 31.0924L11.082 31.0817C10.477 31.0817 9.91016 31.1468 9.91016 30.6285V26.8633C9.91016 26.345 10.3999 25.9255 11.0049 25.9255H21.9949C22.5999 25.9255 23.0897 26.345 23.0897 26.8633Z" fill="#3F558F"/>
<path id="Vector_4" d="M23.0898 26.8633V30.6285C23.0898 31.1468 22.582 31.1988 21.977 31.1988L16.5 31.3052V25.9255H21.995C22.6001 25.9255 23.0898 26.345 23.0898 26.8633Z" fill="#1C3470"/>
<path id="Vector_5" d="M26.8518 30.6284C26.8518 31.1466 26.4317 31.5661 25.9141 31.5661H7.08591C6.56829 31.5661 6.14819 31.1466 6.14819 30.6284C6.14819 30.1108 6.56829 29.6907 7.08591 29.6907H16.5L23.7557 30.3368C24.2733 30.3368 26.8518 30.1108 26.8518 30.6284Z" fill="#5A729E"/>
<path id="Vector_6" d="M26.8518 30.6284C26.8518 31.1466 26.4317 31.5661 25.9141 31.5661H16.5V29.6907H25.9141C26.4317 29.6907 26.8518 30.1108 26.8518 30.6284Z" fill="#3F558F"/>
<path id="Vector_7" d="M32.5 5.68137V26.8632C32.5 27.3808 32.0799 27.8009 31.5623 27.8009H1.43772C0.920099 27.8009 0.5 27.3808 0.5 26.8632V5.68137C0.5 5.16313 0.920099 4.74365 1.43772 4.74365H7.08592C7.60354 4.74365 8.02364 5.16313 8.02364 5.68137C8.02364 6.19899 7.60354 6.61909 7.08592 6.61909H2.37544V25.9255H30.6246V6.61909H26.3848C25.8672 6.61909 25.4471 6.19899 25.4471 5.68137C25.4471 5.16313 25.8672 4.74365 26.3848 4.74365H31.5623C32.0799 4.74365 32.5 5.16313 32.5 5.68137Z" fill="#5A729E"/>
<path id="Vector_8" d="M32.5 5.68137V26.8632C32.5 27.3808 32.0799 27.8009 31.5623 27.8009H16.5V25.9255H30.6246V6.61909H26.3848C25.8672 6.61909 25.4471 6.19899 25.4471 5.68137C25.4471 5.16313 25.8672 4.74365 26.3848 4.74365H31.5623C32.0799 4.74365 32.5 5.16313 32.5 5.68137Z" fill="#3F558F"/>
<path id="Vector_9" d="M23.5567 6.93659V11.3295C23.5567 11.7177 23.3179 12.0653 22.9553 12.2047L16.5 14.6209C16.2508 14.6209 16.3457 14.6226 10.0441 12.2047C9.68217 12.0653 9.44336 11.7177 9.44336 11.3295V6.83469C9.44336 6.31707 9.86346 5.89697 10.3811 5.89697C10.8987 5.89697 11.3188 6.31707 11.3188 6.83469C11.3188 6.84813 10.8558 6.83894 21.6819 6.92909C21.6856 6.41459 22.1038 5.99887 22.6189 5.99887C23.1366 5.99887 23.5567 6.41897 23.5567 6.93659Z" fill="#5A729E"/>
<path id="Vector_10" d="M23.5567 6.93674V11.3296C23.5567 11.7179 23.3178 12.0654 22.9553 12.2049C16.6769 14.6228 16.7471 14.621 16.5 14.621V6.88611L21.6818 6.92924C21.6856 6.41475 22.1038 5.99902 22.6189 5.99902C23.1366 5.99902 23.5567 6.41912 23.5567 6.93674Z" fill="#3F558F"/>
<path id="Vector_11" d="M27.3221 5.68135V12.271C27.3221 12.7893 26.902 13.2087 26.3844 13.2087C25.8668 13.2087 25.4467 12.7893 25.4467 12.271L25.8409 6.28862L16.4996 9.91422C16.2707 9.91422 16.3653 9.9151 6.77607 6.56656C5.94056 6.27374 5.9405 5.08903 6.77607 4.79615C16.3533 1.44561 16.2706 1.44849 16.4996 1.44849L25.66 5.1713C26.0432 5.29883 27.3221 5.27751 27.3221 5.68135Z" fill="#3F558F"/>
<path id="Vector_12" d="M27.3225 5.68135V12.271C27.3225 12.7893 26.9024 13.2087 26.3848 13.2087C25.8672 13.2087 25.4471 12.7893 25.4471 12.271V6.98228C16.6929 9.9171 16.7198 9.91422 16.5 9.91422V1.44849C16.718 1.44849 16.616 1.44849 26.6811 4.79177C27.0644 4.9193 27.3225 5.27751 27.3225 5.68135Z" fill="#1C3470"/>
<path id="Vector_13" d="M8.96891 17.4526H5.20334C4.68547 17.4526 4.26562 17.8725 4.26562 18.3904V22.1559C4.26562 22.6738 4.68547 23.0936 5.20334 23.0936H8.96891C9.48679 23.0936 9.90663 22.6738 9.90663 22.1559V18.3904C9.90663 17.8725 9.48679 17.4526 8.96891 17.4526Z" fill="#FC6284"/>
<path id="Vector_14" d="M28.7352 18.3906C28.7352 18.9082 28.3151 19.3283 27.7975 19.3283H12.7346C12.217 19.3283 11.7969 18.9082 11.7969 18.3906C11.7969 17.8724 12.217 17.4529 12.7346 17.4529H27.7975C28.3151 17.4529 28.7352 17.8724 28.7352 18.3906Z" fill="#01C1F0"/>
<path id="Vector_15" d="M28.7352 22.1557C28.7352 22.674 28.3151 23.0935 27.7975 23.0935H12.7346C12.217 23.0935 11.7969 22.674 11.7969 22.1557C11.7969 21.6381 12.217 21.218 12.7346 21.218H27.7975C28.3151 21.218 28.7352 21.6381 28.7352 22.1557Z" fill="#01C1F0"/>
<g id="Group_2">
<path id="Vector_16" d="M28.7347 22.156C28.7347 22.6742 28.3146 23.0937 27.797 23.0937H16.5V21.2183H27.797C28.3146 21.2183 28.7347 21.6384 28.7347 22.156Z" fill="#00ADE9"/>
<path id="Vector_17" d="M27.797 19.3283H16.5V17.4529H27.797C28.3146 17.4529 28.7347 17.8724 28.7347 18.3906C28.7347 18.9082 28.3146 19.3283 27.797 19.3283Z" fill="#00ADE9"/>
</g>
</g>
</g>
<defs>
<clipPath id="clip0_22_12690">
<rect width="32" height="32" fill="white" transform="translate(0.5 0.507324)"/>
</clipPath>
</defs>
</svg>
