<svg width="33" height="32" viewBox="0 0 33 32" fill="none" xmlns="http://www.w3.org/2000/svg">
<g id="Diversity" clip-path="url(#clip0_2590_24536)">
<g id="Group">
<path id="Vector" d="M16.5 17.7201C16.5 15.0911 14.3688 12.96 11.7399 12.96L11.1149 17.3704L11.7399 27.9397H16.5V17.7201Z" fill="#24B3B3"/>
<path id="Vector_2" d="M6.97974 17.7201V27.9397H11.7399V12.96C9.11092 12.96 6.97974 15.0911 6.97974 17.7201Z" fill="#2EE6A8"/>
<path id="Vector_3" d="M26.0203 17.7201C26.0203 15.0911 23.8891 12.96 21.2601 12.96L20.6351 17.3704L21.2601 27.9397H26.0203V17.7201Z" fill="#E62E6B"/>
<path id="Vector_4" d="M16.5 17.7201V27.9397H21.2601V12.96C18.6312 12.96 16.5 15.0911 16.5 17.7201Z" fill="#FF6666"/>
<path id="Vector_5" d="M15.5625 0H17.4375V2.8125H15.5625V0Z" fill="#FFB655"/>
<path id="Vector_6" d="M15.5625 0H17.4375V2.8125H15.5625V0Z" fill="#FFB655"/>
<path id="Vector_7" d="M10.6635 1.07324L12.4466 0.493867L13.3157 3.16855L11.5325 3.74793L10.6635 1.07324Z" fill="#FFDA44"/>
<path id="Vector_8" d="M10.6635 1.07324L12.4466 0.493867L13.3157 3.16855L11.5325 3.74793L10.6635 1.07324Z" fill="#FFDA44"/>
<path id="Vector_9" d="M6.33746 3.60547L7.85434 2.50297L9.50809 4.77828L7.99121 5.88078L6.33746 3.60547Z" fill="#FFDA44"/>
<path id="Vector_10" d="M6.33746 3.60547L7.85434 2.50297L9.50809 4.77828L7.99121 5.88078L6.33746 3.60547Z" fill="#FFDA44"/>
<path id="Vector_11" d="M3.00525 7.35547L4.10775 5.83859L6.38306 7.49234L5.28056 9.00922L3.00525 7.35547Z" fill="#FFDA44"/>
<path id="Vector_12" d="M3.00525 7.35547L4.10775 5.83859L6.38306 7.49234L5.28056 9.00922L3.00525 7.35547Z" fill="#FFDA44"/>
<path id="Vector_13" d="M0.992737 11.9473L1.57211 10.1641L4.2468 11.0332L3.66742 12.8163L0.992737 11.9473Z" fill="#FFDA44"/>
<path id="Vector_14" d="M0.992737 11.9473L1.57211 10.1641L4.2468 11.0332L3.66742 12.8163L0.992737 11.9473Z" fill="#FFDA44"/>
<path id="Vector_15" d="M0.5 15.0625H3.3125V16.9375H0.5V15.0625Z" fill="#FFDA44"/>
<path id="Vector_16" d="M0.5 15.0625H3.3125V16.9375H0.5V15.0625Z" fill="#FFDA44"/>
<g id="Group_2">
<path id="Vector_17" d="M29.6875 15.0625H32.5V16.9375H29.6875V15.0625Z" fill="#FFB655"/>
<path id="Vector_18" d="M29.6875 15.0625H32.5V16.9375H29.6875V15.0625Z" fill="#FFB655"/>
<path id="Vector_19" d="M28.7505 11.0332L31.4252 10.1641L32.0046 11.9473L29.3299 12.8163L28.7505 11.0332Z" fill="#FFB655"/>
<path id="Vector_20" d="M28.7505 11.0332L31.4252 10.1641L32.0046 11.9473L29.3299 12.8163L28.7505 11.0332Z" fill="#FFB655"/>
<path id="Vector_21" d="M26.6188 7.48438L28.8941 5.83062L29.9966 7.3475L27.7213 9.00125L26.6188 7.48438Z" fill="#FFB655"/>
<path id="Vector_22" d="M26.6188 7.48438L28.8941 5.83062L29.9966 7.3475L27.7213 9.00125L26.6188 7.48438Z" fill="#FFB655"/>
<path id="Vector_23" d="M23.4977 4.78027L25.1515 2.50496L26.6684 3.60746L25.0146 5.88277L23.4977 4.78027Z" fill="#FFB655"/>
<path id="Vector_24" d="M23.4977 4.78027L25.1515 2.50496L26.6684 3.60746L25.0146 5.88277L23.4977 4.78027Z" fill="#FFB655"/>
<path id="Vector_25" d="M19.683 3.16895L20.5521 0.494258L22.3352 1.07363L21.4662 3.74832L19.683 3.16895Z" fill="#FFB655"/>
<path id="Vector_26" d="M19.683 3.16895L20.5521 0.494258L22.3352 1.07363L21.4662 3.74832L19.683 3.16895Z" fill="#FFB655"/>
</g>
<path id="Vector_27" d="M14.4696 10.2297C14.4696 8.72212 13.2475 7.5 11.7399 7.5L11.1149 10.2297L11.7399 12.9595C13.2474 12.9595 14.4696 11.7373 14.4696 10.2297Z" fill="#DBAD5C"/>
<path id="Vector_28" d="M9.01013 10.2297C9.01013 11.7374 10.2323 12.9595 11.7399 12.9595V7.5C10.2323 7.5 9.01013 8.72212 9.01013 10.2297Z" fill="#E7C994"/>
<path id="Vector_29" d="M23.9899 10.2297C23.9899 8.72212 22.7678 7.5 21.2601 7.5L20.6351 10.2297L21.2601 12.9595C22.7678 12.9595 23.9899 11.7373 23.9899 10.2297Z" fill="#8C574D"/>
<path id="Vector_30" d="M18.5304 10.2297C18.5304 11.7374 19.7525 12.9595 21.2601 12.9595V7.5C19.7526 7.5 18.5304 8.72212 18.5304 10.2297Z" fill="#A6756B"/>
<path id="Vector_31" d="M28.75 20.4495C28.75 18.9419 27.5279 17.7197 26.0203 17.7197L25.3953 20.4495L26.0203 23.1792C27.5279 23.1792 28.75 21.957 28.75 20.4495Z" fill="#DBAD5C"/>
<path id="Vector_32" d="M23.2905 20.4495C23.2905 21.9571 24.5126 23.1792 26.0202 23.1792V17.7197C24.5127 17.7197 23.2905 18.9419 23.2905 20.4495Z" fill="#E7C994"/>
<path id="Vector_33" d="M30.7804 27.9388C30.7804 25.3099 28.6492 23.1787 26.0203 23.1787L25.3953 27.5891L26.0203 31.9996H30.7804V27.9388Z" fill="#6A4DFF"/>
<path id="Vector_34" d="M21.2601 27.9389L20.6351 30.1246L21.2601 31.9996H26.0203V23.1787C23.3913 23.1787 21.2601 25.3099 21.2601 27.9389Z" fill="#6680FF"/>
<path id="Vector_35" d="M19.2297 20.4495C19.2297 18.9419 18.0076 17.7197 16.5 17.7197L15.875 20.4495L16.5 23.1792C18.0076 23.1792 19.2297 21.957 19.2297 20.4495Z" fill="#FFCDBE"/>
<path id="Vector_36" d="M13.7703 20.4495C13.7703 21.9571 14.9924 23.1792 16.5 23.1792V17.7197C14.9924 17.7197 13.7703 18.9419 13.7703 20.4495Z" fill="#FFDECF"/>
<path id="Vector_37" d="M21.2601 27.9388C21.2601 25.3099 19.1289 23.1787 16.5 23.1787L15.875 27.5891L16.5 31.9996H21.2601V27.9388Z" fill="#404A80"/>
<path id="Vector_38" d="M11.7399 27.9389L11.1149 30.1246L11.7399 31.9996H16.5V23.1787C13.8711 23.1787 11.7399 25.3099 11.7399 27.9389Z" fill="#5C6699"/>
<path id="Vector_39" d="M9.70949 20.4495C9.70949 18.9419 8.48736 17.7197 6.97974 17.7197L6.35474 20.4495L6.97974 23.1792C8.4873 23.1792 9.70949 21.957 9.70949 20.4495Z" fill="#8C574D"/>
<path id="Vector_40" d="M4.25 20.4495C4.25 21.9571 5.47213 23.1792 6.97975 23.1792V17.7197C5.47213 17.7197 4.25 18.9419 4.25 20.4495Z" fill="#A6756B"/>
<path id="Vector_41" d="M11.7399 27.9388C11.7399 25.3099 9.60867 23.1787 6.97974 23.1787L6.35474 27.5891L6.97974 31.9996H11.7399V27.9388Z" fill="#FFB655"/>
<path id="Vector_42" d="M2.21964 27.9389V31.9996H6.97976V23.1787C4.35082 23.1787 2.21964 25.3099 2.21964 27.9389Z" fill="#FFDA44"/>
</g>
</g>
<defs>
<clipPath id="clip0_2590_24536">
<rect width="32" height="32" fill="white" transform="translate(0.5)"/>
</clipPath>
</defs>
</svg>
