<svg width="33" height="32" viewBox="0 0 33 32" fill="none" xmlns="http://www.w3.org/2000/svg">
<path d="M32.5 23.7525V8.2475C32.5 3.69253 28.8075 0 24.2525 0H8.7475C4.19253 0 0.5 3.69253 0.5 8.2475V23.7525C0.5 28.3075 4.19253 32 8.7475 32H24.2525C28.8075 32 32.5 28.3075 32.5 23.7525Z" fill="url(#paint0_linear_8033_1338)"/>
<path d="M32.4998 21.2991V23.7497C32.4998 25.9377 31.6306 28.0361 30.0834 29.5833C28.5363 31.1305 26.4378 31.9997 24.2498 31.9997H17.3486L9.44168 24.0928L10.2317 18.8397L7.53418 16.1422L25.4092 14.2109L32.4998 21.2991Z" fill="url(#paint1_linear_8033_1338)"/>
<path d="M25.4119 14.2112L18.1462 8.1249C17.6848 7.73796 17.1019 7.52588 16.4997 7.52588C15.8975 7.52588 15.3145 7.73796 14.8531 8.1249L7.58812 14.2112C6.66625 14.9837 7.21312 16.4862 8.41499 16.4862H9.07374V23.1943C9.07374 23.5343 9.2088 23.8603 9.4492 24.1007C9.6896 24.3411 10.0156 24.4762 10.3556 24.4762H14.0281V20.1437C14.028 19.819 14.0919 19.4976 14.2161 19.1976C14.3403 18.8977 14.5224 18.6251 14.7519 18.3956C14.9815 18.166 15.254 17.984 15.554 17.8598C15.8539 17.7356 16.1754 17.6717 16.5 17.6718C16.8246 17.6718 17.146 17.7357 17.4459 17.8599C17.7458 17.9842 18.0183 18.1662 18.2479 18.3958C18.4774 18.6253 18.6595 18.8978 18.7837 19.1977C18.9079 19.4976 18.9719 19.819 18.9719 20.1437V24.4762H22.6444C22.9843 24.4762 23.3104 24.3411 23.5508 24.1007C23.7912 23.8603 23.9262 23.5343 23.9262 23.1943V16.4862H24.5844C25.7875 16.4862 26.3337 14.9837 25.4119 14.2112Z" fill="white"/>
<defs>
<linearGradient id="paint0_linear_8033_1338" x1="2.91562" y1="2.41562" x2="30.0844" y2="29.5844" gradientUnits="userSpaceOnUse">
<stop stop-color="#549EFF"/>
<stop offset="1" stop-color="#006DB0"/>
</linearGradient>
<linearGradient id="paint1_linear_8033_1338" x1="10.9754" y1="12.7009" x2="28.9717" y2="30.6966" gradientUnits="userSpaceOnUse">
<stop stop-opacity="0.35"/>
<stop offset="1" stop-opacity="0"/>
</linearGradient>
</defs>
</svg>
