<svg width="33" height="32" viewBox="0 0 33 32" fill="none" xmlns="http://www.w3.org/2000/svg">
<g id="Friends" clip-path="url(#clip0_2590_24444)">
<g id="Group">
<path id="Vector" d="M30.0156 2.80859H16.9776C16.6324 2.80859 16.3526 3.08841 16.3526 3.43359V5.28666C17.064 6.03041 17.6478 6.89709 18.0697 7.85141H30.0156C30.3608 7.85141 30.6406 7.57159 30.6406 7.22641V3.43359C30.6406 3.08841 30.3608 2.80859 30.0156 2.80859Z" fill="#05E39C"/>
<g id="Group_2">
<path id="Vector_2" d="M30.0156 2.80859H27.9131C28.2582 2.80859 28.5381 3.08841 28.5381 3.43359V7.22641C28.5381 7.57159 28.2582 7.85141 27.9131 7.85141H30.0156C30.3608 7.85141 30.6406 7.57159 30.6406 7.22641V3.43359C30.6406 3.08841 30.3608 2.80859 30.0156 2.80859Z" fill="#0ED290"/>
</g>
<g id="Group_3">
<path id="Vector_3" d="M20.7031 5.79883H18.8906C18.6317 5.79883 18.4219 5.58895 18.4219 5.33008C18.4219 5.0712 18.6317 4.86133 18.8906 4.86133H20.7031C20.962 4.86133 21.1719 5.0712 21.1719 5.33008C21.1719 5.58895 20.962 5.79883 20.7031 5.79883Z" fill="white"/>
</g>
<g id="Group_4">
<path id="Vector_4" d="M28.0781 5.79883H22.4531C22.1942 5.79883 21.9844 5.58895 21.9844 5.33008C21.9844 5.0712 22.1942 4.86133 22.4531 4.86133H28.0781C28.337 4.86133 28.5469 5.0712 28.5469 5.33008C28.5469 5.58895 28.337 5.79883 28.0781 5.79883Z" fill="white"/>
</g>
<g id="Group_5">
<path id="Vector_5" d="M18.4925 13.8939C18.7115 13.1197 18.8288 12.3028 18.8288 11.4584C18.8288 6.52644 14.8307 2.52832 9.89881 2.52832C4.96694 2.52832 0.96875 6.52651 0.96875 11.4584C0.96875 16.3903 4.96688 20.3884 9.89875 20.3884C11.585 20.3884 13.162 19.9208 14.5074 19.1084C15.1303 16.9066 16.5766 15.0507 18.4925 13.8939Z" fill="#FFF0AD"/>
<path id="Vector_6" d="M14.9288 6.88545C14.9831 6.97632 15.0357 7.06826 15.0868 7.1612C15.5264 7.3667 15.8316 7.81163 15.8316 8.32895V8.84976C15.8316 8.88051 15.8291 8.9107 15.827 8.94088C16.0612 9.73945 16.1875 10.5843 16.1875 11.4587C16.1875 12.724 15.9242 13.9278 15.4496 15.0183C15.795 15.1821 16.1052 15.4073 16.3677 15.679C16.9773 14.9797 17.6941 14.3763 18.4924 13.8943C18.7115 13.12 18.8288 12.3031 18.8288 11.4586C18.8288 8.37988 17.2707 5.66513 14.9001 4.05957C14.9184 4.20295 14.9288 4.34876 14.9288 4.49707V6.88545Z" fill="#FFE177"/>
<g id="Group_6">
<g id="Group_7">
<path id="Vector_7" d="M23.1012 30.943C17.9187 30.943 13.7024 26.7268 13.7024 21.5443C13.7024 16.3618 17.9187 12.1455 23.1012 12.1455C28.2837 12.1455 32.5 16.3618 32.5 21.5443C32.5 26.7268 28.2837 30.943 23.1012 30.943ZM23.1012 13.0829C18.4357 13.0829 14.6399 16.8786 14.6399 21.5442C14.6399 26.2098 18.4356 30.0054 23.1012 30.0054C27.7668 30.0054 31.5625 26.2098 31.5625 21.5442C31.5625 16.8786 27.7668 13.0829 23.1012 13.0829Z" fill="#C4E2FF"/>
</g>
</g>
<path id="Vector_8" d="M16.3684 15.6776C15.7953 15.0841 14.9914 14.7148 14.1012 14.7148H5.69645C4.33439 14.7148 3.17426 15.5789 2.73395 16.7888C4.36189 18.9732 6.96507 20.388 9.89882 20.388C11.5854 20.388 13.1622 19.9197 14.5078 19.1072C14.8712 17.8228 15.5149 16.6563 16.3684 15.6776Z" fill="#26A6FE"/>
<path id="Vector_9" d="M16.3677 15.6792C16.1052 15.4076 15.795 15.1823 15.4496 15.0186C14.2427 17.7921 11.6686 19.8334 8.57812 20.2916C9.00912 20.3554 9.45 20.3889 9.89875 20.3889C11.5853 20.3889 13.1621 19.9206 14.5077 19.1081C14.8711 17.8241 15.5145 16.6579 16.3677 15.6792Z" fill="#0593FC"/>
<path id="Vector_10" d="M14.7446 18.3904C13.3711 19.3535 11.6999 19.9196 9.89875 19.9196C5.23319 19.9196 1.4375 16.1238 1.4375 11.4583C1.4375 6.7927 5.23319 2.99701 9.89875 2.99701C14.5643 2.99701 18.3601 6.7927 18.3601 11.4583C18.3601 12.4586 18.1851 13.4186 17.865 14.3101C18.241 14.0375 18.6388 13.7932 19.0558 13.5809C19.2139 12.8986 19.2976 12.188 19.2976 11.4583C19.2976 6.27582 15.0813 2.05957 9.89875 2.05957C4.71625 2.05951 0.5 6.27576 0.5 11.4583C0.5 16.6408 4.71625 20.8571 9.89875 20.8571C11.5104 20.8571 13.0284 20.4491 14.3554 19.7314C14.4504 19.2704 14.5815 18.8225 14.7446 18.3904Z" fill="#FFD15B"/>
<g id="Group_8">
<g id="Group_9">
<path id="Vector_11" d="M10.7962 13.3849H9.00131C8.75475 13.3849 8.51568 13.3523 8.28787 13.292V14.9257C8.28787 15.8154 9.00912 16.5366 9.89875 16.5366C10.7884 16.5366 11.5097 15.8154 11.5097 14.9257V13.292C11.2819 13.3523 11.0428 13.3849 10.7962 13.3849Z" fill="#FFB09E"/>
</g>
<g id="Group_10">
<path id="Vector_12" d="M10.7963 13.3849H10.0625V14.9257C10.0625 15.5551 9.70139 16.0998 9.1752 16.3649C9.39283 16.4745 9.63851 16.5366 9.89883 16.5366C10.7885 16.5366 11.5098 15.8154 11.5098 14.9257V13.292C11.2819 13.3524 11.0428 13.3849 10.7963 13.3849Z" fill="#F89580"/>
</g>
<g id="Group_11">
<g id="Group_12">
<path id="Vector_13" d="M5.25568 7.10899H6.21349V7.01249C6.21349 6.10568 6.95124 5.36799 7.85805 5.36799H11.9395C12.8463 5.36799 13.5841 6.10574 13.5841 7.01249V7.10899H14.5419C14.6772 7.10899 14.8071 7.13205 14.9288 7.17293V4.49693C14.9288 2.59743 13.389 1.05762 11.4895 1.05762H8.30812C6.40862 1.05762 4.8688 2.59749 4.8688 4.49693V7.17293C4.99049 7.13205 5.12031 7.10899 5.25568 7.10899Z" fill="#554E56"/>
</g>
<g id="Group_13">
<g id="Group_14">
<path id="Vector_14" d="M11.4895 1.05762H8.8107C10.7102 1.05762 12.25 2.59749 12.25 4.49693V5.39774C13.0088 5.54337 13.5841 6.21187 13.5841 7.01249V7.10899H14.5419C14.6773 7.10899 14.8071 7.13205 14.9288 7.17293V4.49693C14.9288 2.59743 13.3889 1.05762 11.4895 1.05762Z" fill="#433F43"/>
</g>
</g>
<g id="Group_15">
<path id="Vector_15" d="M6.20594 7.03906H5.25569C4.54338 7.03906 3.96594 7.6165 3.96594 8.32881V8.84962C3.96594 9.56194 4.54338 10.1394 5.25569 10.1394H6.206L6.20594 7.03906Z" fill="#F89580"/>
<path id="Vector_16" d="M14.5419 7.03906H13.5916V10.1394H14.5419C15.2542 10.1394 15.8316 9.56194 15.8316 8.84962V8.32881C15.8316 7.61656 15.2542 7.03906 14.5419 7.03906Z" fill="#F89580"/>
</g>
<g id="Group_16">
<path id="Vector_17" d="M10.7962 13.4545H9.00131C7.42299 13.4545 6.14349 12.175 6.14349 10.5967V7.01241C6.14349 6.06548 6.91112 5.29785 7.85806 5.29785H11.9395C12.8864 5.29785 13.6541 6.06548 13.6541 7.01241V10.5967C13.6541 12.175 12.3746 13.4545 10.7962 13.4545Z" fill="#FFCEBF"/>
</g>
<g id="Group_17">
<path id="Vector_18" d="M11.9395 5.29785H10.3585C11.3054 5.29785 12.0731 6.06548 12.0731 7.01241V10.5967C12.0731 12.175 10.7936 13.4545 9.21524 13.4545H10.7962C12.3746 13.4545 13.6541 12.175 13.6541 10.5967V7.01241C13.6541 6.06554 12.8864 5.29785 11.9395 5.29785Z" fill="#FFB09E"/>
</g>
<g id="Group_18">
<g id="Group_19">
<path id="Vector_19" d="M8.24249 8.88068C7.98362 8.88068 7.77374 8.6708 7.77374 8.41193V7.65137C7.77374 7.39249 7.98362 7.18262 8.24249 7.18262C8.50137 7.18262 8.71124 7.39249 8.71124 7.65137V8.41193C8.71124 8.6708 8.50137 8.88068 8.24249 8.88068Z" fill="#F89580"/>
</g>
<g id="Group_20">
<path id="Vector_20" d="M11.555 8.88068C11.2961 8.88068 11.0862 8.6708 11.0862 8.41193V7.65137C11.0862 7.39249 11.2961 7.18262 11.555 7.18262C11.8139 7.18262 12.0237 7.39249 12.0237 7.65137V8.41193C12.0237 8.6708 11.8139 8.88068 11.555 8.88068Z" fill="#F89580"/>
</g>
</g>
<g id="Group_21">
<path id="Vector_21" d="M9.93332 12.0305C9.92175 12.0305 9.91032 12.0304 9.89875 12.0301C9.46144 12.0399 9.00863 11.858 8.68132 11.5407C8.39732 11.2655 8.24132 10.9238 8.24225 10.5788C8.24294 10.3204 8.45269 10.1113 8.711 10.1113H8.71225C8.97113 10.112 9.18044 10.3224 9.17975 10.5813C9.17957 10.6669 9.23707 10.7738 9.33375 10.8675C9.48369 11.0128 9.69425 11.0985 9.88288 11.0928C9.8935 11.0924 9.90413 11.0924 9.91475 11.0928C10.1033 11.0985 10.3139 11.0128 10.4639 10.8675C10.5605 10.7738 10.6181 10.6669 10.6179 10.5813C10.6172 10.3225 10.8265 10.112 11.0854 10.1113H11.0866C11.3449 10.1113 11.5547 10.3204 11.5554 10.5788C11.5563 10.9238 11.4004 11.2654 11.1163 11.5407C10.7975 11.8496 10.3587 12.0305 9.93332 12.0305Z" fill="#F89580"/>
</g>
</g>
</g>
</g>
<path id="Vector_22" d="M14.2139 22.4199H3.55487C3.20968 22.4199 2.92987 22.6997 2.92987 23.0449V26.8378C2.92987 27.183 3.20968 27.4628 3.55487 27.4628H16.4147C15.2006 26.0921 14.4014 24.3458 14.2139 22.4199Z" fill="#05E39C"/>
<g id="Group_22">
<path id="Vector_23" d="M12.8054 25.4102H8.76562C8.50675 25.4102 8.29688 25.2003 8.29688 24.9414C8.29688 24.6825 8.50675 24.4727 8.76562 24.4727H12.8054C13.0643 24.4727 13.2742 24.6825 13.2742 24.9414C13.2742 25.2003 13.0643 25.4102 12.8054 25.4102Z" fill="white"/>
</g>
<g id="Group_23">
<g id="Group_24">
<path id="Vector_24" d="M23.1012 30.4743C28.0331 30.4743 32.0312 26.4762 32.0312 21.5443C32.0312 16.6124 28.0331 12.6143 23.1012 12.6143C18.1693 12.6143 14.1712 16.6124 14.1712 21.5443C14.1712 26.4762 18.1693 30.4743 23.1012 30.4743Z" fill="#EAF6FF"/>
</g>
<path id="Vector_25" d="M28.8498 14.7109C28.7596 15.2534 28.4648 15.7267 28.0471 16.0486C28.5531 16.4384 28.8795 17.0501 28.8795 17.7382C28.8795 17.7585 28.8785 17.7786 28.878 17.7988C28.9775 17.9817 29.0341 18.1914 29.0341 18.4143V18.9351C29.0341 18.9803 29.0317 19.0249 29.0271 19.069C29.2533 19.8549 29.375 20.6852 29.375 21.544C29.375 26.0246 26.0751 29.7341 21.7732 30.3756C22.2065 30.4402 22.6499 30.474 23.1013 30.474C28.0332 30.474 32.0313 26.4759 32.0313 21.544C32.0312 18.802 30.795 16.3491 28.8498 14.7109Z" fill="#D8ECFE"/>
<g id="Group_25">
<g id="Group_26">
<path id="Vector_26" d="M27.3036 24.8008H18.8989C17.5368 24.8008 16.3767 25.6648 15.9364 26.8747C17.5642 29.0592 20.1675 30.474 23.1012 30.474C26.035 30.474 28.6382 29.0592 30.2661 26.8747C29.8258 25.6649 28.6656 24.8008 27.3036 24.8008Z" fill="#AF66DA"/>
</g>
</g>
<g id="Group_27">
<path id="Vector_27" d="M28.6397 25.0977C27.4349 27.872 24.8624 29.9148 21.773 30.3755C21.7732 30.3755 21.7733 30.3756 21.7734 30.3757C22.2066 30.4402 22.6499 30.474 23.1012 30.474C26.0349 30.474 28.6381 29.0592 30.266 26.8747C29.9802 26.0892 29.3907 25.4498 28.6397 25.0977Z" fill="#9857BD"/>
</g>
<g id="Group_28">
<g id="Group_29">
<path id="Vector_28" d="M23.1012 30.943C17.9187 30.943 13.7024 26.7268 13.7024 21.5443C13.7024 16.3618 17.9187 12.1455 23.1012 12.1455C28.2837 12.1455 32.5 16.3618 32.5 21.5443C32.5 26.7268 28.2837 30.943 23.1012 30.943ZM23.1012 13.0829C18.4357 13.0829 14.6399 16.8786 14.6399 21.5442C14.6399 26.2098 18.4356 30.0054 23.1012 30.0054C27.7668 30.0054 31.5625 26.2098 31.5625 21.5442C31.5625 16.8786 27.7668 13.0829 23.1012 13.0829Z" fill="#C4E2FF"/>
</g>
</g>
<g id="Group_30">
<path id="Vector_29" d="M17.3229 17.7382C17.3229 17.8076 17.3265 17.8761 17.333 17.9437C17.5175 17.5041 17.9522 17.1946 18.4581 17.1946H19.4159V17.0981C19.4159 16.1912 20.1537 15.4536 21.0605 15.4536H25.1419C26.0487 15.4536 26.7865 16.1913 26.7865 17.0981V17.1946H27.7443C28.2502 17.1946 28.6849 17.5042 28.8694 17.9437C28.8759 17.8761 28.8795 17.8076 28.8795 17.7382C28.8795 17.0501 28.5532 16.4384 28.0471 16.0486C28.5531 15.6587 28.8795 15.0471 28.8795 14.3589C28.8795 13.2507 28.0339 12.3402 26.9527 12.2369C26.9596 12.1674 26.9632 12.0969 26.9632 12.0257C26.9632 10.8481 26.0087 9.89355 24.8311 9.89355C24.1188 9.89355 23.4884 10.2432 23.1012 10.7799C22.7141 10.2432 22.0837 9.89355 21.3714 9.89355C20.1938 9.89355 19.2393 10.8481 19.2393 12.0257C19.2393 12.097 19.2429 12.1674 19.2498 12.2369C18.1686 12.3402 17.323 13.2507 17.323 14.359C17.323 15.0471 17.6493 15.6588 18.1553 16.0486C17.6493 16.4384 17.3229 17.05 17.3229 17.7382Z" fill="#554E56"/>
</g>
<g id="Group_31">
<g id="Group_32">
<path id="Vector_30" d="M28.0471 16.0486C28.5531 15.6587 28.8795 15.0471 28.8795 14.3589C28.8795 13.2507 28.0338 12.3402 26.9527 12.2369C26.9595 12.1674 26.9632 12.0969 26.9632 12.0257C26.9632 10.8481 26.0087 9.89355 24.8311 9.89355C24.4549 9.89355 24.1021 9.99187 23.7953 10.1629C24.4483 10.5274 24.8902 11.2247 24.8902 12.0257C24.8902 12.097 24.8866 12.1674 24.8797 12.2369C25.9608 12.3402 26.8065 13.2507 26.8065 14.3589C26.8065 14.9364 26.5761 15.4594 26.2032 15.8432C26.5597 16.1451 26.7865 16.5954 26.7865 17.098V17.1945H27.7443C28.2502 17.1945 28.6848 17.5041 28.8694 17.9437C28.8759 17.876 28.8795 17.8075 28.8795 17.7381C28.8795 17.05 28.5531 16.4384 28.0471 16.0486Z" fill="#433F43"/>
</g>
</g>
<g id="Group_33">
<g id="Group_34">
<path id="Vector_31" d="M23.9987 23.4708H22.2037C21.9572 23.4708 21.7181 23.4382 21.4903 23.3779V25.0117C21.4903 25.9014 22.2115 26.6226 23.1012 26.6226C23.9909 26.6226 24.7121 25.9014 24.7121 25.0117V23.3779C24.4843 23.4383 24.2452 23.4708 23.9987 23.4708Z" fill="#CA6E59"/>
</g>
<g id="Group_35">
<g id="Group_36">
<path id="Vector_32" d="M23.9987 23.4709H23.125V25.0117C23.125 25.6128 22.7956 26.1366 22.3076 26.4134C22.5419 26.5464 22.8126 26.6226 23.1012 26.6226C23.9909 26.6226 24.7121 25.9014 24.7121 25.0117V23.3779C24.4843 23.4384 24.2452 23.4709 23.9987 23.4709Z" fill="#BB5D4C"/>
</g>
</g>
<g id="Group_37">
<g id="Group_38">
<path id="Vector_33" d="M19.4084 17.125H18.4581C17.7458 17.125 17.1684 17.7024 17.1684 18.4148V18.9356C17.1684 19.6479 17.7458 20.2253 18.4581 20.2253H19.4084V17.125Z" fill="#BB5D4C"/>
<path id="Vector_34" d="M27.7443 17.125H26.7941V20.2253H27.7443C28.4566 20.2253 29.0341 19.6479 29.0341 18.9356V18.4148C29.0341 17.7024 28.4566 17.125 27.7443 17.125Z" fill="#BB5D4C"/>
</g>
<g id="Group_39">
<path id="Vector_35" d="M23.9987 23.5404H22.2037C20.6254 23.5404 19.3459 22.2609 19.3459 20.6826V17.0984C19.3459 16.1514 20.1135 15.3838 21.0605 15.3838H25.1419C26.0889 15.3838 26.8565 16.1514 26.8565 17.0984V20.6826C26.8565 22.2609 25.577 23.5404 23.9987 23.5404Z" fill="#D78878"/>
</g>
<g id="Group_40">
<path id="Vector_36" d="M25.1419 15.3838H23.8641C24.811 15.3838 25.5787 16.1514 25.5787 17.0984V20.6826C25.5787 22.2609 24.2992 23.5404 22.7209 23.5404H23.9987C25.577 23.5404 26.8565 22.2609 26.8565 20.6826V17.0984C26.8565 16.1515 26.0889 15.3838 25.1419 15.3838Z" fill="#CA6E59"/>
</g>
<g id="Group_41">
<g id="Group_42">
<path id="Vector_37" d="M21.445 18.9666C21.1861 18.9666 20.9762 18.7567 20.9762 18.4979V17.7373C20.9762 17.4784 21.1861 17.2686 21.445 17.2686C21.7039 17.2686 21.9137 17.4784 21.9137 17.7373V18.4979C21.9137 18.7567 21.7039 18.9666 21.445 18.9666Z" fill="#BB5D4C"/>
</g>
<g id="Group_43">
<path id="Vector_38" d="M24.7575 18.9666C24.4986 18.9666 24.2887 18.7567 24.2887 18.4979V17.7373C24.2887 17.4784 24.4986 17.2686 24.7575 17.2686C25.0164 17.2686 25.2262 17.4784 25.2262 17.7373V18.4979C25.2262 18.7567 25.0164 18.9666 24.7575 18.9666Z" fill="#BB5D4C"/>
</g>
</g>
<g id="Group_44">
<path id="Vector_39" d="M23.0666 22.1165C22.6412 22.1165 22.2026 21.9356 21.8838 21.6268C21.5997 21.3515 21.4437 21.0098 21.4447 20.6648C21.4454 20.4063 21.6551 20.1973 21.9134 20.1973H21.9147C22.1736 20.198 22.3829 20.4083 22.3822 20.6673C22.382 20.7528 22.4395 20.8599 22.5362 20.9536C22.6862 21.0989 22.8969 21.1853 23.0852 21.1787C23.0958 21.1783 23.1065 21.1783 23.1171 21.1787C23.3054 21.1848 23.5162 21.0988 23.6662 20.9535C23.7629 20.8598 23.8204 20.7528 23.8202 20.6673C23.8196 20.4084 24.0289 20.198 24.2877 20.1973H24.289C24.5473 20.1973 24.7571 20.4063 24.7577 20.6648C24.7587 21.0098 24.6027 21.3513 24.3187 21.6266C23.9913 21.9439 23.5378 22.1263 23.1012 22.1161C23.0897 22.1163 23.0781 22.1165 23.0666 22.1165Z" fill="#BB5D4C"/>
</g>
</g>
</g>
</g>
<g id="Group_45">
<path id="Vector_40" d="M7.01562 25.4102H5.24112C4.98224 25.4102 4.77237 25.2003 4.77237 24.9414C4.77237 24.6825 4.98224 24.4727 5.24112 24.4727H7.01562C7.27449 24.4727 7.48437 24.6825 7.48437 24.9414C7.48437 25.2003 7.27449 25.4102 7.01562 25.4102Z" fill="white"/>
</g>
<g id="Group_46">
<path id="Vector_41" d="M23.1013 20.0469C22.5843 20.0469 22.1638 19.6263 22.1638 19.1094C22.1638 18.5924 22.5843 18.1719 23.1013 18.1719C23.3601 18.1719 23.57 18.3817 23.57 18.6406C23.57 18.8995 23.3601 19.1094 23.1013 19.1094C23.3601 19.1094 23.57 19.3192 23.57 19.5781C23.57 19.837 23.3601 20.0469 23.1013 20.0469Z" fill="#BB5D4C"/>
</g>
<g id="Group_47">
<path id="Vector_42" d="M9.89874 10.0469C9.38181 10.0469 8.96124 9.62631 8.96124 9.10938C8.96124 8.59244 9.38181 8.17188 9.89874 8.17188C10.1576 8.17188 10.3675 8.38175 10.3675 8.64062C10.3675 8.8995 10.1576 9.10938 9.89874 9.10938C10.1576 9.10938 10.3675 9.31925 10.3675 9.57812C10.3675 9.837 10.1576 10.0469 9.89874 10.0469Z" fill="#F89580"/>
</g>
</g>
</g>
<defs>
<clipPath id="clip0_2590_24444">
<rect width="32" height="32" fill="white" transform="translate(0.5)"/>
</clipPath>
</defs>
</svg>
