<svg xmlns="http://www.w3.org/2000/svg" width="23" height="22" viewBox="0 0 23 22" fill="none">
  <path d="M19.1461 5H3.84221C3.09767 5 2.49414 5.61411 2.49414 6.37171V15.6283C2.49414 16.3858 3.09767 17 3.84221 17H19.1461C19.8906 17 20.4941 16.3859 20.4941 15.6283V6.37171C20.4941 5.61411 19.8906 5 19.1461 5Z" fill="#F5F5F5"/>
  <path d="M2.56738 5.92308H20.4191C20.2364 5.38588 19.7352 5 19.1452 5H3.8413C3.25124 5 2.75009 5.38588 2.56738 5.92308Z" fill="#FF4B55"/>
  <path d="M20.4941 8.69214H2.49414V9.61519H20.4941V8.69214Z" fill="#FF4B55"/>
  <path d="M20.4941 6.84595H2.49414V7.769H20.4941V6.84595Z" fill="#FF4B55"/>
  <path d="M2.49414 11.1456C2.49414 11.32 2.63311 11.4614 2.8045 11.4614H20.4941V10.5383H2.49414V11.1456Z" fill="#FF4B55"/>
  <path d="M20.4941 14.231H2.49414V15.154H20.4941V14.231Z" fill="#FF4B55"/>
  <path d="M20.4191 16.0769H2.56738C2.75009 16.6141 3.25128 17 3.8413 17H19.1452C19.7352 17 20.2364 16.6141 20.4191 16.0769Z" fill="#FF4B55"/>
  <path d="M20.4941 12.3848H2.49414V13.3078H20.4941V12.3848Z" fill="#FF4B55"/>
  <path d="M2.82749 12H11.1608C11.3449 12 11.4941 11.8468 11.4941 11.6579V5.34212C11.4941 5.15316 11.3449 5 11.1608 5H3.94206C3.14237 5.00004 2.49414 5.66533 2.49414 6.48606V11.6579C2.49414 11.8468 2.64341 12 2.82749 12Z" fill="#41479B"/>
  <path d="M3.65133 5.7247L3.72123 5.93433L3.9422 5.93602C3.97082 5.93627 3.98266 5.97275 3.95966 5.98975L3.7819 6.121L3.84858 6.33166C3.85724 6.35892 3.82615 6.38153 3.80286 6.36486L3.62311 6.2364L3.44335 6.3649C3.42006 6.38157 3.38904 6.35896 3.39763 6.3317L3.46431 6.12103L3.28655 5.98978C3.26355 5.97275 3.27539 5.93627 3.30401 5.93605L3.52498 5.93437L3.59488 5.72474C3.6039 5.69755 3.64224 5.69755 3.65133 5.7247Z" fill="#F5F5F5"/>
  <path d="M3.65133 6.82111L3.72123 7.03074L3.9422 7.03242C3.97082 7.03267 3.98266 7.06913 3.95966 7.08616L3.7819 7.21744L3.84858 7.42811C3.85724 7.45537 3.82615 7.47798 3.80286 7.46131L3.62311 7.33285L3.44335 7.46134C3.42006 7.47798 3.38904 7.4554 3.39763 7.42814L3.46431 7.21748L3.28655 7.08619C3.26355 7.06916 3.27539 7.03271 3.30401 7.03246L3.52498 7.03078L3.59488 6.82115C3.6039 6.794 3.64224 6.794 3.65133 6.82111Z" fill="#F5F5F5"/>
  <path d="M3.65133 7.91782L3.72123 8.12745L3.9422 8.12913C3.97082 8.12938 3.98266 8.16583 3.95966 8.18286L3.7819 8.31415L3.84858 8.52481C3.85724 8.55207 3.82615 8.57468 3.80286 8.55801L3.62311 8.42955L3.44335 8.55805C3.42006 8.57468 3.38904 8.55215 3.39763 8.52485L3.46431 8.31418L3.28655 8.1829C3.26355 8.16587 3.27539 8.12942 3.30401 8.12917L3.52498 8.12749L3.59488 7.91786C3.6039 7.89067 3.64224 7.89067 3.65133 7.91782Z" fill="#F5F5F5"/>
  <path d="M3.65133 9.0145L3.72123 9.22413L3.9422 9.22581C3.97082 9.22606 3.98266 9.26255 3.95966 9.27954L3.7819 9.41083L3.84858 9.62149C3.85724 9.64875 3.82615 9.67136 3.80286 9.65469L3.62311 9.52623L3.44335 9.65473C3.42006 9.67136 3.38904 9.64879 3.39763 9.62153L3.46431 9.41086L3.28655 9.27958C3.26355 9.26262 3.27539 9.2261 3.30401 9.22585L3.52498 9.22416L3.59488 9.01454C3.6039 8.98735 3.64224 8.98735 3.65133 9.0145Z" fill="#F5F5F5"/>
  <path d="M3.65133 10.1112L3.72123 10.3208L3.9422 10.3225C3.97082 10.3227 3.98266 10.3592 3.95966 10.3762L3.7819 10.5075L3.84858 10.7181C3.85724 10.7454 3.82615 10.768 3.80286 10.7513L3.62311 10.6229L3.44335 10.7514C3.42006 10.768 3.38904 10.7454 3.39763 10.7182L3.46431 10.5075L3.28655 10.3762C3.26355 10.3592 3.27539 10.3227 3.30401 10.3225L3.52498 10.3208L3.59488 10.1112C3.6039 10.084 3.64224 10.084 3.65133 10.1112Z" fill="#F5F5F5"/>
  <path d="M4.50289 6.26228L4.57279 6.47191L4.79376 6.47359C4.82238 6.47384 4.83422 6.51033 4.81122 6.52732L4.63346 6.65861L4.70014 6.86927C4.7088 6.89653 4.67771 6.91914 4.65443 6.90247L4.47467 6.77398L4.29491 6.90247C4.27162 6.91911 4.24061 6.89653 4.24919 6.86927L4.31587 6.65861L4.13812 6.52732C4.11511 6.51029 4.12696 6.47384 4.15557 6.47359L4.37654 6.47191L4.44644 6.26228C4.45546 6.23516 4.49384 6.23516 4.50289 6.26228Z" fill="#F5F5F5"/>
  <path d="M4.50289 7.35874L4.57279 7.56837L4.79376 7.57005C4.82238 7.5703 4.83422 7.60679 4.81122 7.62378L4.63346 7.75507L4.70014 7.96574C4.7088 7.993 4.67771 8.0156 4.65443 7.99893L4.47467 7.87044L4.29491 7.99893C4.27162 8.01557 4.24061 7.99303 4.24919 7.96574L4.31587 7.75507L4.13812 7.62378C4.11511 7.60683 4.12696 7.5703 4.15557 7.57005L4.37654 7.56837L4.44644 7.35874C4.45546 7.33159 4.49384 7.33159 4.50289 7.35874Z" fill="#F5F5F5"/>
  <path d="M4.50289 8.45542L4.57279 8.66505L4.79376 8.66673C4.82238 8.66698 4.83422 8.70344 4.81122 8.72046L4.63346 8.85175L4.70014 9.06242C4.7088 9.08968 4.67771 9.11228 4.65443 9.09561L4.47467 8.96712L4.29491 9.09561C4.27162 9.11225 4.24061 9.08968 4.24919 9.06242L4.31587 8.85175L4.13812 8.72046C4.11511 8.70344 4.12696 8.66698 4.15557 8.66673L4.37654 8.66505L4.44644 8.45542C4.45546 8.42827 4.49384 8.42827 4.50289 8.45542Z" fill="#F5F5F5"/>
  <path d="M4.50289 9.55208L4.57279 9.7617L4.79376 9.76339C4.82238 9.76364 4.83422 9.80009 4.81122 9.81712L4.63346 9.9484L4.70014 10.1591C4.7088 10.1863 4.67771 10.2089 4.65443 10.1923L4.47467 10.0638L4.29491 10.1923C4.27162 10.2089 4.24061 10.1863 4.24919 10.1591L4.31587 9.9484L4.13812 9.81712C4.11511 9.80009 4.12696 9.76364 4.15557 9.76339L4.37654 9.7617L4.44644 9.55208C4.45546 9.52496 4.49384 9.52496 4.50289 9.55208Z" fill="#F5F5F5"/>
  <path d="M5.35348 5.72471L5.42338 5.93434L5.64435 5.93602C5.67297 5.93627 5.68481 5.97276 5.66181 5.98975L5.48405 6.121L5.55073 6.33167C5.55939 6.35893 5.5283 6.38154 5.50501 6.36487L5.32525 6.23637L5.14549 6.36487C5.12221 6.38154 5.09119 6.35893 5.09978 6.33167L5.16646 6.121L4.9887 5.98975C4.9657 5.97272 4.97754 5.93623 5.00616 5.93602L5.22713 5.93434L5.29703 5.72471C5.30604 5.69756 5.34443 5.69756 5.35348 5.72471Z" fill="#F5F5F5"/>
  <path d="M5.35348 6.82112L5.42338 7.03075L5.64435 7.03243C5.67297 7.03268 5.68481 7.06913 5.66181 7.08616L5.48405 7.21745L5.55073 7.42811C5.55939 7.45537 5.5283 7.47798 5.50501 7.46131L5.32525 7.33281L5.14549 7.46131C5.12221 7.47794 5.09119 7.45537 5.09978 7.42811L5.16646 7.21745L4.9887 7.08616C4.9657 7.06913 4.97754 7.03268 5.00616 7.03243L5.22713 7.03075L5.29703 6.82112C5.30604 6.794 5.34443 6.794 5.35348 6.82112Z" fill="#F5F5F5"/>
  <path d="M5.35348 7.91782L5.42338 8.12745L5.64435 8.12914C5.67297 8.12939 5.68481 8.16584 5.66181 8.18287L5.48405 8.31415L5.55073 8.52482C5.55939 8.55208 5.5283 8.57469 5.50501 8.55802L5.32525 8.42952L5.14549 8.55802C5.12221 8.57465 5.09119 8.55211 5.09978 8.52482L5.16646 8.31415L4.9887 8.18287C4.9657 8.16584 4.97754 8.12939 5.00616 8.12914L5.22713 8.12745L5.29703 7.91782C5.30604 7.89067 5.34443 7.89067 5.35348 7.91782Z" fill="#F5F5F5"/>
  <path d="M5.35348 9.0145L5.42338 9.22413L5.64435 9.22581C5.67297 9.22607 5.68481 9.26255 5.66181 9.27955L5.48405 9.41083L5.55073 9.6215C5.55939 9.64876 5.5283 9.67137 5.50501 9.6547L5.32525 9.5262L5.14549 9.6547C5.12221 9.67133 5.09119 9.64876 5.09978 9.6215L5.16646 9.41083L4.9887 9.27955C4.9657 9.26259 4.97754 9.22607 5.00616 9.22581L5.22713 9.22413L5.29703 9.0145C5.30604 8.98735 5.34443 8.98735 5.35348 9.0145Z" fill="#F5F5F5"/>
  <path d="M5.35348 10.1112L5.42338 10.3208L5.64435 10.3225C5.67297 10.3227 5.68481 10.3592 5.66181 10.3762L5.48405 10.5075L5.55073 10.7182C5.55939 10.7454 5.5283 10.768 5.50501 10.7513L5.32525 10.6229L5.14549 10.7513C5.12221 10.768 5.09119 10.7454 5.09978 10.7182L5.16646 10.5075L4.9887 10.3762C4.9657 10.3592 4.97754 10.3227 5.00616 10.3225L5.22713 10.3208L5.29703 10.1112C5.30604 10.084 5.34443 10.084 5.35348 10.1112Z" fill="#F5F5F5"/>
  <path d="M6.20504 6.26228L6.27494 6.47191L6.49591 6.47359C6.52453 6.47384 6.53637 6.51033 6.51337 6.52732L6.33561 6.65861L6.40229 6.86927C6.41095 6.89653 6.37986 6.91914 6.35658 6.90247L6.17682 6.77398L5.99706 6.90247C5.97377 6.91911 5.94275 6.89653 5.95134 6.86927L6.01802 6.65861L5.84026 6.52732C5.81726 6.51029 5.8291 6.47384 5.85772 6.47359L6.07869 6.47191L6.14859 6.26228C6.15757 6.23516 6.19599 6.23516 6.20504 6.26228Z" fill="#F5F5F5"/>
  <path d="M6.20504 7.35874L6.27494 7.56837L6.49591 7.57005C6.52453 7.5703 6.53637 7.60679 6.51337 7.62378L6.33561 7.75507L6.40229 7.96574C6.41095 7.993 6.37986 8.0156 6.35658 7.99893L6.17682 7.87044L5.99706 7.99893C5.97377 8.01557 5.94275 7.99303 5.95134 7.96574L6.01802 7.75507L5.84026 7.62378C5.81726 7.60683 5.8291 7.5703 5.85772 7.57005L6.07869 7.56837L6.14859 7.35874C6.15757 7.33159 6.19599 7.33159 6.20504 7.35874Z" fill="#F5F5F5"/>
  <path d="M6.20504 8.45542L6.27494 8.66505L6.49591 8.66673C6.52453 8.66698 6.53637 8.70344 6.51337 8.72046L6.33561 8.85175L6.40229 9.06242C6.41095 9.08968 6.37986 9.11228 6.35658 9.09561L6.17682 8.96712L5.99706 9.09561C5.97377 9.11225 5.94275 9.08968 5.95134 9.06242L6.01802 8.85175L5.84026 8.72046C5.81726 8.70344 5.8291 8.66698 5.85772 8.66673L6.07869 8.66505L6.14859 8.45542C6.15757 8.42827 6.19599 8.42827 6.20504 8.45542Z" fill="#F5F5F5"/>
  <path d="M6.20504 9.55208L6.27494 9.7617L6.49591 9.76339C6.52453 9.76364 6.53637 9.80009 6.51337 9.81712L6.33561 9.9484L6.40229 10.1591C6.41095 10.1863 6.37986 10.2089 6.35658 10.1923L6.17682 10.0638L5.99706 10.1923C5.97377 10.2089 5.94275 10.1863 5.95134 10.1591L6.01802 9.9484L5.84026 9.81712C5.81726 9.80009 5.8291 9.76364 5.85772 9.76339L6.07869 9.7617L6.14859 9.55208C6.15757 9.52496 6.19599 9.52496 6.20504 9.55208Z" fill="#F5F5F5"/>
  <path d="M7.05566 5.7247L7.12556 5.93433L7.34653 5.93602C7.37515 5.93627 7.38699 5.97275 7.36399 5.98975L7.18623 6.121L7.25291 6.33166C7.26157 6.35892 7.23048 6.38153 7.2072 6.36486L7.0274 6.2364L6.84764 6.3649C6.82436 6.38157 6.79334 6.35896 6.80193 6.3317L6.86861 6.12103L6.69085 5.98978C6.66785 5.97275 6.67969 5.93627 6.70831 5.93605L6.92928 5.93437L6.99918 5.72474C7.00823 5.69755 7.04661 5.69755 7.05566 5.7247Z" fill="#F5F5F5"/>
  <path d="M7.05566 6.82112L7.12556 7.03075L7.34653 7.03243C7.37515 7.03268 7.38699 7.06913 7.36399 7.08616L7.18623 7.21745L7.25291 7.42811C7.26157 7.45537 7.23048 7.47798 7.2072 7.46131L7.0274 7.33281L6.84764 7.46131C6.82436 7.47794 6.79334 7.45537 6.80193 7.42811L6.86861 7.21745L6.69085 7.08616C6.66785 7.06913 6.67969 7.03268 6.70831 7.03243L6.92928 7.03075L6.99918 6.82112C7.00823 6.794 7.04661 6.794 7.05566 6.82112Z" fill="#F5F5F5"/>
  <path d="M7.05566 7.91783L7.12556 8.12746L7.34653 8.12914C7.37515 8.12939 7.38699 8.16584 7.36399 8.18287L7.18623 8.31416L7.25291 8.52482C7.26157 8.55208 7.23048 8.57469 7.2072 8.55802L7.0274 8.42949L6.84764 8.55798C6.82436 8.57462 6.79334 8.55205 6.80193 8.52479L6.86861 8.31412L6.69085 8.18283C6.66785 8.16581 6.67969 8.12935 6.70831 8.1291L6.92928 8.12742L6.99918 7.91779C7.00823 7.89068 7.04661 7.89068 7.05566 7.91783Z" fill="#F5F5F5"/>
  <path d="M7.05566 9.0145L7.12556 9.22413L7.34653 9.22581C7.37515 9.22607 7.38699 9.26255 7.36399 9.27955L7.18623 9.41083L7.25291 9.6215C7.26157 9.64876 7.23048 9.67137 7.2072 9.6547L7.0274 9.5262L6.84764 9.6547C6.82436 9.67133 6.79334 9.64876 6.80193 9.6215L6.86861 9.41083L6.69085 9.27955C6.66785 9.26259 6.67969 9.22607 6.70831 9.22581L6.92928 9.22413L6.99918 9.0145C7.00823 8.98735 7.04661 8.98735 7.05566 9.0145Z" fill="#F5F5F5"/>
  <path d="M7.05566 10.1112L7.12556 10.3208L7.34653 10.3225C7.37515 10.3227 7.38699 10.3592 7.36399 10.3762L7.18623 10.5075L7.25291 10.7182C7.26157 10.7454 7.23048 10.768 7.2072 10.7513L7.0274 10.6229L6.84764 10.7513C6.82436 10.768 6.79334 10.7454 6.80193 10.7182L6.86861 10.5075L6.69085 10.3762C6.66785 10.3592 6.67969 10.3227 6.70831 10.3225L6.92928 10.3208L6.99918 10.1112C7.00823 10.084 7.04661 10.084 7.05566 10.1112Z" fill="#F5F5F5"/>
  <path d="M7.90719 6.26228L7.97709 6.47191L8.19806 6.47359C8.22668 6.47384 8.23852 6.51033 8.21552 6.52732L8.03776 6.65861L8.10444 6.86927C8.1131 6.89653 8.08201 6.91914 8.05872 6.90247L7.87896 6.77398L7.69921 6.90247C7.67592 6.91911 7.6449 6.89653 7.65349 6.86927L7.72017 6.65861L7.54241 6.52732C7.51941 6.51029 7.53125 6.47384 7.55987 6.47359L7.78084 6.47191L7.85074 6.26228C7.85979 6.23516 7.89814 6.23516 7.90719 6.26228Z" fill="#F5F5F5"/>
  <path d="M7.90719 7.35874L7.97709 7.56837L8.19806 7.57005C8.22668 7.5703 8.23852 7.60679 8.21552 7.62378L8.03776 7.75507L8.10444 7.96574C8.1131 7.993 8.08201 8.0156 8.05872 7.99893L7.87896 7.87044L7.69921 7.99893C7.67592 8.01557 7.6449 7.99303 7.65349 7.96574L7.72017 7.75507L7.54241 7.62378C7.51941 7.60683 7.53125 7.5703 7.55987 7.57005L7.78084 7.56837L7.85074 7.35874C7.85979 7.33159 7.89814 7.33159 7.90719 7.35874Z" fill="#F5F5F5"/>
  <path d="M7.90719 8.45542L7.97709 8.66505L8.19806 8.66673C8.22668 8.66698 8.23852 8.70344 8.21552 8.72046L8.03776 8.85175L8.10444 9.06242C8.1131 9.08968 8.08201 9.11228 8.05872 9.09561L7.87896 8.96712L7.69921 9.09561C7.67592 9.11225 7.6449 9.08968 7.65349 9.06242L7.72017 8.85175L7.54241 8.72046C7.51941 8.70344 7.53125 8.66698 7.55987 8.66673L7.78084 8.66505L7.85074 8.45542C7.85979 8.42827 7.89814 8.42827 7.90719 8.45542Z" fill="#F5F5F5"/>
  <path d="M7.90719 9.55208L7.97709 9.7617L8.19806 9.76339C8.22668 9.76364 8.23852 9.80009 8.21552 9.81712L8.03776 9.9484L8.10444 10.1591C8.1131 10.1863 8.08201 10.2089 8.05872 10.1923L7.87896 10.0638L7.69921 10.1923C7.67592 10.2089 7.6449 10.1863 7.65349 10.1591L7.72017 9.9484L7.54241 9.81712C7.51941 9.80009 7.53125 9.76364 7.55987 9.76339L7.78084 9.7617L7.85074 9.55208C7.85979 9.52496 7.89814 9.52496 7.90719 9.55208Z" fill="#F5F5F5"/>
  <path d="M8.75778 5.72471L8.82768 5.93434L9.04864 5.93602C9.07726 5.93627 9.0891 5.97276 9.0661 5.98975L8.88835 6.121L8.95503 6.33167C8.96368 6.35893 8.9326 6.38154 8.90931 6.36487L8.72955 6.23637L8.54979 6.36487C8.5265 6.38154 8.49549 6.35893 8.50407 6.33167L8.57075 6.121L8.393 5.98975C8.37 5.97272 8.38184 5.93623 8.41046 5.93602L8.63143 5.93434L8.70133 5.72471C8.7103 5.69756 8.74872 5.69756 8.75778 5.72471Z" fill="#F5F5F5"/>
  <path d="M8.75778 6.82112L8.82768 7.03075L9.04864 7.03243C9.07726 7.03268 9.0891 7.06913 9.0661 7.08616L8.88835 7.21745L8.95503 7.42811C8.96368 7.45537 8.9326 7.47798 8.90931 7.46131L8.72955 7.33281L8.54979 7.46131C8.5265 7.47794 8.49549 7.45537 8.50407 7.42811L8.57075 7.21745L8.393 7.08616C8.37 7.06913 8.38184 7.03268 8.41046 7.03243L8.63143 7.03075L8.70133 6.82112C8.7103 6.794 8.74872 6.794 8.75778 6.82112Z" fill="#F5F5F5"/>
  <path d="M8.75778 7.91782L8.82768 8.12745L9.04864 8.12914C9.07726 8.12939 9.0891 8.16584 9.0661 8.18287L8.88835 8.31415L8.95503 8.52482C8.96368 8.55208 8.9326 8.57469 8.90931 8.55802L8.72955 8.42952L8.54979 8.55802C8.5265 8.57465 8.49549 8.55211 8.50407 8.52482L8.57075 8.31415L8.393 8.18287C8.37 8.16584 8.38184 8.12939 8.41046 8.12914L8.63143 8.12745L8.70133 7.91782C8.7103 7.89067 8.74872 7.89067 8.75778 7.91782Z" fill="#F5F5F5"/>
  <path d="M8.75778 9.0145L8.82768 9.22413L9.04864 9.22581C9.07726 9.22607 9.0891 9.26255 9.0661 9.27955L8.88835 9.41083L8.95503 9.6215C8.96368 9.64876 8.9326 9.67137 8.90931 9.6547L8.72955 9.5262L8.54979 9.6547C8.5265 9.67133 8.49549 9.64876 8.50407 9.6215L8.57075 9.41083L8.393 9.27955C8.37 9.26259 8.38184 9.22607 8.41046 9.22581L8.63143 9.22413L8.70133 9.0145C8.7103 8.98735 8.74872 8.98735 8.75778 9.0145Z" fill="#F5F5F5"/>
  <path d="M8.75778 10.1112L8.82768 10.3208L9.04864 10.3225C9.07726 10.3227 9.0891 10.3592 9.0661 10.3762L8.88835 10.5075L8.95503 10.7182C8.96368 10.7454 8.9326 10.768 8.90931 10.7513L8.72955 10.6229L8.54979 10.7513C8.5265 10.768 8.49549 10.7454 8.50407 10.7182L8.57075 10.5075L8.393 10.3762C8.37 10.3592 8.38184 10.3227 8.41046 10.3225L8.63143 10.3208L8.70133 10.1112C8.7103 10.084 8.74872 10.084 8.75778 10.1112Z" fill="#F5F5F5"/>
  <path d="M9.60934 6.26228L9.67924 6.47191L9.90021 6.47359C9.92883 6.47384 9.94067 6.51033 9.91766 6.52732L9.73991 6.65861L9.80659 6.86927C9.81525 6.89653 9.78416 6.91914 9.76087 6.90247L9.58111 6.77398L9.40135 6.90247C9.37807 6.91911 9.34705 6.89653 9.35564 6.86927L9.42232 6.65861L9.24456 6.52732C9.22156 6.51029 9.2334 6.47384 9.26202 6.47359L9.48299 6.47191L9.55289 6.26228C9.5619 6.23516 9.60029 6.23516 9.60934 6.26228Z" fill="#F5F5F5"/>
  <path d="M9.60934 7.35874L9.67924 7.56837L9.90021 7.57005C9.92883 7.5703 9.94067 7.60679 9.91766 7.62378L9.73991 7.75507L9.80659 7.96574C9.81525 7.993 9.78416 8.0156 9.76087 7.99893L9.58111 7.87044L9.40135 7.99893C9.37807 8.01557 9.34705 7.99303 9.35564 7.96574L9.42232 7.75507L9.24456 7.62378C9.22156 7.60683 9.2334 7.5703 9.26202 7.57005L9.48299 7.56837L9.55289 7.35874C9.5619 7.33159 9.60029 7.33159 9.60934 7.35874Z" fill="#F5F5F5"/>
  <path d="M9.60934 8.45542L9.67924 8.66505L9.90021 8.66673C9.92883 8.66698 9.94067 8.70344 9.91766 8.72046L9.73991 8.85175L9.80659 9.06242C9.81525 9.08968 9.78416 9.11228 9.76087 9.09561L9.58111 8.96712L9.40135 9.09561C9.37807 9.11225 9.34705 9.08968 9.35564 9.06242L9.42232 8.85175L9.24456 8.72046C9.22156 8.70344 9.2334 8.66698 9.26202 8.66673L9.48299 8.66505L9.55289 8.45542C9.5619 8.42827 9.60029 8.42827 9.60934 8.45542Z" fill="#F5F5F5"/>
  <path d="M9.60934 9.55208L9.67924 9.7617L9.90021 9.76339C9.92883 9.76364 9.94067 9.80009 9.91766 9.81712L9.73991 9.9484L9.80659 10.1591C9.81525 10.1863 9.78416 10.2089 9.76087 10.1923L9.58111 10.0638L9.40135 10.1923C9.37807 10.2089 9.34705 10.1863 9.35564 10.1591L9.42232 9.9484L9.24456 9.81712C9.22156 9.80009 9.2334 9.76364 9.26202 9.76339L9.48299 9.7617L9.55289 9.55208C9.5619 9.52496 9.60029 9.52496 9.60934 9.55208Z" fill="#F5F5F5"/>
  <path d="M10.4609 5.72471L10.5308 5.93434L10.7518 5.93602C10.7804 5.93627 10.7922 5.97276 10.7692 5.98975L10.5915 6.121L10.6582 6.33167C10.6668 6.35893 10.6357 6.38154 10.6124 6.36487L10.4327 6.23637L10.2529 6.36487C10.2296 6.38154 10.1986 6.35893 10.2072 6.33167L10.2739 6.121L10.0961 5.98975C10.0731 5.97272 10.085 5.93623 10.1136 5.93602L10.3346 5.93434L10.4045 5.72471C10.4135 5.69756 10.4518 5.69756 10.4609 5.72471Z" fill="#F5F5F5"/>
  <path d="M10.4609 6.82112L10.5308 7.03075L10.7518 7.03243C10.7804 7.03268 10.7922 7.06913 10.7692 7.08616L10.5915 7.21745L10.6582 7.42811C10.6668 7.45537 10.6357 7.47798 10.6124 7.46131L10.4327 7.33281L10.2529 7.46131C10.2296 7.47794 10.1986 7.45537 10.2072 7.42811L10.2739 7.21745L10.0961 7.08616C10.0731 7.06913 10.085 7.03268 10.1136 7.03243L10.3346 7.03075L10.4045 6.82112C10.4135 6.794 10.4518 6.794 10.4609 6.82112Z" fill="#F5F5F5"/>
  <path d="M10.4609 7.91782L10.5308 8.12745L10.7518 8.12914C10.7804 8.12939 10.7922 8.16584 10.7692 8.18287L10.5915 8.31415L10.6582 8.52482C10.6668 8.55208 10.6357 8.57469 10.6124 8.55802L10.4327 8.42952L10.2529 8.55802C10.2296 8.57465 10.1986 8.55211 10.2072 8.52482L10.2739 8.31415L10.0961 8.18287C10.0731 8.16584 10.085 8.12939 10.1136 8.12914L10.3346 8.12745L10.4045 7.91782C10.4135 7.89067 10.4518 7.89067 10.4609 7.91782Z" fill="#F5F5F5"/>
  <path d="M10.4609 9.0145L10.5308 9.22413L10.7518 9.22581C10.7804 9.22607 10.7922 9.26255 10.7692 9.27955L10.5915 9.41083L10.6582 9.6215C10.6668 9.64876 10.6357 9.67137 10.6124 9.6547L10.4327 9.5262L10.2529 9.6547C10.2296 9.67133 10.1986 9.64876 10.2072 9.6215L10.2739 9.41083L10.0961 9.27955C10.0731 9.26259 10.085 9.22607 10.1136 9.22581L10.3346 9.22413L10.4045 9.0145C10.4135 8.98735 10.4518 8.98735 10.4609 9.0145Z" fill="#F5F5F5"/>
  <path d="M10.4609 10.1112L10.5308 10.3208L10.7518 10.3225C10.7804 10.3227 10.7922 10.3592 10.7692 10.3762L10.5915 10.5075L10.6582 10.7182C10.6668 10.7454 10.6357 10.768 10.6124 10.7513L10.4327 10.6229L10.2529 10.7513C10.2296 10.768 10.1986 10.7454 10.2072 10.7182L10.2739 10.5075L10.0961 10.3762C10.0731 10.3592 10.085 10.3227 10.1136 10.3225L10.3346 10.3208L10.4045 10.1112C10.4135 10.084 10.4518 10.084 10.4609 10.1112Z" fill="#F5F5F5"/>
</svg>