<svg xmlns="http://www.w3.org/2000/svg" width="23" height="22" viewBox="0 0 23 22" fill="none">
  <path d="M19.2806 5H3.7086C2.95102 5 2.33691 5.6141 2.33691 6.37169V8.99991H20.6523V6.37169C20.6523 5.6141 20.0382 5 19.2806 5Z" fill="#FAB446"/>
  <path d="M2.33691 15.6282C2.33691 16.3858 2.95102 16.9999 3.7086 16.9999H19.2806C20.0382 16.9999 20.6523 16.3858 20.6523 15.6282V13H2.33691V15.6282Z" fill="#73AF00"/>
  <path d="M20.6523 9H2.33691V12.9997H20.6523V9Z" fill="#F5F5F5"/>
  <path d="M11.4942 12.6969C10.5583 12.6969 9.79688 11.9355 9.79688 10.9996C9.79688 10.0636 10.5583 9.30225 11.4942 9.30225C12.4301 9.30225 13.1915 10.0636 13.1915 10.9996C13.1915 11.9355 12.4301 12.6969 11.4942 12.6969ZM11.4942 9.61801C10.7323 9.61801 10.1126 10.2377 10.1126 10.9996C10.1126 11.7614 10.7323 12.3811 11.4942 12.3811C12.2561 12.3811 12.8758 11.7614 12.8758 10.9996C12.8758 10.2377 12.2561 9.61801 11.4942 9.61801Z" fill="#41479B"/>
  <path d="M11.4942 11.192C11.6004 11.192 11.6866 11.1058 11.6866 10.9995C11.6866 10.8933 11.6004 10.8071 11.4942 10.8071C11.3879 10.8071 11.3018 10.8933 11.3018 10.9995C11.3018 11.1058 11.3879 11.192 11.4942 11.192Z" fill="#41479B"/>
  <path d="M11.4945 11.0285L11.0055 11.0779L9.95508 11.0285V10.9708L11.0055 10.9214L11.4945 10.9708V11.0285Z" fill="#41479B"/>
  <path d="M11.4941 11.0285L11.9831 11.0779L13.0336 11.0285V10.9708L11.9831 10.9214L11.4941 10.9708V11.0285Z" fill="#41479B"/>
  <path d="M11.4654 10.9996L11.416 10.5106L11.4654 9.46021H11.5231L11.5725 10.5106L11.5231 10.9996H11.4654Z" fill="#41479B"/>
  <path d="M11.4654 10.9995L11.416 11.4885L11.4654 12.5389H11.5231L11.5725 11.4885L11.5231 10.9995H11.4654Z" fill="#41479B"/>
  <path d="M11.4743 11.02L11.0936 10.7091L10.3857 9.93144L10.4266 9.89062L11.2042 10.5985L11.5151 10.9792L11.4743 11.02Z" fill="#41479B"/>
  <path d="M11.4736 11.02L11.7845 11.4007L12.5621 12.1086L12.603 12.0678L11.8951 11.2901L11.5144 10.9792L11.4736 11.02Z" fill="#41479B"/>
  <path d="M11.4736 10.9792L11.7845 10.5985L12.5621 9.89062L12.603 9.93144L11.8951 10.7091L11.5144 11.02L11.4736 10.9792Z" fill="#41479B"/>
  <path d="M11.4743 10.9792L11.0936 11.2901L10.3857 12.0678L10.4266 12.1086L11.2042 11.4007L11.5151 11.02L11.4743 10.9792Z" fill="#41479B"/>
  <path d="M11.5059 11.0263L11.0729 11.259L10.0836 11.6154L10.0615 11.562L11.0131 11.1145L11.4838 10.9729L11.5059 11.0263Z" fill="#41479B"/>
  <path d="M11.5055 11.0263L11.9762 10.8847L12.9277 10.4371L12.9056 10.3838L11.9163 10.7402L11.4834 10.9729L11.5055 11.0263Z" fill="#41479B"/>
  <path d="M11.467 11.0105L11.2343 10.5776L10.8779 9.58827L10.9313 9.56616L11.3788 10.5177L11.5204 10.9884L11.467 11.0105Z" fill="#41479B"/>
  <path d="M11.4678 11.0106L11.6093 11.4813L12.0569 12.4329L12.1102 12.4108L11.7539 11.4214L11.5211 10.9885L11.4678 11.0106Z" fill="#41479B"/>
  <path d="M11.4838 11.0263L11.0131 10.8847L10.0615 10.4371L10.0836 10.3838L11.0729 10.7402L11.5059 10.9729L11.4838 11.0263Z" fill="#41479B"/>
  <path d="M11.4834 11.0263L11.9163 11.259L12.9056 11.6154L12.9277 11.562L11.9762 11.1145L11.5055 10.9729L11.4834 11.0263Z" fill="#41479B"/>
  <path d="M11.4678 10.9884L11.6093 10.5177L12.0569 9.56616L12.1102 9.58827L11.7539 10.5776L11.5211 11.0105L11.4678 10.9884Z" fill="#41479B"/>
  <path d="M11.467 10.9885L11.2343 11.4214L10.8779 12.4108L10.9313 12.4329L11.3788 11.4813L11.5204 11.0106L11.467 10.9885Z" fill="#41479B"/>
</svg>