<svg xmlns="http://www.w3.org/2000/svg" width="23" height="22" viewBox="0 0 23 22" fill="none">
  <path d="M7.88477 5.5V16.5H18.635C18.871 16.5001 19.1046 16.4536 19.3226 16.3634C19.5406 16.2731 19.7387 16.1407 19.9055 15.9739C20.0724 15.8071 20.2047 15.609 20.295 15.391C20.3853 15.173 20.4317 14.9393 20.4316 14.7034V7.29663C20.4317 7.06068 20.3853 6.82703 20.295 6.60902C20.2047 6.39102 20.0724 6.19294 19.9055 6.02609C19.7387 5.85925 19.5406 5.72691 19.3226 5.63664C19.1046 5.54638 18.871 5.49994 18.635 5.5H7.88477Z" fill="#005522"/>
  <path d="M12.9407 7.20386C12.1507 7.49572 11.4691 8.02254 10.9875 8.71345C10.5059 9.40436 10.2475 10.2262 10.2471 11.0684C10.2471 11.6097 10.3537 12.1458 10.5608 12.6459C10.768 13.1461 11.0716 13.6005 11.4544 13.9833C11.8372 14.3661 12.2917 14.6698 12.7918 14.8769C13.292 15.0841 13.828 15.1907 14.3694 15.1907C15.0793 15.1902 15.777 15.0064 16.395 14.657C17.013 14.3077 17.5303 13.8046 17.8969 13.1967C17.1788 13.8546 16.2403 14.2196 15.2664 14.2199C14.7548 14.2199 14.2483 14.1191 13.7757 13.9233C13.303 13.7276 12.8736 13.4406 12.5119 13.0789C12.1502 12.7172 11.8632 12.2878 11.6675 11.8152C11.4717 11.3426 11.371 10.836 11.371 10.3245C11.3716 9.71802 11.5139 9.12011 11.7864 8.57835C12.0589 8.03658 12.4542 7.56592 12.9407 7.20386Z" fill="#F2F2F2"/>
  <path d="M17.8966 9.89343L16.8445 9.83546L16.4903 10.8279L16.2203 9.80932L15.167 9.77913L16.0522 9.2076L15.7555 8.19653L16.5726 8.86185L17.4424 8.26716L17.0622 9.24987L17.8966 9.89343Z" fill="#F2F2F2"/>
  <path d="M4.35327 5.5C4.11732 5.49994 3.88367 5.54638 3.66566 5.63664C3.44766 5.72691 3.24958 5.85925 3.08274 6.02609C2.91589 6.19294 2.78355 6.39102 2.69329 6.60902C2.60302 6.82703 2.55658 7.06068 2.55664 7.29663V14.7034C2.55658 14.9393 2.60302 15.173 2.69328 15.391C2.78355 15.609 2.91589 15.8071 3.08273 15.9739C3.24958 16.1408 3.44766 16.2731 3.66566 16.3634C3.88367 16.4536 4.11732 16.5001 4.35327 16.5H7.88477V5.5H4.35327Z" fill="#F2F2F2"/><</svg>